<svg xmlns="http://www.w3.org/2000/svg" xmlns:xlink="http://www.w3.org/1999/xlink" width="253.379" height="259.64" viewBox="0 0 253.379 259.64">
  <defs>
    <clipPath id="clip-path">
      <path id="Union_18" data-name="Union 18" d="M0,154.777A104.956,104.956,0,0,1,125.048,51.855q.213-5.089.645-12.173c.012-.181.026-.366.043-.549a4.193,4.193,0,0,1-2.487-.909,4.017,4.017,0,0,1-1.455-2.2,4.2,4.2,0,0,1,2.618-4.765,4.215,4.215,0,0,1,3.012-7.215,3.914,3.914,0,0,1,.535.037,5.14,5.14,0,0,1,2.555-4.272,5.148,5.148,0,0,1,4.979,0,5.574,5.574,0,0,1,3.674-1.341,5.48,5.48,0,0,1,3.31,1.073,3.749,3.749,0,0,1,.748-.074,4.187,4.187,0,0,1,3.6,2.1,3.721,3.721,0,0,1,.274.644,5.8,5.8,0,0,1,2.641-.642,5.415,5.415,0,0,1,1.1.112,5.7,5.7,0,0,1,4.025,3.29,3.89,3.89,0,0,1,1.061-.146A4.064,4.064,0,0,1,159.58,30.8a3.909,3.909,0,0,1,2.19,3.039,2.413,2.413,0,0,1-.69,1.716,1.953,1.953,0,0,1-1.39.645,1.579,1.579,0,0,1-.158-.008,61.261,61.261,0,0,1-.076,9.71,6.493,6.493,0,0,1-.669,2.506h.009c1.674.127,3.66,1.033,3.614,4.63a4.9,4.9,0,0,1-1.7,4.084,5.109,5.109,0,0,1-3.075.918c-.223,0-.448-.011-.666-.033l-.169,5.644a105.127,105.127,0,0,1,17.784,12.788L190.787,46.6c-10.434-7.46-15.822-11.389-16.012-11.676L232.8,0h19.885l.692,76.92H233.494L230.357,74.7l-25.71,47.747A104.875,104.875,0,1,1,0,154.777ZM187.34,90.012l23.509-43.286L187.34,90.011Z" transform="translate(7931.5 15254.297)" fill="#fff" stroke="#707070" stroke-width="1" opacity="0.4"/>
    </clipPath>
    <clipPath id="clip-path-2">
      <path id="path258" d="M125.982-172.864h0l9.382-6.958h0l-9.382,6.958" transform="translate(-125.982 179.822)"/>
    </clipPath>
  </defs>
  <g id="Mask_Group_45" data-name="Mask Group 45" transform="translate(-7931.5 -15254.297)" clip-path="url(#clip-path)">
    <g id="Group_3433" data-name="Group 3433" transform="translate(7867.578 15188.89)">
      <g id="Rectangle_647" data-name="Rectangle 647" transform="translate(58.095 85.177)" fill="#fad8d8" stroke="#707070" stroke-width="1">
        <rect width="287" height="274" stroke="none"/>
        <rect x="0.5" y="0.5" width="286" height="273" fill="none"/>
      </g>
      <g id="g10" transform="translate(0 0)">
        <g id="g12" transform="translate(0 0)">
          <path id="path14" d="M37.39-110.843H78.767V-266.635H37.39Z" transform="translate(-15.486 457.942)" fill="#f3f2f1"/>
          <path id="path18" d="M569.337-132.381H527.959V-316.562h41.378v184.181" transform="translate(-218.667 478.62)" fill="#f3f2f1"/>
          <path id="path24" d="M339.4-564.644s-.2.212-.6.614l-1.8,1.779-6.988,6.842-26,25.364-88.083,85.728-.155.152-.139-.166-21.541-25.807L138.8-536.414l.3-.016L91.224-464.47l-13.63,20.431-3.625,5.407-.938,1.386c-.212.31-.326.464-.326.464s.1-.165.3-.48l.913-1.4L77.5-444.1l13.543-20.489,47.749-72.042.137-.206.159.191L194.4-470.4l21.536,25.811-.294-.016,88.178-85.63c11.081-10.736,19.966-19.346,26.087-25.277l7.037-6.792,1.829-1.752c.413-.393.63-.587.63-.587" transform="translate(-30.113 581.37)" fill="#e7e8e5"/>
          <path id="path26" d="M188.022-522.087a7.678,7.678,0,0,1-7.678,7.677,7.677,7.677,0,0,1-7.677-7.677,7.678,7.678,0,0,1,7.677-7.678,7.678,7.678,0,0,1,7.678,7.678" transform="translate(-71.514 566.924)" fill="#e7e8e5"/>
          <path id="path28" d="M74.955-351.814a7.678,7.678,0,0,1-7.678,7.677,7.677,7.677,0,0,1-7.678-7.677,7.678,7.678,0,0,1,7.678-7.678,7.678,7.678,0,0,1,7.678,7.678" transform="translate(-24.685 496.401)" fill="#e7e8e5"/>
          <path id="path30" d="M319.188-364.92a7.678,7.678,0,0,1-7.678,7.678,7.678,7.678,0,0,1-7.677-7.678,7.678,7.678,0,0,1,7.677-7.677,7.678,7.678,0,0,1,7.678,7.677" transform="translate(-125.84 501.829)" fill="#e7e8e5"/>
          <path id="path32" d="M536.9-575.069a7.677,7.677,0,0,1-7.677,7.678,7.678,7.678,0,0,1-7.678-7.678,7.678,7.678,0,0,1,7.678-7.677,7.677,7.677,0,0,1,7.677,7.677" transform="translate(-216.012 588.867)" fill="#e7e8e5"/>
          <path id="path34" d="M48.215-536.473A10.659,10.659,0,0,0,48.48-521.4a10.658,10.658,0,0,0,15.071-.265,10.659,10.659,0,0,0-.265-15.071A10.659,10.659,0,0,0,48.215-536.473Zm-5.3-13.233a24.336,24.336,0,0,1,5.94-2.581l1.224-5.88,9.934-.174,1.43,5.832a24.345,24.345,0,0,1,6.028,2.371l5.02-3.291,7.148,6.9L76.531-541.4a24.309,24.309,0,0,1,2.581,5.942l5.879,1.223.174,9.934-5.833,1.43a24.337,24.337,0,0,1-2.371,6.027l3.29,5.021-6.9,7.148-5.133-3.112a24.313,24.313,0,0,1-5.941,2.581l-1.224,5.88-9.934.174-1.43-5.832a24.379,24.379,0,0,1-6.027-2.372l-5.021,3.291-7.148-6.9,3.112-5.133a24.319,24.319,0,0,1-2.582-5.941l-5.879-1.224-.174-9.934,5.833-1.43a24.357,24.357,0,0,1,2.371-6.027l-3.291-5.021,6.9-7.148,5.134,3.113" transform="translate(-10.757 578.76)" fill="#e7e8e5"/>
          <path id="path36" d="M326.464-565.377a13.246,13.246,0,0,0,.329,18.731,13.246,13.246,0,0,0,18.732-.33,13.247,13.247,0,0,0-.33-18.731A13.246,13.246,0,0,0,326.464-565.377Zm-6.582-16.448a30.256,30.256,0,0,1,7.383-3.209l1.521-7.308,12.348-.216,1.776,7.249a30.222,30.222,0,0,1,7.492,2.947l6.24-4.091,8.883,8.578-3.867,6.378a30.244,30.244,0,0,1,3.208,7.385l7.307,1.52.217,12.348-7.249,1.777a30.25,30.25,0,0,1-2.947,7.491l4.09,6.241-8.577,8.883-6.379-3.868a30.227,30.227,0,0,1-7.385,3.209l-1.521,7.308-12.347.216-1.777-7.25a30.257,30.257,0,0,1-7.492-2.947l-6.24,4.091-8.883-8.578,3.868-6.378a30.232,30.232,0,0,1-3.21-7.385l-7.307-1.521-.216-12.347,7.249-1.778a30.294,30.294,0,0,1,2.947-7.491l-4.09-6.24,8.576-8.884,6.381,3.869" transform="translate(-123.763 592.931)" fill="#f3f2f1"/>
          <path id="path38" d="M132.484-581.748a5.579,5.579,0,0,0,.138,7.889,5.579,5.579,0,0,0,7.888-.139,5.579,5.579,0,0,0-.138-7.888A5.579,5.579,0,0,0,132.484-581.748Zm-2.772-6.927a12.746,12.746,0,0,1,3.11-1.351l.641-3.078,5.2-.091.748,3.053a12.736,12.736,0,0,1,3.155,1.241l2.628-1.722,3.741,3.613-1.629,2.686a12.717,12.717,0,0,1,1.351,3.11l3.078.64.091,5.2-3.053.748a12.747,12.747,0,0,1-1.241,3.155l1.722,2.628-3.612,3.741-2.686-1.629a12.715,12.715,0,0,1-3.11,1.351L139.2-562.3l-5.2.091-.748-3.053a12.751,12.751,0,0,1-3.155-1.242l-2.628,1.723-3.741-3.613,1.629-2.686a12.733,12.733,0,0,1-1.351-3.109l-3.077-.641-.091-5.2,3.053-.748a12.764,12.764,0,0,1,1.241-3.155l-1.722-2.628,3.612-3.741,2.687,1.628" transform="translate(-50.05 593.195)" fill="#f3f2f1"/>
          <path id="path40" d="M544.692-487.253a7.545,7.545,0,0,0,.187,10.668,7.545,7.545,0,0,0,10.668-.188,7.545,7.545,0,0,0-.187-10.668,7.545,7.545,0,0,0-10.668.188m-3.748-9.368a17.218,17.218,0,0,1,4.2-1.828l.866-4.162,7.032-.123,1.012,4.128a17.218,17.218,0,0,1,4.267,1.679l3.554-2.33,5.059,4.885-2.2,3.634a17.223,17.223,0,0,1,1.828,4.205l4.161.866.124,7.031-4.129,1.012a17.24,17.24,0,0,1-1.679,4.266l2.329,3.554-4.885,5.06-3.633-2.2a17.26,17.26,0,0,1-4.205,1.827l-.866,4.162-7.032.123-1.012-4.129a17.227,17.227,0,0,1-4.266-1.679l-3.554,2.33-5.06-4.886,2.2-3.633a17.177,17.177,0,0,1-1.827-4.205l-4.162-.866-.123-7.031,4.129-1.012a17.258,17.258,0,0,1,1.679-4.266l-2.329-3.554,4.885-5.06,3.634,2.2" transform="translate(-219.076 555.728)" fill="#f3f2f1"/>
          <path id="path42" d="M364.305-.491c0,.113-81.559.2-182.144.2C81.541-.288,0-.378,0-.491s81.541-.2,182.162-.2c100.584,0,182.144.092,182.144.2" transform="translate(0 347.796)" fill="#17282f"/>
          <path id="path44" d="M405.573-35.47h64.113a2.112,2.112,0,0,0,2.107-2.26l-3.2-45.373a2.112,2.112,0,0,0-2.1-1.963l-58.857-.084a2.112,2.112,0,0,0-2.113,2.016l-2.055,45.457a2.112,2.112,0,0,0,2.11,2.207" transform="translate(-167.103 382.776)" fill="#17282f"/>
          <path id="path46" d="M422.038-35.41c.1,0,.179-11.1.179-24.8s-.08-24.8-.179-24.8-.179,11.1-.179,24.8.08,24.8.179,24.8" transform="translate(-174.723 382.715)" fill="#33535f"/>
          <path id="path48" d="M423.46-83.622a.858.858,0,0,0,.1.181l.313.513,1.237,1.948c1.09,1.681,2.673,4.114,4.809,7a55.4,55.4,0,0,0,8.512,9.279,36.436,36.436,0,0,0,6.154,4.205,19.9,19.9,0,0,0,7.629,2.389,17.277,17.277,0,0,0,7.873-1.364,25.622,25.622,0,0,0,6.408-3.813,27.96,27.96,0,0,0,7.651-9.94,26.417,26.417,0,0,0,2.265-8.169c.044-.5.095-.943.116-1.329q.007-.569.012-.977v-.6a.881.881,0,0,0-.012-.2.9.9,0,0,0-.024.2c-.009.155-.021.352-.035.6q-.02.406-.047.972c-.032.384-.094.824-.148,1.32a27.192,27.192,0,0,1-2.357,8.08,27.972,27.972,0,0,1-7.629,9.79A25.419,25.419,0,0,1,459.95-59.8a16.976,16.976,0,0,1-7.712,1.332,19.618,19.618,0,0,1-7.495-2.342,36.447,36.447,0,0,1-6.105-4.148,56.453,56.453,0,0,1-8.522-9.178c-2.156-2.856-3.769-5.266-4.894-6.922l-1.294-1.912-.342-.493a.859.859,0,0,0-.127-.161" transform="translate(-175.386 382.51)" fill="#33535f"/>
          <path id="path50" d="M468.749-41.458a2.942,2.942,0,0,0,2.942,2.942,2.942,2.942,0,0,0,2.942-2.942,2.942,2.942,0,0,0-2.942-2.942,2.942,2.942,0,0,0-2.942,2.942" transform="translate(-194.144 365.898)" fill="#33535f"/>
          <path id="path52" d="M438.051-102.066a7.835,7.835,0,0,1,4.631-1.728,20.781,20.781,0,0,1,11.977,2.436,19.791,19.791,0,0,1,7.828,8.989l-2.311,2.419a15.3,15.3,0,0,0-6.328-9.287,14.491,14.491,0,0,0-10.625-2.532,7.793,7.793,0,0,0-2.888.993,3.427,3.427,0,0,0-1.476,3.857,8.556,8.556,0,0,0,1.971,4.573l-3.8.089a19.383,19.383,0,0,1-.832-5.109,6.53,6.53,0,0,1,1.854-4.7" transform="translate(-180.661 390.537)" fill="#17282f"/>
          <path id="path54" d="M312.288-31.409H287.982v-9.576h24.306v9.576" transform="translate(-119.275 364.484)" fill="#fafaf9"/>
          <path id="path56" d="M362.588-41.786H286.254v-2.006h76.334v2.006" transform="translate(-118.559 365.646)" fill="#33535f"/>
          <path id="path58" d="M362.839-23.362H286.858v-2.006h75.981v2.006" transform="translate(-118.809 358.015)" fill="#33535f"/>
          <path id="path60" d="M329.473-42.977l.115,11.939h50.9V-42.977H329.473" transform="translate(-136.459 365.309)" fill="#33535f"/>
          <path id="path62" d="M346.7-34.909a2.868,2.868,0,0,1-2.752,2.972,2.868,2.868,0,0,1-2.751-2.972,2.868,2.868,0,0,1,2.751-2.971,2.868,2.868,0,0,1,2.752,2.971" transform="translate(-141.315 363.197)" fill="#17282f"/>
          <path id="path64" d="M343.646-37.754a2.444,2.444,0,0,0-2.324,2.544,2.445,2.445,0,0,0,2.324,2.545,2.446,2.446,0,0,0,2.325-2.545A2.445,2.445,0,0,0,343.646-37.754Zm0,5.942a3.3,3.3,0,0,1-3.178-3.4,3.3,3.3,0,0,1,3.178-3.4,3.3,3.3,0,0,1,3.178,3.4,3.3,3.3,0,0,1-3.178,3.4" transform="translate(-141.013 363.499)" fill="#dadbd8"/>
          <path id="path66" d="M310.583-28.8c0,.123-4.994.223-11.153.223s-11.154-.1-11.154-.223,4.993-.222,11.154-.222,11.153.1,11.153.222" transform="translate(-119.396 359.53)" fill="#17282f"/>
          <path id="path68" d="M310.583-31.652c0,.124-4.994.223-11.153.223s-11.154-.1-11.154-.223,4.993-.222,11.154-.222,11.153.1,11.153.222" transform="translate(-119.396 360.71)" fill="#17282f"/>
          <path id="path70" d="M310.583-34.5c0,.122-4.994.222-11.153.222s-11.154-.1-11.154-.222,4.993-.223,11.154-.223,11.153.1,11.153.223" transform="translate(-119.396 361.889)" fill="#17282f"/>
          <path id="path72" d="M310.583-37.346c0,.123-4.994.223-11.153.223s-11.154-.1-11.154-.223,4.993-.222,11.154-.222,11.153.1,11.153.222" transform="translate(-119.396 363.068)" fill="#17282f"/>
          <path id="path74" d="M390.7-32.253H367.766v-6.389H390.7v6.389" transform="translate(-152.319 363.513)" fill="#fff"/>
          <path id="path76" d="M373.708-32.444a7.489,7.489,0,0,1-.222-2.546,7.489,7.489,0,0,1,.222-2.546,7.482,7.482,0,0,1,.223,2.546,7.482,7.482,0,0,1-.223,2.546" transform="translate(-154.688 363.054)" fill="#dadbd8"/>
          <path id="path78" d="M378.884-32.444a7.481,7.481,0,0,1-.223-2.546,7.481,7.481,0,0,1,.223-2.546,7.479,7.479,0,0,1,.223,2.546,7.479,7.479,0,0,1-.223,2.546" transform="translate(-156.832 363.054)" fill="#dadbd8"/>
          <path id="path80" d="M384.062-32.444a7.481,7.481,0,0,1-.223-2.546,7.481,7.481,0,0,1,.223-2.546,7.478,7.478,0,0,1,.223,2.546,7.478,7.478,0,0,1-.223,2.546" transform="translate(-158.976 363.054)" fill="#dadbd8"/>
          <path id="path82" d="M389.239-32.444a7.478,7.478,0,0,1-.223-2.546,7.478,7.478,0,0,1,.223-2.546,7.482,7.482,0,0,1,.223,2.546,7.482,7.482,0,0,1-.223,2.546" transform="translate(-161.121 363.054)" fill="#dadbd8"/>
          <path id="path84" d="M394.416-32.444a7.482,7.482,0,0,1-.223-2.546,7.482,7.482,0,0,1,.223-2.546,7.478,7.478,0,0,1,.223,2.546,7.478,7.478,0,0,1-.223,2.546" transform="translate(-163.265 363.054)" fill="#dadbd8"/>
          <path id="path86" d="M399.594-32.444a7.478,7.478,0,0,1-.223-2.546,7.478,7.478,0,0,1,.223-2.546,7.482,7.482,0,0,1,.223,2.546,7.482,7.482,0,0,1-.223,2.546" transform="translate(-165.409 363.054)" fill="#dadbd8"/>
          <path id="path88" d="M317.8-10.163H293.5V-19.74H317.8v9.577" transform="translate(-121.558 355.684)" fill="#fafaf9"/>
          <path id="path90" d="M368.1-20.541H291.766v-2.006H368.1v2.006" transform="translate(-120.842 356.847)" fill="#f2575d"/>
          <path id="path92" d="M368.351-2.117H292.37V-4.123h75.981v2.006" transform="translate(-121.092 349.216)" fill="#f2575d"/>
          <path id="path94" d="M334.984-21.731,335.1-9.791H386V-21.731H334.984" transform="translate(-138.742 356.509)" fill="#f2575d"/>
          <path id="path96" d="M352.211-13.662a2.868,2.868,0,0,1-2.752,2.971,2.867,2.867,0,0,1-2.751-2.971,2.868,2.868,0,0,1,2.751-2.971,2.868,2.868,0,0,1,2.752,2.971" transform="translate(-143.598 354.398)" fill="#17282f"/>
          <path id="path98" d="M349.157-16.508a2.444,2.444,0,0,0-2.325,2.544,2.444,2.444,0,0,0,2.325,2.544,2.444,2.444,0,0,0,2.325-2.544A2.444,2.444,0,0,0,349.157-16.508Zm0,5.942a3.3,3.3,0,0,1-3.178-3.4,3.3,3.3,0,0,1,3.178-3.4,3.3,3.3,0,0,1,3.178,3.4,3.3,3.3,0,0,1-3.178,3.4" transform="translate(-143.296 354.699)" fill="#dadbd8"/>
          <path id="path100" d="M316.1-7.557c0,.123-4.994.222-11.153.222s-11.155-.1-11.155-.222,4.994-.223,11.155-.223,11.153.1,11.153.223" transform="translate(-121.679 350.731)" fill="#17282f"/>
          <path id="path102" d="M316.1-10.4c0,.123-4.994.222-11.153.222s-11.155-.1-11.155-.222,4.994-.222,11.155-.222,11.153.1,11.153.222" transform="translate(-121.679 351.91)" fill="#17282f"/>
          <path id="path104" d="M316.1-13.252c0,.123-4.994.222-11.153.222s-11.155-.1-11.155-.222,4.994-.223,11.155-.223,11.153.1,11.153.223" transform="translate(-121.679 353.089)" fill="#17282f"/>
          <path id="path106" d="M316.1-16.1c0,.123-4.994.222-11.153.222s-11.155-.1-11.155-.222,4.994-.223,11.155-.223,11.153.1,11.153.223" transform="translate(-121.679 354.269)" fill="#17282f"/>
          <path id="path108" d="M396.216-11.007H373.278V-17.4h22.938v6.39" transform="translate(-154.602 354.714)" fill="#fff"/>
          <path id="path110" d="M379.22-11.2A7.494,7.494,0,0,1,379-13.742a7.486,7.486,0,0,1,.222-2.546,7.454,7.454,0,0,1,.223,2.546,7.463,7.463,0,0,1-.223,2.546" transform="translate(-156.971 354.255)" fill="#dadbd8"/>
          <path id="path112" d="M384.4-11.2a7.5,7.5,0,0,1-.222-2.546,7.49,7.49,0,0,1,.222-2.546,7.449,7.449,0,0,1,.223,2.546A7.458,7.458,0,0,1,384.4-11.2" transform="translate(-159.116 354.255)" fill="#dadbd8"/>
          <path id="path114" d="M389.574-11.2a7.494,7.494,0,0,1-.222-2.546,7.486,7.486,0,0,1,.222-2.546,7.477,7.477,0,0,1,.223,2.546,7.486,7.486,0,0,1-.223,2.546" transform="translate(-161.26 354.255)" fill="#dadbd8"/>
          <path id="path116" d="M394.752-11.2a7.5,7.5,0,0,1-.222-2.546,7.487,7.487,0,0,1,.222-2.546,7.475,7.475,0,0,1,.223,2.546,7.484,7.484,0,0,1-.223,2.546" transform="translate(-163.404 354.255)" fill="#dadbd8"/>
          <path id="path118" d="M399.929-11.2a7.493,7.493,0,0,1-.222-2.546,7.485,7.485,0,0,1,.222-2.546,7.477,7.477,0,0,1,.223,2.546,7.486,7.486,0,0,1-.223,2.546" transform="translate(-165.548 354.255)" fill="#dadbd8"/>
          <path id="path120" d="M405.106-11.2a7.5,7.5,0,0,1-.222-2.546,7.488,7.488,0,0,1,.222-2.546,7.473,7.473,0,0,1,.223,2.546,7.482,7.482,0,0,1-.223,2.546" transform="translate(-167.693 354.255)" fill="#dadbd8"/>
          <path id="path128" d="M342.974-481.76H323.088l-58.026,34.923c.217.327,7.066,5.279,16.013,11.676L197.046-280.443,126.722-311.5,64.453-199.587H98.479l42.905-78.373,64.534,29.895,27.356,3.265,74.054-171.688c9.305,6.6,16.453,11.648,16.453,11.648h19.885s-5.8-48.671-5.8-49.058,5.106-27.863,5.106-27.863" transform="translate(-26.695 547.041)" fill="#f2575d"/>
          <path id="path130" d="M84.584-70.092H64.453l32.614-58.618,12.194,8.76L139.424-169.1,84.584-70.092" transform="translate(-26.695 417.546)" fill="#00908c"/>
          <path id="path132" d="M299.016-122.076l-27.356-3.265-44.855-20.778-3.621-1.678,4.072-7.439,71.76,33.16h0m-16.1-35.643-16.129-7.37.112-.207a39.413,39.413,0,0,0,9.69,1.49,10.487,10.487,0,0,0,4.245-.7c6.107-2.828,15.432-19.7,15.432-19.7h0l1.71-1.246-15.061,27.732" transform="translate(-92.437 424.318)" fill="#00908c"/>
          <path id="path134" d="M382.234-342.017h0c8.981-19.353,17.23-39.927,15.311-46.878-.959-3.474-3.136-5.883-5.62-8.032l20.766-38.234h0c-8.947-6.4-15.8-11.349-16.013-11.676L454.7-481.76H474.59s-1.222,6.577-2.471,13.34c-1.3,7.061-2.635,14.325-2.635,14.522h0c0,.387,5.8,49.058,5.8,49.058H455.4l-3.137-2.218L466.07-432.7l-26.906-14.135-56.93,104.821" transform="translate(-158.312 547.041)" fill="#00908c"/>
          <path id="path136" d="M98.817-174.9l62.518-112.874,70.075,32.018,90.37-166.394,26.906,14.135L247.507-220.11l-71.76-33.16-42.9,78.373H98.817" transform="translate(-40.927 522.351)" fill="#00cec9"/>
          <path id="path138" d="M440.834-446.837c.641.961,58.72,42,58.72,42l-.693-76.92-58.027,34.923" transform="translate(-182.582 547.041)" fill="#00cec9"/>
          <path id="path140" d="M426.775-422.291c0,.112-4.451.2-9.942.2s-9.943-.091-9.943-.2,4.451-.2,9.943-.2,9.942.091,9.942.2" transform="translate(-168.524 522.495)" fill="#17282f"/>
          <path id="path142" d="M453.293-401.807c0,.113-4.451.2-9.942.2s-9.943-.091-9.943-.2,4.451-.2,9.943-.2,9.942.091,9.942.2" transform="translate(-179.507 514.011)" fill="#17282f"/>
          <path id="path144" d="M211.433-288.328s-1.206.525-1.4-1.087,3.169-4.965,4.243-6.03,2.609-.837,3.97-.534,6.938.865,8.787,2.053,4.681,7.143,5.272,7.426,17.982,1.19,17.982,1.19l-.748,14.254s-17.07-3.252-20.451-5.367-2.936-2.956-3.9-4.93-1.993-4.066-1.993-4.066l-1.6-.265-2.562,1.414s-.3,3.618-2.838,3.527l-1.243-.655s-.83.958-1.774-.523-.766-1.758-.766-1.758-.993,1.229-2.068-.3,1.077-4.354,1.077-4.354" transform="translate(-86.989 470.2)" fill="#f9a78d"/>
          <path id="path146" d="M234.619-279.768c0,.011-.062.031-.188.059a2.55,2.55,0,0,1-.567.055,4.07,4.07,0,0,1-2.046-.582,5.448,5.448,0,0,1-2.168-2.4,10.447,10.447,0,0,1-.9-3.994l.276.168a10.219,10.219,0,0,1-3.9.919,10.166,10.166,0,0,1-2.867-.3,2.508,2.508,0,0,1-1.311-.609.656.656,0,0,1-.045-.839,1.384,1.384,0,0,1,.615-.4c1.565-.634,3-1.129,4.225-1.5s2.222-.626,2.917-.783a5.391,5.391,0,0,1,1.092-.194,6.309,6.309,0,0,1-1.052.347c-.681.2-1.667.5-2.87.9s-2.623.924-4.17,1.573a1.093,1.093,0,0,0-.452.279.264.264,0,0,0,.034.357,2.236,2.236,0,0,0,1.112.475,9.94,9.94,0,0,0,2.755.281,10.007,10.007,0,0,0,3.753-.867l.263-.119.013.287a10.378,10.378,0,0,0,.812,3.87,5.307,5.307,0,0,0,1.993,2.336,4.228,4.228,0,0,0,1.924.661c.481.034.746-.015.751.016" transform="translate(-91.438 467.691)" fill="#6f3430"/>
          <path id="path148" d="M222.253-289.173a2.466,2.466,0,0,1-1.642.319c-.518-.006-1.128-.094-1.773-.051a2.443,2.443,0,0,0-1.78.9,9.459,9.459,0,0,1-3.273,2.357,4.077,4.077,0,0,1-1.612.443c-.018-.064.591-.244,1.49-.7a10.807,10.807,0,0,0,3.1-2.38,3.117,3.117,0,0,1,.951-.735,2.835,2.835,0,0,1,1.1-.251,13.9,13.9,0,0,1,1.812.137,7.968,7.968,0,0,0,1.625-.032" transform="translate(-87.876 467.322)" fill="#6f3430"/>
          <path id="path150" d="M219.356-282.614a6.781,6.781,0,0,1-2.217,3,6.788,6.788,0,0,1-3.3,1.736,30.026,30.026,0,0,0,3.04-2.045,29.921,29.921,0,0,0,2.482-2.694" transform="translate(-88.564 464.561)" fill="#6f3430"/>
          <path id="path152" d="M221.881-278.883a4.975,4.975,0,0,1-1.145,2.792,4.973,4.973,0,0,1-2.316,1.936c-.069-.1,1.038-.862,1.987-2.177.965-1.3,1.356-2.587,1.474-2.552" transform="translate(-90.463 463.015)" fill="#6f3430"/>
          <path id="path154" d="M284.629-330.163,269.066-302.08l-24.156-.416-1.815,14.507,24.927,6.112,10.263-11.27,6.345-37.016" transform="translate(-100.683 484.254)" fill="#dadbd8"/>
          <path id="path156" d="M289.363-277.463c-.12.011-.27-1.143-.81-2.448s-1.226-2.241-1.132-2.317a4.51,4.51,0,0,1,1.508,2.163,4.5,4.5,0,0,1,.433,2.6" transform="translate(-119.039 464.402)" fill="#17282f"/>
          <path id="path158" d="M320.861-429.6a4.2,4.2,0,0,1-4.478-3.084A4.2,4.2,0,0,1,319-437.454a4.334,4.334,0,0,1-.817-4.869,4.334,4.334,0,0,1,4.362-2.309A5.148,5.148,0,0,1,325.1-448.9a5.148,5.148,0,0,1,4.979,0,5.676,5.676,0,0,1,6.984-.268,4.151,4.151,0,0,1,4.352,2.027,4.15,4.15,0,0,1-.665,4.755" transform="translate(-130.997 533.989)" fill="#17282f"/>
          <path id="path160" d="M340.236-441.614l-.891.018a17.2,17.2,0,0,0-16.836,16.146c-.509,8.322-.965,17.522-.824,21.979.293,9.227,9.552,10.484,9.552,10.484l-.565,11.1,1.1,8.464,21.291-9.592,1.2-40.254c.641-9.6-4.412-17.973-14.025-18.348" transform="translate(-133.223 530.414)" fill="#f9a78d"/>
          <path id="path162" d="M337.835-361.3a22.388,22.388,0,0,0,12.025-3.774s-2.86,7.147-12.086,6.494l.061-2.72" transform="translate(-139.897 498.712)" fill="#6f3430"/>
          <path id="path164" d="M328.224-398.823a1.318,1.318,0,0,0,1.3,1.305,1.26,1.26,0,0,0,1.335-1.215,1.318,1.318,0,0,0-1.3-1.306,1.262,1.262,0,0,0-1.336,1.215" transform="translate(-135.942 513.195)" fill="#17282f"/>
          <path id="path166" d="M326.63-407.394c.166.169,1.15-.59,2.569-.613,1.416-.045,2.471.666,2.622.489.074-.079-.1-.386-.558-.707a3.616,3.616,0,0,0-2.1-.6,3.473,3.473,0,0,0-2.041.7c-.43.344-.571.657-.489.733" transform="translate(-135.273 516.836)" fill="#17282f"/>
          <path id="path168" d="M348.728-399.326a1.318,1.318,0,0,0,1.3,1.3,1.26,1.26,0,0,0,1.335-1.215,1.319,1.319,0,0,0-1.3-1.306,1.262,1.262,0,0,0-1.336,1.216" transform="translate(-144.434 513.403)" fill="#17282f"/>
          <path id="path170" d="M350.437-407.4c.166.169,1.152-.59,2.57-.613,1.416-.044,2.471.665,2.621.488.074-.078-.1-.385-.558-.706a3.614,3.614,0,0,0-2.1-.6,3.48,3.48,0,0,0-2.041.7c-.428.343-.571.657-.489.733" transform="translate(-145.133 516.839)" fill="#17282f"/>
          <path id="path172" d="M339.445-396.627a9.35,9.35,0,0,0-2.312-.371c-.362-.031-.707-.1-.773-.342a1.838,1.838,0,0,1,.221-1.078q.485-1.324,1.017-2.779c1.411-3.955,2.425-7.2,2.266-7.26s-1.433,3.1-2.845,7.06q-.508,1.463-.972,2.794a2.1,2.1,0,0,0-.161,1.426.909.909,0,0,0,.606.518,2.447,2.447,0,0,0,.616.073,9.245,9.245,0,0,0,2.336-.041" transform="translate(-139.084 516.681)" fill="#17282f"/>
          <path id="path174" d="M348.159-416.778c.194.355,1.4-.058,2.9-.135,1.493-.111,2.76.147,2.89-.23.055-.18-.216-.5-.762-.775a4.49,4.49,0,0,0-2.254-.428,4.328,4.328,0,0,0-2.154.706c-.491.343-.7.691-.617.862" transform="translate(-144.191 520.78)" fill="#17282f"/>
          <path id="path176" d="M326.3-417.44c.3.316,1.469-.041,2.876-.084,1.406-.084,2.6.166,2.872-.177.117-.166-.077-.485-.6-.779a4.586,4.586,0,0,0-2.35-.483,4.512,4.512,0,0,0-2.282.692c-.491.341-.648.676-.512.83" transform="translate(-135.127 521.034)" fill="#17282f"/>
          <path id="path178" d="M324.467-430.477s2.322-5.827,5.083-7.23c3.342-1.7,4.867,1.977,8.065,1.016s6.389-2.591,9.722-.169c3.65,2.651,2,4.592,2.3,8.683,1.222,16.585,4.345,21.222,5.056,13.385.078-.859,2.443-1.586,2.725-5.213.366-4.7.436-10.406-.676-13.717-.937-2.79-2.576-4.7-5.488-6.782-4.6-3.288-10.823-3.24-15.042-2.733s-12.275,5.529-11.749,12.759" transform="translate(-134.376 531.192)" fill="#17282f"/>
          <path id="path180" d="M374.977-396.659a2.505,2.505,0,0,1,2.658-2.467c1.725.13,3.659,1.07,3.614,4.63-.08,6.314-6.4,4.932-6.41,4.751-.006-.123.081-4.272.138-6.914" transform="translate(-155.249 512.819)" fill="#e28b70"/>
          <path id="path182" d="M377.231-390.655c.028-.02.109.078.294.166a1.1,1.1,0,0,0,.822.027,2.721,2.721,0,0,0,1.29-2.426,3.631,3.631,0,0,0-.288-1.578,1.273,1.273,0,0,0-.816-.855.56.56,0,0,0-.653.294c-.088.175-.048.3-.082.312-.018.016-.134-.108-.08-.368a.7.7,0,0,1,.254-.392.825.825,0,0,1,.61-.153,1.546,1.546,0,0,1,1.136.993,3.739,3.739,0,0,1,.359,1.765,2.854,2.854,0,0,1-1.639,2.706,1.175,1.175,0,0,1-1-.18c-.194-.158-.225-.3-.2-.311" transform="translate(-156.237 511.371)" fill="#6f3430"/>
          <path id="path184" d="M356.661-428.757a5.985,5.985,0,0,1-2.649,1.286,2.058,2.058,0,0,1-2.311-1.4c-.084-.438.014-.95-.281-1.283-.352-.4-.986-.259-1.514-.193-1.831.23-4.013-1.754-4.515-3.531a1.647,1.647,0,0,1-2.193.5,5.908,5.908,0,0,1-1.547-1.322,2.6,2.6,0,0,0-2.186-1.042,6.246,6.246,0,0,1-1.367.33c-.83-.058-1.254-1.02-1.4-1.84s-.257-1.778-.968-2.211a3.3,3.3,0,0,0-2.257-.019c-.761.127-1.75-.033-1.959-.775a1.5,1.5,0,0,1,.26-1.15,4.088,4.088,0,0,1,4.794-1.641,5.678,5.678,0,0,1,4.653-4.027,5.679,5.679,0,0,1,5.5,2.757,5.716,5.716,0,0,1,5-1.415,5.719,5.719,0,0,1,4.024,3.29,4.176,4.176,0,0,1,4.285,1.361,4.176,4.176,0,0,1,.423,4.477,3.868,3.868,0,0,1,2.189,3.039,2.216,2.216,0,0,1-2.465,2.313,2.341,2.341,0,0,1-.833,2.982,2.341,2.341,0,0,1-3.027-.656" transform="translate(-137.293 532.694)" fill="#17282f"/>
          <path id="path186" d="M339.432-436.992a.345.345,0,0,0,0,.116c.01.076.016.191.047.336a3.961,3.961,0,0,0,.481,1.208,4.526,4.526,0,0,0,1.429,1.465,4.205,4.205,0,0,0,2.6.687l-.109-.137a2.282,2.282,0,0,0,.16,1.739,6.522,6.522,0,0,0,1.11,1.531,4.679,4.679,0,0,0,.72.711,2.211,2.211,0,0,0,1.008.352,2.3,2.3,0,0,0,2.017-.767l-.237-.063a4.737,4.737,0,0,0,2.071,3.236,3.457,3.457,0,0,0,2.086.639,6.229,6.229,0,0,0,2.033-.488l-.17-.07a4.979,4.979,0,0,0,1.531,1.918,2.649,2.649,0,0,0,2.211.556,3.477,3.477,0,0,0,2.623-2.772l-.141.069a3.256,3.256,0,0,0,2.175.277,3.537,3.537,0,0,0,1.5-.7,3.05,3.05,0,0,0,.69-.785,1.489,1.489,0,0,0,.153-.329,3.785,3.785,0,0,1-.909,1.03,3.511,3.511,0,0,1-1.463.637,3.115,3.115,0,0,1-2.053-.3l-.12-.064-.022.134a3.28,3.28,0,0,1-2.484,2.57,2.4,2.4,0,0,1-2.006-.528,4.74,4.74,0,0,1-1.44-1.821l-.052-.116-.119.044a6.024,6.024,0,0,1-1.945.465,3.185,3.185,0,0,1-1.925-.6,4.479,4.479,0,0,1-1.958-3.049l-.045-.3-.192.235a2.047,2.047,0,0,1-1.781.677,1.961,1.961,0,0,1-.893-.3,4.574,4.574,0,0,1-.679-.666,6.4,6.4,0,0,1-1.085-1.465,2.071,2.071,0,0,1-.167-1.574l.048-.152-.159.013a4.057,4.057,0,0,1-2.489-.619,4.5,4.5,0,0,1-1.418-1.385,4.9,4.9,0,0,1-.633-1.6" transform="translate(-140.583 528.5)" fill="#33535f"/>
          <path id="path188" d="M342.7-382.711c.031-.236,1.59.059,2.95-1.064s1.505-2.814,1.725-2.785c.1,0,.232.428.117,1.133a3.951,3.951,0,0,1-1.352,2.341,3.441,3.441,0,0,1-2.454.793c-.663-.066-1.016-.312-.987-.418" transform="translate(-141.937 507.612)" fill="#17282f"/>
          <path id="path190" d="M265.922-279.191l12.018-13.255,10.05-30.373c2.052-5.269,3.813-11.96,6.3-16.956a11.809,11.809,0,0,1,5.793-5.51l4.266-1.9,2.552-4.073c-1.47,9.212,11.44,10.346,25.161-1.09,0,0,4.533,3.067,10.921,8.365,2.8,2.32,5.333,4.854,6.39,8.684,1.919,6.952-6.33,27.525-15.311,46.878-2.687,5.79-15.484,31.731-15.484,31.731l-4.606,3.356s-40.723-12.338-44.386-19.1l-3.663-6.763" transform="translate(-110.138 493.44)" fill="#dadbd8"/>
          <path id="path192" d="M277.3-275.506a2.646,2.646,0,0,1,.341-.4l1.035-1.088,3.875-3.966-.034.055,2.653-8.162c1.035-3.084,2.084-6.507,3.145-10.127,2.053-7.1,4-13.516,5.79-18.026.87-2.264,1.686-4.05,2.26-5.277.289-.576.521-1.04.7-1.4a2.669,2.669,0,0,1,.269-.474,2.777,2.777,0,0,1-.2.509c-.16.364-.369.837-.63,1.426-.528,1.245-1.3,3.043-2.136,5.314-1.721,4.523-3.614,10.937-5.668,18.039-1.059,3.618-2.125,7.056-3.18,10.129-1.033,3.07-1.962,5.826-2.739,8.134l-.012.033-.023.023-3.966,3.877-1.088,1.035a2.583,2.583,0,0,1-.4.341" transform="translate(-114.851 481.852)" fill="#17282f"/>
          <path id="path194" d="M320.823-328.2l-14.084,57.74-14.629,7.276v-14.125l25.315-52.145,3.4,1.255" transform="translate(-120.985 483.959)" fill="#5500a2"/>
          <path id="path196" d="M334.1-221.209a23.249,23.249,0,0,1-9.153-2.075,68.256,68.256,0,0,1-10.966-6.563l-.185-.127,1.922-.956.753-3.085,30.411,4.722c-1.376,4.038-5.279,6.892-9.458,7.754a16.428,16.428,0,0,1-3.324.33" transform="translate(-129.968 444.432)" fill="#8f9192"/>
          <path id="path198" d="M306.073-231.468a53.084,53.084,0,0,0-10.931-6.154l13.606,2.113-.753,3.085-1.922.956" transform="translate(-122.24 445.926)" fill="#cc4341"/>
          <path id="path200" d="M331.515-351.15l3.6-5.512,1.414,7.552,3.588-4.059,17.8-8.327,3.09,6.617-19.667,11.631-5.455-.407-3.977-4.72-.391-2.774" transform="translate(-137.305 497.231)" fill="#dadbd8"/>
          <path id="path202" d="M331.493-344.381a5.071,5.071,0,0,1,.269,1.139l.6,2.91-.355-.053.969-1.774,1.5-2.654.192-.341.127.362c.316.9.483,1.659.626,2.186a3.334,3.334,0,0,1,.18.844,2.289,2.289,0,0,1-.378-.781c-.2-.511-.421-1.267-.758-2.121l.319.022c-.444.819-.933,1.72-1.453,2.68l-.989,1.763-.255.455-.1-.508a16.652,16.652,0,0,1-.5-4.129" transform="translate(-137.283 490.462)" fill="#17282f"/>
          <path id="path204" d="M338.21-339.277l-2.266-.276c-.614.69-2.115,2.111-2.729,2.8l0,.063q.4,2.267.8,4.534a14.78,14.78,0,0,1,3.781.3l2.083-3.655-1.679-3.77" transform="translate(-138.009 488.143)" fill="#5500a2"/>
          <path id="path206" d="M338.805-201.343a22.043,22.043,0,0,1-1.828-1.771,60.029,60.029,0,0,0-4.563-4.073,60.125,60.125,0,0,0-4.972-3.565,21.9,21.9,0,0,1-2.127-1.4,2.25,2.25,0,0,1,.635.263c.4.191.959.493,1.642.888a42.185,42.185,0,0,1,5.077,3.492,42.228,42.228,0,0,1,4.515,4.191c.535.58.953,1.062,1.226,1.408a2.242,2.242,0,0,1,.4.562" transform="translate(-134.737 435.377)" fill="#17282f"/>
          <path id="path208" d="M342.043-339.164l2.516-1.24.852,4.4-2.095.186-1.273-3.351" transform="translate(-141.666 488.495)" fill="#5500a2"/>
          <path id="path210" d="M345.751-335.066v-2.419l1.266.094.02.124.187-.109h.01l.733-.434,16.325-9.505-18.542,12.247" transform="translate(-143.201 491.357)" fill="#8f9192"/>
          <path id="path212" d="M347.235-335.766h-.01l.743-.433-.733.434m-.218-.016-1.266-.095v-1.269l1.026-.091.241,1.455m-1.266-5.705v-1.943l.3,1.8-.3.147" transform="translate(-143.201 489.748)" fill="#8f9192"/>
          <path id="path214" d="M345.751-335.876v-4.341l.3-.147.728,4.4-1.026.091" transform="translate(-143.201 488.479)" fill="#3c0072"/>
          <path id="path216" d="M365.064-350.2a8.651,8.651,0,0,1-1.078.814c-.716.492-1.765,1.187-3.1,1.988-2.648,1.629-6.45,3.622-10.548,5.976-1.732,1-3.365,2.014-4.836,3.011l-.244.165-.053-.287c-.562-3.045-1.051-5.687-1.418-7.677l.208.066-1.957,1.824a5.057,5.057,0,0,1-.729.617,5.143,5.143,0,0,1,.637-.712l1.876-1.907.162-.165.047.23,1.55,7.651-.3-.122c1.472-1.015,3.111-2.038,4.849-3.046,4.112-2.362,7.928-4.312,10.606-5.872,1.346-.767,2.415-1.423,3.156-1.873a8.507,8.507,0,0,1,1.165-.681" transform="translate(-141.363 492.554)" fill="#17282f"/>
          <path id="path218" d="M335.971-339.915l-1.04-2.546-1.716,3.153.735,1.143,2.021-1.75" transform="translate(-138.009 489.347)" fill="#5500a2"/>
          <path id="path220" d="M339.33-338.747c.088.081-1.154,1.516-2.488,3.427s-2.267,3.562-2.373,3.507a13.49,13.49,0,0,1,2.04-3.741,13.506,13.506,0,0,1,2.82-3.193" transform="translate(-138.526 487.81)" fill="#17282f"/>
          <path id="path222" d="M337.941-326.79a5.745,5.745,0,0,1-1.92-.191,5.7,5.7,0,0,1-1.875-.448,4.046,4.046,0,0,1,1.943.048,4.047,4.047,0,0,1,1.852.592" transform="translate(-138.395 483.157)" fill="#17282f"/>
          <path id="path224" d="M172.737-294.6h0L161-327.765a1.276,1.276,0,0,1,.945-1.628l27.1-7.08a1.35,1.35,0,0,1,1.573.9l12.333,37.36,38.248,25.122-1.838,1.876-9.785-2.385-56.847-21" transform="translate(-66.659 486.88)" fill="#33535f"/>
          <path id="path226" d="M258.694-270.807a.96.96,0,0,1-.2-.109l-.558-.352c-.509-.334-1.22-.8-2.122-1.389l-7.763-5.169-25.527-17.183-2.025-1.369-.058-.039-.021-.065c-3.6-10.869-6.83-20.605-9.167-27.658-1.14-3.5-2.062-6.329-2.71-8.316-.3-.96-.544-1.715-.715-2.259-.072-.241-.13-.436-.177-.59a.841.841,0,0,1-.047-.205.875.875,0,0,1,.085.192l.213.578.786,2.236c.676,1.978,1.64,4.8,2.829,8.276,2.368,7.042,5.637,16.765,9.287,27.618l-.079-.1,2.025,1.369,25.461,17.281,7.691,5.276,2.079,1.452.535.386a.966.966,0,0,1,.175.143" transform="translate(-85.984 486.468)" fill="#17282f"/>
          <path id="path228" d="M189.058-267c0-.112,5.326-.455,11.9-.766s11.919-.472,11.924-.359-5.324.455-11.906.766-11.918.472-11.923.359" transform="translate(-78.303 458.575)" fill="#17282f"/>
          <path id="path230" d="M194.222-300.127c.472,1.5.206,2.928-.593,3.178s-1.831-.765-2.3-2.268-.207-2.928.593-3.178,1.831.765,2.3,2.268" transform="translate(-79.145 472.769)" fill="#dadbd8"/>
          <path id="path232" d="M252.436-282.464s-1.012.5-1.17-1.112c-.14-1.433,3.3-3.553,4.584-4.348s4-.249,5.384-.069c1.87.243,6.226,2.193,7.611,3.855,1.407,1.688,2.371,6.005,2.883,6.414s17.83,7.222,17.83,7.222l-3.942,13.719s-15.9-7.017-18.714-9.839-2.195-3.542-2.686-5.681-1.025-4.411-1.025-4.411l-1.5-.619-2.815.8a6.184,6.184,0,0,1-1.069,1.905,2.206,2.206,0,0,1-3.307-.04,1.708,1.708,0,0,1-2.125-1.116,3.377,3.377,0,0,1-.08-1.666s-1.28.251-1.29-1.344a7.581,7.581,0,0,1,1.429-3.67" transform="translate(-103.961 466.933)" fill="#f9a78d"/>
          <path id="path234" d="M263.888-275.279c0,.068-.581.046-1.472.241a7.07,7.07,0,0,0-3.124,1.564,7.058,7.058,0,0,0-1.944,2.9c-.306.858-.358,1.436-.425,1.429a3.112,3.112,0,0,1,.15-1.516,6.5,6.5,0,0,1,1.95-3.123,6.5,6.5,0,0,1,3.343-1.541,3.113,3.113,0,0,1,1.523.041" transform="translate(-106.395 461.563)" fill="#6f3430"/>
          <path id="path236" d="M260.921-280.339c-.007.073-.63-.032-1.584.19a7.091,7.091,0,0,0-3.263,1.866,16.113,16.113,0,0,0-2.318,3.073,7.143,7.143,0,0,1-.9,1.35,5.936,5.936,0,0,1,.652-1.492,12.806,12.806,0,0,1,2.284-3.221,6.627,6.627,0,0,1,3.492-1.857,2.846,2.846,0,0,1,1.639.092" transform="translate(-104.723 463.68)" fill="#6f3430"/>
          <path id="path238" d="M260.677-285.837c-.008.068-.545-.005-1.378.148a7.44,7.44,0,0,0-2.985,1.339,17.524,17.524,0,0,0-2.439,2.28c-.586.634-.959,1.024-1,.987a4.566,4.566,0,0,1,.785-1.174,12.636,12.636,0,0,1,2.417-2.422,6.652,6.652,0,0,1,3.184-1.3,2.54,2.54,0,0,1,1.418.137" transform="translate(-104.732 465.961)" fill="#6f3430"/>
          <path id="path240" d="M349.381-338.91c4.868.952,8.037,5.23,9.029,10.579,1.405,7.588-15.99,43.449-19.231,51.278a15.944,15.944,0,0,1-15.369,9.95c-4.4-.1-35.226-14.561-35.226-14.561l4.519-15.644,27.391,8.133,10.855-30.541" transform="translate(-119.524 487.876)" fill="#dadbd8"/>
          <path id="path242" d="M331.182-319.716s-.051.188-.171.545l-.541,1.587-2.122,6.087c-1.865,5.294-4.555,12.933-7.88,22.371l-.047.133-.135-.04-27.4-8.1.231-.127c-1.441,5-2.949,10.235-4.508,15.646l-.105-.233c7.195,3.341,14.9,6.846,22.923,10.225,3.26,1.352,6.491,2.7,9.755,3.739l1.227.351c.409.106.815.141,1.22.219a16.676,16.676,0,0,0,2.514-.141,16.615,16.615,0,0,0,4.776-1.354,14.979,14.979,0,0,0,6.995-6.453c.767-1.379,1.328-2.874,1.979-4.3L341.8-283.8c5.061-11.153,9.547-21.235,12.765-29.918a66.105,66.105,0,0,0,3.513-11.948,9.626,9.626,0,0,0,.066-2.619,18.135,18.135,0,0,0-.6-2.374,14.784,14.784,0,0,0-1.872-3.837,10.643,10.643,0,0,0-4.489-3.759,9.43,9.43,0,0,0-1.457-.507c-.338-.089-.509-.145-.509-.145s.177.029.519.1a8.551,8.551,0,0,1,1.479.473,10.6,10.6,0,0,1,4.587,3.743,14.871,14.871,0,0,1,1.926,3.868,18.155,18.155,0,0,1,.624,2.4,9.774,9.774,0,0,1-.049,2.687,65.611,65.611,0,0,1-3.468,12.018c-3.188,8.708-7.651,18.81-12.694,29.972l-1.9,4.242c-.646,1.424-1.2,2.913-1.989,4.339a15.373,15.373,0,0,1-7.169,6.627,17.044,17.044,0,0,1-4.888,1.39,17.064,17.064,0,0,1-2.578.145c-.434-.077-.885-.12-1.305-.229l-1.25-.358c-3.3-1.05-6.525-2.4-9.793-3.751-8.037-3.382-15.737-6.892-22.933-10.243l-.153-.071.047-.162,4.53-15.641.052-.18.179.053,27.381,8.169-.181.092c3.377-9.419,6.111-17.043,8.005-22.326.95-2.623,1.689-4.662,2.2-6.061q.378-1.023.581-1.572c.134-.354.212-.531.212-.531" transform="translate(-119.357 487.876)" fill="#17282f"/>
          <path id="path244" d="M347.424-242.539c-.127.023-.546-2.724-1.767-5.9-1.2-3.181-2.714-5.511-2.606-5.578a6.479,6.479,0,0,1,1.062,1.479,24.649,24.649,0,0,1,1.924,3.953,24.678,24.678,0,0,1,1.2,4.23,6.551,6.551,0,0,1,.191,1.811" transform="translate(-142.081 452.715)" fill="#17282f"/>
          <path id="path246" d="M379.7-338.8c.023.071-1.008.4-2.557,1.186a22.711,22.711,0,0,0-2.611,1.557,24.465,24.465,0,0,0-2.867,2.365,24.4,24.4,0,0,0-2.432,2.814,22.54,22.54,0,0,0-1.618,2.574c-.818,1.53-1.174,2.553-1.244,2.528a2.739,2.739,0,0,1,.2-.738,14.6,14.6,0,0,1,.793-1.922,19.551,19.551,0,0,1,1.569-2.662,22.21,22.21,0,0,1,2.452-2.885,22.229,22.229,0,0,1,2.941-2.384,19.438,19.438,0,0,1,2.7-1.507,14.468,14.468,0,0,1,1.94-.748,2.766,2.766,0,0,1,.742-.179" transform="translate(-151.739 487.833)" fill="#17282f"/>
          <path id="path248" d="M86.922-198.565l-14.8-18.5s57.264-47.177,62.678-50.546c4.1-2.551,12.434-5.94,20.323-3.289s21.244,11.878,26.168,14.871S229.07-226.491,233.7-220c0,0-9.326,16.869-15.432,19.7-4.783,2.215-18.571-1.092-26.626-5.99s-45.016-36.551-45.016-36.551L86.922-198.565" transform="translate(-29.87 460.108)" fill="#17282f"/>
          <path id="path250" d="M106.8-162.36l20,14.366,38.487-62.721,38.86,17.707-26.13-43.658s-21.074.248-24.387-.125c-4.249-.477-12.007,6.229-16.242,14.418C133.71-215.257,106.8-162.36,106.8-162.36" transform="translate(-44.235 445.591)" fill="#17282f"/>
          <path id="path252" d="M223.994-199.335c-.081.078-8.857-8.875-19.6-20s-19.389-20.2-19.308-20.279,8.855,8.873,19.6,20,19.387,20.2,19.306,20.277" transform="translate(-76.658 446.749)" fill="#33535f"/>
          <g id="g254" transform="translate(73.804 242.164)">
            <g id="g256" clip-path="url(#clip-path-2)">
              <path id="path262" d="M125.982-172.864h9.382v-6.958h-9.382Z" transform="translate(-125.982 179.822)" fill="#a7a9a8"/>
            </g>
          </g>
          <path id="path264" d="M125.982-192.214c.019-.036,17.224-32.186,25.331-34.328l-.105.144a37.984,37.984,0,0,0-4.757,6.285c-1.279,1.952-2.542,4.045-3.771,6.246-.8,1.458-1.557,2.9-2.28,4.312a77.951,77.951,0,0,0-3.975,8.135q-.548,1.16-1.06,2.249l-9.382,6.958" transform="translate(-52.179 441.336)" fill="#0f191d"/>
          <path id="path266" d="M160.922-220.012a37.986,37.986,0,0,1,4.757-6.285l-.119.163a27.2,27.2,0,0,0-2.244,2.664q-1.2,1.639-2.394,3.457" transform="translate(-66.65 441.235)" fill="#0f191d"/>
          <path id="path268" d="M166.871-233.565a13.657,13.657,0,0,0-2.26-.433,11.573,11.573,0,0,0-6.047,1.286,19.564,19.564,0,0,0-6.82,6.186,98.581,98.581,0,0,0-6.111,9.675c-3.906,7.134-6.919,13.873-9.322,18.639-1.181,2.394-2.19,4.3-2.9,5.62l-.84,1.5a3.313,3.313,0,0,1-.317.509,3.27,3.27,0,0,1,.245-.548l.773-1.534c.662-1.336,1.632-3.264,2.778-5.672,2.335-4.794,5.305-11.552,9.226-18.71a94.074,94.074,0,0,1,6.165-9.7,19.583,19.583,0,0,1,6.995-6.219,11.428,11.428,0,0,1,6.188-1.186,6.556,6.556,0,0,1,2.246.59" transform="translate(-54.777 444.516)" fill="#33535f"/>
          <path id="path270" d="M97.01-129.611,86.056-109.422s-24.422-2.885-26.593.787L99.149-88.345l16.471-31.814-18.61-9.451" transform="translate(-24.628 401.19)" fill="#17282f"/>
          <path id="path272" d="M125.3-87.7c1.616,1.459-.539,4.036-2.225,2.617-1.8-1.624.77-4.244,2.347-2.491" transform="translate(-50.719 384.019)" fill="#dadbd8"/>
          <path id="path274" d="M99.149-74.375l1.534-3.272L62.059-95.877s-2.16-.135-2.6,1.211L99.149-74.375" transform="translate(-24.628 387.22)" fill="#33535f"/>
          <path id="path276" d="M103.931-96.1c-.093.2.831.78,1.466,1.89.664,1.094.726,2.186.944,2.2,1.108-.672-1.29-4.736-2.41-4.09" transform="translate(-43.043 387.341)" fill="#fff"/>
          <path id="path278" d="M95.313-96.76c-.14.166.531.924.77,2.08.273,1.149-.014,2.12.184,2.211,1.272-.261.3-4.6-.953-4.291" transform="translate(-39.468 387.59)" fill="#fff"/>
          <path id="path280" d="M86.944-93.2c1.07.138,1.229-4.158.155-4.1.051.131-.1,3.973-.155,4.1" transform="translate(-36.01 387.809)" fill="#fff"/>
          <path id="path282" d="M108.613-103.9c.14-.007,3.936,2.225,3.995,2.342.611-.91-3.5-3.319-3.995-2.342" transform="translate(-44.985 390.634)" fill="#fff"/>
          <path id="path284" d="M67.754-191.037,48.982-177.8S28.372-191.22,24.8-188.89L51.369-153.1l28.157-22.167L67.754-191.037" transform="translate(-10.271 426.631)" fill="#17282f"/>
          <path id="path286" d="M80.418-152.261c.8,2.025-2.273,3.378-3.154,1.358-.893-2.253,2.573-3.463,3.208-1.192" transform="translate(-31.94 411.005)" fill="#dadbd8"/>
          <path id="path288" d="M51.369-151.893l2.827-2.253L27.663-187.614s-1.876-1.079-2.864-.066l26.57,35.787" transform="translate(-10.271 425.42)" fill="#33535f"/>
          <path id="path290" d="M65.633-169.666c-.171.136.4,1.069.476,2.345.11,1.276-.318,2.281-.129,2.39,1.292-.112.944-4.817-.346-4.735" transform="translate(-27.17 417.78)" fill="#fff"/>
          <path id="path292" d="M57.494-174.1c-.2.086.066,1.064-.232,2.206-.265,1.151-.953,1.894-.816,2.062,1.255.331,2.311-3.984,1.048-4.268" transform="translate(-23.371 419.618)" fill="#fff"/>
          <path id="path294" d="M47.877-174.6c.9.6,2.946-3.181,1.955-3.6-.013.14-1.849,3.517-1.955,3.6" transform="translate(-19.83 421.314)" fill="#fff"/>
          <path id="path296" d="M221.122-201.675c-3.59-2.755-21.79-16.83-26.488-22.611a64.957,64.957,0,0,1-7.025-10.724,9.565,9.565,0,0,1,1.053.189L206.2-217c6.157,6.368,11.572,11.924,14.922,15.321m-32.6-33.285a8.57,8.57,0,0,0-1-.209c-.52-1.01-.786-1.605-.786-1.605l1.784,1.814" transform="translate(-77.343 445.574)" fill="#0f191d"/>
          <path id="path298" d="M235.5-187.221l-.617-.472c-3.35-3.4-8.765-8.953-14.922-15.321L235.5-187.221" transform="translate(-91.101 431.592)" fill="#20353d"/>
          <path id="path300" d="M189.217-233.687a9.575,9.575,0,0,0-1.053-.189l-.082-.158a8.565,8.565,0,0,1,1,.209l.137.138" transform="translate(-77.899 444.439)" fill="#20353d"/>
        </g>
      </g>
    </g>
  </g>
</svg>
