<svg xmlns="http://www.w3.org/2000/svg" xmlns:xlink="http://www.w3.org/1999/xlink" width="217.074" height="241.713" viewBox="0 0 217.074 241.713">
  <defs>
    <clipPath id="clip-path">
      <path id="Union_28" data-name="Union 28" d="M0,135.805A105.954,105.954,0,0,1,76.384,34.067a6.051,6.051,0,0,1-.042-3.89c1.822-4.65,3.677-10.021,5.975-14.254-1.809-.562-2.651-3.045-1.816-4.81a6.149,6.149,0,0,1,5.1-3.072,6.636,6.636,0,0,1,3.417-6.272,6.633,6.633,0,0,1,7.109.69,8.895,8.895,0,0,1,13.067.831A5.931,5.931,0,0,1,110,2.517a6.6,6.6,0,0,1,7.624-.24,9.014,9.014,0,0,1,10.03,4.758,8.017,8.017,0,0,1,8.332,10.951,6.883,6.883,0,0,1,4.929,6.1,6.884,6.884,0,0,1-4.236,6.6,6.478,6.478,0,0,1,2.022,4.389,105.553,105.553,0,0,1,28.542,14.383,16.693,16.693,0,0,1,8.638-.95c3.618.584,7.175,2.563,8.851,5.821a8.136,8.136,0,0,1,.855,3.713,9.311,9.311,0,0,1,7.069,7.144,13.335,13.335,0,0,1,11.462,7.378,14.05,14.05,0,0,1,.728,1.711,10.15,10.15,0,0,1,.678,8.519c-.636,1.66-1.72,3.508-.865,5.067.869,1.587,3.066,1.638,4.777,2.227a6.738,6.738,0,0,1,4.244,7.525c-.238,1.106-.766,2.208-.535,3.315.239,1.151,1.225,1.964,1.981,2.864a8.384,8.384,0,0,1-4.9,13.644A105.915,105.915,0,1,1,0,135.805Z" transform="translate(8348.5 15611.25)" fill="#fffcd2" stroke="#707070" stroke-width="1"/>
    </clipPath>
    <clipPath id="clip-path-2">
      <path id="path232" d="M372.145-176.732h0l.35-.066-.349.067m2.282-.432.29-.055-.29.055" transform="translate(-372.144 177.218)"/>
    </clipPath>
  </defs>
  <g id="Mask_Group_46" data-name="Mask Group 46" transform="translate(-8348.5 -15611.25)" clip-path="url(#clip-path)">
    <g id="Group_3436" data-name="Group 3436" transform="translate(8266.327 15517.479)">
      <circle id="Ellipse_315" data-name="Ellipse 315" cx="105.907" cy="105.907" r="105.907" transform="translate(82.173 123.67)" fill="#fffcd2" stroke="#707070" stroke-width="1"/>
      <circle id="Ellipse_316" data-name="Ellipse 316" cx="105.907" cy="105.907" r="105.907" transform="translate(82.173 123.67)" fill="#fad8d8"/>
      <g id="Group_3435" data-name="Group 3435" transform="translate(0 0)">
        <g id="g10" transform="translate(0 0)">
          <g id="g12" transform="translate(0 0)">
            <path id="path14" d="M67.3-444.936H28.621v76.674H67.3v-76.674" transform="translate(-11.592 515.788)" fill="#f3f2f1"/>
            <path id="path16" d="M137.925-444.936H96.131v76.674h41.793v-76.674" transform="translate(-38.935 515.788)" fill="#f3f2f1"/>
            <path id="path18" d="M96.131-232.983h41.793v-74.083H96.131v74.083" transform="translate(-38.935 459.948)" fill="#f3f2f1"/>
            <path id="path20" d="M175.378-494.492h44.014v-68.016h1.487v68.016H256.7v-69.525h-81.32v69.525" transform="translate(-71.031 564.017)" fill="#f3f2f1"/>
            <path id="path26" d="M67.3-232.983v-74.083H28.621v74.083H67.3" transform="translate(-11.592 459.948)" fill="#f3f2f1"/>
            <path id="path30" d="M67.3-180.325H28.621v66.758H67.3v-66.758" transform="translate(-11.592 408.616)" fill="#f3f2f1"/>
            <path id="path34" d="M67.3-494.492v-68.016h1.487v68.016h41.793v-69.525H28.621v69.525H67.3" transform="translate(-11.592 564.017)" fill="#f3f2f1"/>
            <path id="path38" d="M96.131-113.567h41.793v-66.758H96.131v66.758" transform="translate(-38.935 408.616)" fill="#f3f2f1"/>
            <path id="path42" d="M575.9-406.121h-6.45V-544.793h6.45v138.672" transform="translate(-230.636 556.231)" fill="#dadbd8"/>
            <path id="path44" d="M412.2-542.9v137.607l.094.093h92.393l.094-.093V-542.9l-.094-.093H412.3l-.094.093" transform="translate(-166.948 555.501)" fill="#f3f2f1"/>
            <path id="path46" d="M412.638-407h90.248l.093-.093V-542.555l-.093-.093H412.638l-.093.093v135.462Zm92.394,2.145H410.493l-.093-.093V-544.7l.093-.093h94.539l.093.093v139.752l-.093.093" transform="translate(-166.218 556.231)" fill="#e7e8e5"/>
            <path id="path48" d="M427.87-528.611V-408.1l.094.093h73.913l.093-.093V-528.611l-.093-.093H427.963l-.094.093" transform="translate(-173.294 549.715)" fill="#fff"/>
            <path id="path50" d="M496.593-422.427h-41.5l-.052-.052v-48.663l.052-.051h41.5l.052.051v48.663l-.052.052" transform="translate(-184.297 526.422)" fill="#e7e8e5"/>
            <path id="path52" d="M493.829-425.428c.054.157-2,1.056-5.907.6a14.429,14.429,0,0,1-6.64-2.654,13.473,13.473,0,0,1-5.16-8.115,11.664,11.664,0,0,1,3.947-11.093,10.359,10.359,0,0,1,2.992-1.753,7.967,7.967,0,0,1,3.743-.432,6.593,6.593,0,0,1,3.743,1.634,4.886,4.886,0,0,1,1.475,4.359,7.116,7.116,0,0,1-2.055,3.743,13.523,13.523,0,0,1-3.134,2.309,17.15,17.15,0,0,1-7.477,2.136,14.877,14.877,0,0,1-7.969-1.814,14.49,14.49,0,0,1-5.863-6.078,12.383,12.383,0,0,1-1.052-8.513,12.647,12.647,0,0,1,4.487-7.014,11.052,11.052,0,0,1,3.761-1.9,9.347,9.347,0,0,1,4.235-.132,6.9,6.9,0,0,1,3.844,2.168,6.385,6.385,0,0,1,1.507,4.108,7.821,7.821,0,0,1-1,3.913,10.47,10.47,0,0,1-2.373,2.852,15.961,15.961,0,0,1-5.894,3.132,15.108,15.108,0,0,1-6.2.478,12.693,12.693,0,0,1-5.4-2.067,11.685,11.685,0,0,1-5.154-8.165,9.856,9.856,0,0,1,1.91-7,8.366,8.366,0,0,1,3.533-2.822c.972-.368,1.525-.355,1.55-.263.04.132-.44.347-1.229.873a9.2,9.2,0,0,0-2.746,2.952,8.724,8.724,0,0,0-1.125,5.979,9.793,9.793,0,0,0,4.583,6.418,11.292,11.292,0,0,0,9.453.9,13.3,13.3,0,0,0,4.731-2.677,5.813,5.813,0,0,0,2.21-4.433,3.187,3.187,0,0,0-2.848-3.146,6.13,6.13,0,0,0-2.72.128,7.833,7.833,0,0,0-2.567,1.345,9.365,9.365,0,0,0-3.237,5.157,9.011,9.011,0,0,0,.794,6.183,11.186,11.186,0,0,0,4.477,4.653,11.6,11.6,0,0,0,6.159,1.434,14.027,14.027,0,0,0,6.056-1.656,10.479,10.479,0,0,0,2.417-1.7,4.088,4.088,0,0,0,1.226-2,1.745,1.745,0,0,0-.5-1.608,3.627,3.627,0,0,0-2-.882,5.059,5.059,0,0,0-2.359.2,7.548,7.548,0,0,0-2.2,1.2,9.072,9.072,0,0,0-2.867,3.949,9.106,9.106,0,0,0-.482,4.535,11.688,11.688,0,0,0,3.963,7.023,13.98,13.98,0,0,0,5.7,2.844c3.519.819,5.631.413,5.659.71" transform="translate(-184.775 523.454)" fill="#dadbd8"/>
            <path id="path54" d="M0-.348H375.592" transform="translate(0 335.723)" fill="#33535f"/>
            <path id="path56" d="M375.592-.488c0,.114-84.085.207-187.787.207C84.068-.281,0-.374,0-.488S84.068-.695,187.8-.695c103.7,0,187.787.093,187.787.206" transform="translate(0 335.863)" fill="#17282f"/>
            <path id="path58" d="M509.7-293.655l3.42-5.824a21.352,21.352,0,0,1-.593-11.665,21.46,21.46,0,0,1,25.7-16.137,21.46,21.46,0,0,1,16.138,25.7,21.461,21.461,0,0,1-25.7,16.137,21.365,21.365,0,0,1-11.8-7.309l0,.011-7.167-.919" transform="translate(-206.435 468.356)" fill="#fff"/>
            <path id="path60" d="M509.7-293.789s.14.027.441.071l1.353.194,5.361.746.106-.079-.008-.052-.006-.011-.158.1a21.484,21.484,0,0,0,8.531,6.345,21.106,21.106,0,0,0,6.738,1.54,21.456,21.456,0,0,0,7.751-.888,21.637,21.637,0,0,0,7.544-4.1,21.746,21.746,0,0,0,5.676-7.316,21.691,21.691,0,0,0-.53-19.55,21.379,21.379,0,0,0-7-7.7,22.016,22.016,0,0,0-9.312-3.5,21.533,21.533,0,0,0-9.321.881,21.739,21.739,0,0,0-7.55,4.252,21.63,21.63,0,0,0-7.155,12.709,21.372,21.372,0,0,0,.876,10.559l.007-.075-2.512,4.389-.63,1.112c-.14.248-.2.368-.2.368s.089-.135.243-.386l.678-1.115,2.577-4.276.008-.076a21.39,21.39,0,0,1-.769-10.453,21.391,21.391,0,0,1,7.111-12.483,21.434,21.434,0,0,1,7.434-4.154,21.173,21.173,0,0,1,9.148-.844,21.635,21.635,0,0,1,9.127,3.44,20.986,20.986,0,0,1,6.862,7.553,21.3,21.3,0,0,1,.535,19.168,21.375,21.375,0,0,1-5.554,7.192,21.33,21.33,0,0,1-7.4,4.051,21.191,21.191,0,0,1-7.622.908,20.893,20.893,0,0,1-6.652-1.479,21.476,21.476,0,0,1-8.493-6.2l-.132-.014-.027.112,0,.01.1-.131-5.31-.623-1.385-.156c-.314-.034-.485-.047-.485-.047" transform="translate(-206.435 468.489)" fill="#17282f"/>
            <path id="path62" d="M537.576-303.283h3.264a2.774,2.774,0,0,1,2.849-2.79,2.64,2.64,0,0,1,2.557,1.686,2.921,2.921,0,0,1-.232,2.644c-.553.913-1.766,1.743-3.967,1.355v7.359h3.228v-4.311A6.3,6.3,0,0,0,549.8-303.5c0-4.774-4.281-5.882-6.112-5.882-1.4,0-6.174.338-6.112,6.1" transform="translate(-217.726 460.885)" fill="#17282f"/>
            <path id="path64" d="M548.351-276.29h-3.276v-3.059h3.276v3.059" transform="translate(-220.764 448.722)" fill="#17282f"/>
            <path id="path66" d="M562.508-211.144a18.747,18.747,0,0,0-23.569-14.414,18.916,18.916,0,0,0-12.586,24,18.639,18.639,0,0,0,5.623,8.3,3.066,3.066,0,0,0,.282.215l.026.017a21.746,21.746,0,0,0,14.993,3.767,16.576,16.576,0,0,0,4.955-1.385,18.776,18.776,0,0,0,10.276-20.492" transform="translate(-212.793 427.233)" fill="#fff"/>
            <path id="path68" d="M562.376-211.251a1.606,1.606,0,0,1,.068.3c.04.218.091.509.158.878a18.571,18.571,0,0,1,.182,3.422,19.3,19.3,0,0,1-1.054,5.318,18.915,18.915,0,0,1-3.613,6.2,19.454,19.454,0,0,1-3.095,2.831,18.361,18.361,0,0,1-3.993,2.185,19.951,19.951,0,0,1-9.925.818,22.246,22.246,0,0,1-5.2-1.544,21.563,21.563,0,0,1-2.5-1.271c-.411-.234-.81-.493-1.209-.756a8.3,8.3,0,0,1-1.125-.923,18.627,18.627,0,0,1-5.667-10.3,17.774,17.774,0,0,1-.13-6.039,20.141,20.141,0,0,1,.625-2.9q.244-.695.487-1.384c.151-.464.4-.887.587-1.33a18.591,18.591,0,0,1,3.162-4.7l.463-.518.508-.469c.343-.3.661-.635,1.019-.915a18.677,18.677,0,0,1,2.209-1.537,18.454,18.454,0,0,1,9.58-2.657,17.275,17.275,0,0,1,2.316.13c.756.075,1.481.267,2.2.391.7.214,1.393.4,2.05.638.641.283,1.3.5,1.883.822a19.138,19.138,0,0,1,5.7,4.36,19.646,19.646,0,0,1,1.756,2.375A16.053,16.053,0,0,1,561-215.652a6.137,6.137,0,0,1,.412.971c.111.31.216.6.314.871a9.412,9.412,0,0,1,.4,1.392c.084.366.151.654.2.869a1.57,1.57,0,0,1,.054.3,1.618,1.618,0,0,1-.1-.289c-.059-.213-.139-.5-.24-.855a9.831,9.831,0,0,0-.434-1.375c-.1-.267-.213-.552-.331-.858a6.114,6.114,0,0,0-.425-.956,16.184,16.184,0,0,0-1.207-2.14,19.9,19.9,0,0,0-1.762-2.328,19.059,19.059,0,0,0-5.656-4.252c-.58-.313-1.227-.52-1.858-.8-.648-.233-1.333-.409-2.02-.615-.709-.117-1.422-.3-2.166-.373a16.951,16.951,0,0,0-2.275-.117,18.149,18.149,0,0,0-9.385,2.642,18.423,18.423,0,0,0-2.159,1.51c-.35.275-.661.6-1,.9l-.5.46-.451.509a18.227,18.227,0,0,0-3.089,4.605c-.186.434-.426.849-.572,1.3s-.317.9-.477,1.355a19.619,19.619,0,0,0-.608,2.838,17.373,17.373,0,0,0,.129,5.9,18.259,18.259,0,0,0,5.536,10.079,7.968,7.968,0,0,0,1.077.886c.391.259.781.514,1.186.745a21.459,21.459,0,0,0,2.458,1.253,21.911,21.911,0,0,0,5.109,1.53,19.667,19.667,0,0,0,9.743-.764,18.113,18.113,0,0,0,3.925-2.122,19.285,19.285,0,0,0,3.062-2.765,18.811,18.811,0,0,0,3.614-6.082,19.506,19.506,0,0,0,1.112-5.249,20.348,20.348,0,0,0-.1-3.4c-.049-.37-.087-.662-.117-.881a1.729,1.729,0,0,1-.026-.3" transform="translate(-212.661 427.341)" fill="#17282f"/>
            <path id="path70" d="M546.549-204.049h2.85a2.422,2.422,0,0,1,2.488-2.435,2.3,2.3,0,0,1,2.233,1.472,2.554,2.554,0,0,1-.2,2.309c-.483.8-1.543,1.522-3.464,1.183v6.427h2.819v-3.764a5.5,5.5,0,0,0,3.952-5.379c0-4.168-3.738-5.136-5.337-5.136-1.223,0-5.391.3-5.338,5.324" transform="translate(-221.36 420.381)" fill="#17282f"/>
            <path id="path72" d="M555.959-180.478H553.1v-2.672h2.861v2.671" transform="translate(-224.013 409.76)" fill="#17282f"/>
            <path id="path74" d="M514.6-197.62a3.8,3.8,0,0,1-3.8,3.794,3.8,3.8,0,0,1-3.794-3.794,3.794,3.794,0,0,1,3.794-3.794,3.794,3.794,0,0,1,3.8,3.794" transform="translate(-205.347 417.158)" fill="#fff"/>
            <path id="path76" d="M514.46-197.74c-.04,0-.036-.338-.2-.907a3.786,3.786,0,0,0-1.391-1.993,3.657,3.657,0,0,0-3.435-.485,3.636,3.636,0,0,0-2.36,3.385,3.635,3.635,0,0,0,2.36,3.385,3.659,3.659,0,0,0,3.435-.485,3.786,3.786,0,0,0,1.391-1.994c.161-.569.157-.908.2-.907.014,0,.025.083.029.244a2.822,2.822,0,0,1-.069.7,3.777,3.777,0,0,1-1.369,2.186,3.93,3.93,0,0,1-3.743.612,4,4,0,0,1-2.643-3.744,4,4,0,0,1,2.643-3.743,3.926,3.926,0,0,1,3.742.611,3.782,3.782,0,0,1,1.37,2.186,2.831,2.831,0,0,1,.069.7c0,.161-.014.244-.029.244" transform="translate(-205.207 417.277)" fill="#17282f"/>
            <path id="path78" d="M502.569-385.245a19.33,19.33,0,0,0-24.3-14.862,19.5,19.5,0,0,0-12.976,24.742,19.236,19.236,0,0,0,5.8,8.553c.1.079.19.151.292.221l.026.018a22.429,22.429,0,0,0,15.458,3.883,17.107,17.107,0,0,0,5.109-1.428,19.361,19.361,0,0,0,10.595-21.127" transform="translate(-188.05 497.937)" fill="#fff"/>
            <path id="path80" d="M502.437-385.352a1.738,1.738,0,0,1,.069.3c.04.224.094.524.162.905a19.311,19.311,0,0,1,.186,3.529,19.874,19.874,0,0,1-1.088,5.482,19.5,19.5,0,0,1-3.724,6.388,20.154,20.154,0,0,1-3.19,2.918,18.966,18.966,0,0,1-4.117,2.251,20.559,20.559,0,0,1-10.23.842,22.885,22.885,0,0,1-5.363-1.591,22.225,22.225,0,0,1-2.581-1.311c-.424-.241-.835-.508-1.246-.779a8.6,8.6,0,0,1-1.16-.951,19.2,19.2,0,0,1-5.84-10.615,18.31,18.31,0,0,1-.134-6.224,20.69,20.69,0,0,1,.643-2.989q.253-.716.5-1.426c.155-.478.407-.915.6-1.371a19.133,19.133,0,0,1,3.26-4.841l.476-.534.524-.484c.353-.315.681-.655,1.05-.943a19.184,19.184,0,0,1,2.276-1.584,19.032,19.032,0,0,1,9.874-2.74,17.669,17.669,0,0,1,2.388.135c.779.076,1.527.275,2.269.4.72.221,1.436.409,2.113.657.66.293,1.335.516,1.941.847a19.733,19.733,0,0,1,5.874,4.493,20.46,20.46,0,0,1,1.81,2.449,16.61,16.61,0,0,1,1.225,2.245,6.275,6.275,0,0,1,.424,1q.174.478.324.9a9.556,9.556,0,0,1,.413,1.436c.087.377.156.673.208.894a1.738,1.738,0,0,1,.057.307,1.7,1.7,0,0,1-.1-.3c-.061-.218-.144-.51-.248-.882a10.119,10.119,0,0,0-.447-1.417l-.34-.884a6.285,6.285,0,0,0-.437-.985,16.87,16.87,0,0,0-1.246-2.207,20.347,20.347,0,0,0-1.817-2.4,19.627,19.627,0,0,0-5.832-4.386c-.6-.323-1.265-.538-1.916-.822-.668-.24-1.374-.42-2.083-.634-.731-.121-1.467-.313-2.233-.384a17.492,17.492,0,0,0-2.347-.121,18.724,18.724,0,0,0-9.679,2.723,19.034,19.034,0,0,0-2.227,1.559c-.361.283-.681.619-1.027.927l-.512.474-.466.525a18.793,18.793,0,0,0-3.186,4.75c-.193.447-.439.875-.59,1.344s-.327.93-.491,1.4a20.419,20.419,0,0,0-.627,2.927,17.933,17.933,0,0,0,.133,6.09,18.838,18.838,0,0,0,5.709,10.4,8.227,8.227,0,0,0,1.11.913c.4.267.806.53,1.223.769a22.243,22.243,0,0,0,2.535,1.293,22.629,22.629,0,0,0,5.268,1.577,20.28,20.28,0,0,0,10.049-.788,18.743,18.743,0,0,0,4.048-2.189,19.885,19.885,0,0,0,3.158-2.852,19.418,19.418,0,0,0,3.725-6.273,20.1,20.1,0,0,0,1.145-5.413,21.026,21.026,0,0,0-.107-3.509c-.051-.383-.091-.684-.121-.908a1.767,1.767,0,0,1-.027-.313" transform="translate(-187.919 498.044)" fill="#17282f"/>
            <path id="path82" d="M486.114-377.929h2.938a2.5,2.5,0,0,1,2.565-2.512,2.377,2.377,0,0,1,2.3,1.518,2.635,2.635,0,0,1-.209,2.38c-.5.822-1.591,1.569-3.572,1.22v6.626h2.906v-3.882a5.673,5.673,0,0,0,4.075-5.544c0-4.3-3.853-5.3-5.5-5.3-1.262,0-5.559.3-5.5,5.49" transform="translate(-196.884 490.872)" fill="#17282f"/>
            <path id="path84" d="M495.816-353.627h-2.949v-2.754h2.949v2.754" transform="translate(-199.619 479.922)" fill="#17282f"/>
            <path id="path86" d="M469.7-333.537a3.912,3.912,0,0,1-3.913,3.913,3.913,3.913,0,0,1-3.913-3.913,3.913,3.913,0,0,1,3.913-3.913,3.912,3.912,0,0,1,3.913,3.913" transform="translate(-187.068 472.254)" fill="#fff"/>
            <path id="path88" d="M469.564-333.657c-.041,0-.034-.348-.2-.935a3.9,3.9,0,0,0-1.434-2.059,3.776,3.776,0,0,0-3.547-.5,3.754,3.754,0,0,0-2.438,3.495,3.754,3.754,0,0,0,2.438,3.5,3.774,3.774,0,0,0,3.547-.5,3.9,3.9,0,0,0,1.434-2.058c.167-.587.16-.937.2-.935.013,0,.024.086.029.252a2.97,2.97,0,0,1-.073.723,3.894,3.894,0,0,1-1.412,2.251,4.046,4.046,0,0,1-3.854.628,4.112,4.112,0,0,1-2.721-3.854,4.114,4.114,0,0,1,2.721-3.853,4.048,4.048,0,0,1,3.854.628,3.9,3.9,0,0,1,1.411,2.251,2.942,2.942,0,0,1,.074.724c0,.165-.015.251-.029.251" transform="translate(-186.927 472.374)" fill="#17282f"/>
            <path id="path90" d="M169.377-429.763H116.254a13.869,13.869,0,0,0-13.869,13.869v26.23a13.869,13.869,0,0,0,13.869,13.869h39.51l6.824,11.316,6.385-11.316h.4a13.869,13.869,0,0,0,13.869-13.869v-26.23a13.869,13.869,0,0,0-13.869-13.869" transform="translate(-41.468 509.642)" fill="#fff"/>
            <path id="path92" d="M169.239-429.878s.111,0,.328,0l.972.034c.426.04.954.121,1.579.222a15.094,15.094,0,0,1,2.107.62,13.812,13.812,0,0,1,5.071,3.334,14.51,14.51,0,0,1,2.283,3.123A14.143,14.143,0,0,1,183-418.4a27.131,27.131,0,0,1,.23,4.865q0,2.549.01,5.329c.007,3.7.014,7.707.021,11.977q0,3.206,0,6.607a14.144,14.144,0,0,1-1.814,6.755,14.748,14.748,0,0,1-2.2,2.929,14.235,14.235,0,0,1-2.967,2.3,13.346,13.346,0,0,1-3.552,1.453,14.368,14.368,0,0,1-1.921.363c-.651.051-1.318.1-1.969.094l.159-.094L162.619-364.5l-.163.288-.171-.283-6.83-11.312.171.1-33,.006-6.663-.008a14.372,14.372,0,0,1-6.406-1.622,14.092,14.092,0,0,1-7.316-10.225l-.119-.792-.04-.8c-.037-.534-.033-1.056-.031-1.577q0-1.566,0-3.116,0-3.1,0-6.142,0-6.08.007-11.891,0-1.452,0-2.885a26.659,26.659,0,0,1,.1-2.865,13.956,13.956,0,0,1,1.754-5.334,14.112,14.112,0,0,1,8.276-6.524c.423-.1.839-.232,1.264-.305l1.276-.189c.857-.052,1.7-.083,2.529-.067l4.889.006,9.19.013,27.733.066,7.54.039,1.96.021c.442.006.668.021.668.021s-.226.014-.668.021l-1.96.021-7.54.039-27.733.065-9.19.014-4.889.006-1.25.007-1.246.064-1.244.186c-.415.073-.819.2-1.232.3a13.766,13.766,0,0,0-8.056,6.375,13.588,13.588,0,0,0-1.7,5.2,26.441,26.441,0,0,0-.095,2.823q0,1.433,0,2.885,0,5.807.007,11.891,0,3.039,0,6.142,0,1.55,0,3.116c0,.523,0,1.046.032,1.56l.039.774.117.769a13.687,13.687,0,0,0,7.108,9.925,13.963,13.963,0,0,0,6.218,1.572l6.659.007,33,.007h.113l.058.1,6.819,11.319-.333,0L168.676-376l.053-.094h.107c.655,0,1.291-.04,1.929-.089a14.035,14.035,0,0,0,1.872-.351,13,13,0,0,0,3.463-1.41,13.859,13.859,0,0,0,2.9-2.234,14.373,14.373,0,0,0,2.155-2.853,13.839,13.839,0,0,0,1.787-6.592q.008-3.4.017-6.6c.007-4.27.014-8.273.021-11.977q.006-2.777.011-5.329a27.133,27.133,0,0,0-.2-4.829,13.936,13.936,0,0,0-1.376-4.091,14.333,14.333,0,0,0-2.233-3.1,13.783,13.783,0,0,0-4.991-3.344,15.313,15.313,0,0,0-2.083-.641c-.619-.109-1.143-.2-1.567-.249l-.967-.063c-.217-.016-.328-.032-.328-.032" transform="translate(-41.33 509.758)" fill="#17282f"/>
            <path id="path94" d="M179.663-405.953c0,.114-13.138.207-29.341.207s-29.343-.093-29.343-.207,13.135-.206,29.343-.206,29.341.093,29.341.206" transform="translate(-48.999 500.082)" fill="#17282f"/>
            <path id="path96" d="M179.663-395.252c0,.114-13.138.206-29.341.206s-29.343-.092-29.343-.206,13.135-.207,29.343-.207,29.341.093,29.341.207" transform="translate(-48.999 495.749)" fill="#17282f"/>
            <path id="path98" d="M179.663-384.551c0,.114-13.138.206-29.341.206s-29.343-.092-29.343-.206,13.135-.207,29.343-.207,29.341.093,29.341.207" transform="translate(-48.999 491.414)" fill="#17282f"/>
            <path id="path100" d="M179.663-373.85c0,.114-13.138.207-29.341.207s-29.343-.093-29.343-.207,13.135-.206,29.343-.206,29.341.092,29.341.206" transform="translate(-48.999 487.08)" fill="#17282f"/>
            <path id="path102" d="M179.663-363.149c0,.114-13.138.206-29.341.206s-29.343-.092-29.343-.206,13.135-.206,29.343-.206,29.341.092,29.341.206" transform="translate(-48.999 482.746)" fill="#17282f"/>
            <path id="path104" d="M236.627-514.845H176.673a10.453,10.453,0,0,0-10.453,10.453v21.085a10.453,10.453,0,0,0,10.453,10.453H219.6l6.824,11.316,6.385-11.316h3.819a10.454,10.454,0,0,0,10.453-10.453v-21.085a10.453,10.453,0,0,0-10.453-10.453" transform="translate(-67.321 544.102)" fill="#fff"/>
            <path id="path106" d="M236.481-514.968s.359,0,1.057.026a10.91,10.91,0,0,1,2.992.731,10.636,10.636,0,0,1,4.006,2.917A11.37,11.37,0,0,1,246.2-508.6a10.74,10.74,0,0,1,.8,3.5c.074,5.055.045,11.179.071,18.222q0,1.321,0,2.683a14.209,14.209,0,0,1-.193,2.784,10.594,10.594,0,0,1-2.608,5.164,10.07,10.07,0,0,1-2.354,1.921,9.982,9.982,0,0,1-2.877,1.194,10.74,10.74,0,0,1-1.566.277c-.533.028-1.072.063-1.6.053l-3.224,0,.154-.09-6.375,11.321-.158.281-.167-.276-6.831-11.311.168.1-36.421.01h-6.195a10.758,10.758,0,0,1-5.924-1.612,10.585,10.585,0,0,1-4.024-4.523,12.162,12.162,0,0,1-1.017-5.867q0-5.877.006-11.537,0-2.826,0-5.593,0-1.384.009-2.752a10.692,10.692,0,0,1,.4-2.73,10.711,10.711,0,0,1,2.7-4.639,10.877,10.877,0,0,1,4.489-2.679,10.535,10.535,0,0,1,2.542-.421c.855-.05,1.678-.013,2.508-.023l4.884,0,17.815.026,25.8.065,7.013.039,1.824.021c.411.007.622.021.622.021s-.211.013-.622.021l-1.824.021-7.013.039-25.8.066-17.815.025-4.884,0a16.412,16.412,0,0,0-4.946.439,10.521,10.521,0,0,0-4.329,2.594,10.338,10.338,0,0,0-2.6,4.478,19.5,19.5,0,0,0-.385,5.379q0,2.766,0,5.593,0,5.655.006,11.537a17.659,17.659,0,0,0,.134,2.913,9.58,9.58,0,0,0,.847,2.78,10.181,10.181,0,0,0,3.871,4.348,10.334,10.334,0,0,0,5.708,1.548h6.195l36.421.01h.111l.058.1,6.816,11.32-.324,0,6.4-11.309.051-.09h.1l3.224,0c.535.012,1.051-.022,1.568-.047a10.479,10.479,0,0,0,1.516-.266,9.609,9.609,0,0,0,2.789-1.15,9.739,9.739,0,0,0,2.286-1.856,10.282,10.282,0,0,0,2.545-5,13.933,13.933,0,0,0,.2-2.726q0-1.361,0-2.683c0-7.039.056-13.179.012-18.211a10.562,10.562,0,0,0-.767-3.441,11.25,11.25,0,0,0-1.621-2.662,10.61,10.61,0,0,0-3.927-2.919,11.439,11.439,0,0,0-4.007-.856" transform="translate(-67.176 544.225)" fill="#17282f"/>
            <path id="path108" d="M187.684-490h58.683" transform="translate(-76.015 534.041)" fill="#fff"/>
            <path id="path110" d="M246.366-490.145c0,.115-13.138.207-29.34.207s-29.343-.092-29.343-.207,13.135-.206,29.343-.206,29.34.093,29.34.206" transform="translate(-76.015 534.181)" fill="#17282f"/>
            <path id="path112" d="M187.684-479.3h58.683" transform="translate(-76.015 529.706)" fill="#fff"/>
            <path id="path114" d="M246.366-479.442c0,.113-13.138.206-29.34.206s-29.343-.093-29.343-.206,13.135-.207,29.343-.207,29.34.093,29.34.207" transform="translate(-76.015 529.847)" fill="#17282f"/>
            <path id="path116" d="M187.684-468.6h58.683" transform="translate(-76.015 525.372)" fill="#fff"/>
            <path id="path118" d="M246.366-468.742c0,.114-13.138.206-29.34.206s-29.343-.092-29.343-.206,13.135-.207,29.343-.207,29.34.093,29.34.207" transform="translate(-76.015 525.513)" fill="#17282f"/>
            <path id="path120" d="M435.7-270.2c-.757-.9-1.742-1.714-1.982-2.865-.23-1.107.3-2.209.535-3.314a6.737,6.737,0,0,0-4.244-7.525c-1.71-.589-3.908-.639-4.777-2.227-.855-1.559.229-3.406.865-5.067a10.147,10.147,0,0,0-.678-8.519,14.019,14.019,0,0,0-.728-1.71,13.334,13.334,0,0,0-11.462-7.379,9.311,9.311,0,0,0-7.07-7.145,8.132,8.132,0,0,0-.854-3.713c-1.676-3.257-5.233-5.237-8.851-5.82a16.863,16.863,0,0,0-14.529,4.815c-2,2.055-3.614,4.737-6.321,5.679a11.8,11.8,0,0,1-4.436.363,17.982,17.982,0,0,0-3.074.042,11.336,11.336,0,0,0-7.938,5.723,24.488,24.488,0,0,0-2.822,9.653c-.364,3.077-.6,6.455-2.739,8.7-2.082,2.19-5.373,2.654-7.962,4.213a10.9,10.9,0,0,0-3.237,14.886c1.025,1.495,2.5,2.866,2.616,4.676.109,1.652-.959,3.122-1.459,4.7a7.356,7.356,0,0,0,6.293,9.134,14.876,14.876,0,0,0,2.278-.1,7.408,7.408,0,0,1,4.1.351c1.913.954,2.625,3.26,3.848,5.012a9.2,9.2,0,0,0,11.214,2.9c1.58-.775,3.072-2.054,4.828-1.936s3.132,1.614,4.856,1.948c2.257.436,4.4-1.226,5.743-3.092s2.277-4.066,3.994-5.594c2.25-2,5.409-2.494,8.255-3.475a23.529,23.529,0,0,0,10.449-7.356l-.278,15.85a5.19,5.19,0,0,0,4.6-2.037,6.612,6.612,0,0,0,1.576.793,7.234,7.234,0,0,0,7.837-2.454c.915-1.219,1.484-2.78,2.781-3.579,1.132-.7,2.551-.642,3.859-.88a8.552,8.552,0,0,0,6.389-5.407A8.556,8.556,0,0,0,435.7-270.2" transform="translate(-138.401 467.49)" fill="#17282f"/>
            <path id="path122" d="M402.812-297.148c-3.285,2.07-10.741,11.182-10.887,13.866l.766,54.526c-.121,4.1-.822,7.624,1.574,10.949,6.646,7.943,22.029,8.916,25.546,2.374a6.2,6.2,0,0,0,.563-1.315,12.156,12.156,0,0,0,.308-1.345,43.362,43.362,0,0,0,.8-9.064c.459-5.33.62-7.517.62-7.467,0,0,11.391-1.034,14.811-15.542,1.7-7.214,2.223-19.213,2.332-29.043a16.086,16.086,0,0,0-1.169-5.629c-4.228-11.314-13.95-16.805-25.638-15.8-2.929.251-7.409,1.562-9.627,3.491" transform="translate(-158.736 457.392)" fill="#f9a78d"/>
            <path id="path124" d="M443.283-241.614a13.407,13.407,0,0,1,3.335-.351c.52-.014,1.019-.081,1.132-.428a2.646,2.646,0,0,0-.232-1.56q-.59-1.931-1.238-4.052c-1.708-5.767-2.9-10.493-2.671-10.56s1.806,4.554,3.515,10.319q.613,2.131,1.171,4.072a3,3,0,0,1,.119,2.051,1.3,1.3,0,0,1-.908.693,3.487,3.487,0,0,1-.888.056,13.306,13.306,0,0,1-3.336-.242" transform="translate(-179.536 440.304)" fill="#17282f"/>
            <path id="path126" d="M429.527-194.169a37.45,37.45,0,0,1-19.272-6.7s4.189,10.53,18.985,10.246l.287-3.542" transform="translate(-166.159 416.938)" fill="#f57f62"/>
            <path id="path128" d="M437.053-223.066a3.662,3.662,0,0,0-3.172-1.6,3.341,3.341,0,0,0-2.393,1.064,2.118,2.118,0,0,0-.34,2.4,2.458,2.458,0,0,0,2.606.869,7.7,7.7,0,0,0,2.7-1.353,2.231,2.231,0,0,0,.623-.556.677.677,0,0,0,.053-.754" transform="translate(-174.525 426.575)" fill="#f57f62"/>
            <path id="path130" d="M432.8-228.464c.331,0,.171,2.2,1.938,3.9s4.125,1.633,4.12,1.941c.021.14-.554.389-1.545.341a5.487,5.487,0,0,1-3.448-1.5,4.786,4.786,0,0,1-1.485-3.264c-.015-.925.271-1.452.42-1.427" transform="translate(-175.121 428.113)" fill="#17282f"/>
            <path id="path132" d="M426.128-266.729c-.241.535-2.244.125-4.643.235-2.4.062-4.37.615-4.648.1-.124-.247.249-.74,1.064-1.215a7.723,7.723,0,0,1,3.51-.944,7.727,7.727,0,0,1,3.568.689c.846.417,1.253.882,1.149,1.138" transform="translate(-168.816 444.353)" fill="#17282f"/>
            <path id="path134" d="M460.834-267.144c-.459.428-2.088-.173-4.089-.344-1.994-.229-3.72.035-4.074-.475-.155-.247.147-.687.919-1.068a6.514,6.514,0,0,1,3.383-.508,6.406,6.406,0,0,1,3.2,1.167c.672.526.869,1.017.665,1.228" transform="translate(-183.323 444.764)" fill="#17282f"/>
            <path id="path136" d="M389.559-242.46c.079-1.093-.994-3.764-2.061-4.013-2.85-.663-8.065-.817-8.657,6.5-.808,10.005,9.4,8.753,9.444,8.467.032-.223,1-7.179,1.273-10.955" transform="translate(-153.418 435.526)" fill="#f9a78d"/>
            <path id="path138" d="M387.275-233.4c-.041-.036-.185.108-.489.22a1.75,1.75,0,0,1-1.306-.079c-1.026-.473-1.779-2.223-1.683-4.03a5.784,5.784,0,0,1,.689-2.457,2.02,2.02,0,0,1,1.419-1.23.889.889,0,0,1,.989.56c.113.291.033.485.085.506.025.029.228-.149.18-.569a1.115,1.115,0,0,0-.343-.659,1.318,1.318,0,0,0-.944-.332,2.457,2.457,0,0,0-1.945,1.4,5.95,5.95,0,0,0-.83,2.74c-.1,2.021.781,3.991,2.194,4.526a1.874,1.874,0,0,0,1.616-.136c.329-.222.4-.441.367-.462" transform="translate(-155.158 433.38)" fill="#f57f62"/>
            <path id="path140" d="M390.081-271.488c0-.5-.183.468,0,0" transform="translate(-157.956 445.599)" fill="#33535f"/>
            <path id="path142" d="M429.709-298.675c-3.723-2.508-6.782-5.406-15.874-5.42-7.021-.009-12.161,4.074-17.693,8.9-7.1,6.2-11.606,16.3-8.612,25.24l2.984,1.167,2.836-6.857c4.887-10.63,15.051-19.571,26.017-20.1a20.9,20.9,0,0,1,3.033.048c7.254.727,14.686,13.931,14.686,13.931s1.346-11.038-7.377-16.914" transform="translate(-156.574 458.745)" fill="#f2575d"/>
            <path id="path144" d="M393.214-252.833c.16,2.075.479,3.951.639,6.027.068.874.29,1.949,1.135,2.185a1.478,1.478,0,0,0,1.568-.772A4.33,4.33,0,0,0,397-247.2c.616-6.293,1.142-11.09,1.759-17.382-1.816,2.521-3.675,6.868-5.549,11.751" transform="translate(-159.258 442.743)" fill="#17282f"/>
            <path id="path146" d="M386.787-221.3c.02,0,.06.2-.072.53a2.037,2.037,0,0,1-1.044,1.026,2.851,2.851,0,0,1-2.17.057,3.078,3.078,0,0,1-1.89-1.862,3.221,3.221,0,0,1,.255-2.645,2.977,2.977,0,0,1,1.712-1.334,2.905,2.905,0,0,1,1.453-.076c.336.076.5.176.493.2a4.219,4.219,0,0,0-1.852.155A2.77,2.77,0,0,0,382.2-224a2.921,2.921,0,0,0-.2,2.321,2.772,2.772,0,0,0,1.633,1.641,2.637,2.637,0,0,0,1.921.031,2.025,2.025,0,0,0,1.015-.828c.162-.275.181-.465.217-.459" transform="translate(-154.488 426.977)" fill="#dadbd8"/>
            <path id="path148" d="M425.875-287.672s7.909,2.183,10.585,1.355a7.9,7.9,0,0,0,4.325-3.242s-6.143-2.71-14.91,1.887" transform="translate(-172.486 453.179)" fill="#17282f"/>
            <path id="path150" d="M484.621-270.361a8.155,8.155,0,0,0,.835-1.01,5.457,5.457,0,0,0,.843-3.435,6.469,6.469,0,0,0-2.7-4.539,9.835,9.835,0,0,0-6.531-1.682l-.346.024.154-.313a18.859,18.859,0,0,0,1.858-5.411,9.94,9.94,0,0,0-.307-4.566,7.853,7.853,0,0,0-2.378-3.5,11.8,11.8,0,0,0-6.707-2.635,24.3,24.3,0,0,0-4.975.143l-1.351.169a2.033,2.033,0,0,1-.475.04A2.089,2.089,0,0,1,463-297.2c.305-.065.757-.154,1.343-.247a22.1,22.1,0,0,1,5.021-.274,11.947,11.947,0,0,1,6.931,2.636,8.185,8.185,0,0,1,2.514,3.661,10.275,10.275,0,0,1,.332,4.755,18.992,18.992,0,0,1-1.908,5.527l-.191-.289a10.109,10.109,0,0,1,6.764,1.8,6.692,6.692,0,0,1,2.745,4.8,5.455,5.455,0,0,1-.984,3.532,3.194,3.194,0,0,1-.949.932" transform="translate(-187.337 456.179)" fill="#17282f"/>
            <path id="path152" d="M352.935-258.194a.916.916,0,0,1-.217.006l-.636-.024c-.558-.029-1.382-.071-2.439-.2a16.322,16.322,0,0,1-3.784-.868,9.082,9.082,0,0,1-4.157-3,9.481,9.481,0,0,1-1.514-6,32.631,32.631,0,0,1,.337-3.46,18.971,18.971,0,0,1,.753-3.619,6.37,6.37,0,0,1,2.256-3.193,6.421,6.421,0,0,1,3.973-.866,6.359,6.359,0,0,0,3.89-.743,4.935,4.935,0,0,0,1.771-3.579,29.088,29.088,0,0,0-.158-4.249,21.965,21.965,0,0,1,.174-4.193,21.762,21.762,0,0,1,2.43-7.517,19.012,19.012,0,0,1,4.5-5.557,17.5,17.5,0,0,1,5.414-3.081,16.956,16.956,0,0,1,8.91-.758,12.105,12.105,0,0,1,3.141,1.006.887.887,0,0,1-.21-.056l-.6-.2a15.83,15.83,0,0,0-2.359-.587,17.116,17.116,0,0,0-8.782.874A17.343,17.343,0,0,0,360.331-305a18.773,18.773,0,0,0-4.384,5.476,21.493,21.493,0,0,0-2.364,7.39,21.709,21.709,0,0,0-.164,4.118,29.1,29.1,0,0,1,.159,4.311,5.328,5.328,0,0,1-1.941,3.872,4.411,4.411,0,0,1-2.044.749,15.5,15.5,0,0,1-2.091.065,6.053,6.053,0,0,0-3.744.787,6.007,6.007,0,0,0-2.123,2.995,18.7,18.7,0,0,0-.751,3.544,32.852,32.852,0,0,0-.355,3.419,9.21,9.21,0,0,0,1.41,5.823,8.9,8.9,0,0,0,4,2.957,16.79,16.79,0,0,0,3.721.923c1.048.148,1.869.216,2.425.272l.632.065a.79.79,0,0,1,.215.036" transform="translate(-137.776 460.885)" fill="#17282f"/>
            <path id="path154" d="M398.232-289.128a5.6,5.6,0,0,1-.643.9c-.221.277-.486.618-.772,1.03s-.639.862-.974,1.4a38.327,38.327,0,0,0-2.24,3.817A40.949,40.949,0,0,0,391.5-277a41.053,41.053,0,0,0-1.363,5.241,37.956,37.956,0,0,0-.543,4.393c-.061.628-.057,1.2-.077,1.7s-.021.933-.014,1.287a5.631,5.631,0,0,1-.035,1.1,5.727,5.727,0,0,1-.125-1.1c-.032-.355-.059-.789-.056-1.293s-.025-1.081.015-1.716a33.743,33.743,0,0,1,.462-4.444,37.762,37.762,0,0,1,1.346-5.306,37.966,37.966,0,0,1,2.159-5.03,33.663,33.663,0,0,1,2.338-3.807c.353-.529.723-.972,1.031-1.372s.591-.73.831-.992a5.687,5.687,0,0,1,.767-.794" transform="translate(-157.662 452.683)" fill="#17282f"/>
            <path id="path156" d="M406.705-295.5a8.233,8.233,0,0,1-.962.921c-.321.282-.71.631-1.139,1.061s-.946.889-1.46,1.454a47.654,47.654,0,0,0-3.495,4.057,51.213,51.213,0,0,0-3.615,5.465,51.229,51.229,0,0,0-2.814,5.92,47.616,47.616,0,0,0-1.668,5.088c-.219.732-.351,1.411-.492,2s-.244,1.1-.32,1.523a8.391,8.391,0,0,1-.291,1.3,8.1,8.1,0,0,1,.132-1.326c.052-.426.127-.946.252-1.543s.233-1.284.434-2.026a42.956,42.956,0,0,1,1.6-5.154,47.843,47.843,0,0,1,2.809-5.985,47.782,47.782,0,0,1,3.673-5.495,42.623,42.623,0,0,1,3.588-4.03c.531-.555,1.061-1.007,1.51-1.418s.853-.749,1.191-1.013a8.227,8.227,0,0,1,1.068-.8" transform="translate(-158.135 455.264)" fill="#17282f"/>
            <path id="path158" d="M362.537-256.7a1.206,1.206,0,0,1-.217.155,4.411,4.411,0,0,1-.681.382,6.808,6.808,0,0,1-2.926.63,7.929,7.929,0,0,1-4.5-1.414,8.62,8.62,0,0,1-3.342-5.244,10.136,10.136,0,0,1-.119-3.678,11.025,11.025,0,0,1,1.339-3.758,13.172,13.172,0,0,1,2.7-3.307,19.084,19.084,0,0,1,3.757-2.5,14.712,14.712,0,0,0,3.791-2.663,9.9,9.9,0,0,0,2.243-4.212,23.732,23.732,0,0,0,.7-4.992c.09-1.713.079-3.472.256-5.247a17.06,17.06,0,0,1,1.187-5.156,8.848,8.848,0,0,1,3.249-3.976,15.745,15.745,0,0,1,4.553-1.966c1.554-.442,3.089-.785,4.546-1.237a13.47,13.47,0,0,0,3.991-1.86,5.535,5.535,0,0,0,.814-.675,7.164,7.164,0,0,0,.721-.752,13.861,13.861,0,0,0,1.147-1.7,18.38,18.38,0,0,1,2.209-3.307,9.153,9.153,0,0,1,3.012-2.117,8.906,8.906,0,0,1,6.214-.373,9.064,9.064,0,0,1,3.965,2.573,8.63,8.63,0,0,1,1.6,2.53,4.907,4.907,0,0,1,.317,1c-.027.009-.109-.344-.394-.962A9,9,0,0,0,401.032-313a9,9,0,0,0-3.915-2.461,8.691,8.691,0,0,0-6.028.42,8.881,8.881,0,0,0-2.9,2.066,18.223,18.223,0,0,0-2.147,3.264,14.171,14.171,0,0,1-1.168,1.752,7.559,7.559,0,0,1-.749.79,5.915,5.915,0,0,1-.846.708,13.8,13.8,0,0,1-4.092,1.93c-1.476.463-3.013.811-4.55,1.253a15.426,15.426,0,0,0-4.434,1.921,8.461,8.461,0,0,0-3.1,3.8,16.734,16.734,0,0,0-1.153,5.032c-.174,1.752-.165,3.5-.257,5.231a24,24,0,0,1-.724,5.077,10.262,10.262,0,0,1-2.346,4.374,15.006,15.006,0,0,1-3.894,2.725,18.733,18.733,0,0,0-3.7,2.444,12.855,12.855,0,0,0-2.644,3.205,10.714,10.714,0,0,0-1.321,3.637,9.885,9.885,0,0,0,.09,3.567,8.4,8.4,0,0,0,3.191,5.118,7.822,7.822,0,0,0,4.368,1.441,6.98,6.98,0,0,0,2.891-.546c.628-.263.914-.489.931-.461" transform="translate(-142.014 463.595)" fill="#33535f"/>
            <path id="path160" d="M459.856-247.08a1.975,1.975,0,0,1-1.9,2,1.89,1.89,0,0,1-2.041-1.777,1.977,1.977,0,0,1,1.9-2,1.889,1.889,0,0,1,2.044,1.778" transform="translate(-184.652 436.374)" fill="#17282f"/>
            <path id="path162" d="M460.03-257.408c-.244.258-1.744-.846-3.871-.836-2.125-.02-3.683,1.077-3.915.818-.113-.115.136-.581.815-1.077a5.422,5.422,0,0,1,3.132-.973,5.2,5.2,0,0,1,3.082.988c.655.5.878.966.758,1.081" transform="translate(-183.155 440.674)" fill="#17282f"/>
            <path id="path164" d="M428.906-247.079a1.976,1.976,0,0,1-1.9,2,1.891,1.891,0,0,1-2.041-1.777,1.978,1.978,0,0,1,1.9-2,1.891,1.891,0,0,1,2.044,1.779" transform="translate(-172.116 436.374)" fill="#17282f"/>
            <path id="path166" d="M426.183-257.408c-.245.259-1.747-.846-3.872-.836-2.124-.02-3.683,1.078-3.914.818-.113-.115.133-.581.814-1.077a5.425,5.425,0,0,1,3.133-.973,5.212,5.212,0,0,1,3.082.988c.654.5.877.966.758,1.081" transform="translate(-169.446 440.674)" fill="#17282f"/>
            <path id="path168" d="M480.5-152.8c-9.182-11.172-17.12-12.759-17.12-12.759l.054,39.865L492.7-88.674l11.907-30.468S486.721-145.23,480.5-152.8" transform="translate(-187.676 402.635)" fill="#89e5f3"/>
            <path id="path170" d="M392.338-174.461l13.121,3.184s6.775,39.293,4.317,49.455c-2.091,8.648-8.8,48.55-8.8,48.55h-80.9l27.106-77.87s.156-17.119-4.028-25.029c2.536-.609,11.1-2.186,18.5-3.575,0,0,4.921,6.142,16.5,7.9s14.176-2.612,14.176-2.612" transform="translate(-129.636 408.381)" fill="#89e5f3"/>
            <path id="path172" d="M408.4-115.553H357.57c-4.443,26-15.257,35.961-34.331,51.01l-3.163,17.271h80.9l4.695-27.135-.275-9.993,3-31.152" transform="translate(-129.636 382.382)" fill="#005b7c"/>
            <path id="path174" d="M338.559-174.381s-19.331,1.549-26.267,33.219c-3.137,14.325-7.1,31.114-8.243,42.4-.829,8.184,2.1,19.495,9.965,21.368L328.3-75.576c6.382.1,10.761-5.091,12.105-10.649l2.228-8.834c1.536-10.8-6.688-11.738-11.313-11.639l10.172-40.227,1.97-19.465-4.9-7.992" transform="translate(-123.089 406.209)" fill="#89e5f3"/>
            <path id="path176" d="M469.769-129.1a2.474,2.474,0,0,1,.088.442c.049.321.113.746.194,1.276.04.281.086.588.133.923s.072.71.113,1.1c.08.793.177,1.7.218,2.7a66.464,66.464,0,0,1,.048,7.044,84.929,84.929,0,0,1-.855,8.584c-.445,3.029-1,5.892-1.571,8.481s-1.127,4.908-1.607,6.853-.9,3.511-1.2,4.592c-.144.517-.259.93-.345,1.243a2.59,2.59,0,0,1-.141.429,2.457,2.457,0,0,1,.08-.444c.073-.316.169-.734.29-1.257l1.1-4.614c.455-1.95,1-4.271,1.542-6.861s1.1-5.447,1.542-8.467.75-5.911.877-8.553c.111-2.639.136-5.023.018-7.019-.028-1-.109-1.9-.172-2.693q-.046-.591-.086-1.1c-.039-.336-.075-.645-.106-.925-.057-.534-.1-.96-.137-1.283a2.384,2.384,0,0,1-.026-.451" transform="translate(-188.27 387.871)" fill="#17282f"/>
            <path id="path178" d="M324.321-49.6a3.581,3.581,0,0,1,.154-.8,12.8,12.8,0,0,1,.746-2.083A14.412,14.412,0,0,1,329.8-58.1a14.412,14.412,0,0,1,6.765-2.631,12.67,12.67,0,0,1,2.212-.071,3.5,3.5,0,0,1,.805.1c0,.021-.132.02-.374.02a17.152,17.152,0,0,0-2.615.169,14.961,14.961,0,0,0-6.611,2.663,14.983,14.983,0,0,0-4.566,5.471,29.6,29.6,0,0,0-1.1,2.787" transform="translate(-131.353 360.217)" fill="#17282f"/>
            <path id="path180" d="M331.835-68.5a1.352,1.352,0,0,1,.467-.044,10.176,10.176,0,0,1,1.273.056,14.712,14.712,0,0,1,4.079,1.027,14.7,14.7,0,0,1,3.621,2.139,9.96,9.96,0,0,1,.946.857c.209.217.316.344.3.36-.036.038-.522-.414-1.38-1.043a17.412,17.412,0,0,0-3.606-2.028,17.482,17.482,0,0,0-3.989-1.1c-1.051-.157-1.714-.178-1.714-.229" transform="translate(-134.398 363.345)" fill="#17282f"/>
            <path id="path182" d="M361.567-151.288a4.366,4.366,0,0,1-.048-.846c0-.544-.035-1.331-.1-2.3a37.789,37.789,0,0,0-1.286-7.46,37.733,37.733,0,0,0-2.785-7.04c-.447-.862-.831-1.55-1.109-2.017a4.49,4.49,0,0,1-.4-.747,4.486,4.486,0,0,1,.5.684c.312.448.726,1.123,1.2,1.977a33.516,33.516,0,0,1,2.889,7.06,33.547,33.547,0,0,1,1.207,7.53c.038.977.036,1.767,0,2.313a4.514,4.514,0,0,1-.072.845" transform="translate(-144.119 405.122)" fill="#17282f"/>
            <path id="path184" d="M471.793-85.8q.149-.795.29-1.613l.35.442q-.3.593-.64,1.171" transform="translate(-191.083 370.985)" fill="#a7a9a8"/>
            <path id="path186" d="M472.631-104.747l-.35-.442q.232-1.341.438-2.734a84.9,84.9,0,0,0,.855-8.584,66.439,66.439,0,0,0-.048-7.044c-.041-1-.138-1.9-.218-2.7q-.061-.591-.113-1.1c-.048-.335-.093-.643-.133-.923-.081-.531-.145-.955-.194-1.276-.024-.147-.044-.259-.059-.332q-.087-.709-.185-1.416a29.99,29.99,0,0,1,.006,26.555" transform="translate(-191.281 388.761)" fill="#5ab0be"/>
            <path id="path188" d="M471.525-102.439l-.146-.037a77.349,77.349,0,0,0,1.065-26.446c.015.074.035.186.059.332.049.321.113.746.194,1.276.04.281.086.588.133.923s.072.71.113,1.1c.08.793.177,1.7.218,2.7a66.447,66.447,0,0,1,.048,7.044,84.9,84.9,0,0,1-.855,8.584q-.2,1.392-.438,2.734-.14.817-.29,1.613l-.1.173" transform="translate(-190.916 387.797)" fill="#0f191d"/>
            <path id="path190" d="M337.772-19.455c-.032-.027-.336.4-1.057,1a9.672,9.672,0,0,1-3.538,1.688,18.816,18.816,0,0,1-5.822.513c-2.208-.159-4.642-.418-7.175-.794a36.666,36.666,0,0,1-7-1.614,8.929,8.929,0,0,1-2.573-1.718,13.715,13.715,0,0,1-1.8-2.045,19.283,19.283,0,0,1-1.975-3.428c-.184-.432-.328-.766-.414-1a1.718,1.718,0,0,0-.155-.346,1.785,1.785,0,0,0,.1.367c.067.239.194.583.362,1.024a17.643,17.643,0,0,0,1.909,3.509,13.639,13.639,0,0,0,1.8,2.1,9.089,9.089,0,0,0,2.636,1.793,35.559,35.559,0,0,0,7.068,1.657c2.546.378,4.978.628,7.206.773a18.534,18.534,0,0,0,5.894-.586,9.363,9.363,0,0,0,3.557-1.807,6.314,6.314,0,0,0,.754-.786,1.788,1.788,0,0,0,.225-.305" transform="translate(-124.04 346.597)" fill="#17282f"/>
            <path id="path192" d="M358.59-120.428c-.083-.02-2.121,7.893-4.553,17.673S349.7-85.025,349.785-85s2.121-7.892,4.552-17.675,4.335-17.728,4.253-17.748" transform="translate(-141.667 384.357)" fill="#17282f"/>
            <path id="path194" d="M361.121-51.65a2.557,2.557,0,0,0,.1-.65,11.107,11.107,0,0,0,.041-1.8,5.221,5.221,0,0,0-.869-2.535,7.53,7.53,0,0,0-.992-1.246,6.849,6.849,0,0,0-1.373-1.023,17.22,17.22,0,0,0-5.627-1.816,16.085,16.085,0,0,0-1.786-.159,2.468,2.468,0,0,0-.658.024c0,.052.931.086,2.409.351a18.848,18.848,0,0,1,5.507,1.867,6.763,6.763,0,0,1,1.318.972,7.585,7.585,0,0,1,.964,1.185,5.154,5.154,0,0,1,.89,2.4,15.178,15.178,0,0,1,.056,1.771,2.811,2.811,0,0,0,.022.656" transform="translate(-141.738 360.239)" fill="#17282f"/>
            <path id="path196" d="M434.4-47.232l-.035.018.035-.018" transform="translate(-175.925 354.711)" fill="#f9a78d"/>
            <path id="path198" d="M434.017-47.062l-.079.038.079-.038" transform="translate(-175.752 354.643)" fill="#f9a78d"/>
            <path id="path200" d="M434.247-47.2l-.176.083.176-.083" transform="translate(-175.805 354.699)" fill="#f9a78d"/>
            <path id="path202" d="M434.5-47.295l-.079.037.079-.037" transform="translate(-175.949 354.737)" fill="#f9a78d"/>
            <path id="path204" d="M419.608-31.67c-1.552-2.935-13.681-10.677-13.681-10.677l3.283-.758,3.625,1.533a8.921,8.921,0,0,0,1.56,3.4c1.334,1.9,3.6-.064,3.6-.064l-1.532-7.342L409.287-49.9s-6.748,1.031-7.837,1.55l-2.877,2.634c-1.263.989-4.907,4.891-5.9,5.009s-32.3-6.924-32.3-6.924c-4.292,3.4-6.554,10.152-7.235,15.021,0,0-.763,2.394.067,3.692L391.629-25.9l8.143,2.25a57.169,57.169,0,0,0,6.69,2.3c2.71.568,4.535-.3,4.608-1.8s-2.029-1.661-2.029-1.661a41.334,41.334,0,0,1-5.236-2.3,9.206,9.206,0,0,1-2.957-3.244l2.9.348s6.173,4.284,8.492,5.54,2.778-1.049,2.966-1.752-6.933-7.667-6.933-7.667,6.769,4.174,7.987,5.226,3.022,1.368,3.409.662,1.486-.726-.066-3.661" transform="translate(-142.895 355.792)" fill="#f9a78d"/>
            <path id="path206" d="M433.892-47l-.068.032.068-.032" transform="translate(-175.705 354.617)" fill="#f9a78d"/>
            <path id="path208" d="M433.762-46.913h0" transform="translate(-175.68 354.582)" fill="#f9a78d"/>
            <path id="path210" d="M433.8-46.944l-.037.018.037-.018" transform="translate(-175.68 354.595)" fill="#f9a78d"/>
            <path id="path212" d="M408.917-24.734a1.572,1.572,0,0,1-.036-.475,2.859,2.859,0,0,1,.037-.558,4.128,4.128,0,0,1,.133-.732,10.329,10.329,0,0,1,1.967-3.791,22,22,0,0,1,2.961-3.077,8.717,8.717,0,0,1,1.4-1.082,14.274,14.274,0,0,1-1.261,1.231,28.371,28.371,0,0,0-2.871,3.1,11.3,11.3,0,0,0-2,3.67c-.3,1.033-.27,1.716-.329,1.714" transform="translate(-165.602 349.535)" fill="#f57f62"/>
            <path id="path214" d="M439-38.468a3.508,3.508,0,0,1-2.069-.187,3.52,3.52,0,0,1-1.764-1.1c.052-.068.793.482,1.853.831s1.979.37,1.979.456" transform="translate(-176.249 351.685)" fill="#f57f62"/>
            <path id="path216" d="M440.869-25.783a19,19,0,0,1-3.087-1.117,19.011,19.011,0,0,1-2.98-1.379,18.949,18.949,0,0,1,3.088,1.116,18.912,18.912,0,0,1,2.979,1.381" transform="translate(-176.101 347.038)" fill="#f57f62"/>
            <path id="path218" d="M431.941-18.024a7.257,7.257,0,0,1-1.583-.559,7.238,7.238,0,0,1-1.544-.662,3.948,3.948,0,0,1,1.648.4,3.954,3.954,0,0,1,1.48.825" transform="translate(-173.676 343.385)" fill="#f57f62"/>
            <path id="path220" d="M442.005-23.19a6.715,6.715,0,0,0-1.2,1.047,6.67,6.67,0,0,0-.689,1.432c-.035,0-.071-.192-.023-.5a2.53,2.53,0,0,1,.486-1.105,2.528,2.528,0,0,1,.935-.762c.284-.128.478-.144.488-.111" transform="translate(-178.236 344.98)" fill="#f57f62"/>
            <path id="path222" d="M447.178-30.73c.037.074-.493.362-.843.977a7.9,7.9,0,0,0-.437,1.215,1.449,1.449,0,0,1,.19-1.358c.406-.7,1.077-.91,1.089-.834" transform="translate(-180.56 348.034)" fill="#f57f62"/>
            <path id="path224" d="M446.273-45.98c-.032.015-.142-.118-.227-.382a2.041,2.041,0,0,1-.023-1.069,2.029,2.029,0,0,1,.509-.939c.2-.2.355-.264.376-.236a5.468,5.468,0,0,0-.608,1.243,5.484,5.484,0,0,0-.027,1.384" transform="translate(-180.622 355.271)" fill="#f57f62"/>
            <path id="path226" d="M352.832-26.584a4.814,4.814,0,0,0,.052-.883c0-.283.011-.631.04-1.032s.036-.861.094-1.364a30.8,30.8,0,0,1,1.679-7.7,27.651,27.651,0,0,1,1.821-3.94c.352-.566.662-1.123,1.016-1.6q.255-.363.493-.7l.493-.621c1.276-1.57,2.255-2.373,2.209-2.423a4.739,4.739,0,0,0-.69.555,8,8,0,0,0-.754.714,13,13,0,0,0-.932,1.015c-.165.2-.337.4-.514.616s-.336.459-.515.7c-.367.477-.689,1.034-1.053,1.6a26.229,26.229,0,0,0-1.865,3.979,28.2,28.2,0,0,0-1.6,7.79c-.045.509-.04.97-.049,1.375s0,.754.011,1.038a4.765,4.765,0,0,0,.069.882" transform="translate(-142.867 354.558)" fill="#17282f"/>
            <g id="g228" transform="translate(221.42 230.14)">
              <g id="g230" clip-path="url(#clip-path-2)">
                <path id="path236" d="M372.144-176.732h2.574v-.486h-2.574Z" transform="translate(-372.144 177.218)" fill="#a7a9a8"/>
              </g>
            </g>
            <path id="path238" d="M386.114-140.528h-5.5l-2.109-16.761s-1.258-7.922-2.072-10.81-4.262-8.588-4.289-8.633l.349-.067,1.933-.365.29-.055,5.01,8.156,6.385,28.534" transform="translate(-150.725 407.358)" fill="#cc4341"/>
            <path id="path240" d="M387.233-108.769l-.853-6.783h5.5l1.2,5.357v1.046l-5.846.381" transform="translate(-156.49 382.382)" fill="#20353d"/>
            <path id="path242" d="M388.674-135.5s-2.591-21.866-5.038-30.6-6.265-11.847-6.265-11.847l-3.765.708a29.464,29.464,0,0,1,5.2,12.6c1.451,8.04,4.162,29.4,4.162,29.4l5.706-.262" transform="translate(-151.317 407.654)" fill="#005b7c"/>
            <path id="path244" d="M388.425-135.653a2.422,2.422,0,0,1-.351.034l-1.078.072-4.273.251-.087.006-.012-.089c-.551-3.975-1.38-9.974-2.394-17.3-.534-3.671-1.1-7.684-1.841-11.91a33.854,33.854,0,0,0-1.767-6.329,27.313,27.313,0,0,0-3.2-6.052l-.219-.288-.207-.273.328-.061,3.765-.708.1-.018.067.062a16.514,16.514,0,0,1,2.88,3.686,30.279,30.279,0,0,1,2,4.032,46.068,46.068,0,0,1,2.362,8.108c1.077,5.253,1.779,10,2.354,13.965s.966,7.175,1.226,9.385c.121,1.085.215,1.936.282,2.544.026.274.046.492.062.662a1.149,1.149,0,0,1,.006.226,1.848,1.848,0,0,1-.046-.223c-.026-.169-.059-.385-.1-.655-.086-.606-.2-1.453-.355-2.534-.308-2.2-.75-5.4-1.353-9.364s-1.343-8.7-2.438-13.929a46.184,46.184,0,0,0-2.368-8.034,30.039,30.039,0,0,0-1.979-3.974,16.315,16.315,0,0,0-2.792-3.577l.168.044-3.764.709.121-.334.232.3a27.556,27.556,0,0,1,3.254,6.15,34.044,34.044,0,0,1,1.775,6.406c.734,4.242,1.284,8.254,1.8,11.932,1.01,7.355,1.76,13.377,2.234,17.327l-.1-.083,4.22-.139,1.1-.028a3.618,3.618,0,0,1,.388,0" transform="translate(-151.067 407.805)" fill="#17282f"/>
            <path id="path246" d="M458.047-166.35s.871,23.9-2.124,36.155l-5.712-.182s4.244-29.723,3.685-37.137a8.445,8.445,0,0,1,4.151,1.164" transform="translate(-182.342 403.428)" fill="#005b7c"/>
            <path id="path248" d="M457.886-166.415c-.022.013-.322-.2-1-.478a9.185,9.185,0,0,0-3.149-.6l.09-.1a108.073,108.073,0,0,1-.831,14.975c-.662,6.416-1.6,14.038-2.739,22.2l-.2-.236.148,0,5.563.18-.2.156a90.129,90.129,0,0,0,1.858-14.158c.28-4.351.382-8.245.433-11.5s.036-5.866.027-7.665q-.007-1.314-.011-2.068a5.962,5.962,0,0,1,.016-.718,4.862,4.862,0,0,1,.06.717q.031.752.083,2.067c.056,1.8.112,4.413.1,7.671s-.086,7.155-.343,11.518a88.258,88.258,0,0,1-1.825,14.231l-.036.162-.169-.006-5.564-.175-.148,0-.23-.007.032-.229c1.144-8.154,2.1-15.77,2.8-22.176a119.268,119.268,0,0,0,1-14.925l0-.1.094,0a8.8,8.8,0,0,1,3.185.689,5.367,5.367,0,0,1,.741.4,1.256,1.256,0,0,1,.225.167" transform="translate(-182.181 403.492)" fill="#17282f"/>
            <path id="path250" d="M453.36-111.786a1.709,1.709,0,0,0,1.709,1.71,1.71,1.71,0,0,0,1.709-1.71,1.71,1.71,0,0,0-1.709-1.709,1.709,1.709,0,0,0-1.709,1.709" transform="translate(-183.618 381.549)" fill="#dadbd8"/>
            <path id="path252" d="M455.055-113.488a1.691,1.691,0,0,0-1.689,1.689,1.691,1.691,0,0,0,1.689,1.689,1.691,1.691,0,0,0,1.689-1.689A1.691,1.691,0,0,0,455.055-113.488Zm0,3.418a1.731,1.731,0,0,1-1.729-1.729,1.731,1.731,0,0,1,1.729-1.729,1.731,1.731,0,0,1,1.729,1.729,1.731,1.731,0,0,1-1.729,1.729" transform="translate(-183.604 381.562)" fill="#17282f"/>
            <path id="path254" d="M390.6-112.744a1.708,1.708,0,0,0,1.709,1.708,1.708,1.708,0,0,0,1.709-1.708,1.709,1.709,0,0,0-1.709-1.709,1.709,1.709,0,0,0-1.709,1.709" transform="translate(-158.2 381.937)" fill="#dadbd8"/>
            <path id="path256" d="M392.3-114.446a1.69,1.69,0,0,0-1.688,1.689,1.69,1.69,0,0,0,1.688,1.688,1.691,1.691,0,0,0,1.688-1.688A1.691,1.691,0,0,0,392.3-114.446Zm0,3.417a1.73,1.73,0,0,1-1.729-1.728,1.73,1.73,0,0,1,1.729-1.729,1.73,1.73,0,0,1,1.729,1.729,1.73,1.73,0,0,1-1.729,1.728" transform="translate(-158.187 381.951)" fill="#17282f"/>
            <path id="path258" d="M425.556-82.5a1.2,1.2,0,0,1,.013.262c0,.2,0,.448,0,.767-.012.674-.028,1.669-.128,2.949a21.9,21.9,0,0,1-.8,4.608,15.109,15.109,0,0,1-3.008,5.4c-2.868,3.641-8.05,6.435-14.094,7.2a23.068,23.068,0,0,1-4.681.063,13.137,13.137,0,0,1-4.729-1.25,16.3,16.3,0,0,1-7.2-7.16,23.006,23.006,0,0,1-2.453-9.9,22.578,22.578,0,0,1,.028-2.474,3.6,3.6,0,0,1,.315-1.231,1.873,1.873,0,0,1,.929-.915,5.846,5.846,0,0,1,2.413-.176l2.3.091,16.071.66,10.833.482,2.943.152.766.05a1.212,1.212,0,0,1,.26.031,1.374,1.374,0,0,1-.262.011l-.766-.009-2.947-.074-10.838-.35-16.073-.571-2.3-.085a5.661,5.661,0,0,0-2.237.149,2.031,2.031,0,0,0-1.006,1.826,22.29,22.29,0,0,0-.021,2.419,22.689,22.689,0,0,0,2.414,9.727,15.939,15.939,0,0,0,7.01,6.988,12.764,12.764,0,0,0,4.59,1.222,22.733,22.733,0,0,0,4.6-.049c5.962-.738,11.063-3.453,13.913-7.01a14.985,14.985,0,0,0,3.013-5.286,22.429,22.429,0,0,0,.863-4.553c.124-1.272.167-2.266.205-2.938.018-.319.033-.571.044-.766a1.3,1.3,0,0,1,.029-.26" transform="translate(-157.328 369.761)" fill="#17282f"/>
            <path id="path260" d="M355.171-79.721a14.736,14.736,0,0,0-1.853-.363c-.3-.059-.593-.109-.864-.15-.17-.024-.332-.045-.488-.063a15.907,15.907,0,0,0-1.876-.213l7.221-28.556a141.171,141.171,0,0,0-1.645,26.715,10.481,10.481,0,0,1,1.493.2q-.96,1.234-1.989,2.427" transform="translate(-141.792 379.755)" fill="#5ab0be"/>
            <path id="path262" d="M369.135-51.895l-4.151-.874a12.275,12.275,0,0,0-.2-2.262c0-.084-.008-.17-.013-.259a5.222,5.222,0,0,0-.869-2.535,7.53,7.53,0,0,0-.992-1.246,6.224,6.224,0,0,0-.985-.783,9.532,9.532,0,0,0-3.3-1.543q1.028-1.195,1.989-2.427a10.935,10.935,0,0,1,6.2,3.767,10.488,10.488,0,0,1,2.312,8.162" transform="translate(-145.25 361.431)" fill="#20353d"/>
            <path id="path264" d="M361.407-72.472l-.349-.073h0a2.551,2.551,0,0,0,.1-.65,11.626,11.626,0,0,0,.055-1.538,12.273,12.273,0,0,1,.2,2.262m-.372-.583a8.457,8.457,0,0,0-4.989-7.292,15.657,15.657,0,0,1,1.763.819,6.763,6.763,0,0,1,1.318.972,7.586,7.586,0,0,1,.964,1.185,5.155,5.155,0,0,1,.89,2.4,15.171,15.171,0,0,1,.056,1.771c0,.051,0,.1,0,.146m-2.684-6.5c-.126-.082-.256-.163-.388-.24a16.625,16.625,0,0,0-4.763-1.666,14.734,14.734,0,0,1,1.853.363,9.532,9.532,0,0,1,3.3,1.543m-8.379-2.332-.134,0c.325-.991,2.246-8.469,4.506-17.564,1.277-5.139,2.409-9.771,3.184-13.013q-.174,1.011-.334,2.026l-7.222,28.556m-.17-.006h0a.007.007,0,0,0,0-.006l.009-.038c0,.016,0,.03-.007.044" transform="translate(-141.674 381.134)" fill="#cc4341"/>
            <path id="path266" d="M349.8-61.084v-.006a.007.007,0,0,1,0,.006" transform="translate(-141.674 360.324)" fill="#0f191d"/>
            <path id="path268" d="M349.84-82.681H349.8c0-.013,0-.028.007-.044l7.924-31.691q-.106.578-.205,1.158c-.774,3.242-1.906,7.874-3.184,13.013-2.26,9.1-4.181,16.573-4.506,17.564" transform="translate(-141.676 381.922)" fill="#0f191d"/>
            <path id="path270" d="M362.453-51.582h0q-.006-.261-.023-.51c0-.046,0-.094,0-.146a15.172,15.172,0,0,0-.056-1.771,5.154,5.154,0,0,0-.89-2.4,7.587,7.587,0,0,0-.964-1.185,6.762,6.762,0,0,0-1.318-.972,15.656,15.656,0,0,0-1.763-.819,15.271,15.271,0,0,0-4.2-1.328c.155.017.318.039.488.063.27.041.559.091.864.15a16.626,16.626,0,0,1,4.763,1.666c.132.077.262.157.388.24a6.222,6.222,0,0,1,.985.783,7.53,7.53,0,0,1,.992,1.246,5.221,5.221,0,0,1,.869,2.535c.006.088.01.175.013.259a11.631,11.631,0,0,1-.055,1.538,2.553,2.553,0,0,1-.1.65" transform="translate(-143.069 360.171)" fill="#0f191d"/>
            <path id="path272" d="M390.459-247.053l.031-.239c.006-.018.012-.04.018-.065l.017.083-.066.221" transform="translate(-158.142 435.765)" fill="#cc4341"/>
            <path id="path274" d="M390.511-247.31c0-.03.009-.062.013-.092,0,.009,0,.017.006.027-.006.025-.013.047-.018.065" transform="translate(-158.163 435.783)" fill="#0f191d"/>
            <path id="path276" d="M390.215-261.536a24.181,24.181,0,0,1-.383-3.142,39.015,39.015,0,0,1,.528-4.147,41.041,41.041,0,0,1,1.363-5.241,40.94,40.94,0,0,1,2.106-4.988c.451-.869.9-1.676,1.34-2.405a2.18,2.18,0,0,1,.467-.29,1.545,1.545,0,0,1,.623-.13,1.155,1.155,0,0,1,1.024.516,1.282,1.282,0,0,1,.03,1.109c-.645.951-1.28,1.962-1.886,3.025a47.838,47.838,0,0,0-2.809,5.985,42.95,42.95,0,0,0-1.6,5.154c-.2.742-.313,1.429-.434,2.026s-.2,1.117-.252,1.543-.1.759-.12.984m-.324-6.751a25.2,25.2,0,0,1,3.6-10.939,37.956,37.956,0,0,0-2.159,5.029,37.755,37.755,0,0,0-1.346,5.306q-.05.306-.1.6" transform="translate(-157.888 449.747)" fill="#cc4341"/>
            <path id="path278" d="M389.805-264.391a24.927,24.927,0,0,1,.059-3.61q.045-.3.1-.6a37.756,37.756,0,0,1,1.346-5.306,37.94,37.94,0,0,1,2.159-5.029q.394-.64.827-1.255a4.759,4.759,0,0,1,.851-.977c-.439.729-.888,1.536-1.34,2.405a40.947,40.947,0,0,0-2.106,4.988,41.042,41.042,0,0,0-1.363,5.241,39.024,39.024,0,0,0-.528,4.147" transform="translate(-157.861 449.46)" fill="#0f191d"/>
            <path id="path280" d="M390.51-260.259l-.033-.171c.023-.225.063-.556.12-.984s.127-.946.252-1.543.233-1.284.434-2.026a42.966,42.966,0,0,1,1.6-5.154,47.84,47.84,0,0,1,2.809-5.985c.606-1.063,1.241-2.074,1.886-3.025a4.619,4.619,0,0,1-.466.893,44.806,44.806,0,0,0-6.6,17.994" transform="translate(-158.149 448.64)" fill="#0f191d"/>
            <path id="path282" d="M545.611-94.917l-11.223,55.1H436.972a1.945,1.945,0,0,1-1.946-1.945,1.946,1.946,0,0,1,1.946-1.946h19.611l10.405-51.242a2.128,2.128,0,0,1,2.062-1.7l74.454-.813a2.127,2.127,0,0,1,2.108,2.551" transform="translate(-176.192 375.058)" fill="#dadbd8"/>
            <path id="path284" d="M545.52-94.936s.013-.055.03-.166a1.869,1.869,0,0,0,.01-.5,2.145,2.145,0,0,0-1.031-1.611,2.238,2.238,0,0,0-.643-.255,3.412,3.412,0,0,0-.767-.047l-1.752.013-4.384.037-28.152.266-19.625.2-10.994.113-5.766.06-2.948.03c-.251.007-.486,0-.754.018a2.213,2.213,0,0,0-.752.218,2.246,2.246,0,0,0-1.069,1.121,3.452,3.452,0,0,0-.2.749l-.151.741q-.151.743-.3,1.49-.3,1.494-.612,3.008-.615,3.026-1.247,6.128-1.261,6.2-2.581,12.686c-1.756,8.639-3.582,17.625-5.464,26.883l.131-.107H437.206a3.607,3.607,0,0,0-.758.046,2.081,2.081,0,0,0-1.276.85,2.082,2.082,0,0,0-.345,1.5,2.088,2.088,0,0,0,1.063,1.515,2.106,2.106,0,0,0,.916.247l.9,0h10.63l13.85,0,26.373-.006,45.74-.024h.083l.018-.082c3.43-16.936,6.22-30.712,8.154-40.259.959-4.771,1.706-8.484,2.214-11.008.249-1.258.44-2.22.57-2.871s.184-.982.184-.982-.078.33-.213.976-.336,1.61-.6,2.865c-.521,2.523-1.285,6.232-2.269,11L534.2-39.857l.1-.083-45.74-.024-26.373-.006-13.85,0H437.7l-.889,0a1.857,1.857,0,0,1-.8-.215,1.822,1.822,0,0,1-.925-1.319,1.806,1.806,0,0,1,.3-1.3,1.806,1.806,0,0,1,1.111-.742,3.316,3.316,0,0,1,.7-.04H456.6l.022-.107,5.453-26.884q1.313-6.481,2.572-12.688l1.242-6.13q.307-1.514.61-3.009.151-.747.3-1.49l.15-.74a3.268,3.268,0,0,1,.188-.7,2.022,2.022,0,0,1,.956-1.005,2.007,2.007,0,0,1,.674-.195c.227-.02.488-.012.731-.018l2.948-.034,5.766-.066,10.995-.127,19.624-.231,28.151-.347,4.384-.059,1.752-.025a3.39,3.39,0,0,1,.754.04,2.181,2.181,0,0,1,.63.244,2.127,2.127,0,0,1,1.031,1.571,2.8,2.8,0,0,1-.016.663" transform="translate(-176.101 375.077)" fill="#17282f"/>
            <path id="path286" d="M545.44-52.987a3.218,3.218,0,0,0,3.218,3.217,3.217,3.217,0,0,0,3.218-3.217,3.217,3.217,0,0,0-3.218-3.218,3.218,3.218,0,0,0-3.218,3.218" transform="translate(-220.911 358.346)" fill="#fff"/>
            <path id="path288" d="M562.054-92.441s-.114-.009-.336-.011l-.985-.007-3.788,0-13.928.067c-11.769.084-28.013.2-45.953.324l-6.647.053L488.783-92a4.243,4.243,0,0,0-.834.051,2.325,2.325,0,0,0-.79.32,2.308,2.308,0,0,0-.988,1.341c-.122.539-.213,1.049-.32,1.571-.823,4.151-1.618,8.153-2.374,11.968l-4.006,20.268c-1.13,5.764-2.044,10.432-2.678,13.669-.308,1.608-.549,2.859-.714,3.719-.078.419-.137.74-.179.969s-.052.331-.052.331.032-.109.079-.326.117-.546.206-.963l.764-3.709c.654-3.233,1.6-7.894,2.762-13.652s2.533-12.634,4.063-20.256c.762-3.814,1.56-7.817,2.389-11.965.105-.515.2-1.051.316-1.553A2.048,2.048,0,0,1,487.3-91.4a2.08,2.08,0,0,1,.7-.283,4.029,4.029,0,0,1,.784-.044l1.633-.013,6.646-.052,45.953-.4,13.928-.152,3.787-.055.984-.021c.221-.006.336-.016.336-.016" transform="translate(-192.725 373.029)" fill="#17282f"/>
            <path id="path290" d="M340.4-365.086a6.671,6.671,0,0,0,8.468-1.7,6.669,6.669,0,0,0-.845-8.6,6.885,6.885,0,0,0,4.236-6.6,6.883,6.883,0,0,0-4.929-6.1,8.176,8.176,0,0,0-1.061-7.838,8.175,8.175,0,0,0-7.27-3.113,9.014,9.014,0,0,0-10.031-4.757,6.6,6.6,0,0,0-7.624.24,6.6,6.6,0,0,0-2,7.36" transform="translate(-129.174 499.569)" fill="#17282f"/>
            <path id="path292" d="M308.22-360.666a27.323,27.323,0,0,0-14.495-34.105l-1.29-.582c-14.274-5.461-26.887,3.61-31.951,18.03l-22.2,49.684,11.455,36.83,17.119-18.285,8.318-9.619s14.307,3.953,20.5-9.34c2.992-6.419,8.078-20.141,12.536-32.612" transform="translate(-96.511 496.357)" fill="#ba6258"/>
            <path id="path294" d="M290.119-274.268a35.572,35.572,0,0,1-15.2-13.028s-1.4,11.04,12.481,15.854l2.721-2.827" transform="translate(-111.329 451.941)" fill="#6f3530"/>
            <path id="path296" d="M337.959-320.064a2.094,2.094,0,0,1-2.71,1.1,2,2,0,0,1-1.191-2.608,2.1,2.1,0,0,1,2.708-1.1,2,2,0,0,1,1.193,2.611" transform="translate(-135.241 466.33)" fill="#17282f"/>
            <path id="path298" d="M340.924-330.013c-.349.142-1.312-1.58-3.369-2.5-2.04-.95-4.025-.573-4.135-.925-.059-.161.386-.5,1.257-.683a5.747,5.747,0,0,1,3.449.432,5.515,5.515,0,0,1,2.541,2.3c.414.77.424,1.317.257,1.376" transform="translate(-135.038 470.947)" fill="#17282f"/>
            <path id="path300" d="M306.227-333.609a2.1,2.1,0,0,1-2.71,1.095,2,2,0,0,1-1.191-2.609,2.1,2.1,0,0,1,2.708-1.1,2.006,2.006,0,0,1,1.192,2.612" transform="translate(-122.389 471.816)" fill="#17282f"/>
            <path id="path302" d="M306.7-344.679c-.349.142-1.315-1.581-3.369-2.5-2.041-.95-4.026-.574-4.135-.926-.06-.161.382-.5,1.257-.682a5.738,5.738,0,0,1,3.449.432,5.52,5.52,0,0,1,2.542,2.3c.411.77.424,1.317.257,1.376" transform="translate(-121.176 476.887)" fill="#17282f"/>
            <path id="path304" d="M312.786-322.5a14.888,14.888,0,0,1,3.608.9c.549.182,1.092.3,1.342-.016a2.933,2.933,0,0,0,.351-1.713q.119-2.237.251-4.694c.412-6.659.961-12.038,1.23-12.019s.152,5.432-.259,12.091q-.171,2.454-.327,4.688a3.327,3.327,0,0,1-.657,2.182,1.444,1.444,0,0,1-1.208.378,3.909,3.909,0,0,1-.946-.278,14.708,14.708,0,0,1-3.384-1.521" transform="translate(-126.683 473.301)" fill="#17282f"/>
            <path id="path306" d="M312.559-356.374c-.506.4-2.012-.96-4.147-2.008-2.112-1.1-4.123-1.511-4.077-2.142.031-.3.627-.59,1.6-.655a7.137,7.137,0,0,1,3.56.784,6.882,6.882,0,0,1,2.7,2.378c.5.807.6,1.449.363,1.643" transform="translate(-123.26 481.87)" fill="#17282f"/>
            <path id="path308" d="M346.36-342.421c-.643.271-2.12-.977-4.149-1.92-2-1-3.907-1.386-4.083-2.052-.067-.316.415-.661,1.368-.762a7.282,7.282,0,0,1,3.733.764,7.15,7.15,0,0,1,2.9,2.438c.5.8.524,1.391.23,1.533" transform="translate(-136.945 476.196)" fill="#17282f"/>
            <path id="path310" d="M261.592-344.325a3.98,3.98,0,0,0-2.34-5.264c-2.6-.888-6.012-.724-8.172,4.5-3.832,9.271,6.266,11.2,6.392,10.945.086-.175,2.552-6.289,4.12-10.183" transform="translate(-101.34 477.337)" fill="#ba6258"/>
            <path id="path312" d="M259.286-336.18c-.029-.046-.209.047-.533.059a1.743,1.743,0,0,1-1.217-.474c-.831-.765-1.014-2.66-.368-4.35a5.765,5.765,0,0,1,1.408-2.125,2.015,2.015,0,0,1,1.726-.738.889.889,0,0,1,.77.836c.017.311-.118.471-.075.508.016.034.263-.074.347-.487a1.121,1.121,0,0,0-.125-.731,1.32,1.32,0,0,0-.8-.605,2.456,2.456,0,0,0-2.281.74,5.931,5.931,0,0,0-1.628,2.352c-.712,1.894-.479,4.036.7,4.977a1.872,1.872,0,0,0,1.579.366c.382-.111.516-.3.491-.328" transform="translate(-103.729 475.053)" fill="#6f3530"/>
            <path id="path314" d="M320.387-387.119a3.708,3.708,0,0,0-.026-.8,6.456,6.456,0,0,0-3.379-4.643,24.708,24.708,0,0,0-2.6-2.791,9.032,9.032,0,0,0-4.278-6.749,9.033,9.033,0,0,0-8.976.084c-.4-.116-.8-.221-1.207-.324a9.107,9.107,0,0,0-6-4.367,9.086,9.086,0,0,0-7.933,2.29,6.633,6.633,0,0,0-7.109-.69,6.636,6.636,0,0,0-3.418,6.272,6.149,6.149,0,0,0-5.1,3.072c-.835,1.765.007,4.248,1.816,4.81-2.3,4.233-4.154,9.6-5.975,14.254-1.283,3.274,1.934,7.014,1.233,9.313-3.578,11.731,2.811,7.237,14.56-15.089.31-.074.629-.159.964-.266.674-.216,1.037-.714,1.676-1.017.764-.362,1.6.238,2.331.665a6.4,6.4,0,0,0,7.942-1.451c.22,1.32,1.821,1.99,3.145,1.791a14.379,14.379,0,0,0,3.689-1.54,4.126,4.126,0,0,1,3.845-.154c.633.4,1.084,1.088,1.791,1.334,1.248.435,2.468-.706,3.188-1.815a6.111,6.111,0,0,1,2.218-2.447,7.413,7.413,0,0,1,2.622.386c.432.256.85.556,1.264.821a4.66,4.66,0,0,0,.625.329,7.389,7.389,0,0,1,.679.708c3.156,3.775,2.9,13.736,2.9,13.736,2.675-5.176,1.786-10.9-.5-15.727" transform="translate(-107.696 500.372)" fill="#17282f"/>
            <path id="path316" d="M313.34-399.457c-.008-.01.065-.078.213-.2a5.077,5.077,0,0,1,.693-.467,7.4,7.4,0,0,1,2.955-.939,7.333,7.333,0,0,1,4.547,1,7.754,7.754,0,0,1,3.482,4.631l-.268-.14a11.272,11.272,0,0,1,2.9-.659,8.643,8.643,0,0,1,6.515,1.964,6.706,6.706,0,0,1,2.433,4.989,5.983,5.983,0,0,1-1.127,3.6,4.69,4.69,0,0,1-.7.76c-.184.149-.284.221-.294.209a12.469,12.469,0,0,0,.861-1.061,6.026,6.026,0,0,0,.968-3.5,6.464,6.464,0,0,0-2.389-4.706,8.339,8.339,0,0,0-6.23-1.841,11.029,11.029,0,0,0-2.795.629l-.213.077-.056-.218a7.462,7.462,0,0,0-3.276-4.425,7.159,7.159,0,0,0-4.336-1.043,7.78,7.78,0,0,0-2.91.8c-.639.323-.955.564-.975.536" transform="translate(-126.907 498.033)" fill="#fff"/>
            <path id="path318" d="M279.618-393.937c0-.008.044-.04.144-.094a4.807,4.807,0,0,1,.453-.227,5.494,5.494,0,0,1,1.894-.393,6.359,6.359,0,0,1,2.968.64,5.857,5.857,0,0,1,2.821,2.8l-.282-.035a7.924,7.924,0,0,1,5.842-2.868,9.994,9.994,0,0,1,3.73.478,12.138,12.138,0,0,1,3.492,1.884,20.013,20.013,0,0,1,4.823,5.638l-.305-.039a8.938,8.938,0,0,1,6.073-2.461,8.542,8.542,0,0,1,4.945,1.549,8.584,8.584,0,0,1,2.357,2.459,6.078,6.078,0,0,1,.434.8,1.092,1.092,0,0,1,.112.294c-.029.015-.208-.376-.654-1.02a8.988,8.988,0,0,0-2.386-2.329,8.4,8.4,0,0,0-4.8-1.417,8.657,8.657,0,0,0-5.8,2.408l-.176.171-.129-.21a19.927,19.927,0,0,0-4.737-5.513,11.854,11.854,0,0,0-3.371-1.825,9.663,9.663,0,0,0-3.578-.475,7.62,7.62,0,0,0-5.6,2.681l-.169.216-.113-.251a5.624,5.624,0,0,0-2.636-2.694,6.311,6.311,0,0,0-2.847-.69,6.758,6.758,0,0,0-2.495.527" transform="translate(-113.249 495.423)" fill="#fff"/>
            <path id="path320" d="M315.931-381.129a2.4,2.4,0,0,1-.317.282,8.443,8.443,0,0,0-.821.9c-.334.416-.712.951-1.174,1.568a6.223,6.223,0,0,1-1.911,1.845,2.065,2.065,0,0,1-1.593.1,7.328,7.328,0,0,1-1.508-.8,3.378,3.378,0,0,0-1.6-.588,4.535,4.535,0,0,0-1.8.431c-.6.251-1.2.574-1.831.881a7.062,7.062,0,0,1-2.027.842,4.682,4.682,0,0,1-2.305-.232,3.74,3.74,0,0,1-1.074-.57,1.721,1.721,0,0,1-.678-1.107l.359.1a6.122,6.122,0,0,1-1.3,1.265,5.978,5.978,0,0,1-1.7.79,6.928,6.928,0,0,1-3.809-.1,8.312,8.312,0,0,1-1.487-.608,3.392,3.392,0,0,0-1.328-.6,2.058,2.058,0,0,0-1.332.333,10.139,10.139,0,0,1-1.4.609,7.869,7.869,0,0,1-5.7.079,7.22,7.22,0,0,1-3.458-3.773,7.468,7.468,0,0,1-.428-4.38l.11.167a3.947,3.947,0,0,1-2.65-2.053,3.708,3.708,0,0,1-.3-2.511,3.716,3.716,0,0,1,.665-1.449,2.68,2.68,0,0,1,.274-.31l.109-.089a4.339,4.339,0,0,0-.9,1.879,3.584,3.584,0,0,0,.347,2.377,3.723,3.723,0,0,0,2.509,1.879l.139.029-.029.14a7.222,7.222,0,0,0,.462,4.192,6.907,6.907,0,0,0,3.3,3.557,7.525,7.525,0,0,0,5.409-.114,9.779,9.779,0,0,0,1.342-.589,2.475,2.475,0,0,1,1.57-.38,2.252,2.252,0,0,1,.8.251l.671.389a7.97,7.97,0,0,0,1.411.577,6.537,6.537,0,0,0,3.582.1,5.614,5.614,0,0,0,1.574-.73,5.733,5.733,0,0,0,1.215-1.171l.3-.372.063.469c.09.675.819,1.118,1.485,1.355a4.321,4.321,0,0,0,2.113.228,6.809,6.809,0,0,0,1.926-.793c.631-.3,1.235-.62,1.861-.876a4.813,4.813,0,0,1,1.939-.437,3.664,3.664,0,0,1,1.751.654,7.249,7.249,0,0,0,1.437.793,1.8,1.8,0,0,0,1.4-.067,6.163,6.163,0,0,0,1.863-1.737c.475-.6.873-1.127,1.227-1.534a6.7,6.7,0,0,1,.881-.865,1.678,1.678,0,0,1,.362-.229" transform="translate(-110.48 493.579)" fill="#33535f"/>
            <path id="path322" d="M15.382-86.041s-4.1,10.921-5.533,13.85,0,34.5,0,34.5h93.374l1.319-27.761L59.59-92.56,15.382-86.041" transform="translate(-3.731 373.07)" fill="#17282f"/>
            <path id="path324" d="M342.908-155.9l36.752,6.937s-.7,15.9-.232,15.5-51.514-.488-51.514-.488L342.908-155.9" transform="translate(-132.81 398.723)" fill="#ba6258"/>
            <path id="path326" d="M411.9-144.3l25.476,7.864,11.188,7.865,9.968,10.744s-.111,2.99-3.877,1.107a35.633,35.633,0,0,1-7.421-5.428l7.421,13.624s-2.99,2.991-5.427-1.329-6.092-9.858-6.092-9.858l-2.216-1.661s2.327,4.1,2.327,5.206-2.327,7.311-2.327,7.311l-3.655,4.984a2.29,2.29,0,0,1-2.05-2.547,7.9,7.9,0,0,1,1.5-3.988l-4.43,3.877s-1.551-.886-.221-3.766l1.661-1.772.554-2.769-1.33-2.1s-3.433.221-6.092-3.766-6.757-3.213-12.516-6.647-5.206-7.2-5.206-7.2L411.9-144.3" transform="translate(-165.697 394.026)" fill="#ba6258"/>
            <path id="path328" d="M436.761-127.981a11.813,11.813,0,0,0,.965,3.068,12.534,12.534,0,0,0,1.994,2.85,28.917,28.917,0,0,0,3.171,2.9A18.172,18.172,0,0,1,446.1-116.2a4.056,4.056,0,0,1,.8,3.474A2.591,2.591,0,0,1,445.228-111a1.808,1.808,0,0,1-.662.075c-.151-.02-.228-.043-.225-.055a3.888,3.888,0,0,0,.835-.171,2.489,2.489,0,0,0,1.445-1.65,3.819,3.819,0,0,0-.823-3.17,19.216,19.216,0,0,0-3.167-2.869,26.511,26.511,0,0,1-3.194-2.965,11.963,11.963,0,0,1-1.973-2.979,8.075,8.075,0,0,1-.681-2.311,2.605,2.605,0,0,1-.021-.882" transform="translate(-176.885 387.416)" fill="#6f3530"/>
            <path id="path330" d="M461.539-113.6a2.636,2.636,0,0,1-.687-.3c-.428-.217-1.042-.545-1.791-.962-1.5-.837-3.546-2.039-5.757-3.443-1.763-1.118-3.365-2.2-4.635-3.084l.144.021c-1.138.349-2.078.628-2.735.811a4.454,4.454,0,0,1-1.044.238,4.463,4.463,0,0,1,.985-.419c.639-.237,1.563-.562,2.69-.949l.074-.025.071.046,4.669,3.011c2.207,1.4,4.224,2.641,5.684,3.54a20.22,20.22,0,0,1,2.33,1.514" transform="translate(-180.246 384.877)" fill="#6f3530"/>
            <path id="path332" d="M459.334-107.358a3.173,3.173,0,0,1-2.033,1.277,3.168,3.168,0,0,1-2.4-.112c.021-.121,1.069.044,2.293-.288,1.228-.312,2.06-.973,2.139-.877" transform="translate(-184.242 379.067)" fill="#6f3530"/>
            <path id="path334" d="M455.185-102.959a29.116,29.116,0,0,1,1.656,4.646,2.794,2.794,0,0,1-.221,1.991c-.252.552-.528,1-.713,1.393a6.375,6.375,0,0,0-.421,1.341,1.912,1.912,0,0,1,.152-1.455c.159-.427.414-.9.632-1.429a2.507,2.507,0,0,0,.171-1.734,29.929,29.929,0,0,1-1.257-4.754" transform="translate(-184.351 377.282)" fill="#6f3530"/>
            <path id="path336" d="M15.3-177.692l32.761-35.363S91.171-287.077,99.745-293.9c21.442-17.064,45.781-8.129,45.781-8.129l8.672-3.292L168.81-268.2s-5.415,7.928-5.957,9.513S97.332-158.8,97.332-158.8L74.113-126.283s-35.984-6.736-51.385-26.393c-7.039-8.985-7.427-25.016-7.427-25.016" transform="translate(-6.197 459.242)" fill="#00cec9"/>
            <path id="path338" d="M220.291-247.115l4.805-4.1.055,12.5,8.31,11.737s-24.321,29.3-29.323,34.178-45.02,52.391-45.02,52.391-2.117,22.533-4.81,28.918-20.862,4.7-20.862,4.7l9.029-25.856,3.753-18.658,45.4-60.089,17.823-23.333,10.836-12.4" transform="translate(-54.048 437.327)" fill="#00cec9"/>
            <path id="path340" d="M258.966-194.728c0,.746,24.71,24.367,24.71,24.367s1.783,4.475,3.821,5.221,12.227,5.47,12.227,5.47l15.964-22.875s-8.066-7.459-10.36-8.7-7.811-7.667-7.811-7.667l-18.494-22.207-14.2,7.243-5.859,19.149" transform="translate(-104.885 425.138)" fill="#00cec9"/>
            <path id="path342" d="M250.249-254.393a.91.91,0,0,1,.108-.222c.1-.165.213-.37.359-.622.345-.574.817-1.361,1.411-2.351l5.186-8.463.184.249-13.44,3.584-.2.052-.052-.2-1.415-5.368c-2.3-8.828-4.379-16.818-5.9-22.647-.728-2.873-1.32-5.213-1.741-6.875q-.284-1.178-.453-1.875a4.044,4.044,0,0,1-.131-.661,4.173,4.173,0,0,1,.211.639l.528,1.855c.452,1.655,1.087,3.982,1.868,6.842,1.548,5.821,3.669,13.8,6.014,22.617.482,1.839.956,3.642,1.41,5.368l-.249-.144c4.992-1.3,9.591-2.5,13.459-3.512l.41-.107-.226.356c-2.2,3.479-4.019,6.349-5.308,8.387l-1.487,2.3-.4.6a.945.945,0,0,1-.152.2" transform="translate(-94.841 457.001)" fill="#17282f"/>
            <path id="path344" d="M277.132-235.095a2.434,2.434,0,0,1-.431.412l-1.284,1.079-4.644,3.769-.335.272.046-.432c.254-2.385.55-5.168.865-8.136.1-.871.191-1.726.282-2.543l.344.17c-2.853,2.711-5.38,5.087-7.2,6.776l-2.159,1.975a5.933,5.933,0,0,1-.818.68,5.681,5.681,0,0,1,.717-.786l2.074-2.063c1.773-1.741,4.265-4.154,7.107-6.876l.4-.387-.061.557c-.089.818-.182,1.673-.277,2.544-.336,2.966-.651,5.748-.92,8.131l-.29-.159,4.736-3.653,1.345-1a2.453,2.453,0,0,1,.5-.324" transform="translate(-106.031 433.266)" fill="#17282f"/>
            <path id="path346" d="M275.177-201.281a1.5,1.5,0,0,1-.219.338l-.692.917c-.607.792-1.5,1.925-2.617,3.315-2.233,2.781-5.371,6.581-8.921,10.7s-6.845,7.792-9.264,10.413c-1.209,1.311-2.2,2.363-2.889,3.08l-.8.82c-.187.184-.291.277-.3.267a1.486,1.486,0,0,1,.24-.323l.747-.873,2.792-3.168c2.362-2.669,5.617-6.365,9.167-10.487s6.719-7.889,9.008-10.62l2.718-3.232.752-.868c.175-.2.273-.294.284-.286" transform="translate(-101.039 417.104)" fill="#17282f"/>
            <path id="path348" d="M322.077-170.708a5.562,5.562,0,0,1-.608.915c-.412.575-1.028,1.391-1.807,2.385-1.557,1.99-3.789,4.68-6.416,7.506s-5.148,5.248-7.019,6.945c-.936.848-1.7,1.523-2.247,1.975a5.7,5.7,0,0,1-.869.674,5.535,5.535,0,0,1,.761-.793l2.155-2.069c1.817-1.749,4.3-4.2,6.918-7.013s4.878-5.468,6.49-7.408l1.907-2.3a5.551,5.551,0,0,1,.735-.816" transform="translate(-122.764 404.721)" fill="#17282f"/>
            <path id="path350" d="M127.224-103.154s.06-.112.192-.32l.6-.919,2.332-3.508,8.649-12.857c7.314-10.847,17.47-25.8,28.559-42.394,11.063-16.622,21.052-31.684,27.666-42.977,3.4-5.591,6.356-9.995,8.572-12.91,1.1-1.464,1.988-2.573,2.612-3.307l.711-.835c.161-.186.252-.275.252-.275s-.069.107-.221.3l-.678.86c-.6.75-1.472,1.873-2.548,3.351-2.173,2.94-5.086,7.36-8.451,12.967-6.55,11.331-16.51,26.435-27.572,43.055-11.091,16.6-21.285,31.523-28.661,42.329l-8.757,12.783c-1.032,1.492-1.837,2.656-2.4,3.465l-.632.895c-.144.2-.227.3-.227.3" transform="translate(-51.528 426.085)" fill="#17282f"/>
            <path id="path352" d="M111.347-107.478a1.532,1.532,0,0,1-.338-.239l-.919-.746c-.794-.652-1.92-1.623-3.291-2.845-2.743-2.443-6.431-5.939-10.284-10.014s-7.132-7.96-9.417-10.838c-1.143-1.438-2.048-2.617-2.654-3.447l-.693-.959a1.588,1.588,0,0,1-.219-.351,1.568,1.568,0,0,1,.285.3l.753.912,2.754,3.361c2.339,2.826,5.647,6.668,9.49,10.738s7.492,7.587,10.181,10.082l3.2,2.941.867.8a1.559,1.559,0,0,1,.284.3" transform="translate(-33.831 391.036)" fill="#17282f"/>
            <path id="path354" d="M190.375-285.773c-.037.023-.35-.518-1.054-1.387a14.2,14.2,0,0,0-3.576-3.052,23.677,23.677,0,0,0-6.512-2.535,29.787,29.787,0,0,0-8.5-.993,18.81,18.81,0,0,0-8.2,2.179,19.087,19.087,0,0,0-5.419,4.37,21.128,21.128,0,0,0-2.65,3.911c-.526.989-.755,1.569-.794,1.553a1.8,1.8,0,0,1,.14-.431,12.547,12.547,0,0,1,.51-1.195,19.319,19.319,0,0,1,2.57-4.028,18.905,18.905,0,0,1,5.46-4.516,18.9,18.9,0,0,1,8.365-2.257,29.383,29.383,0,0,1,8.615,1.038,23.2,23.2,0,0,1,6.571,2.654,13.53,13.53,0,0,1,3.549,3.2,10.82,10.82,0,0,1,.719,1.084,1.911,1.911,0,0,1,.209.4" transform="translate(-62.236 454.726)" fill="#17282f"/>
            <path id="path356" d="M148.2-264.65s-1.4,49.049,0,72.3c.427,7.094,3.063,11.786,3.606,11.946,1.426.421,30.228-2.016,30.228-2.016s.232-8.8,2.4-12.1-3.4-1.923-3.4-1.923,11.893-60.461,10.407-71.584L148.2-264.65" transform="translate(-59.771 444.14)" fill="#00cec9"/>
            <path id="path358" d="M191.334-268.035s.077.47.139,1.384c.036.914.056,2.27-.045,4.024-.169,3.509-.7,8.6-1.566,14.976-1.729,12.747-4.761,30.608-8.741,51.239l-.24-.23a10.461,10.461,0,0,1,2.232-.29,3.46,3.46,0,0,1,1.165.162,1.237,1.237,0,0,1,.543.371,1,1,0,0,1,.2.654,2.632,2.632,0,0,1-.416,1.135c-.2.339-.377.631-.541.967a13.015,13.015,0,0,0-.744,2.1,43.4,43.4,0,0,0-1.2,9.121l-.008.184-.18.015-12.266.991c-3.545.272-7.049.534-10.506.757-1.729.106-3.444.217-5.152.278-.426.022-.854.029-1.283.031-.075,0-.147,0-.219,0a3.039,3.039,0,0,1-.436-.012l-.347-.031c-.082.03-.32-.134-.36-.2a9.358,9.358,0,0,1-1.284-2.25,29.22,29.22,0,0,1-2.194-9.644q-.118-2.419-.234-4.784-.076-2.366-.152-4.676c-.3-12.323-.221-23.421-.117-32.738s.281-16.855.418-22.064c.079-2.595.14-4.612.181-6,.027-.675.047-1.194.062-1.56.017-.351.036-.531.036-.531s.01.181.006.532-.011.885-.021,1.56c-.024,1.386-.059,3.4-.1,6-.088,5.209-.214,12.747-.287,22.064s-.115,20.412.205,32.723q.079,2.309.159,4.672.119,2.361.24,4.774a28.854,28.854,0,0,0,2.171,9.508,9.176,9.176,0,0,0,1.2,2.125l.073.067.1.029.286.02a2.51,2.51,0,0,0,.4.01c.073,0,.145,0,.215,0,.42,0,.843-.01,1.268-.032,1.7-.062,3.414-.175,5.141-.282,3.453-.224,6.957-.486,10.5-.758l12.264-.988-.188.2a43.692,43.692,0,0,1,1.22-9.217,13.346,13.346,0,0,1,.771-2.17,7.221,7.221,0,0,0,.92-1.946.632.632,0,0,0-.486-.635,3.124,3.124,0,0,0-1.027-.139,10.112,10.112,0,0,0-2.138.277l-.3.067.058-.3c4-20.617,7.087-38.468,8.883-51.2.9-6.363,1.468-11.449,1.678-14.95.122-1.749.123-3.1.109-4.013-.006-.456-.05-.8-.058-1.034s-.013-.352-.013-.352" transform="translate(-59.656 444.14)" fill="#17282f"/>
            <path id="path360" d="M183.443-147.218a7.584,7.584,0,0,1-1.244.252c-.806.136-1.976.308-3.426.483-2.9.36-6.922.719-11.377.911s-8.5.175-11.415.063c-1.46-.05-2.64-.121-3.454-.188a7.4,7.4,0,0,1-1.262-.146,7.422,7.422,0,0,1,1.27-.014l3.453.056c2.915.037,6.944,0,11.39-.183s8.461-.5,11.363-.789l3.436-.352a7.434,7.434,0,0,1,1.266-.093" transform="translate(-61.265 395.211)" fill="#17282f"/>
            <path id="path362" d="M154.682-121.993l16.934,71.287h16.935l-4.735-73.1-29.134,1.814" transform="translate(-62.649 385.726)" fill="#ba6258"/>
            <path id="path364" d="M198.575-17.9l16.878,2.95,15.194,4.594c1.407.481,2.309,1.3,1.744,3.059l-49.245-.518V-16.37l15.43-1.526" transform="translate(-74.176 342.83)" fill="#ba6258"/>
            <path id="path366" d="M238.959-3.837a6.91,6.91,0,0,0-.028-.963A2.42,2.42,0,0,0,237.3-6.614a19.145,19.145,0,0,0-3.876-.553l-4.834-.492c-3.429-.361-6.531-.71-8.773-.984l-2.654-.345a4.472,4.472,0,0,1-.967-.183,4.545,4.545,0,0,1,.984.022l2.668.215c2.251.2,5.356.5,8.786.864l4.83.523,2.107.242a6.756,6.756,0,0,1,1.837.418,2.563,2.563,0,0,1,1.68,2.063,2.37,2.37,0,0,1-.044.742c-.044.163-.073.247-.087.244" transform="translate(-87.563 339.302)" fill="#6f3530"/>
            <path id="path368" d="M205.337-98.763l-.016-.242.1-.116-.083.358" transform="translate(-83.158 375.727)" fill="#9fa1a1"/>
            <path id="path370" d="M204.345-185.348c3.922-20.374,6.911-38.008,8.623-50.63q.228-1.677.425-3.234l-4.728,48.145h0l-4.32,5.717" transform="translate(-82.763 432.466)" fill="#008c89"/>
            <path id="path372" d="M204.706-122.97l-.9-13.291-.006-.082.261-1.367.759-.061.18-.015.008-.184a43.394,43.394,0,0,1,1.2-9.121q.1-.4.231-.788,2.172-3.288,4.241-6.453v5.608L204.8-123.086l-.1.116m2.95-27.482a2.242,2.242,0,0,0,.256-.846,1,1,0,0,0-.2-.654,1.237,1.237,0,0,0-.543-.371,3.428,3.428,0,0,0-1.15-.162H206a9.906,9.906,0,0,0-1.934.225l.06-.314,4.32-5.717,2.236,1.424v1.815q-1.485,2.266-3.026,4.6" transform="translate(-82.543 399.692)" fill="#008c89"/>
            <path id="path374" d="M208.237-145.674a13.042,13.042,0,0,1,.513-1.316c.164-.336.339-.628.541-.967.056-.094.109-.19.16-.29q1.54-2.335,3.026-4.6v.72q-2.067,3.162-4.241,6.453" transform="translate(-84.339 397.487)" fill="#0f191d"/>
            <path id="path376" d="M204.375-173.022l.765-4c-.146,1.309-.236,2.634-.3,3.966l-.466.038m.936-21.519,8.26-49.9c-.236,1.932-.514,4.041-.835,6.312-1.572,11.137-4.128,26.191-7.425,43.591" transform="translate(-82.775 434.585)" fill="#20353d"/>
            <path id="path378" d="M204.071-174.015l.08-.418.466-.038c.063-1.332.153-2.657.3-3.966l.955-5.007,1.858-4.076c.2-.816-.364-1.007-1.146-1.007-.485,0-1.052.074-1.571.117l-1.19.1,1.265-7.644c3.3-17.4,5.852-32.454,7.425-43.591.321-2.271.6-4.381.835-6.312l.344-2.073-.509,5.186q-.2,1.556-.425,3.234c-1.713,12.622-4.7,30.256-8.623,50.63l-.06.314a9.9,9.9,0,0,1,1.934-.225h.015a3.428,3.428,0,0,1,1.15.162,1.237,1.237,0,0,1,.543.371,1,1,0,0,1,.2.654,2.242,2.242,0,0,1-.256.846c-.051.1-.1.2-.16.29-.2.339-.377.631-.541.967a13.039,13.039,0,0,0-.513,1.316q-.127.389-.231.788a43.393,43.393,0,0,0-1.2,9.121l-.008.184-.18.015-.759.061" transform="translate(-82.551 435.996)" fill="#0f191d"/>
            <path id="path380" d="M203.808-121.321l-.006-.082h0l.006.082" transform="translate(-82.543 384.752)" fill="#78403a"/>
            <path id="path382" d="M298.089-309.379a5.5,5.5,0,0,0-.877,7.032,3.619,3.619,0,0,0,2.366,1.463,3.629,3.629,0,0,0,3.2-.763,7.128,7.128,0,0,0,2-2.75c-1.844-1.46-4.85-3.522-6.692-4.981" transform="translate(-120.008 460.885)" fill="#6f3530"/>
            <path id="path384" d="M302.045-301.339a1.853,1.853,0,0,1-.789.29,4.269,4.269,0,0,1-2.29-.207,4.5,4.5,0,0,1-2.489-2.318,5.2,5.2,0,0,1-.1-4.154,6.384,6.384,0,0,1,1.158-1.9l.123-.14.149.11c1.929,1.428,3.607,2.693,4.8,3.61a15.884,15.884,0,0,1,1.859,1.527,15.656,15.656,0,0,1-2.014-1.315c-1.231-.86-2.94-2.082-4.88-3.5l.271-.03a6.149,6.149,0,0,0-1.078,1.782,4.887,4.887,0,0,0,.059,3.844,4.276,4.276,0,0,0,2.251,2.207,4.436,4.436,0,0,0,2.158.32c.522-.06.8-.165.814-.131" transform="translate(-119.882 461.042)" fill="#17282f"/>
          </g>
        </g>
      </g>
    </g>
  </g>
</svg>
