<svg xmlns="http://www.w3.org/2000/svg" width="200.996" height="57" viewBox="0 0 200.996 57">
  <g id="Group_2845" data-name="Group 2845" transform="translate(-751 -135.973)">
    <path id="Subtraction_5" data-name="Subtraction 5" d="M49,57H0V0L49,12.91V57ZM4.9,6.362V52.086H44.1V16.717Z" transform="translate(751 135.973)" fill="#ffffff"/>
    <path id="Path_386" data-name="Path 386" d="M0-7.7l24.927-4.069V16.146H0Z" transform="translate(775.073 176.827)" fill="#00cec9"/>
    <path id="Path_389" data-name="Path 389" d="M1.174-.05V-2.682L8.258-9.693a4.128,4.128,0,0,0,.646-.754,3.092,3.092,0,0,0,.359-.754,2.555,2.555,0,0,0,.12-.766,1.638,1.638,0,0,0-.706-1.352,2.816,2.816,0,0,0-1.759-.538,4.84,4.84,0,0,0-2.106.467A8.251,8.251,0,0,0,2.682-11.8L.624-14.312A10.4,10.4,0,0,1,3.675-16.37a8.432,8.432,0,0,1,3.362-.694,7.42,7.42,0,0,1,3.123.61,4.922,4.922,0,0,1,2.07,1.7,4.416,4.416,0,0,1,.742,2.549,5.08,5.08,0,0,1-.227,1.52,5.266,5.266,0,0,1-.706,1.424,9.712,9.712,0,0,1-1.244,1.436L5.96-3.16l7.251-.024V-.05Z" transform="translate(781.19 189.89)" fill="#ffffff"/>
    <path id="Path_388" data-name="Path 388" d="M9.336.2A8.672,8.672,0,0,1,6.011-.426,8.457,8.457,0,0,1,3.3-2.192,8.2,8.2,0,0,1,1.482-4.829,8.044,8.044,0,0,1,.828-8.074a8.044,8.044,0,0,1,.654-3.245,8.378,8.378,0,0,1,1.8-2.637,8.164,8.164,0,0,1,2.695-1.766,8.7,8.7,0,0,1,3.314-.631,9.093,9.093,0,0,1,3.761.791,7.739,7.739,0,0,1,2.913,2.213l-2.316,2.133A5.441,5.441,0,0,0,11.7-12.775,5.6,5.6,0,0,0,9.29-13.3a4.923,4.923,0,0,0-2,.4A5.091,5.091,0,0,0,5.69-11.8,4.916,4.916,0,0,0,4.623-10.15a5.568,5.568,0,0,0-.378,2.075,5.51,5.51,0,0,0,.39,2.087A4.946,4.946,0,0,0,5.724-4.324a5.192,5.192,0,0,0,1.628,1.1,5.062,5.062,0,0,0,2.03.4,4.86,4.86,0,0,0,2.064-.424,4.323,4.323,0,0,0,1.548-1.193,4.02,4.02,0,0,0,.837-1.731H9.084V-9.06h8.3v1.009a8.7,8.7,0,0,1-.608,3.291,8.053,8.053,0,0,1-1.686,2.614A7.637,7.637,0,0,1,12.547-.414,8.177,8.177,0,0,1,9.336.2Zm8.118-.252,6.6-16.053h3.83L34.425-.047h-3.6L29.2-4.267H22.569L20.918-.047ZM23.6-6.927h4.587l-2.293-5.917ZM41.557.182a6.748,6.748,0,0,1-4.094-1.215,6.724,6.724,0,0,1-2.4-3.486l3.073-1.17a4.773,4.773,0,0,0,1.342,2.167,3.127,3.127,0,0,0,2.075.7A3.267,3.267,0,0,0,43.965-3.8a3.486,3.486,0,0,0,.894-2.58l.023-9.724h3.279l.023,9.815a6.715,6.715,0,0,1-.837,3.406A5.827,5.827,0,0,1,45.032-.621,7.177,7.177,0,0,1,41.557.182Z" transform="translate(804.34 190.065)" fill="#00cec9"/>
    <path id="Path_387" data-name="Path 387" d="M.506-.047.483-2.317,9.335-13.21.575-13.233.552-16.1H13.647l.023,2.27L4.817-2.936l8.921.023.023,2.867Zm13.9,0,6.6-16.053h3.83L31.374-.047h-3.6l-1.628-4.22H19.518L17.866-.047Zm6.146-6.88h4.587l-2.293-5.917ZM32.727-.047V-16.1h4.266l4.4,8.669L45.8-16.1h4.266V-.047H46.923V-11.857L41.35-1.193,35.8-11.9V-.047ZM53-.047,52.954-16.1H65.27l.023,2.89-9.013-.023v3.692l5.917.023.023,2.775-5.94-.023v3.83l9.082.023.023,2.867Zm14.792,0L67.746-16.1H80.061l.023,2.89-9.013-.023v3.692l5.917.023.023,2.775-5.94-.023v3.83l9.082.023.023,2.867Zm14.746,0V-16.1H85.7L93.684-5.734V-16.1H96.8V-.047H93.867L85.68-10.779V-.047Z" transform="translate(855.193 190.065)" fill="#ffffff"/>
  </g>
</svg>
