<svg xmlns="http://www.w3.org/2000/svg" width="682.923" height="411.483" viewBox="0 0 682.923 411.483">
  <g id="g10" transform="translate(-320.566 2340.059)">
    <g id="g12" transform="translate(320.566 -2340.059)">
      <g id="g18" transform="translate(36.012 121.687)">
        <path id="path20" d="M1125.018-1550.864a69.548,69.548,0,0,1,1.759,8.219l1.046-.159a71.585,71.585,0,0,0-1.79-8.343l-1.015.283m2.52,16.588c.018.668.031,1.337.031,2q0,3.185-.3,6.391l1.051.1q.307-3.257.307-6.492c0-.679-.009-1.358-.031-2.036l-1.055.032h0m-1.59,16.691a65.883,65.883,0,0,1-2.346,8.066l1,.356a68.57,68.57,0,0,0,2.382-8.19l-1.033-.232h0m-5.672,15.774a71.424,71.424,0,0,1-4.234,7.252l.877.584a72.179,72.179,0,0,0,4.3-7.358l-.944-.478M1111-1487.84a81.589,81.589,0,0,1-5.744,6.143l.735.761a82.3,82.3,0,0,0,5.815-6.222l-.806-.681m-12.062,11.691q-3.2,2.555-6.8,4.965l.588.879q3.633-2.432,6.87-5.017l-.659-.827h0m-13.981,9.37q-3.573,2.012-7.48,3.879l.454.953q3.941-1.877,7.547-3.911l-.521-.922m-15.2,7.27q-3.814,1.538-7.912,2.94l.343,1q4.127-1.407,7.961-2.96l-.392-.977m-15.962,5.467q-3.96,1.141-8.166,2.152l.245,1.028q4.228-1.018,8.211-2.163l-.289-1.017m-16.421,3.961q-4.054.8-8.317,1.492l.169,1.043q4.281-.689,8.353-1.5l-.2-1.035m-16.679,2.7q-4.107.523-8.4.943l.1,1.051q4.308-.42,8.428-.946l-.129-1.049m-16.83,1.64q-4.141.285-8.442.472l.044,1.057q4.321-.186,8.473-.476l-.076-1.053m-16.9.742q-3.773.071-7.667.074h-.8v1.056h.8q3.907,0,7.689-.077l-.022-1.054h0m-16.924-.032q-4.161-.091-8.46-.269l-.045,1.057q4.308.178,8.482.269l.022-1.057m-16.915-.695q-4.161-.245-8.442-.573l-.08,1.054q4.288.329,8.46.573l.062-1.054m-16.879-1.281q-4.161-.38-8.424-.835l-.111,1.051c2.845.3,5.664.581,8.438.837l.1-1.053m-16.835-1.791q-4.154-.5-8.4-1.072l-.142,1.048q4.255.57,8.411,1.072l.129-1.049m-16.786-2.25q-4.141-.606-8.371-1.281l-.165,1.043q4.234.673,8.384,1.283l.151-1.046M885.9-1453.7q-4.127-.705-8.339-1.468l-.192,1.038q4.221.768,8.353,1.471l.178-1.04m-16.666-3.027q-4.114-.788-8.308-1.64l-.209,1.035q4.194.851,8.317,1.642l.2-1.038m-16.6-3.359q-4.1-.868-8.278-1.8l-.23,1.032q4.184.927,8.285,1.8l.223-1.035m-16.539-3.663q-4.089-.942-8.246-1.936l-.245,1.027q4.16.994,8.253,1.939l.238-1.03m-16.475-3.94q-4.072-1.011-8.214-2.068l-.261,1.022q4.144,1.061,8.222,2.07l.253-1.025h0m-16.411-4.2q-1.188-.313-2.382-.629-2.927-.78-5.831-1.492l-.253,1.025q2.9.713,5.813,1.487,1.193.317,2.385.631l.269-1.022h0m-16.482-4.035q-4.179-.908-8.319-1.693l-.2,1.038q4.124.785,8.29,1.688l.224-1.032m-16.686-3.164q-4.223-.686-8.4-1.247l-.142,1.046q4.164.563,8.375,1.244l.169-1.043m-16.833-2.274q-4.25-.459-8.454-.806l-.087,1.051q4.188.349,8.427.805l.114-1.051h0m-16.926-1.4q-4.27-.242-8.483-.378l-.034,1.056q4.2.135,8.456.378l.061-1.056m-16.973-.55q-1.482-.012-2.956-.011-2.781,0-5.53.04l.016,1.057q2.742-.039,5.514-.04,1.47,0,2.948.011l.008-1.057m-16.968.254q-4.274.162-8.478.409l.063,1.057q4.191-.25,8.454-.41l-.04-1.056h0m-16.942,1q-4.266.337-8.451.755l.1,1.051q4.175-.416,8.432-.755l-.085-1.051m-16.886,1.666q-4.254.5-8.418,1.059l.14,1.046q4.156-.559,8.4-1.057l-.122-1.049m-16.817,2.248q-4.241.634-8.381,1.31l.17,1.043q4.133-.673,8.367-1.307l-.156-1.046m-16.745,2.723q-4.232.738-8.347,1.5l.191,1.04q4.111-.756,8.338-1.495l-.182-1.041m-16.682,3.056q-4.231.808-8.325,1.6l.2,1.038q4.093-.8,8.322-1.6l-.2-1.038m-16.646,3.216q-4.244.82-8.323,1.59l.2,1.038q4.082-.764,8.328-1.59l-.2-1.038m-16.655,3.114q-4.279.756-8.349,1.4l.164,1.043q4.081-.642,8.369-1.4l-.183-1.041m-16.724,2.6q-4.343.551-8.4.885l.085,1.054q4.088-.333,8.451-.89l-.132-1.049m-16.83,1.294c-.384.005-.765.005-1.144.005-2.526,0-4.949-.1-7.264-.317l-.1,1.053c2.353.22,4.808.32,7.363.32.383,0,.769,0,1.157-.005l-.012-1.056m-16.67-1.706a35.94,35.94,0,0,1-7.789-2.95l-.492.937a37.147,37.147,0,0,0,8.016,3.037l.264-1.025h0m-14.517-7.791a31.307,31.307,0,0,1-5.131-6.528l-.907.541a32.371,32.371,0,0,0,5.3,6.748l.734-.761m-8.64-14.113q-1.451-4-2.635-8.021l-1.013.3q1.194,4.049,2.655,8.081l.993-.362m-4.769-16.187q-.945-4.135-1.622-8.282l-1.042.169q.683,4.179,1.635,8.348l1.03-.235m-2.728-16.651q-.424-4.211-.587-8.419l-1.056.04q.166,4.243.592,8.485l1.051-.106h0m-.663-16.862q.089-4.219.426-8.425l-1.053-.085q-.339,4.235-.429,8.488l1.056.021m1.336-16.8q.573-4.171,1.378-8.314l-1.037-.2q-.809,4.172-1.387,8.369l1.046.145m3.2-16.535q1.021-4.089,2.257-8.137l-1.01-.309q-1.243,4.072-2.272,8.189l1.025.256m4.922-16.152q1.426-3.965,3.05-7.878l-.976-.4q-1.632,3.934-3.068,7.923l.994.359m6.465-15.605q1.79-3.815,3.759-7.569l-.935-.491q-1.978,3.771-3.78,7.611l.956.449m7.843-14.969q2.115-3.649,4.391-7.223l-.891-.568q-2.287,3.593-4.414,7.26l.914.531m9.06-14.243q2.4-3.458,4.944-6.832l-.844-.637q-2.555,3.391-4.969,6.867l.868.6m10.15-13.474q2.663-3.268,5.455-6.442l-.793-.7q-2.8,3.189-5.48,6.472l.819.668m11.146-12.682q2.9-3.066,5.919-6.03l-.741-.754q-3.029,2.977-5.945,6.057l.767.727m12.053-11.846q3.12-2.853,6.343-5.594l-.684-.8q-3.236,2.753-6.371,5.62l.713.779m12.884-10.96q3.321-2.626,6.733-5.13l-.625-.851q-3.426,2.514-6.762,5.152l.655.829m13.649-10.016q3.507-2.384,7.091-4.633l-.561-.895q-3.6,2.259-7.124,4.654l.594.874m14.352-9q3.677-2.122,7.42-4.1l-.493-.935q-3.759,1.983-7.455,4.115l.528.916m14.994-7.906q3.821-1.829,7.7-3.5l-.418-.97q-3.893,1.678-7.734,3.518l.456.952h0m15.524-6.689q3.957-1.517,7.953-2.862l-.337-1q-4.017,1.35-7.995,2.877l.378.986m16.02-5.38q4.071-1.174,8.169-2.159l-.247-1.028q-4.121.991-8.215,2.172l.293,1.015h0m16.426-3.941q4.16-.8,8.332-1.386l-.148-1.046q-4.195.594-8.382,1.4l.2,1.037m16.741-2.36q4.219-.38,8.438-.539l-.04-1.056q-4.246.159-8.493.542l.095,1.052m16.881-.626q4.227.072,8.435.38l.077-1.053q-4.235-.312-8.494-.382l-.018,1.056m16.833,1.241q4.179.552,8.33,1.353l.2-1.037q-4.179-.807-8.393-1.363l-.137,1.047h0m16.562,3.2q4.073,1.048,8.1,2.352l.325-1.005q-4.056-1.316-8.163-2.37l-.261,1.023h0m16.036,5.2q3.906,1.539,7.751,3.339l.449-.957q-3.874-1.814-7.812-3.366l-.388.983m15.278,7.154q3.676,2.005,7.281,4.269l.562-.9q-3.633-2.28-7.336-4.3l-.507.928m14.293,8.968q3.4,2.428,6.724,5.1l.663-.823q-3.347-2.695-6.774-5.14l-.613.86h0m13.149,10.578q2.012,1.813,3.99,3.724,1.085,1.048,2.176,2.071l.721-.77q-1.082-1.018-2.163-2.061-1.993-1.924-4.017-3.749l-.708.785m12.46,11.478q3.248,2.815,6.523,5.423l.658-.827q-3.257-2.595-6.489-5.394l-.692.8m13.268,10.565q3.47,2.529,6.964,4.845l.584-.88q-3.474-2.305-6.925-4.819l-.623.854m14.134,9.377q3.676,2.208,7.371,4.206l.5-.929q-3.672-1.989-7.328-4.183l-.544.905m14.922,8.079q3.847,1.864,7.712,3.533l.423-.972q-3.847-1.656-7.676-3.511l-.459.951m15.579,6.723q3.994,1.521,7.992,2.855l.338-1q-3.981-1.331-7.952-2.842l-.378.988m16.1,5.382q4.094,1.189,8.2,2.211l.254-1.025q-4.074-1.022-8.152-2.2l-.3,1.017h0m16.465,4.123q4.168.888,8.331,1.635l.187-1.041q-4.147-.745-8.295-1.627l-.223,1.032m16.706,3.013q4.214.63,8.411,1.146l.129-1.048q-4.187-.519-8.38-1.144l-.16,1.046m16.848,2.089q4.234.428,8.451.769l.085-1.054q-4.208-.345-8.433-.766l-.1,1.051m16.911,1.389q4.254.281,8.469.507l.058-1.057q-4.214-.226-8.455-.5l-.071,1.054m16.942.93q4.254.2,8.469.375l.044-1.054q-4.208-.182-8.464-.375l-.049,1.054m16.942.737q4.261.186,8.464.388l.053-1.056q-4.207-.207-8.473-.386l-.045,1.054h0m16.924.843q4.261.25,8.451.565l.08-1.053q-4.2-.317-8.469-.568l-.062,1.057m16.884,1.288q4.248.416,8.4.94l.138-1.048q-4.181-.531-8.437-.943l-.1,1.051m16.768,2.152q4.2.69,8.3,1.548l.218-1.033q-4.121-.868-8.349-1.558l-.169,1.043m16.505,3.5c2.729.729,5.423,1.535,8.063,2.425l.338-1q-4-1.346-8.13-2.445l-.272,1.022h0m15.958,5.393q3.874,1.621,7.6,3.542l.485-.94q-3.767-1.941-7.676-3.576l-.41.974m14.884,7.709q3.526,2.223,6.888,4.791l.641-.84q-3.4-2.6-6.964-4.846l-.566.9h0m13.308,10.184q3.039,2.789,5.922,5.942l.779-.713q-2.912-3.189-5.984-6.008l-.717.779h0m11.318,12.368q2.511,3.253,4.884,6.845l.882-.581q-2.4-3.629-4.929-6.909l-.837.644h0m9.27,14.042c.1.185.209.367.312.552a70.632,70.632,0,0,1,3.656,7.569l.971-.4a70.279,70.279,0,0,0-3.7-7.685c-.1-.185-.209-.37-.312-.552l-.922.517" transform="translate(-502.377 1725.705)" fill="#e4e4e4"/>
      </g>
      <g id="g22" transform="translate(31.928 157.205)">
        <path id="path24" d="M1100.82-1292.529H481.758c19.374-143.14,150.556-253.859,309.531-253.859s290.157,110.719,309.531,253.859" transform="translate(-481.758 1546.387)" fill="#f6f5f5"/>
      </g>
      <g id="g26" transform="translate(317.819 36.541)">
        <path id="path28" d="M2177.6-1782.31H1944.75a19.631,19.631,0,0,1-19.63-19.63v-334a19.63,19.63,0,0,1,19.63-19.631H2177.6a19.63,19.63,0,0,1,19.626,19.631v334a19.631,19.631,0,0,1-19.626,19.63" transform="translate(-1925.12 2155.574)" fill="#a9bae6"/>
      </g>
      <g id="g30" transform="translate(342.412 51.586)">
        <path id="path32" d="M2273.244-2079.617v325.335H2049.281v-325.335h223.963" transform="translate(-2049.281 2079.617)" fill="#f6f5f5"/>
      </g>
      <g id="g34" transform="translate(342.407 51.587)">
        <path id="path36" d="M2273.219-2079.614c.07,126.865,4.166,279.868-10.086,313.743-62.765,6.117-136.259,8.079-213.879,8.443l29.5-321.2,194.462-.984" transform="translate(-2049.254 2079.614)" fill="#e4e4e4"/>
      </g>
      <g id="g38" transform="translate(330.008 51.603)">
        <path id="path40" d="M2202.911-1776.06c-97.834,15.658-163.219,16.485-216.252,12.547,6.873-73.158,9.631-194.687,12.4-316.023l117.89.26,106.693,7.043c1.555,125.935,1.726,242.262-20.731,296.172" transform="translate(-1986.66 2079.536)" fill="#fff"/>
      </g>
      <g id="g42" transform="translate(393.45 81.589)">
        <path id="path44" d="M2424.773-1907.428l-117.818-2.77.423-17.947,117.818,2.774-.423,17.944" transform="translate(-2306.955 1928.145)" fill="#708cd5"/>
      </g>
      <g id="g46" transform="translate(427.937 125.777)">
        <path id="path48" d="M2587.534-1702.555l-106.272-2.5-.194,8.214,106.272,2.5.194-8.214" transform="translate(-2481.068 1705.056)" fill="#708cd5"/>
      </g>
      <g id="g50" transform="translate(427.516 143.688)">
        <path id="path52" d="M2551.369-1612.932l-72.234-1.7-.194,8.214,72.234,1.7.194-8.214" transform="translate(-2478.941 1614.632)" fill="#d3dfff"/>
      </g>
      <g id="g54" transform="translate(368.894 124.881)">
        <path id="path56" d="M2208.135-1683.829l-25.158-.593.59-25.158,25.161.593-.593,25.158" transform="translate(-2182.977 1709.58)" fill="#fff"/>
      </g>
      <g id="g58" transform="translate(368.085 124.068)">
        <path id="path60" d="M2204.861-1687.122l.023-.791-24.37-.574.555-23.573,23.575.555-.572,24.367.788.017.023-.791-.023.791.792.02.614-25.949-26.743-.631-.631,26.743,26.743.628.017-.791-.791-.02" transform="translate(-2178.892 1713.683)" fill="#708cd5"/>
      </g>
      <g id="g62" transform="translate(373.539 116.609)">
        <path id="path64" d="M2206.482-1736.45c.775,2.972,2.209,15.43,8.447,11.947,1.44-.8,2.657-2.927,3.736-4.149q2.9-3.3,5.8-6.588,5.806-6.589,11.606-13.178c.992-1.125-3.386-3.948-4.631-2.536q-5.156,5.857-10.314,11.715-2.578,2.926-5.161,5.856c-1.191,1.354-3.951,5.724-5.721,6.111q1.446.465,2.889.932c.68.559-.585-3.4-.611-3.506q-.723-2.754-1.443-5.511c-.4-1.518-5.184-3.343-4.6-1.093" transform="translate(-2206.432 1751.34)" fill="#ee6f57"/>
      </g>
      <g id="g66" transform="translate(426.865 171.516)">
        <path id="path68" d="M2563.356-1472.076l-87.511-2.06-.192,8.214,87.511,2.059.191-8.214" transform="translate(-2475.654 1474.135)" fill="#708cd5"/>
      </g>
      <g id="g70" transform="translate(426.439 189.427)">
        <path id="path72" d="M2579.969-1381.21l-106.272-2.5-.194,8.214,106.273,2.5.194-8.215" transform="translate(-2473.503 1383.711)" fill="#d3dfff"/>
      </g>
      <g id="g74" transform="translate(367.819 170.62)">
        <path id="path76" d="M2202.709-1452.91l-25.158-.592.592-25.158,25.158.592-.592,25.158" transform="translate(-2177.551 1478.66)" fill="#fff"/>
      </g>
      <g id="g78" transform="translate(367.007 169.809)">
        <path id="path80" d="M2199.42-1456.192l.017-.792-24.366-.573.556-23.575,23.574.556-.573,24.366.792.019.017-.792-.017.792.792.019.61-25.951-26.742-.629-.629,26.743,26.742.629.02-.792-.792-.019" transform="translate(-2173.451 1482.753)" fill="#708cd5"/>
      </g>
      <g id="g82" transform="translate(372.446 163.058)">
        <path id="path84" d="M2200.962-1501.948c.776,2.974,2.21,15.43,8.447,11.947,1.44-.8,2.659-2.927,3.735-4.148q2.9-3.294,5.8-6.588,5.805-6.589,11.607-13.177c.99-1.125-3.389-3.947-4.631-2.536q-5.161,5.856-10.316,11.713-2.58,2.928-5.158,5.857c-1.194,1.355-3.953,5.724-5.722,6.112l2.885.933c.681.558-.584-3.4-.61-3.506q-.721-2.756-1.44-5.512c-.4-1.518-5.187-3.343-4.6-1.093" transform="translate(-2200.913 1516.838)" fill="#ee6f57"/>
      </g>
      <g id="g86" transform="translate(425.785 217.256)">
        <path id="path88" d="M2576.666-1240.708l-106.273-2.5L2470.2-1235l106.273,2.5.194-8.213" transform="translate(-2470.199 1243.209)" fill="#708cd5"/>
      </g>
      <g id="g90" transform="translate(425.363 235.165)">
        <path id="path92" d="M2515.79-1151.676l-47.528-1.12-.191,8.216,47.525,1.117.194-8.213" transform="translate(-2468.071 1152.796)" fill="#d3dfff"/>
      </g>
      <g id="g94" transform="translate(366.742 216.358)">
        <path id="path96" d="M2197.274-1222l-25.16-.591.593-25.158,25.157.592-.59,25.158" transform="translate(-2172.113 1247.746)" fill="#fff"/>
      </g>
      <g id="g98" transform="translate(365.93 215.548)">
        <path id="path100" d="M2193.986-1225.275l.017-.79-24.365-.576.555-23.573,23.571.555-.572,24.365.793.019.017-.79-.017.79.791.018.611-25.95-26.744-.629-.628,26.742,26.744.629.017-.792-.791-.018" transform="translate(-2168.016 1251.835)" fill="#708cd5"/>
      </g>
      <g id="g106" transform="translate(424.711 262.995)">
        <path id="path108" d="M2571.243-1009.792l-106.271-2.5-.193,8.213,106.271,2.5.194-8.213" transform="translate(-2464.779 1012.293)" fill="#708cd5"/>
      </g>
      <g id="g110" transform="translate(424.289 280.904)">
        <path id="path112" d="M2546.794-919.9l-83.951-1.978-.193,8.216,83.951,1.975.193-8.214" transform="translate(-2462.651 921.878)" fill="#d3dfff"/>
      </g>
      <g id="g114" transform="translate(365.665 262.097)">
        <path id="path116" d="M2191.836-991.071l-25.16-.594.594-25.158,25.157.591-.592,25.161" transform="translate(-2166.677 1016.823)" fill="#fff"/>
      </g>
      <g id="g118" transform="translate(364.852 261.287)">
        <path id="path120" d="M2188.541-994.35l.02-.792-24.368-.576.556-23.573,23.575.554-.573,24.368.791.018.02-.792-.02.792.794.019.61-25.953-26.742-.629-.632,26.742,26.745.631.02-.792-.794-.019" transform="translate(-2162.571 1020.913)" fill="#708cd5"/>
      </g>
      <g id="g126" transform="translate(423.645 308.388)">
        <path id="path128" d="M2501.712-782.13l-42.126-.99-.192,8.213,42.126.993.192-8.216" transform="translate(-2459.395 783.121)" fill="#708cd5"/>
      </g>
      <g id="g130" transform="translate(423.218 326.3)">
        <path id="path132" d="M2563.708-690.189l-106.273-2.5-.193,8.213c41.116.964,93.467,2.892,104.147,1.252a9.215,9.215,0,0,0,2.319-6.964" transform="translate(-2457.242 692.69)" fill="#d3dfff"/>
      </g>
      <g id="g134" transform="translate(364.949 307.498)">
        <path id="path136" d="M2188.221-761.861l-25.159-.591.594-25.161,25.159.594-.594,25.158" transform="translate(-2163.062 787.613)" fill="#fff"/>
      </g>
      <g id="g138" transform="translate(364.138 306.687)">
        <path id="path140" d="M2184.937-765.141l.017-.792-24.364-.573.553-23.576,23.577.555-.575,24.368.793.018.017-.792-.017.792.793.018.611-25.95L2159.6-791.7l-.631,26.743,26.742.631.02-.792-.793-.018" transform="translate(-2158.968 791.704)" fill="#708cd5"/>
      </g>
      <g id="g146" transform="translate(403.428)">
        <path id="path148" d="M2458.215-2301.256v25.109H2357.329v-25.109a14.506,14.506,0,0,1,4.246-10.259,11.555,11.555,0,0,1,1.024-.916,14.394,14.394,0,0,1,9.235-3.33,17.054,17.054,0,0,0,7.417-1.689,17.526,17.526,0,0,0,2.787-1.679,17.07,17.07,0,0,0,6.19-8.779,17.163,17.163,0,0,1,6.382-8.917,17.143,17.143,0,0,1,10.015-3.233h6.295a17.146,17.146,0,0,1,10.015,3.233,17.165,17.165,0,0,1,6.381,8.917,17.07,17.07,0,0,0,6.19,8.779,17.658,17.658,0,0,0,2.787,1.679,17.054,17.054,0,0,0,7.417,1.689,14.394,14.394,0,0,1,9.235,3.33,14.431,14.431,0,0,1,5.27,11.175" transform="translate(-2357.329 2340.059)" fill="#ee6f57"/>
      </g>
      <g id="g150" transform="translate(395.242 51.584)">
        <path id="path152" d="M2433.258-2079.63v18.669H2316v-18.669h8.188v12.329h100.884v-12.329h8.188" transform="translate(-2315.999 2079.63)" fill="#e4e4e4"/>
      </g>
      <g id="g154" transform="translate(444.922 6.551)">
        <path id="path156" d="M2584.714-2298.478a8.734,8.734,0,0,1-8.948,8.5,8.735,8.735,0,0,1-8.95-8.5,8.736,8.736,0,0,1,8.95-8.5,8.735,8.735,0,0,1,8.948,8.5" transform="translate(-2566.816 2306.983)" fill="#fff"/>
      </g>
      <path id="path158" d="M1601.912-1798.275c-3.579-.679-6.922-6.655-8.084-8.948a2.853,2.853,0,0,1-.259-1.82l1.426-7.548s3.285.557,3.032,4.933a3.251,3.251,0,0,0,.227,1.334l1.26,3.291,3.719-2.879-2.039-5.76s-2.731.75-4.141.3c-2.892-.924.9-3.18,2.1-3.42s3.84-1.2,5.039.84,1.92,3.24,1.92,3.24,1.32-4.561.42-14.758c-.04-.46,1.109-.449,1.431-.119.967.983,2.506,3.975,2.588,13.075,0,0,.161-10.606,1.978-11.7,1.5-.9,2.258,4.292,1.2,13.094,0,0,1.957-7.622,3.359-7.635,2.364-.024.029,20.357-5.913,26.431l-9.265-1.957" transform="translate(-1341.382 1930.888)" fill="#f9b384"/>
      <path id="path160" d="M1622.986-1686.289q-.158,1.521-.349,2.947v.011a85.663,85.663,0,0,1-1.563,8.99c-.032.127-.053.243-.084.359-1.807,7.405-2.134,11.029-8.3,10.057l-6.349-7.226-.063-.074-.465-.528,1.289-3.8.169-.5.951-2.768.116-.359,1.627-4.764.655-1.933,12.37-.412" transform="translate(-1351.237 1815.783)" fill="#f9b384"/>
      <path id="path162" d="M1017.8-357.946l-1.616,5.052c-11.081,3.639-17.544,7.809-17.959,12.677h32.044l2.569-16.913a24.836,24.836,0,0,1-15.037-.816" transform="translate(-863.997 750.549)" fill="#1f3c88"/>
      <path id="path164" d="M1101.068-421.332l-4.018,12.555a24.835,24.835,0,0,0,15.037.816l1.657-10.907-12.677-2.464" transform="translate(-943.25 801.38)" fill="#f9b384"/>
      <path id="path166" d="M1333.45-412.545l.94-12.788-15.053.792-.823,11.789a24.628,24.628,0,0,0,14.935.206" transform="translate(-1120.848 804.588)" fill="#f9b384"/>
      <path id="path168" d="M1346.333-343.318c-.415-4.867-6.074-11.533-18.487-13.118l.38-5.171a24.627,24.627,0,0,1-14.935-.206L1312-343.318h34.332" transform="translate(-1115.624 753.65)" fill="#1f3c88"/>
      <path id="path170" d="M1258.8-1764.656l-18.159.127V-1792h17.61l.011,1.68.084,8.7.127,13.976.327,2.979" transform="translate(-1058.399 1900.552)" fill="#f9b384"/>
      <path id="path172" d="M1267.8-1768.144c-3.264,3.433-11.779-.444-15.37-4.225l15.286-4.479.084,8.7" transform="translate(-1067.851 1888.406)" fill="#e28b6d"/>
      <path id="path174" d="M1234.964-1898.072a39.274,39.274,0,0,1-.475,6.18c-.887,5.536-3.232,10.321-8.641,10.469-12.782.37-16.427-6.941-18.835-12.92s1.5-20.388,1.5-20.388l16.543-1.637,9.084,7.448a67.764,67.764,0,0,1,.824,10.849" transform="translate(-1030.803 2000.29)" fill="#f9b384"/>
      <path id="path176" d="M1175-1941.879s3.647-.166,4.27-9.579c6.521,2.181,11.286.193,15.061-4.152,3.222,4.255,12.24,5.588,15.286-3.124,2.2-6.293-3.874-15.669-12.721-9.991-8.67-4.381-21.822-4.08-25.606,6.666,0,0-13.156,6.066.774,19.422a16.191,16.191,0,0,0,2.936.758" transform="translate(-998.27 2044.401)" fill="#102048"/>
      <path id="path178" d="M1330.519-1155.6l-10.038,151.776h-23.592l5.9-147.279,3.61-1.672,24.123-2.826" transform="translate(-1103.506 1390.207)" fill="#102048"/>
      <path id="path180" d="M1089.44-1306.061l-16.55,172.542h25.706l24.473-143.318,27.818-8.451,1.233-30.635-61.975-1.408-.7,11.269" transform="translate(-923.874 1519.905)" fill="#1f3c88"/>
      <path id="path182" d="M1440.023-1311.184h-.013l-.013-.053.026.053" transform="translate(-1218.267 1515.019)" fill="#6c758d"/>
      <path id="path184" d="M1256.515-1298.7q.5-2.318.935-4.619c.3,0,.6.005.894.005q1.911,0,3.805-.1h0a80.754,80.754,0,0,0,11.8-1.447h0a95.367,95.367,0,0,0,17.6-5.24h0c.475-.18.94-.38,1.394-.57l-.071-.3h.013l1.32,2.646c-4.83,4.957-22.675,9.286-37.69,9.626" transform="translate(-1071.129 1514.805)" fill="#162b62"/>
      <path id="path186" d="M1240.736-1624.775c-.454.19-.919.391-1.394.57a95.377,95.377,0,0,1-17.6,5.24,80.752,80.752,0,0,1-11.8,1.447,68.187,68.187,0,0,1-18.529-1.5l7.87-73.377.962-8.948s10.3,12.677,21.655-1.32l18.835,77.887" transform="translate(-1018.923 1828.913)" fill="#fff"/>
      <path id="path188" d="M1256.628-1572.844c-.3,0-.6,0-.894-.005,4.907-26.072,3.25-50.479-1.359-74.227,6.277,18.431,11.724,51.586,6.058,74.135h0q-1.892.1-3.805.1" transform="translate(-1069.413 1784.337)" fill="#bbc4db"/>
      <path id="path190" d="M886.93-1710.662c7.825,33.223,11.045,67.411-.484,105.375-8.549,3.251-17.858,3.214-27.818.351l2.465-69.016-58.013,39.879-3.521-21.743c22.3-21.326,60.858-53.538,87.372-54.845" transform="translate(-704.683 1835.329)" fill="#708cd5"/>
      <path id="path192" d="M1331.735-1554.811c-3.5-20.05-4.267-52.989-1.426-67.852l19.026,62.612a95.368,95.368,0,0,1-17.6,5.24h0" transform="translate(-1128.916 1764.76)" fill="#bbc4db"/>
      <path id="path194" d="M1616.354-1634.986a11.666,11.666,0,0,1-1.785-.156l-6.349-7.226-.063-.074.824-4.331.169-.5.951-2.768.116-.359,12.74,4.838c-.032.127-.053.243-.084.359-1.614,6.613-2.047,10.213-6.518,10.213" transform="translate(-1353.119 1786.999)" fill="#eb9b76"/>
      <path id="path196" d="M1398.53-1688.762s-15.582,33.012-24.825,33.8c-8.961.768-13.2-7.923-13.2-7.923l6.338,48.245a40.45,40.45,0,0,1-25,3.518c-8.377-27.2-11.543-62.374-12.166-101.545,6.781.422,20.213,1,25.022,4.094,8.628,5.546,19.279,25.353,19.279,25.353l12.413-16.9,12.148,11.356" transform="translate(-1129.792 1836.933)" fill="#708cd5"/>
      <path id="path198" d="M718.324-1887.853s.943-15.79,2.55-15.045,4.831,14.475,4.831,14.475l-3.447,5.565-3.934-4.994" transform="translate(-639.538 1989.509)" fill="#6f3428"/>
      <path id="path200" d="M817.8-387.106l.467,5.2A16.681,16.681,0,0,1,803.143-363.8l-1.336.119A16.681,16.681,0,0,1,783.7-378.8l-.467-5.2,34.563-3.106" transform="translate(-691.592 773.933)" fill="#ee6f57"/>
      <path id="path202" d="M703.642-1657.716l22.611,251.674-34.563,3.106-22.611-251.676,34.563-3.1" transform="translate(-600.047 1792.87)" fill="#fbc343"/>
      <path id="path204" d="M717.794-1676.54l-.548-6.1,14.379-1.291.548,6.1-2.1.19-.359-4-10.171.914.359,4-2.1.188" transform="translate(-638.674 1813.891)" fill="#d4c2be"/>
      <path id="path206" d="M739.473-1435.244l-19.461-216.607,2.1-.187,19.272,214.5,10.171-.914-19.272-214.5,2.1-.19,19.366,215.553-1.052.1,1.052-.1.095,1.054-14.38,1.291" transform="translate(-640.893 1789.202)" fill="#d1983b"/>
      <path id="path208" d="M803.653-544.355,769.1-541.249l-.909-10.141-.634-7.046L765.6-580.093l34.565-3.106,1.944,21.656.634,7.046.908,10.141" transform="translate(-677.452 931.185)" fill="#102048"/>
      <path id="path210" d="M810.657-466.819,776.1-463.714l-.634-7.046,34.554-3.106.634,7.046" transform="translate(-685.365 843.508)" fill="#fbc343"/>
      <path id="path212" d="M669.056-1801.918l9.6-38.479a8.25,8.25,0,0,0,7.333-1.011l17.632,36.385-34.566,3.106" transform="translate(-600.029 1940.178)" fill="#ee6f57"/>
      <path id="path214" d="M1188.741-1837.5c-.155-.568-2.734-1.347-3.3-1.5a3.965,3.965,0,0,0-2.694.024c-3.12,1.41-2.7,5.876-1.087,8.224a7.041,7.041,0,0,0,3.815,2.8c.567.161,5.932.227,5.7-.636l-2.429-8.908" transform="translate(-1010.103 1938.427)" fill="#f9b384"/>
      <path id="path216" d="M670.14-1390.922a4.7,4.7,0,0,0-6-3.1c-3.932,1.357-7.357,3.66-7.887,7.58-.483,3.568,1.3,14.964,9.272,16.429l-.651-5.858s4.88-1.138,5.856-3.254c.683-1.479.729-7.661-.589-11.8" transform="translate(-589.702 1581.612)" fill="#f9b384"/>
      <path id="path218" d="M1471.379-1575.223c.42,2.493.776,4.994,1.117,7.5.357,2.5.636,5.013.959,7.519l.819,7.532c.238,2.517.473,5.031.626,7.558l-.409.047c-.433-2.493-.784-5-1.133-7.5l-.943-7.519c-.264-2.514-.57-5.021-.8-7.537s-.475-5.031-.642-7.553l.409-.047" transform="translate(-1243.105 1726.716)" fill="#1f3c88"/>
      <path id="path220" d="M1106.288-1577.361c-.006,2.8-.074,5.6-.157,8.4s-.215,5.594-.319,8.388l-.458,8.382c-.187,2.794-.379,5.586-.651,8.375l-.413-.021c-.008-2.8.065-5.6.141-8.4l.334-8.388c.16-2.794.28-5.591.474-8.382s.377-5.586.635-8.375l.412.021" transform="translate(-949.056 1728.448)" fill="#1f3c88"/>
      <path id="path222" d="M1276.228-1838.026a1.661,1.661,0,0,1-.917,2.1c-.729.164-1.5-.512-1.725-1.508a1.66,1.66,0,0,1,.916-2.1c.729-.164,1.5.512,1.725,1.508" transform="translate(-1084.77 1938.694)" fill="#102048"/>
      <path id="path224" d="M1329.369-1845.748c-.045,1.019-.684,1.819-1.431,1.788s-1.317-.882-1.274-1.9.684-1.82,1.43-1.788,1.318.882,1.276,1.9" transform="translate(-1127.381 1945.186)" fill="#102048"/>
      <path id="path226" d="M1309.053-1833.822a24.169,24.169,0,0,1,.539,2.53,1.979,1.979,0,0,0,.512.879,3.35,3.35,0,0,0,.991.486,2.754,2.754,0,0,1,1.252.946,1.637,1.637,0,0,1,.128,1.727,3.244,3.244,0,0,1-1.032,1.043c-.363.246-.711.5-1.088.734l-.271-.312c.277-.341.582-.652.873-.977a3.142,3.142,0,0,0,.682-.89c.224-.489-.255-1.025-.949-1.3a3.687,3.687,0,0,1-1.287-.732,2.575,2.575,0,0,1-.678-1.4c-.175-.98.025-1.817-.07-2.63l.4-.108" transform="translate(-1112.937 1934.094)" fill="#e28b6d"/>
      <path id="path228" d="M1261.722-1854.924a3.068,3.068,0,0,1,1.078-1.645,3.281,3.281,0,0,1,1.915-.718,3.542,3.542,0,0,1,3.331,1.872l-.324.256a4.534,4.534,0,0,0-2.957-1.078,3.45,3.45,0,0,0-2.67,1.487l-.374-.175" transform="translate(-1075.304 1952.916)" fill="#102048"/>
      <path id="path230" d="M1316.769-1860.409a3.17,3.17,0,0,1,.829-1.334,2.765,2.765,0,0,1,1.5-.742,2.628,2.628,0,0,1,2.8,1.4l-.33.248a3.337,3.337,0,0,0-2.315-.6,2.918,2.918,0,0,0-1.1.4,7.137,7.137,0,0,0-1.025.843l-.356-.211" transform="translate(-1119.448 1957.107)" fill="#102048"/>
      <path id="path232" d="M1287.266-1782.169c1.844,2.887,4.3,3.2,6.2.164l-6.2-.164" transform="translate(-1095.789 1892.672)" fill="#fff"/>
      <path id="path234" d="M1348.9-1820.671h0a.131.131,0,0,0,.005-.032.131.131,0,0,1-.005.032m.38-3.359c.061-.948.09-1.893.1-2.82,0-.232,0-.465,0-.7l.047-.008c-.005,1.038-.055,2.284-.145,3.526" transform="translate(-1145.217 1929.069)" fill="#fecfc9"/>
      <path id="path236" d="M1339.964-1820.638a3.181,3.181,0,0,1-2.208-3.032c0-1.579,1.2-3.568,2.686-3.845,0,.232,0,.465,0,.7-.005.927-.034,1.872-.1,2.821-.087,1.175-.211,2.343-.375,3.328a.13.13,0,0,1-.005.032h0" transform="translate(-1136.279 1929.036)" fill="#faa280"/>
      <path id="path238" d="M1250.741-1808.958a3.405,3.405,0,0,1-3.407-3.4,3.406,3.406,0,0,1,3.407-3.407,3.406,3.406,0,0,1,3.407,3.407,3.405,3.405,0,0,1-3.407,3.4" transform="translate(-1063.766 1919.617)" fill="#faa280"/>
      <path id="path240" d="M1195.1-1823.325a17.287,17.287,0,0,0-1.9-1.254,1.683,1.683,0,0,0-.84-.217,1.88,1.88,0,0,0-.879.4l-.347-.224a1.647,1.647,0,0,1,1-1.078,1.954,1.954,0,0,1,1.529.177,3.954,3.954,0,0,1,1.767,1.946l-.329.248" transform="translate(-1018.691 1927.648)" fill="#e28b6d"/>
      <path id="path242" d="M702.9-1265.385l-.49-5.638.5,5.6-.013.037" transform="translate(-626.778 1482.771)" fill="#a9857e"/>
      <path id="path244" d="M701.04-1302.909l-.5-5.6-.016-.187.2.04-.651-5.858s.171-.04.456-.119a12.757,12.757,0,0,0,2.14-.729c1.333-.549,2.776-1.357,3.26-2.406h0l-4.89,14.861" transform="translate(-624.904 1520.258)" fill="#a76d33"/>
      <path id="path246" d="M700.487-1308.659l-.2-.04-.505-5.815c.176-.04.348-.079.515-.121-.285.079-.456.119-.456.119l.651,5.858m1.946-6.705a9.2,9.2,0,0,0,3.26-2.406c-.484,1.048-1.927,1.857-3.26,2.406" transform="translate(-624.665 1520.258)" fill="#a6674d"/>
      <g id="g248" transform="translate(0 409.371)">
        <path id="path250" d="M320.566-271.18h682.923v-2.112H320.566" transform="translate(-320.566 273.292)" fill="#102048"/>
      </g>
    </g>
  </g>
</svg>
