<svg id="g12" xmlns="http://www.w3.org/2000/svg" width="422.974" height="429.398" viewBox="0 0 422.974 429.398">
  <path id="path14" d="M447.114-614.813l-27.227,13.657a5.522,5.522,0,0,0-3.356,5.078v12.736a59.114,59.114,0,0,0,9.709,32.609c4.9,7.472,11.408,17.023,22.23,22.484h4.886c12.047-3.675,21.039-13.469,26.537-21.846A59.108,59.108,0,0,0,489.6-582.7v-13.376a5.52,5.52,0,0,0-3.356-5.078l-31.014-13.215c-1.383-.589-6.733-1.031-8.117-.442" transform="translate(-125.749 615.092)" fill="#dadbd8"/>
  <path id="path16" d="M443.9-614.251,412.89-601.036a5.52,5.52,0,0,0-3.357,5.078v12.736a59.121,59.121,0,0,0,9.708,32.609,59.318,59.318,0,0,0,27.116,22.484C458.406-531.8,467.4-541.6,472.9-549.974a59.109,59.109,0,0,0,9.709-32.608v-13.376a5.52,5.52,0,0,0-3.356-5.078l-31.015-13.215a5.52,5.52,0,0,0-4.328,0" transform="translate(-123.636 614.971)" fill="#f3f2f1"/>
  <path id="path18" d="M504.22-573.637a2.686,2.686,0,0,1,.059.586c.02.438.045,1,.075,1.687.029.733.072,1.631.021,2.673s-.009,2.232-.162,3.537c-.125,1.307-.212,2.745-.481,4.267-.124.762-.221,1.556-.378,2.364l-.533,2.482a61.042,61.042,0,0,1-3.576,10.709,62.882,62.882,0,0,1-5.563,9.827c-1.033,1.4-1.986,2.748-3.009,3.907-.5.586-.959,1.177-1.449,1.7l-1.416,1.5c-.88.976-1.783,1.753-2.536,2.472s-1.44,1.3-2.013,1.756l-1.315,1.059a2.728,2.728,0,0,1-.478.343,2.7,2.7,0,0,1,.417-.419l1.254-1.126c.553-.478,1.223-1.07,1.951-1.811s1.614-1.525,2.473-2.51l1.384-1.511c.48-.526.927-1.12,1.419-1.708,1-1.163,1.937-2.512,2.953-3.906a65.08,65.08,0,0,0,5.488-9.771,62.955,62.955,0,0,0,3.584-10.614q.282-1.261.549-2.46c.165-.8.268-1.588.4-2.344.285-1.51.391-2.938.537-4.235.174-1.3.154-2.482.232-3.517s.061-1.931.061-2.662c.007-.691.012-1.249.016-1.686a2.7,2.7,0,0,1,.039-.589" transform="translate(-145.351 602.577)" fill="#dadbd8"/>
  <path id="path20" d="M450.866-547.111l-17.791-14.145,4.937-6.208,11.929,9.485,17.422-19.5,5.913,5.284-22.41,25.08" transform="translate(-130.743 603.735)" fill="#fff"/>
  <path id="path22" d="M569.248-527.641h-3.366v-18.322a7.829,7.829,0,0,0-7.821-7.821,7.829,7.829,0,0,0-7.821,7.821v18.322h-3.367v-18.322a11.2,11.2,0,0,1,11.187-11.186,11.2,11.2,0,0,1,11.186,11.186v18.322" transform="translate(-165.099 597.599)" fill="#e7e8e5"/>
  <path id="path24" d="M568.592-509.064H544.168a2.865,2.865,0,0,1-2.864-2.864v-17.9a2.865,2.865,0,0,1,2.864-2.864h24.424a2.865,2.865,0,0,1,2.864,2.864v17.9a2.865,2.865,0,0,1-2.864,2.864" transform="translate(-163.417 590.217)" fill="#e7e8e5"/>
  <path id="path26" d="M563.759-517.323a3.27,3.27,0,0,0,.954-2.315,3.316,3.316,0,0,0-3.315-3.316,3.316,3.316,0,0,0-3.316,3.316,3.306,3.306,0,0,0,2.412,3.175l-.713,3.152h3.156l-.634-3.152a3.335,3.335,0,0,0,1.457-.86" transform="translate(-168.482 587.276)" fill="#fafaf9"/>
  <path id="path28" d="M22.921-133.518a27.918,27.918,0,0,0-11.944-4.111c-1.952-.2-4.084-.143-5.65,1.039a1.164,1.164,0,0,0-.582,1.032,1.261,1.261,0,0,0,.553.706,17.077,17.077,0,0,0,17.623,1.335" transform="translate(-1.429 470.975)" fill="#dadbd8"/>
  <path id="path30" d="M24.857-140.283a58.252,58.252,0,0,1-7.714-6.787,19.514,19.514,0,0,1-4.837-8.945,3.605,3.605,0,0,1,.382-2.993c6.15,4.8,10.98,11.013,12.169,18.725" transform="translate(-3.672 477.402)" fill="#dadbd8"/>
  <path id="path32" d="M30.525-139.762a27.887,27.887,0,0,1,.143-10.128,13.693,13.693,0,0,1,5.4-8.358c1.063,2.483.606,5.345-.143,7.941a38.592,38.592,0,0,1-5.35,11.263" transform="translate(-9.097 477.173)" fill="#dadbd8"/>
  <path id="path34" d="M32.818-116.295a17.651,17.651,0,0,0-9.579,4.848,18.127,18.127,0,0,0-5.479,9.406c3.589-.221,6.635-2.752,8.843-5.591s3.738-5.952,6.165-8.606" transform="translate(-5.362 464.507)" fill="#dadbd8"/>
  <path id="path36" d="M40.492-123.484A23.624,23.624,0,0,1,43.22-145.83c2.085,7.416,1.32,15.792-2.728,22.347" transform="translate(-11.727 473.424)" fill="#dadbd8"/>
  <path id="path38" d="M45.443-100.248A17.211,17.211,0,0,0,35.862-98a17.2,17.2,0,0,0-6.753,7.158c-.2.4-.381.919-.11,1.281a1.214,1.214,0,0,0,1.083.318c3.219-.209,6.072-2.146,8.427-4.351s4.405-4.754,7.007-6.661" transform="translate(-8.713 459.673)" fill="#dadbd8"/>
  <path id="path40" d="M51.659-110.762a30.422,30.422,0,0,1-.3-16.994c.6-2.187,1.6-4.49,3.627-5.516a.713.713,0,0,1,.555-.1.733.733,0,0,1,.351.407,10.237,10.237,0,0,1,.855,4.875,30.547,30.547,0,0,1-.764,4.935c-.637,3.017-.976,6.259-2.63,8.859a18.056,18.056,0,0,0-1.052,1.946c-.313.661-.315.894-.6,1.419" transform="translate(-15.183 469.67)" fill="#dadbd8"/>
  <path id="path42" d="M82.2-104.57a21.91,21.91,0,0,1,3.84-18.016c.276-.359.641-.743,1.091-.7.689.063.868.982.837,1.674A32.555,32.555,0,0,1,82.2-104.57" transform="translate(-24.638 466.619)" fill="#dadbd8"/>
  <path id="path44" d="M85.174-97.307a26.2,26.2,0,0,0,21.5-4.374,17.416,17.416,0,0,0-11.642-1.429c-3.889.89-7.442,2.632-9.863,5.8" transform="translate(-25.714 460.655)" fill="#dadbd8"/>
  <path id="path46" d="M87.471-105.16a24.849,24.849,0,0,1,19.517-11.285,12.024,12.024,0,0,1-6.383,7.057,35.414,35.414,0,0,1-9.369,2.739c-1.246.243-2.956.508-3.765,1.488" transform="translate(-26.407 464.553)" fill="#dadbd8"/>
  <path id="path48" d="M81.814-137.611a56.723,56.723,0,0,0,2.5-11.43,19.034,19.034,0,0,0-2.276-11.306A24.887,24.887,0,0,0,81.7-137.22" transform="translate(-23.853 477.807)" fill="#dadbd8"/>
  <path id="path50" d="M101.24-143.616c4.416-8.027,13.426-14.439,22.544-15.337-3.517,8.757-13.109,15.525-22.544,15.337" transform="translate(-30.564 477.386)" fill="#dadbd8"/>
  <path id="path52" d="M97.26-135.3c6.587,1,12.2,5.21,18.353,7.76a8.221,8.221,0,0,0,4.149.795,3.607,3.607,0,0,0,3.123-2.522,3.619,3.619,0,0,0-1.089-3.223,8.888,8.888,0,0,0-3.014-1.828c-6.7-2.791-13.893-2.86-20.955-1.168" transform="translate(-29.362 470.643)" fill="#dadbd8"/>
  <path id="path54" d="M91.8-128.252c1.491.427,2,1.2,3.181,2.2A34.337,34.337,0,0,0,108.9-118.9c.532.132,1.229.184,1.493-.3.231-.42-.061-.928-.36-1.3a19.156,19.156,0,0,0-8.4-5.7c-3.212-1.2-5.995-2.637-9.828-2.328" transform="translate(-27.714 468.213)" fill="#dadbd8"/>
  <path id="path56" d="M85.639-168.388a26.342,26.342,0,0,0,20.193,6.87,1.384,1.384,0,0,0,.92-.33c.508-.553-.1-1.406-.694-1.868-5.937-4.629-13.128-6.547-20.418-4.672" transform="translate(-25.854 480.449)" fill="#dadbd8"/>
  <path id="path58" d="M92.944-173.124a28.143,28.143,0,0,1,25.2-4.158,20,20,0,0,1-12.007,5.271,38,38,0,0,1-13.19-1.113" transform="translate(-28.059 483.32)" fill="#dadbd8"/>
  <path id="path60" d="M88.569-196.825c-.583-5.926-.2-10.6-.616-16.557-.033-.476-.135-1.048-.58-1.219-.62-.238-1.136.523-1.34,1.155a18.98,18.98,0,0,0,2.527,16.491" transform="translate(-25.711 494.199)" fill="#dadbd8"/>
  <path id="path62" d="M89.43-196.237a34.841,34.841,0,0,0,9.816-9.54c1.939-2.653,3.573-5.831,3.132-9.087a9.4,9.4,0,0,0-7.081,3.517,19.756,19.756,0,0,0-3.609,7.262c-.786,2.607-1.336,5.286-2.258,7.849" transform="translate(-26.998 494.265)" fill="#dadbd8"/>
  <path id="path64" d="M103.19-198.437a79.158,79.158,0,0,0,24.157-14.244c-2.885-1.163-6.189-.467-9.074.7A28.617,28.617,0,0,0,103.064-198.5" transform="translate(-31.114 493.786)" fill="#dadbd8"/>
  <path id="path66" d="M93.314-186.558a49.088,49.088,0,0,0,13.413.065,56.936,56.936,0,0,0,12.522-4.161,1.469,1.469,0,0,0,.851-.646.979.979,0,0,0-.3-1.071,2.591,2.591,0,0,0-1.068-.5,23.19,23.19,0,0,0-13.533.809,62.758,62.758,0,0,0-11.881,5.5" transform="translate(-28.171 487.829)" fill="#dadbd8"/>
  <path id="path68" d="M55.873-176.282a23.726,23.726,0,0,1-.217-19.637c1.85,2.818,2.076,6.409,1.738,9.764s-1.36,6.807-1.426,10.178" transform="translate(-16.193 488.546)" fill="#dadbd8"/>
  <path id="path70" d="M30.628-176.572a27.388,27.388,0,0,0-20.352,8.67,19.013,19.013,0,0,0,11.145-2.066,56.686,56.686,0,0,0,9.55-6.392" transform="translate(-3.102 482.706)" fill="#dadbd8"/>
  <path id="path72" d="M19.444-180.64c-3.716-.3-7.292-.761-10.865.333A13.031,13.031,0,0,0,.3-173.285a19.631,19.631,0,0,0,10.186-1.923,58.606,58.606,0,0,0,8.96-5.431" transform="translate(-0.09 484.041)" fill="#dadbd8"/>
  <path id="path74" d="M35.634-182.773c-3.343-2.191-6.776-4.421-10.668-5.329s-8.4-.236-11.118,2.7c3.151,1.849,6.974,2.067,10.627,2.065s8.132-.045,11.576,1.175" transform="translate(-4.181 486.299)" fill="#dadbd8"/>
  <path id="path76" d="M42.279-190.158c-5.715-5.613-7.882-15.694-5.583-23.367a35.6,35.6,0,0,1,5.583,23.367" transform="translate(-10.805 493.861)" fill="#dadbd8"/>
  <path id="path78" d="M67.595-210.805c1.078-2.506,1.836-5.136,2.8-7.687a22.086,22.086,0,0,1,4-7.086,10.522,10.522,0,0,1,7.078-3.668,28.509,28.509,0,0,1-13.737,18.481" transform="translate(-20.406 498.607)" fill="#dadbd8"/>
  <path id="path80" d="M57.128-202.44c-1.784-2.455-3.845-5.788-6.263-7.62a10.481,10.481,0,0,0-8.52-2.238,19.846,19.846,0,0,0,14.784,9.858" transform="translate(-12.783 493.555)" fill="#dadbd8"/>
  <path id="path82" d="M63.028-210.5a42.4,42.4,0,0,1-2.819-9.13,14.246,14.246,0,0,1,1.429-9.285c3.137,5.931,4.148,12.3,1.55,18.482" transform="translate(-18.114 498.507)" fill="#dadbd8"/>
  <path id="path84" d="M67.636-234.352c1.777-5.878,7.16-10.207,12.972-12.194a4.842,4.842,0,0,1,2.274-.341,1.973,1.973,0,0,1,1.676,1.4c.212,1-.614,1.9-1.391,2.561a44.152,44.152,0,0,1-15.531,8.575" transform="translate(-20.419 503.943)" fill="#dadbd8"/>
  <path id="path86" d="M67.688-244.348a42.116,42.116,0,0,1,1.7-11.227c1.233-3.591,3.609-6.961,7.066-8.532.588,3.828-1.1,7.637-3.138,10.931s-4.492,6.4-5.716,10.078" transform="translate(-20.406 509.131)" fill="#dadbd8"/>
  <path id="path88" d="M62.828-240.978c-1.469-4.284-1.621-9.726-4.186-13.458-1.793-2.609-4.665-4.387-6.21-7.15a10.875,10.875,0,0,0,.361,8.117,23.493,23.493,0,0,0,4.746,6.794c1.9,2.028,3.524,3.553,5.289,5.7" transform="translate(-15.639 508.37)" fill="#dadbd8"/>
  <path id="path90" d="M67.54-106.539c-.114,0-.213-28.58-.221-63.829s.078-63.835.192-63.835.213,28.575.221,63.835-.078,63.829-.192,63.829" transform="translate(-20.323 500.103)" fill="#dadbd8"/>
  <path id="path92" d="M92.6-173.97a6.173,6.173,0,0,1-1.074.4l-2.958,1c-2.494.85-5.919,2.079-9.637,3.6-3.681,1.58-7.153,2.861-9.13,4.575a6.709,6.709,0,0,0-1.835,2.427c-.284.671-.334,1.082-.372,1.074a.825.825,0,0,1,.012-.3,4.543,4.543,0,0,1,.21-.833,6.449,6.449,0,0,1,1.79-2.587,16.058,16.058,0,0,1,3.962-2.461c1.585-.739,3.341-1.511,5.206-2.277,3.729-1.528,7.181-2.719,9.7-3.5,1.26-.393,2.288-.683,3-.874a6,6,0,0,1,1.121-.249" transform="translate(-20.403 481.921)" fill="#dadbd8"/>
  <path id="path94" d="M101.634-202.773a1.823,1.823,0,0,1-.3.321l-.917.861-3.424,3.111L85.6-188.334c-4.449,3.96-8.293,7.743-10.957,10.592-1.334,1.423-2.384,2.6-3.1,3.424l-.828.946a1.825,1.825,0,0,1-.309.314,1.756,1.756,0,0,1,.244-.367c.173-.23.425-.572.769-1,.68-.856,1.7-2.067,3.01-3.518a144.431,144.431,0,0,1,10.9-10.7c4.464-3.95,8.526-7.5,11.478-10.057l3.511-3.012.969-.8a1.7,1.7,0,0,1,.356-.259" transform="translate(-21.253 490.615)" fill="#dadbd8"/>
  <path id="path96" d="M85.284-180.6c-.117-.052.813-2.2,1.739-4.912s1.374-5,1.493-4.984a16.75,16.75,0,0,1-1.1,5.117,33.475,33.475,0,0,1-1.383,3.435,5.365,5.365,0,0,1-.747,1.344" transform="translate(-25.744 486.908)" fill="#dadbd8"/>
  <path id="path98" d="M60.509-160.566a5.11,5.11,0,0,1-.686-.8l-1.756-2.252c-1.475-1.907-3.514-4.539-5.8-7.419s-4.388-5.464-5.91-7.333l-1.794-2.222a5.1,5.1,0,0,1-.619-.848,5.172,5.172,0,0,1,.741.744c.458.5,1.106,1.226,1.9,2.138,1.581,1.823,3.72,4.38,6.009,7.264s4.294,5.548,5.71,7.5c.709.976,1.273,1.774,1.652,2.332a5.165,5.165,0,0,1,.556.892" transform="translate(-13.266 484.173)" fill="#dadbd8"/>
  <path id="path100" d="M58.6-165.348a10.078,10.078,0,0,1-2.294-4.3,12.268,12.268,0,0,1-.52-4.33l.183.015c-.081.331-.141.505-.174.5s-.034-.189-.007-.53l.182.015a19.766,19.766,0,0,0,.733,4.213,32.149,32.149,0,0,0,1.9,4.413" transform="translate(-16.833 481.925)" fill="#dadbd8"/>
  <path id="path102" d="M44.351-175.111a7.378,7.378,0,0,0-1.6-.931A10.719,10.719,0,0,0,38.3-176.4a27.45,27.45,0,0,0-4.478.723,13.593,13.593,0,0,1-1.843.442,6.385,6.385,0,0,1,1.764-.724,20.464,20.464,0,0,1,4.526-.853,9.709,9.709,0,0,1,4.588.494,2.839,2.839,0,0,1,1.492,1.2" transform="translate(-9.655 482.794)" fill="#dadbd8"/>
  <path id="path104" d="M39.783-178.575c-.032.064-.933-.374-2.454-.894a25.3,25.3,0,0,0-6.123-1.26,25.318,25.318,0,0,0-6.244.317c-1.582.283-2.54.58-2.561.511a2.344,2.344,0,0,1,.65-.276A15.375,15.375,0,0,1,24.9-180.7a21.883,21.883,0,0,1,6.333-.442,21.857,21.857,0,0,1,6.191,1.4,15.329,15.329,0,0,1,1.753.8,2.346,2.346,0,0,1,.6.372" transform="translate(-6.763 484.102)" fill="#dadbd8"/>
  <path id="path106" d="M66.214-195.916a50.765,50.765,0,0,1-1.79-6.217,50.669,50.669,0,0,1-1.389-6.318,50.853,50.853,0,0,1,1.79,6.217,50.844,50.844,0,0,1,1.389,6.318" transform="translate(-19.026 492.329)" fill="#dadbd8"/>
  <path id="path108" d="M65.637-193.411a29.987,29.987,0,0,0-1.983-3.722,16.407,16.407,0,0,0-2.92-3.013,2.727,2.727,0,0,1,1.127.582,9.079,9.079,0,0,1,2.131,2.194,8.244,8.244,0,0,1,1.645,3.96" transform="translate(-18.335 489.824)" fill="#dadbd8"/>
  <path id="path110" d="M56.313-91.195c-.044.007-.128-.687-.451-1.9a27.07,27.07,0,0,0-1.91-4.948A68.483,68.483,0,0,0,43.819-112.32c-2.263-2.585-4.458-5.023-6.32-7.358a51.663,51.663,0,0,1-4.52-6.518,31.3,31.3,0,0,1-2.282-4.838c-.21-.6-.364-1.061-.448-1.383a2.36,2.36,0,0,1-.118-.493c.037-.012.245.654.716,1.819a35.385,35.385,0,0,0,2.383,4.748,54.654,54.654,0,0,0,4.564,6.426c1.87,2.311,4.069,4.736,6.335,7.326A64.873,64.873,0,0,1,54.215-98.171a24.681,24.681,0,0,1,1.8,5.036,13.971,13.971,0,0,1,.253,1.433,2.324,2.324,0,0,1,.042.507" transform="translate(-9.096 469.524)" fill="#dadbd8"/>
  <path id="path112" d="M90.2-109.673a10.365,10.365,0,0,1-1.183.665,25.728,25.728,0,0,0-3.068,2.027,35.271,35.271,0,0,0-4.029,3.676c-1.414,1.494-2.871,3.229-4.358,5.088-2.973,3.73-5.753,7.03-7.418,9.664-.845,1.307-1.46,2.409-1.862,3.181a10.236,10.236,0,0,1-.651,1.192,1.159,1.159,0,0,1,.11-.336c.088-.212.207-.531.4-.926A30.047,30.047,0,0,1,69.9-88.708a106.381,106.381,0,0,1,7.343-9.768c1.49-1.863,2.964-3.6,4.405-5.093a32.752,32.752,0,0,1,4.129-3.646,21.594,21.594,0,0,1,3.168-1.936c.392-.2.712-.319.924-.409a1.112,1.112,0,0,1,.334-.113" transform="translate(-20.418 462.509)" fill="#dadbd8"/>
  <path id="path114" d="M93.853-97.838a17,17,0,0,1-2.5.363,33.017,33.017,0,0,0-5.929,1.168,17.842,17.842,0,0,0-5.309,2.786c-1.224.946-1.8,1.729-1.858,1.683a1.9,1.9,0,0,1,.37-.576,9.445,9.445,0,0,1,1.3-1.333A16.074,16.074,0,0,1,85.3-96.7a26.739,26.739,0,0,1,6.027-1.066,13.811,13.811,0,0,1,2.53-.073" transform="translate(-23.625 458.945)" fill="#dadbd8"/>
  <path id="path116" d="M79.3-94.2c-.13-.074,1-1.8,1.87-4.11.82-2.336,1.012-4.384,1.16-4.361a3.983,3.983,0,0,1-.041,1.342,14.412,14.412,0,0,1-.729,3.16,15.324,15.324,0,0,1-1.45,2.9A4.056,4.056,0,0,1,79.3-94.2" transform="translate(-23.937 460.393)" fill="#dadbd8"/>
  <path id="path118" d="M97.518-141.477a1.83,1.83,0,0,1-.4.213l-1.175.534c-.515.221-1.139.5-1.843.871s-1.531.74-2.389,1.255l-1.364.776c-.473.272-.941.595-1.439.907-1.005.61-2.012,1.361-3.088,2.128a58.111,58.111,0,0,0-6.446,5.669,58.1,58.1,0,0,0-5.447,6.637c-.73,1.1-1.446,2.134-2.022,3.159-.295.508-.6.986-.857,1.469l-.728,1.39c-.486.875-.833,1.712-1.173,2.431s-.605,1.35-.808,1.872c-.2.483-.363.877-.493,1.192a1.9,1.9,0,0,1-.2.407,1.852,1.852,0,0,1,.12-.435c.112-.323.251-.728.422-1.223.18-.533.418-1.178.746-1.906s.652-1.581,1.123-2.469l.709-1.41c.25-.489.552-.975.841-1.49.566-1.041,1.277-2.088,2-3.2a55.513,55.513,0,0,1,5.463-6.708,55.7,55.7,0,0,1,6.516-5.688c1.089-.764,2.111-1.51,3.131-2.111.5-.308.98-.626,1.46-.893l1.386-.757c.872-.5,1.71-.861,2.429-1.207s1.354-.612,1.88-.811l1.207-.464a1.85,1.85,0,0,1,.431-.136" transform="translate(-20.422 472.11)" fill="#dadbd8"/>
  <path id="path120" d="M84.847-125.622a2.873,2.873,0,0,1,.982-1.464,6.2,6.2,0,0,1,3.958-1.518,10.829,10.829,0,0,1,4.164.813,5.982,5.982,0,0,1,1.575.765,9.662,9.662,0,0,1-1.671-.489,12.575,12.575,0,0,0-4.055-.677,6.447,6.447,0,0,0-3.78,1.326,11.586,11.586,0,0,0-1.173,1.242" transform="translate(-25.614 468.224)" fill="#dadbd8"/>
  <path id="path122" d="M81.021-123.618a14.878,14.878,0,0,0,1.123-3.656,14.893,14.893,0,0,0-.252-3.817,2.425,2.425,0,0,1,.464,1.065,7.5,7.5,0,0,1,.2,2.8,7.5,7.5,0,0,1-.837,2.679c-.349.631-.657.958-.7.929" transform="translate(-24.457 468.974)" fill="#dadbd8"/>
  <path id="path124" d="M39.359-67.289c.616,10.923,3.908,22.031,8.97,33.262H70.345c4.828-11.119,7.892-22.211,8.437-33.262H39.359" transform="translate(-11.882 449.713)" fill="#dadbd8"/>
  <path id="path126" d="M76.717-42.06c0,.114-7.249.207-16.188.207s-16.19-.092-16.19-.207,7.247-.207,16.19-.207,16.188.092,16.188.207" transform="translate(-13.386 442.159)" fill="#fafaf9"/>
  <path id="path128" d="M76.888-36.392c0,.115-6.8.207-15.176.207s-15.177-.092-15.177-.207,6.794-.207,15.177-.207,15.176.093,15.176.207" transform="translate(-14.049 440.448)" fill="#fafaf9"/>
  <path id="path130" d="M52.628-57.016a31.35,31.35,0,0,1,.207,5.071,31.35,31.35,0,0,1-.207,5.071,31.26,31.26,0,0,1-.207-5.071,31.26,31.26,0,0,1,.207-5.071" transform="translate(-15.826 446.611)" fill="#fafaf9"/>
  <path id="path132" d="M69.525-57.016a33.545,33.545,0,0,1,.207,5.252,33.538,33.538,0,0,1-.207,5.251,33.614,33.614,0,0,1-.206-5.251,33.621,33.621,0,0,1,.206-5.252" transform="translate(-20.927 446.611)" fill="#fafaf9"/>
  <path id="path134" d="M85.387-57.144a34.9,34.9,0,0,1,.207,5.357,34.875,34.875,0,0,1-.207,5.356,34.89,34.89,0,0,1-.207-5.356,34.914,34.914,0,0,1,.207-5.357" transform="translate(-25.716 446.65)" fill="#fafaf9"/>
  <path id="path136" d="M78.406-57.105c0,.114-8.5.207-18.987.207s-18.989-.092-18.989-.207,8.5-.207,18.989-.207,18.987.093,18.987.207" transform="translate(-12.206 446.701)" fill="#fafaf9"/>
  <path id="path138" d="M574.038-212.313a11.253,11.253,0,0,0,6.706-10.412c.026-6.217-4.679-11.28-10.51-11.306s-10.575,4.992-10.6,11.209a11.239,11.239,0,0,0,6.726,10.51c-16.243,2.447-15.506,20.1-15.506,20.1l38.411.177s.876-17.846-15.226-20.279" transform="translate(-166.298 500.052)" fill="#e7e8e5"/>
  <path id="path140" d="M329.025-576.862a7.372,7.372,0,0,0,5.819-5.653,7.16,7.16,0,0,0-5.035-8.77,7.151,7.151,0,0,0-8.422,5.586,7.361,7.361,0,0,0,2.737,7.7c-10.728-.84-12.868,10.534-12.868,10.534l24.487,5.794s3.2-11.26-6.719-15.193" transform="translate(-93.967 607.958)" fill="#e7e8e5"/>
  <path id="path142" d="M580.037-440.526a7.069,7.069,0,0,0,3.234-7.076,6.866,6.866,0,0,0-7.55-6.085,6.858,6.858,0,0,0-5.584,7.921,7.062,7.062,0,0,0,5.127,5.93c-9.88,2.981-7.835,13.89-7.835,13.89l23.9-3.342s-1.06-11.174-11.29-11.239" transform="translate(-171.251 566.383)" fill="#f3f2f1"/>
  <path id="path144" d="M30.6-439.5l-12.91-10.263,3.582-4.505,8.657,6.882,12.641-14.147,4.292,3.835L30.6-439.5" transform="translate(-5.34 568.734)" fill="#f3f2f1"/>
  <path id="path146" d="M416.364-19.271c0,.134-93.214.243-208.172.243C93.194-19.029,0-19.138,0-19.271s93.194-.242,208.192-.242c114.958,0,208.172.108,208.172.242" transform="translate(0 435.29)" fill="#17282f"/>
  <path id="path148" d="M47.545-408.8,18.992-394.477a5.789,5.789,0,0,0-3.52,5.326V-375.8a61.989,61.989,0,0,0,10.181,34.2c5.143,7.836,11.964,17.852,23.313,23.578H54.09c12.633-3.853,22.064-14.124,27.829-22.908a61.987,61.987,0,0,0,10.181-34.2v-14.026a5.789,5.789,0,0,0-3.52-5.326L56.056-408.335c-1.45-.618-7.061-1.082-8.511-.464" transform="translate(-4.671 552.901)" fill="#f2575d"/>
  <path id="path150" d="M67.783-318.021H62.66c12.633-3.853,22.064-14.124,27.829-22.908a62.106,62.106,0,0,0,5.525-10.46v9.84c-.132.207-.267.414-.4.62-5.765,8.784-15.2,19.055-27.829,22.908m28.231-76.94L64.626-408.335a5.786,5.786,0,0,0-2.269-.464,5.785,5.785,0,0,0-1.528.2l.409-.2a7.669,7.669,0,0,1,2.529-.292,21.157,21.157,0,0,1,5.982.756l26.265,11.191v2.183" transform="translate(-18.364 552.901)" fill="#007774"/>
  <path id="path152" d="M44.179-408.209,11.654-394.351a5.789,5.789,0,0,0-3.52,5.326v13.356a61.99,61.99,0,0,0,10.181,34.2,62.192,62.192,0,0,0,28.436,23.578c12.633-3.853,22.064-14.124,27.829-22.908A61.987,61.987,0,0,0,84.762-375v-14.026a5.789,5.789,0,0,0-3.52-5.326L48.717-408.209a5.788,5.788,0,0,0-4.539,0" transform="translate(-2.456 552.775)" fill="#00cec9"/>
  <path id="path154" d="M53.8-337.6a21.321,21.321,0,0,1-21.321-21.321A21.321,21.321,0,0,1,53.8-380.242a21.321,21.321,0,0,1,21.321,21.321A21.321,21.321,0,0,1,53.8-337.6" transform="translate(-9.804 544.192)" fill="#007774"/>
  <path id="path156" d="M68.04-364.522a8.851,8.851,0,0,1-8.851,8.851,8.851,8.851,0,0,1-8.852-8.851,8.852,8.852,0,0,1,8.852-8.852,8.852,8.852,0,0,1,8.851,8.852" transform="translate(-15.197 542.118)" fill="#fff"/>
  <path id="path158" d="M39.861-334.045a17.3,17.3,0,0,1,15.84-9.831,18.819,18.819,0,0,1,16.491,9.831s-5.227,7.723-16.792,7.424a20.262,20.262,0,0,1-15.539-7.424" transform="translate(-12.034 533.213)" fill="#fff"/>
  <path id="path160" d="M75.013-359a1.854,1.854,0,0,1-.042-.344c-.019-.252-.044-.586-.075-1.011-.015-.225-.031-.473-.049-.745s-.09-.567-.14-.888a15.645,15.645,0,0,0-.452-2.195,20.363,20.363,0,0,0-2.372-5.635,21.165,21.165,0,0,0-5.4-5.993,21.017,21.017,0,0,0-8.9-3.934,21.2,21.2,0,0,0-11.084.93,22.091,22.091,0,0,0-2.75,1.211,21.925,21.925,0,0,0-2.585,1.663,23.777,23.777,0,0,0-2.391,2.034,23.915,23.915,0,0,0-2.065,2.445,20.409,20.409,0,0,0-3.012,5.808A22.535,22.535,0,0,0,32.614-359,22.551,22.551,0,0,0,33.7-352.35a20.417,20.417,0,0,0,3.012,5.81,23.882,23.882,0,0,0,2.066,2.446,23.791,23.791,0,0,0,2.392,2.035,21.967,21.967,0,0,0,2.585,1.663,22.125,22.125,0,0,0,2.751,1.211,21.208,21.208,0,0,0,11.086.93,21.009,21.009,0,0,0,8.9-3.935,21.148,21.148,0,0,0,5.394-5.993,20.36,20.36,0,0,0,2.371-5.635,15.58,15.58,0,0,0,.452-2.194c.049-.321.109-.616.14-.888s.035-.519.049-.745c.031-.424.056-.759.075-1.01a1.858,1.858,0,0,1,.042-.345,1.818,1.818,0,0,1,.008.345c-.007.254-.016.59-.027,1.016q-.012.339-.026.749c-.023.275-.075.572-.117.9a15.138,15.138,0,0,1-.412,2.22,20.181,20.181,0,0,1-2.322,5.727,21.287,21.287,0,0,1-5.419,6.128,21.3,21.3,0,0,1-9.032,4.057,21.567,21.567,0,0,1-11.312-.906,22.461,22.461,0,0,1-2.813-1.23,22.342,22.342,0,0,1-2.646-1.693,24.133,24.133,0,0,1-2.448-2.075,24.313,24.313,0,0,1-2.116-2.5,20.863,20.863,0,0,1-3.088-5.939A22.985,22.985,0,0,1,32.129-359a22.972,22.972,0,0,1,1.114-6.8,20.862,20.862,0,0,1,3.088-5.937,24.257,24.257,0,0,1,2.116-2.5,24.17,24.17,0,0,1,2.448-2.075,22.453,22.453,0,0,1,2.646-1.692,22.483,22.483,0,0,1,2.813-1.23,21.561,21.561,0,0,1,11.31-.906,21.284,21.284,0,0,1,9.032,4.057,21.277,21.277,0,0,1,5.42,6.127,20.169,20.169,0,0,1,2.322,5.728,15.047,15.047,0,0,1,.412,2.22c.043.324.095.622.118.9s.018.523.026.749c.011.427.02.763.027,1.016a1.817,1.817,0,0,1-.008.345" transform="translate(-9.7 544.271)" fill="#17282f"/>
  <path id="path162" d="M107.43-365.618a2.931,2.931,0,0,1,.06.614c.02.454.045,1.042.076,1.768.029.769.074,1.71.02,2.8q-.025.824-.052,1.75-.009.931-.12,1.959c-.132,1.37-.224,2.878-.506,4.473-.13.8-.231,1.632-.4,2.479l-.559,2.6a64.175,64.175,0,0,1-3.75,11.227,66.137,66.137,0,0,1-5.832,10.3c-1.084,1.465-2.082,2.88-3.155,4.1-.526.615-1,1.235-1.519,1.783l-1.484,1.572c-.922,1.024-1.868,1.837-2.658,2.593s-1.509,1.363-2.11,1.843l-1.378,1.112a2.936,2.936,0,0,1-.5.362,2.969,2.969,0,0,1,.438-.437l1.316-1.179c.58-.5,1.284-1.121,2.048-1.9s1.694-1.6,2.595-2.631L91.416-320c.5-.552.973-1.174,1.489-1.791,1.053-1.22,2.032-2.635,3.1-4.1a68.176,68.176,0,0,0,5.756-10.247,66.015,66.015,0,0,0,3.758-11.133l.575-2.58c.172-.84.281-1.665.418-2.458.3-1.583.409-3.081.562-4.442q.128-1.021.153-1.947.047-.921.088-1.742c.079-1.087.063-2.024.062-2.792.006-.727.011-1.313.015-1.768a2.964,2.964,0,0,1,.038-.618" transform="translate(-25.228 539.777)" fill="#17282f"/>
  <path id="path164" d="M342.108-174.3H122.014a10.975,10.975,0,0,1-10.785-11.156V-521.883a10.976,10.976,0,0,1,10.785-11.157H342.108a10.976,10.976,0,0,1,10.785,11.157v336.424A10.976,10.976,0,0,1,342.108-174.3" transform="translate(-33.579 590.321)" fill="#17282f"/>
  <path id="path166" d="M281.488-46.9a10.157,10.157,0,0,1-10.249,10.063A10.157,10.157,0,0,1,260.99-46.9,10.157,10.157,0,0,1,271.239-56.96,10.158,10.158,0,0,1,281.488-46.9" transform="translate(-78.792 446.594)" fill="#33535f"/>
  <path id="path168" d="M296.951-508.964H247.6a3.5,3.5,0,0,1-3.442-3.56,3.5,3.5,0,0,1,3.442-3.561h49.355a3.5,3.5,0,0,1,3.442,3.561,3.5,3.5,0,0,1-3.442,3.56" transform="translate(-73.709 585.202)" fill="#33535f"/>
  <path id="path170" d="M121.846-196.789H348.268v-299.59H121.846Z" transform="translate(-36.785 579.253)" fill="#fff"/>
  <path id="path172" d="M442.009-196.789H432.35V-496.379h9.659v299.589" transform="translate(-130.524 579.253)" fill="#f3f2f1"/>
  <path id="path174" d="M437.966-373.462h0a3.011,3.011,0,0,1-3.011-3.011v-66.271a3.011,3.011,0,0,1,3.011-3.011,3.01,3.01,0,0,1,3.01,3.011v66.271a3.011,3.011,0,0,1-3.01,3.011" transform="translate(-131.311 563.97)" fill="#dadbd8"/>
  <path id="path176" d="M329.615-402.869H162.663a4.8,4.8,0,0,1-4.8-4.8,4.8,4.8,0,0,1,4.8-4.8H329.615a4.8,4.8,0,0,1,4.8,4.8,4.8,4.8,0,0,1-4.8,4.8" transform="translate(-47.657 553.922)" fill="#dadbd8"/>
  <path id="path178" d="M319.615-453.064H214.592a4.8,4.8,0,0,1-4.8-4.8h0a4.8,4.8,0,0,1,4.8-4.8H319.615a4.8,4.8,0,0,1,4.8,4.8h0a4.8,4.8,0,0,1-4.8,4.8" transform="translate(-63.335 569.076)" fill="#00cec9"/>
  <path id="path180" d="M316.161-375.18H196.622a4.8,4.8,0,0,1-4.8-4.8h0a4.8,4.8,0,0,1,4.8-4.8H316.161a4.8,4.8,0,0,1,4.8,4.8h0a4.8,4.8,0,0,1-4.8,4.8" transform="translate(-57.909 545.563)" fill="#dadbd8"/>
  <path id="path182" d="M250.773-254.473H158.8a4.8,4.8,0,0,1-4.8-4.8h0a4.8,4.8,0,0,1,4.8-4.8h91.972a4.8,4.8,0,0,1,4.8,4.8h0a4.8,4.8,0,0,1-4.8,4.8" transform="translate(-46.492 509.122)" fill="#dadbd8"/>
  <path id="path184" d="M325.753-283.281H158.8a4.8,4.8,0,0,1-4.8-4.8h0a4.8,4.8,0,0,1,4.8-4.8H325.753a4.8,4.8,0,0,1,4.8,4.8h0a4.8,4.8,0,0,1-4.8,4.8" transform="translate(-46.492 517.819)" fill="#dadbd8"/>
  <path id="path186" d="M334.757-190.487H188.625a4.8,4.8,0,0,1-4.8-4.8,4.8,4.8,0,0,1,4.8-4.8H334.757a4.8,4.8,0,0,1,4.8,4.8,4.8,4.8,0,0,1-4.8,4.8" transform="translate(-55.495 489.805)" fill="#dadbd8"/>
  <path id="path188" d="M325.753-161.085H158.8a4.8,4.8,0,0,1-4.8-4.8,4.8,4.8,0,0,1,4.8-4.8H325.753a4.8,4.8,0,0,1,4.8,4.8,4.8,4.8,0,0,1-4.8,4.8" transform="translate(-46.492 480.929)" fill="#dadbd8"/>
  <path id="path190" d="M325.753-131.225H158.8a4.8,4.8,0,0,1-4.8-4.8,4.8,4.8,0,0,1,4.8-4.8H325.753a4.8,4.8,0,0,1,4.8,4.8,4.8,4.8,0,0,1-4.8,4.8" transform="translate(-46.492 471.914)" fill="#dadbd8"/>
  <path id="path192" d="M167.328-195.369a4.988,4.988,0,0,1-4.988,4.988,4.989,4.989,0,0,1-4.988-4.988,4.988,4.988,0,0,1,4.988-4.988,4.988,4.988,0,0,1,4.988,4.988" transform="translate(-47.504 489.885)" fill="#00cec9"/>
  <path id="path194" d="M334.757-310.148H188.625a4.8,4.8,0,0,1-4.8-4.8h0a4.8,4.8,0,0,1,4.8-4.8H334.757a4.8,4.8,0,0,1,4.8,4.8h0a4.8,4.8,0,0,1-4.8,4.8" transform="translate(-55.495 525.93)" fill="#dadbd8"/>
  <path id="path196" d="M167.328-315.03a4.988,4.988,0,0,1-4.988,4.987,4.988,4.988,0,0,1-4.988-4.987,4.988,4.988,0,0,1,4.988-4.988,4.988,4.988,0,0,1,4.988,4.988" transform="translate(-47.504 526.01)" fill="#00cec9"/>
  <path id="path198" d="M373.834-89.939H336.372a7.653,7.653,0,0,1-7.653-7.653,7.653,7.653,0,0,1,7.653-7.653h37.462a7.653,7.653,0,0,1,7.653,7.653,7.653,7.653,0,0,1-7.653,7.653" transform="translate(-99.239 461.172)" fill="#00cec9"/>
  <path id="path200" d="M98.011-600.659,59.176-581.18a7.874,7.874,0,0,0-4.788,7.244v18.167a84.316,84.316,0,0,0,13.848,46.511c7,10.659,16.273,24.282,31.71,32.071h6.968c17.184-5.24,30.01-19.211,37.852-31.159a84.32,84.32,0,0,0,13.848-46.512v-19.078a7.873,7.873,0,0,0-4.788-7.243l-44.238-18.85c-1.972-.841-9.6-1.471-11.576-.63" transform="translate(-16.42 610.854)" fill="#f2575d"/>
  <path id="path202" d="M106.914-477.187H99.946c-15.437-7.789-24.714-21.412-31.71-32.071a84.316,84.316,0,0,1-13.848-46.511v-18.167a7.874,7.874,0,0,1,4.788-7.243l38.835-19.48a10.427,10.427,0,0,1,3.44-.4,28.794,28.794,0,0,1,8.136,1.027l44.238,18.85a7.873,7.873,0,0,1,4.788,7.243v19.078a84.32,84.32,0,0,1-13.848,46.512c-7.842,11.948-20.669,25.918-37.852,31.159" transform="translate(-16.42 610.854)" fill="#007774"/>
  <path id="path204" d="M93.433-599.858,49.2-581.008a7.874,7.874,0,0,0-4.788,7.244V-555.6a84.315,84.315,0,0,0,13.848,46.511,84.59,84.59,0,0,0,38.677,32.071c17.184-5.24,30.01-19.211,37.852-31.159a84.32,84.32,0,0,0,13.848-46.512v-19.077a7.873,7.873,0,0,0-4.788-7.244l-44.238-18.85a7.872,7.872,0,0,0-6.173,0" transform="translate(-13.406 610.683)" fill="#00cec9"/>
  <path id="path206" d="M179.464-541.928a.726.726,0,0,1,.029.212c.009.17.02.375.034.625q.033.888.088,2.406c.034,1.045.089,2.324.012,3.809q-.036,1.117-.076,2.379-.021.632-.044,1.3-.061.665-.126,1.364c-.182,1.862-.311,3.91-.7,6.079-.178,1.085-.317,2.217-.544,3.368q-.371,1.72-.763,3.535a87.554,87.554,0,0,1-5.1,15.254,90.29,90.29,0,0,1-7.919,14.006c-1.471,1.992-2.826,3.918-4.281,5.573-.714.837-1.364,1.681-2.062,2.427L156-477.453c-1.25,1.4-2.534,2.5-3.6,3.534-.545.5-1.036.991-1.519,1.406l-1.339,1.111-1.863,1.525-.491.386a.707.707,0,0,1-.178.119c-.006-.007.045-.06.146-.157l.462-.423,1.8-1.593,1.309-1.14c.472-.424.952-.92,1.487-1.432,1.049-1.045,2.312-2.168,3.541-3.572l1.982-2.152c.687-.749,1.326-1.6,2.031-2.435,1.435-1.658,2.771-3.583,4.224-5.572a92.322,92.322,0,0,0,7.843-13.947,89.52,89.52,0,0,0,5.111-15.16q.4-1.8.779-3.514c.233-1.143.38-2.268.565-3.347.4-2.157.55-4.2.754-6.047q.073-.7.142-1.357.031-.663.06-1.294.06-1.255.114-2.37c.1-1.479.075-2.756.07-3.8q0-1.516,0-2.4c0-.25.009-.456.013-.626a.74.74,0,0,1,.02-.214" transform="translate(-44.38 593.004)" fill="#17282f"/>
  <path id="path208" d="M130.6-524.84H125.88v-25.678a10.973,10.973,0,0,0-10.961-10.961,10.973,10.973,0,0,0-10.961,10.961v25.678H99.24v-25.678A15.7,15.7,0,0,1,114.919-566.2,15.7,15.7,0,0,1,130.6-550.518v25.678" transform="translate(-29.96 600.331)" fill="#f3f2f1"/>
  <path id="path210" d="M128.283-498.8H96.841a5.409,5.409,0,0,1-5.409-5.409v-22.3a5.409,5.409,0,0,1,5.409-5.409h31.441a5.409,5.409,0,0,1,5.409,5.409v22.3a5.409,5.409,0,0,1-5.409,5.409" transform="translate(-27.603 589.984)" fill="#fff"/>
  <path id="path212" d="M128.178-498.908a9.637,9.637,0,0,0,1.407-.242,5.327,5.327,0,0,0,3.139-2.425,5.342,5.342,0,0,0,.747-2.786q-.008-1.636-.02-3.543c-.011-2.547-.023-5.441-.036-8.637s-.031-6.7-.048-10.453a5.2,5.2,0,0,0-3.07-4.367,6.212,6.212,0,0,0-2.895-.45l-3.133,0-27.529.02a5.214,5.214,0,0,0-3.22,1.127,5.16,5.16,0,0,0-1.806,2.843,6.743,6.743,0,0,0-.146,1.709q0,.885,0,1.763,0,1.758,0,3.484c0,4.6-.01,9.046-.014,13.279.088,2.1-.351,4.271.733,5.932a5.241,5.241,0,0,0,4.71,2.54l10.468.03L122.62-499l4.122.046,1.071.024a2.049,2.049,0,0,1,.365.025,2,2,0,0,1-.365.024l-1.071.024-4.122.046-15.158.077-10.468.03a5.654,5.654,0,0,1-5.075-2.724,5.651,5.651,0,0,1-.81-3.018q0-1.546,0-3.133c0-4.232-.009-8.674-.014-13.279q0-1.727,0-3.484,0-.877,0-1.763a7.214,7.214,0,0,1,.157-1.821,5.642,5.642,0,0,1,1.973-3.11,5.694,5.694,0,0,1,3.522-1.233l27.529.019,3.133,0a6.658,6.658,0,0,1,3.069.5,5.612,5.612,0,0,1,3.3,4.728c.031,3.79-.008,7.275-.01,10.482s-.025,6.09-.035,8.637q-.011,1.9-.02,3.543a5.521,5.521,0,0,1-.816,2.884,5.361,5.361,0,0,1-3.275,2.421,4.258,4.258,0,0,1-1.433.148" transform="translate(-27.498 590.088)" fill="#17282f"/>
  <path id="path214" d="M122.9-510.378a4.588,4.588,0,0,0,1.338-3.245,4.648,4.648,0,0,0-4.648-4.648,4.648,4.648,0,0,0-4.647,4.648,4.634,4.634,0,0,0,3.38,4.45l-1,4.416h4.424l-.889-4.416a4.692,4.692,0,0,0,2.042-1.205" transform="translate(-34.702 585.862)" fill="#007774"/>
  <path id="path216" d="M525.584-467.379v37.721c.081,6.523,1.04,16.76-9.28,16.417-8.932-.973-11.3-9.427-11.371-15.516-.033-2.887-.066-5.3-.089-5.592,0,0-9.776-.8-10.6-10.454-.4-4.666-.437-14.346-.371-23.1a18.054,18.054,0,0,1,16.744-17.858l.932-.068c10.1-.147,14.17,8.352,14.037,18.451" transform="translate(-149.089 576.069)" fill="#f9a78d"/>
  <path id="path218" d="M509.6-414.09a23.414,23.414,0,0,0,12.314-4.639s-2.554,7.284-12.262,7.118l-.051-2.479" transform="translate(-153.846 555.811)" fill="#f57f62"/>
  <path id="path220" d="M517.521-455.222c.192.2,1.307-.7,2.925-.746,1.616-.068,2.826.75,3,.542.084-.092-.116-.45-.644-.82a4.051,4.051,0,0,0-2.405-.682,3.909,3.909,0,0,0-2.32.845c-.487.406-.646.774-.551.861" transform="translate(-156.229 567.344)" fill="#17282f"/>
  <path id="path222" d="M517.5-448.479a1.309,1.309,0,0,0,1.355,1.226,1.252,1.252,0,0,0,1.259-1.275,1.311,1.311,0,0,0-1.354-1.227,1.253,1.253,0,0,0-1.26,1.276" transform="translate(-156.229 565.177)" fill="#17282f"/>
  <path id="path224" d="M510.053-443.735a9.863,9.863,0,0,0-2.443-.259c-.383-.011-.747-.06-.83-.315a1.941,1.941,0,0,1,.171-1.143q.436-1.416.911-2.97c1.258-4.226,2.138-7.689,1.968-7.738s-1.329,3.336-2.586,7.562q-.452,1.561-.863,2.983a2.2,2.2,0,0,0-.088,1.5.953.953,0,0,0,.664.509,2.594,2.594,0,0,0,.651.043,9.661,9.661,0,0,0,2.445-.176" transform="translate(-152.815 567.111)" fill="#17282f"/>
  <path id="path226" d="M518.513-464.869c.156.358,1.451.088,3,.168,1.553.047,2.826.423,3.006.077.079-.165-.162-.5-.689-.815a4.894,4.894,0,0,0-2.271-.639,4.84,4.84,0,0,0-2.307.452c-.547.276-.81.586-.742.758" transform="translate(-156.533 570.107)" fill="#17282f"/>
  <path id="path228" d="M496.5-461.416c.169.293,1.432-.032,2.962-.079,1.53-.075,2.8.149,2.962-.157.071-.145-.181-.408-.715-.64a5.346,5.346,0,0,0-2.263-.374,5.516,5.516,0,0,0-2.25.555c-.527.275-.772.557-.7.7" transform="translate(-149.887 569.077)" fill="#17282f"/>
  <path id="path230" d="M475.492-479.086a1.565,1.565,0,0,1,.734-.913,4.81,4.81,0,0,1,2.469-.4,13.951,13.951,0,0,0,7.263-2.208,32.348,32.348,0,0,1,3.38-4.1c2.926-3.019,5.335-5.073,7.827-6.075a22.436,22.436,0,0,1,11.971-.942c3.36.882,6.378,3.608,6.845,7.051,1.885-1.594,4.714-1.58,7.008-.657l.058-.025c2.556.911,4.008,3.612,4.762,6.218s1.076,5.394,2.456,7.729c.289.489.631,1.074.38,1.582a1.08,1.08,0,0,1-1.129.491,3.153,3.153,0,0,1-1.19-.538q.427,1.023.855,2.047a6.023,6.023,0,0,1-2.78-.185,59.46,59.46,0,0,1-1.818,6.873,3.942,3.942,0,0,0-2.706.665c-.895.805-1.295,2.32-2.783,1.744-.757-.292-1.447-1.88-1.7-2.652a37.689,37.689,0,0,1-1.633-15.953,12.094,12.094,0,0,0-3.741-2.7l.115.1c-2.7-.937-5.752-1.859-8.312-.592-1.986.983-3.154,3.044-4.639,4.688a15.163,15.163,0,0,1-10.807,4.992c-.142,2.719.086,6.562-.057,9.281l-2.288-4.355,0,.021c-.187-.318-.342-.64-.491-.962l-.051-.1v-.012a17.018,17.018,0,0,0-.765-1.547l-.026.023a1.7,1.7,0,0,1-2.482-2.272,3.838,3.838,0,0,1,.822-.825,2.691,2.691,0,0,1-2.561.664,2.11,2.11,0,0,1-1.491-2.086,1.793,1.793,0,0,1,1.069-1.438,6.054,6.054,0,0,1-3.444-.76c-.68-.388-1.348-1.027-1.117-1.882" transform="translate(-143.535 578.582)" fill="#17282f"/>
  <path id="path232" d="M529.156-481.844a8.424,8.424,0,0,1,.969.886,6.922,6.922,0,0,1,1.483,3.208,12.166,12.166,0,0,1,.247,2.455c0,.889-.067,1.842-.135,2.845a25.422,25.422,0,0,0-.073,3.168,10.956,10.956,0,0,0,.218,1.671,3.485,3.485,0,0,0,.681,1.621,1.458,1.458,0,0,0,1.364.458,2.175,2.175,0,0,0,1.227-.693,5.02,5.02,0,0,0,.931-2.456l-.2.024a8.1,8.1,0,0,0,1.175,2.024,2.878,2.878,0,0,0,1.879,1.024,1.862,1.862,0,0,0,1-.175,1.6,1.6,0,0,0,.677-.666,1.65,1.65,0,0,0,.206-.856,1.2,1.2,0,0,0-.31-.751l-.1.091a6.233,6.233,0,0,0,2.075,1.557,5.468,5.468,0,0,0,.643.249,1,1,0,0,0,.23.057,1.162,1.162,0,0,0-.218-.092c-.143-.06-.356-.145-.624-.28a6.456,6.456,0,0,1-2-1.581l-.1.092a1.238,1.238,0,0,1,.063,1.435,1.444,1.444,0,0,1-.612.589,1.673,1.673,0,0,1-.9.147,2.7,2.7,0,0,1-1.744-.973,8.011,8.011,0,0,1-1.132-1.98l-.139-.31-.064.334a4.846,4.846,0,0,1-.886,2.348,1.953,1.953,0,0,1-1.1.62,1.231,1.231,0,0,1-1.159-.388,3.291,3.291,0,0,1-.629-1.517,11.029,11.029,0,0,1-.217-1.636,25.882,25.882,0,0,1,.06-3.141c.062-1,.128-1.961.115-2.861a12.063,12.063,0,0,0-.277-2.487,6.831,6.831,0,0,0-1.574-3.233,3.919,3.919,0,0,0-1.034-.827" transform="translate(-159.749 574.865)" fill="#33535f"/>
  <path id="path234" d="M486.348-474.79l.078.066.241.176a3.172,3.172,0,0,0,.409.263,5.126,5.126,0,0,0,.588.309,8.564,8.564,0,0,0,4.135.745,10.953,10.953,0,0,0,5.831-2.153,18.977,18.977,0,0,0,5.009-5.773c.7-1.17,1.275-2.37,1.906-3.477a12.835,12.835,0,0,1,2.159-2.94,6.6,6.6,0,0,1,2.783-1.689,4.724,4.724,0,0,1,1.468-.169,5.176,5.176,0,0,1,1.344.258,5.6,5.6,0,0,1,2.014,1.212,5.556,5.556,0,0,1,1.09,1.415,6.737,6.737,0,0,1,.5,1.448l-.007-.1c-.013-.08-.028-.177-.046-.3a4.835,4.835,0,0,0-.368-1.092,5.51,5.51,0,0,0-1.081-1.466,5.67,5.67,0,0,0-2.05-1.272,5.338,5.338,0,0,0-1.387-.28,4.859,4.859,0,0,0-1.527.162,6.766,6.766,0,0,0-2.879,1.721,12.915,12.915,0,0,0-2.206,2.98c-.639,1.115-1.212,2.312-1.908,3.47a18.979,18.979,0,0,1-4.937,5.721,10.879,10.879,0,0,1-5.718,2.161,8.685,8.685,0,0,1-4.088-.665,13.56,13.56,0,0,1-1.352-.733" transform="translate(-146.826 577.21)" fill="#33535f"/>
  <path id="path236" d="M485.089-474.461a1.5,1.5,0,0,0,.346.241,7.462,7.462,0,0,0,1.026.521,10.01,10.01,0,0,0,1.624.533,11.378,11.378,0,0,0,2.077.276,11.44,11.44,0,0,0,2.091-.142,9.938,9.938,0,0,0,1.655-.428,7.521,7.521,0,0,0,1.057-.454,1.525,1.525,0,0,0,.361-.219c-.019-.038-.553.236-1.469.521a11.3,11.3,0,0,1-1.637.374,12.368,12.368,0,0,1-2.052.122,12.34,12.34,0,0,1-2.038-.252,11.546,11.546,0,0,1-1.61-.478c-.9-.343-1.41-.652-1.432-.614" transform="translate(-146.446 572.637)" fill="#33535f"/>
  <path id="path238" d="M496.392-455.222c.192.2,1.307-.7,2.926-.746,1.615-.067,2.826.75,3,.542.084-.092-.115-.45-.643-.82a4.054,4.054,0,0,0-2.405-.682,3.912,3.912,0,0,0-2.321.845c-.487.406-.645.774-.551.861" transform="translate(-149.85 567.344)" fill="#17282f"/>
  <path id="path240" d="M498.765-448.478a1.309,1.309,0,0,0,1.355,1.225,1.252,1.252,0,0,0,1.259-1.275,1.309,1.309,0,0,0-1.353-1.227,1.254,1.254,0,0,0-1.261,1.277" transform="translate(-150.574 565.177)" fill="#17282f"/>
  <path id="path242" d="M538.947-449.269c.16-.083,6.49-2.446,6.761,4.17s-6.426,5.522-6.446,5.334-.315-9.5-.315-9.5" transform="translate(-162.705 565.175)" fill="#f9a78d"/>
  <path id="path244" d="M542.144-441.445c.028-.022.118.076.316.157a1.154,1.154,0,0,0,.863-.018,2.854,2.854,0,0,0,1.215-2.612,3.82,3.82,0,0,0-.391-1.637,1.332,1.332,0,0,0-.9-.849.589.589,0,0,0-.667.343c-.081.189-.034.319-.068.332-.018.017-.146-.105-.1-.381a.735.735,0,0,1,.243-.425.872.872,0,0,1,.63-.195,1.623,1.623,0,0,1,1.246.976,3.923,3.923,0,0,1,.476,1.827A3,3,0,0,1,543.435-441a1.234,1.234,0,0,1-1.061-.132c-.212-.155-.252-.3-.23-.315" transform="translate(-163.669 564.264)" fill="#f57f62"/>
  <path id="path246" d="M516.376-436.4c.055.009.057.388-.173.948a4,4,0,0,1-1.522,1.766,3.682,3.682,0,0,1-2.255.605c-.608-.053-.937-.255-.917-.305.023-.075.373,0,.92-.037a4.226,4.226,0,0,0,1.991-.671A4.737,4.737,0,0,0,515.9-435.6c.286-.472.4-.81.478-.791" transform="translate(-154.422 561.144)" fill="#17282f"/>
  <path id="path248" d="M558.769-61.511l1.977,22.373,6.992,17.273a2.273,2.273,0,0,1-1.575,3.019,2.559,2.559,0,0,1-2.2-.377c-3.994-2.906-18.388-13.587-18.549-14.978C545.2-36,541.535-58,541.535-58l17.235-3.509" transform="translate(-163.487 447.968)" fill="#33535f"/>
  <path id="path250" d="M567.669-8.138l-21.148-17.9.208,1.658c.142.907.158,1.4.792,1.965a202.225,202.225,0,0,0,17.72,14.283,2.878,2.878,0,0,0,2.428,0" transform="translate(-164.992 437.261)" fill="#17282f"/>
  <path id="path252" d="M551.6-36.1a1.351,1.351,0,0,1,.607,1.768,1.469,1.469,0,0,1-1.858.581,1.423,1.423,0,0,1-.633-1.875,1.537,1.537,0,0,1,2-.4" transform="translate(-165.908 440.344)" fill="#fff"/>
  <path id="path254" d="M567.446-14.86c.141.048.545-1.174,1.887-1.945a7.826,7.826,0,0,1,2.679-.764c.014-.057-.306-.2-.87-.218a4,4,0,0,0-2.089.566,3.662,3.662,0,0,0-1.442,1.529c-.225.487-.225.82-.165.832" transform="translate(-171.299 434.769)" fill="#17282f"/>
  <path id="path256" d="M570.36-10.379a20.036,20.036,0,0,1,2-1.17,21.144,21.144,0,0,1,2.287-.513,2.865,2.865,0,0,0-2.49.057c-1.354.524-1.923,1.577-1.793,1.625" transform="translate(-172.183 433.109)" fill="#17282f"/>
  <path id="path258" d="M562.327-20.021a24.509,24.509,0,0,1,2.949-2,25.776,25.776,0,0,1,3.436-1.123,5.721,5.721,0,0,0-3.678.687,5.243,5.243,0,0,0-2.707,2.438" transform="translate(-169.761 436.412)" fill="#17282f"/>
  <path id="path260" d="M560.6-28.873c.079.128,1.333-.518,3.033-.748,1.7-.25,3.1.023,3.132-.121a4.994,4.994,0,0,0-3.21-.367,4.855,4.855,0,0,0-2.955,1.235" transform="translate(-169.242 438.511)" fill="#17282f"/>
  <path id="path262" d="M559.518-38.283a12.512,12.512,0,0,1,3.135-.856,12.649,12.649,0,0,1,3.233.429c.034-.051-.257-.305-.838-.547a5.552,5.552,0,0,0-2.432-.374,5.5,5.5,0,0,0-2.351.694c-.538.319-.787.609-.747.654" transform="translate(-168.914 441.367)" fill="#17282f"/>
  <path id="path264" d="M562.146-42.5a1.814,1.814,0,0,0-.062-.847,5.7,5.7,0,0,0-.964-2.141,2.725,2.725,0,0,0-1.326-1.123,1.023,1.023,0,0,0-1.08.314,1.437,1.437,0,0,0-.262,1.045,3.4,3.4,0,0,0,3.353,2.691,4.015,4.015,0,0,0,3.7-2.353A1.242,1.242,0,0,0,565.445-46a1,1,0,0,0-1.058-.377,3.439,3.439,0,0,0-1.478.921,6.6,6.6,0,0,0-1.425,1.9,1.911,1.911,0,0,0-.277.808,10.49,10.49,0,0,1,1.957-2.451,3.225,3.225,0,0,1,1.31-.773.528.528,0,0,1,.577.2.848.848,0,0,1-.006.717,3.592,3.592,0,0,1-3.231,2.005,2.957,2.957,0,0,1-2.881-2.245,1.042,1.042,0,0,1,.151-.737.55.55,0,0,1,.592-.181,2.473,2.473,0,0,1,1.143.932,8.415,8.415,0,0,1,1.328,2.786" transform="translate(-168.591 443.484)" fill="#17282f"/>
  <path id="path266" d="M477.049-59.941l.881,18.947s-20.191,7.205-20.391,10.722l39.141-.287L496.6-60.133l-19.547.193" transform="translate(-138.129 447.552)" fill="#33535f"/>
  <path id="path268" d="M503.243-35.154a1.5,1.5,0,0,1,1.12,1.707,1.542,1.542,0,0,1-1.79,1.057A1.58,1.58,0,0,1,501.4-34.2a1.624,1.624,0,0,1,1.992-.905" transform="translate(-151.353 440.029)" fill="#dadbd8"/>
  <path id="path270" d="M496.673-19.058l-.133-2.98L459.062-20.65s-1.737.726-1.53,1.878l39.141-.287" transform="translate(-138.121 436.052)" fill="#17282f"/>
  <path id="path272" d="M485.836-33.052c.008.18.964.254,1.91.825.961.548,1.452,1.323,1.627,1.25.176-.036-.118-1.107-1.275-1.781s-2.3-.459-2.262-.294" transform="translate(-146.671 439.428)" fill="#17282f"/>
  <path id="path274" d="M479.974-30.682c-.042.175.788.474,1.444,1.23.679.736.849,1.557,1.04,1.548.18.027.3-1.027-.531-1.951s-1.95-1-1.953-.826" transform="translate(-144.901 438.684)" fill="#17282f"/>
  <path id="path276" d="M476.017-25.344c.174.036.433-.863-.066-1.843s-1.4-1.366-1.475-1.216c-.107.149.477.673.874,1.484.416.8.477,1.558.667,1.575" transform="translate(-143.238 437.983)" fill="#17282f"/>
  <path id="path278" d="M486.276-39.478c.082.163.956-.091,2.038-.03,1.082.04,1.925.375,2.024.22.11-.13-.717-.789-1.991-.844s-2.165.514-2.07.654" transform="translate(-146.802 441.516)" fill="#17282f"/>
  <path id="path280" d="M475.725-256.818c.022,1.1,4.547,152.512,4.547,152.512h24.193l4.9-129.525s5.723,67.723,5.723,69.186,5.05,61.068,5.05,61.068l22.431-1.72-1.47-136.37-2.741-19.995-62.634,4.844" transform="translate(-143.619 508.393)" fill="#17282f"/>
  <path id="path282" d="M525.468-235.7a4.507,4.507,0,0,1-.982.388c-.642.222-1.577.527-2.732.894l-.22.07-.016-.214c-.135-1.822-.287-4.257-.429-6.927-.154-2.895-.266-5.515-.324-7.414-.029-.948-.044-1.717-.044-2.249a2.825,2.825,0,0,1,.049-.827,2.785,2.785,0,0,1,.137.82c.057.529.124,1.295.2,2.242.144,1.894.311,4.513.464,7.407.142,2.67.249,5.107.308,6.933l-.235-.144c1.169-.33,2.12-.589,2.782-.759a4.83,4.83,0,0,1,1.045-.22" transform="translate(-157.203 505.47)" fill="#33535f"/>
  <path id="path284" d="M524.421-251.394c-.015-.02.078-.122.321-.2a1.57,1.57,0,0,1,1.069.087,1.255,1.255,0,0,1,.81,1.245,1.562,1.562,0,0,1-1.287,1.339,1.808,1.808,0,0,1-1.783-.76,1.284,1.284,0,0,1,.02-1.437,1.592,1.592,0,0,1,.8-.629c.238-.079.381-.066.385-.042.036.063-.545.173-.885.812a1.021,1.021,0,0,0,.058,1.093,1.394,1.394,0,0,0,1.312.545,1.187,1.187,0,0,0,.942-.959.932.932,0,0,0-.533-.942,2.005,2.005,0,0,0-1.227-.154" transform="translate(-157.993 505.418)" fill="#33535f"/>
  <path id="path286" d="M540.6-250.278c-.131.012-.315-.644-.409-1.466s-.065-1.5.067-1.51.315.644.409,1.466.065,1.5-.067,1.51" transform="translate(-163.063 505.855)" fill="#33535f"/>
  <path id="path288" d="M543.094-250.56c-.132,0-.243-.7-.248-1.562s.1-1.563.231-1.564.243.7.248,1.562-.1,1.563-.231,1.564" transform="translate(-163.883 505.985)" fill="#33535f"/>
  <path id="path290" d="M501.192-249.253c-.131.013-.336-.773-.457-1.757s-.113-1.791.019-1.8.336.773.457,1.757.113,1.791-.019,1.8" transform="translate(-151.144 505.722)" fill="#33535f"/>
  <path id="path292" d="M504.081-249.114a2.642,2.642,0,0,1-.591-1.841,2.608,2.608,0,0,1,.421-1.879c.135.029.007.854.058,1.862s.244,1.821.113,1.859" transform="translate(-151.999 505.728)" fill="#33535f"/>
  <path id="path294" d="M488.756-250.4a2.033,2.033,0,0,1-.081.667,12.334,12.334,0,0,1-.486,1.775,18.419,18.419,0,0,1-3,5.4,20.47,20.47,0,0,1-4.726,4.3,15.63,15.63,0,0,1-1.718.992,2.719,2.719,0,0,1-.679.287c-.039-.059.877-.544,2.212-1.495a23.121,23.121,0,0,0,4.56-4.306,21.057,21.057,0,0,0,3.058-5.258c.569-1.438.782-2.371.856-2.357" transform="translate(-144.327 504.994)" fill="#33535f"/>
  <path id="path296" d="M562.33-239.729a2.487,2.487,0,0,1-.733.108,12.135,12.135,0,0,1-2.025-.035,13.825,13.825,0,0,1-6.2-2.155,11.775,11.775,0,0,1-4.129-4.657,9.008,9.008,0,0,1-.634-1.719,1.783,1.783,0,0,1-.1-.658c.076-.018.282.911,1.01,2.264a12.542,12.542,0,0,0,4.109,4.461,14.576,14.576,0,0,0,5.98,2.195c1.662.223,2.717.126,2.72.2" transform="translate(-165.59 504.524)" fill="#33535f"/>
  <path id="path298" d="M504.153-127.789c-.031.1-4.041-.764-8.955-1.936s-8.875-2.205-8.845-2.307,4.04.764,8.955,1.936,8.875,2.205,8.845,2.308" transform="translate(-146.828 469.261)" fill="#33535f"/>
  <path id="path300" d="M560.859-133.845c.058.092-3.432,1.916-7.794,4.07s-7.945,3.828-8,3.735,3.432-1.916,7.795-4.071,7.944-3.827,8-3.734" transform="translate(-164.551 469.807)" fill="#33535f"/>
  <path id="path302" d="M453.57-330.027l3.308,4.136v-7.116H467.3s1.158,16.3.91,19.769a28.213,28.213,0,0,1-1.275,5.316,6.118,6.118,0,0,1-10.1,2.53,35.279,35.279,0,0,1-3.262-3.627c-4.632-5.955-12.327-20.46-12.327-20.46l8.025-4.848,4.3,4.3" transform="translate(-133.209 530.33)" fill="#f9a78d"/>
  <path id="path304" d="M457.955-329.263a11.8,11.8,0,0,0,1.362,1.818c.878,1.09,2.1,2.591,3.489,4.216s2.707,3.053,3.728,4.023a7.5,7.5,0,0,0,1.77,1.434,17.491,17.491,0,0,0-1.523-1.677c-.948-1.022-2.213-2.481-3.6-4.1a51.23,51.23,0,0,0-5.222-5.714" transform="translate(-138.253 528.803)" fill="#f57f62"/>
  <path id="path306" d="M492.955-402.257l10.989-4.31,20.245-1.146,9.515,3.618-13.039,7.241-11.242-.412-16.468-4.991" transform="translate(-148.821 552.485)" fill="#f9a78d"/>
  <path id="path308" d="M469.464-298.839c.994.171,67.324,2.988,67.324,2.988l-2.33-59.64-.191-11.71L530.5-402.676s-9.915-3.409-14.973-5.037c0,0-5.324,5.549-15.448,5.4-9.9-.146-11.964-2.377-11.964-2.377l-13.836,5.3s-9.839,3.527-11.532,7.881c-1.648,4.237-4.667,28.438-4.667,28.438h14.342l-.272,42.752-2.686,21.476" transform="translate(-138.292 552.485)" fill="#00cec9"/>
  <path id="path310" d="M546.133-346.622l-9.95-4.444L534.127-366.1l19.361-.747v13.958l-7.354,6.268" transform="translate(-161.25 540.148)" fill="#007774"/>
  <path id="path312" d="M553.5-359.766c0,.125-4.135.226-9.234.226s-9.236-.1-9.236-.226,4.135-.226,9.236-.226,9.234.1,9.234.226" transform="translate(-161.522 538.078)" fill="#17282f"/>
  <path id="path314" d="M467.984-375.6a1.9,1.9,0,0,1,.106.4l.264,1.151a37.859,37.859,0,0,0,1.321,4.231c.66,1.782,1.594,3.87,2.735,6.219,1.08,2.392,2.057,5.145,3.078,8.128l.01.031v.034c-.024,3.571-.05,7.483-.077,11.568-.1,9.121-.183,17.374-.247,23.4-.052,2.961-.095,5.372-.125,7.09q-.035,1.208-.056,1.926a3.826,3.826,0,0,1-.048.671,3.908,3.908,0,0,1-.038-.674q-.01-.72-.025-1.929c0-1.718-.007-4.131-.012-7.093.031-6.025.074-14.279.121-23.4.036-4.084.072-7.994.1-11.565l.01.064c-1-2.976-1.961-5.739-3-8.112a66.982,66.982,0,0,1-2.659-6.276,32.462,32.462,0,0,1-1.216-4.287c-.1-.508-.169-.9-.2-1.169a1.781,1.781,0,0,1-.039-.408" transform="translate(-141.281 542.789)" fill="#17282f"/>
  <path id="path316" d="M568.078-385.591a7.61,7.61,0,0,1-.012,1.272c-.033.9-.077,2.06-.129,3.463-.118,3-.276,7-.451,11.424-.2,4.423-.381,8.424-.517,11.424-.081,1.4-.148,2.565-.2,3.46a7.254,7.254,0,0,1-.131,1.267,7.219,7.219,0,0,1-.036-1.272c.016-.9.037-2.063.062-3.466.073-2.926.206-6.967.391-11.43s.389-8.5.578-11.421c.094-1.46.186-2.643.265-3.458a6.94,6.94,0,0,1,.18-1.261" transform="translate(-171.054 545.807)" fill="#17282f"/>
  <path id="path318" d="M474.538-354.724a24.924,24.924,0,0,1-6.513-17.768c1.794,5.888,5.163,11.615,6.513,17.768" transform="translate(-141.286 541.852)" fill="#007774"/>
  <path id="path320" d="M509.769-298.442c6.912-5.788,12.577-13.984,16.443-24.341a30.531,30.531,0,0,1-3.136,12.171,37.6,37.6,0,0,1-5.347,7.741,12.412,12.412,0,0,1-7.96,4.43" transform="translate(-153.897 526.845)" fill="#007774"/>
  <path id="path322" d="M526.172-329.254a1.32,1.32,0,0,1-.055.383c-.065.3-.144.651-.239,1.076-.1.469-.246,1.037-.447,1.688s-.4,1.4-.7,2.206a51.2,51.2,0,0,1-2.288,5.57,58.73,58.73,0,0,1-3.65,6.41,57.529,57.529,0,0,1-4.5,5.848,48.3,48.3,0,0,1-4.275,4.244c-.631.581-1.249,1.052-1.782,1.475s-1,.777-1.4,1.044l-.912.621a1.286,1.286,0,0,1-.333.193c-.009-.012.089-.1.284-.263l.861-.684c.382-.287.838-.651,1.348-1.1s1.116-.923,1.73-1.515a53.332,53.332,0,0,0,4.18-4.278,61.894,61.894,0,0,0,4.439-5.824,63.517,63.517,0,0,0,3.651-6.347,57.21,57.21,0,0,0,2.358-5.5c.315-.793.54-1.531.754-2.173s.39-1.2.515-1.661c.126-.417.23-.765.317-1.055a1.312,1.312,0,0,1,.139-.361" transform="translate(-152.637 528.799)" fill="#17282f"/>
  <path id="path324" d="M519.025-355.991a3.2,3.2,0,0,1-.077.608l-.305,1.732c-.128.753-.305,1.671-.574,2.723s-.515,2.266-.927,3.569l-.607,2.058c-.215.714-.492,1.44-.751,2.2-.5,1.529-1.167,3.113-1.843,4.789a86.939,86.939,0,0,1-5.38,10.451,86.925,86.925,0,0,1-6.86,9.548c-1.186,1.365-2.291,2.682-3.426,3.821-.56.577-1.081,1.154-1.619,1.671l-1.555,1.477c-.974.96-1.938,1.737-2.757,2.448s-1.551,1.294-2.163,1.751l-1.4,1.06a3.267,3.267,0,0,1-.506.345,3.2,3.2,0,0,1,.453-.414l1.352-1.122c.595-.477,1.314-1.069,2.11-1.8s1.748-1.516,2.7-2.487l1.53-1.491c.53-.52,1.042-1.1,1.594-1.68,1.119-1.145,2.21-2.464,3.381-3.829a90.435,90.435,0,0,0,6.8-9.519,90.5,90.5,0,0,0,5.382-10.383c.682-1.664,1.361-3.235,1.872-4.753.264-.755.548-1.474.771-2.184s.43-1.39.632-2.041c.429-1.293.7-2.5.984-3.54s.491-1.953.645-2.7l.383-1.714a3.4,3.4,0,0,1,.163-.593" transform="translate(-147.406 536.87)" fill="#007774"/>
  <path id="path326" d="M442.516-384.192c4.088,6.213,20.642,31.386,25.537,38.829a1.15,1.15,0,0,1-1.108,1.771l-29.409-3.7a1.149,1.149,0,0,1-.785-.463L408.66-386.118a1.151,1.151,0,0,1,1.015-1.828l30.259,2.239a3.382,3.382,0,0,1,2.582,1.515" transform="translate(-123.305 546.518)" fill="#dadbd8"/>
  <path id="path328" d="M442.43-384.276a1.986,1.986,0,0,0-.235-.353,3.292,3.292,0,0,0-.951-.8,4.121,4.121,0,0,0-1.959-.476l-2.737-.225L419.1-387.5l-5.781-.444-3.075-.235c-.272-.016-.5-.05-.811-.05a1.314,1.314,0,0,0-.846.351,1.35,1.35,0,0,0-.223,1.728l8.177,11.215L435.3-349.285c.426.576.807,1.119,1.27,1.717a1.392,1.392,0,0,0,.522.354,2.3,2.3,0,0,0,.571.113l1.037.13,4.115.517,8.044,1.008,15.209,1.9c.316.034.577.085.934.1a1.35,1.35,0,0,0,.975-.406,1.4,1.4,0,0,0,.4-.966,1.622,1.622,0,0,0-.355-.943l-1.939-2.939-3.709-5.617-6.665-10.079-9.678-14.575-2.653-3.949-.7-1.02a2.779,2.779,0,0,0-.252-.338,2.616,2.616,0,0,0,.21.366l.66,1.047,2.575,4c2.268,3.481,5.527,8.485,9.549,14.66l6.614,10.112,3.689,5.631q.952,1.451,1.931,2.944a1.167,1.167,0,0,1,.278.7.95.95,0,0,1-.276.653.9.9,0,0,1-.654.271c-.249-.014-.589-.07-.88-.1l-15.206-1.927-8.044-1.016-4.114-.519-1.038-.13a1.936,1.936,0,0,1-.455-.084.914.914,0,0,1-.34-.23l-1.233-1.674L416.909-375.2l-8.2-11.169a.946.946,0,0,1,.154-1.214.912.912,0,0,1,.592-.249c.218,0,.514.033.764.047l3.076.22,5.783.412,17.455,1.213,2.739.181a4.083,4.083,0,0,1,1.923.417,3.873,3.873,0,0,1,1.233,1.068" transform="translate(-123.219 546.603)" fill="#17282f"/>
  <path id="path330" d="M408.758-385.33a3.384,3.384,0,0,0,.617.091l1.784.181,6.646.59,22.6,1.845-.18-.1c1.414,2.1,2.874,4.284,4.339,6.538,5.963,9.167,11.172,17.594,15.108,23.589,1.956,3.006,3.582,5.409,4.715,7.063l1.326,1.89a5.023,5.023,0,0,0,.491.639,4.923,4.923,0,0,0-.409-.7l-1.25-1.94-4.581-7.145c-3.858-6.04-9.019-14.494-14.99-23.669-1.466-2.256-2.93-4.44-4.352-6.541l-.065-.1-.115-.008-22.613-1.678-6.657-.447-1.791-.1a3.343,3.343,0,0,0-.624,0" transform="translate(-123.402 545.731)" fill="#17282f"/>
  <path id="path332" d="M434.872-377.47h0l-.011,0Z" transform="translate(-131.282 543.356)" fill="#fff"/>
  <path id="path334" d="M433.827-377.035a.594.594,0,0,1,.727-.438,1.577,1.577,0,0,1,.789.444.786.786,0,0,1,.143,1.007c-.293.363-.9.229-1.251-.075a1.03,1.03,0,0,1-.409-.937" transform="translate(-130.966 543.359)" fill="#fff"/>
  <path id="path336" d="M446.006-347.087s1.16-2.766-1.785-3.124a102.132,102.132,0,0,0-10.678,0s-4.228.447-3.335,3.481c0,0-2.5,2.231-1.161,4.641s1.875,1.7,1.875,1.7-.357,2.946,1.875,3.392c0,0,2.419,2.857,4.646,2.678s11.688-4.73,12.313-5.623,1.517-1.4.982-2.4c0,0,1.161-2.612-1.338-3.009,0,0-.179-2.182-3.392-1.736" transform="translate(-129.408 535.173)" fill="#f9a78d"/>
  <path id="path338" d="M434.287-344.756a8.094,8.094,0,0,0,1.99.143c1.229.025,2.925.027,4.8,0a28.28,28.28,0,0,0,4.82-.287c1.271-.294,1.769-1.04,1.709-1.056a5.063,5.063,0,0,1-1.781.717c-1.168.2-2.885.075-4.755.136-1.874.029-3.569.082-4.8.145a8.124,8.124,0,0,0-1.984.2" transform="translate(-131.109 533.843)" fill="#f57f62"/>
  <path id="path340" d="M437.308-339.8a1.483,1.483,0,0,0,.64.221,6.875,6.875,0,0,0,1.84.115,13.009,13.009,0,0,0,2.684-.487c.988-.273,2.038-.652,3.148-.993a14.064,14.064,0,0,1,3.168-.653,4.867,4.867,0,0,0,2.7-.546,1.544,1.544,0,0,0,.644-.919,1.276,1.276,0,0,0-.112-.837c-.233-.425-.549-.45-.541-.425-.025.038.228.128.367.5a1.153,1.153,0,0,1-.553,1.391,4.847,4.847,0,0,1-2.528.382,13.173,13.173,0,0,0-3.287.636l-3.131,1.028a14.9,14.9,0,0,1-2.589.575,16.852,16.852,0,0,1-2.45.01" transform="translate(-132.021 533.351)" fill="#f57f62"/>
  <path id="path342" d="M441.839-334.293a7.973,7.973,0,0,0,1.987-.385c1.209-.305,2.867-.778,4.675-1.37s3.426-1.191,4.582-1.661a7.907,7.907,0,0,0,1.83-.865c-.05-.129-2.958.882-6.565,2.06s-6.546,2.086-6.51,2.221" transform="translate(-133.389 531.616)" fill="#f57f62"/>
  <path id="path344" d="M440.752-329.221a4.347,4.347,0,0,0,1.649-.19,19.736,19.736,0,0,0,3.768-1.326c1.419-.645,2.657-1.3,3.553-1.78a5.92,5.92,0,0,0,1.412-.854,31.011,31.011,0,0,0-5.167,2.187c-2.785,1.336-5.233,1.836-5.215,1.963" transform="translate(-133.061 530.046)" fill="#f57f62"/>
  <path id="path346" d="M555.065-372.769s-6.013,24.091-13.526,32.983c-7.276,8.612-18.679,4.653-22.628-6.489s-10.984-36.591-10.984-36.591l8.641-6.606L531.5-360.54l6.728-19.723,16.842,7.494" transform="translate(-153.341 546.978)" fill="#f9a78d"/>
  <path id="path348" d="M503.618-391.527l-6.336-9.182a16.471,16.471,0,0,1-2.7-.838c-.719-.42-1.425-4.068-1.41-4.78s-1.228-2.376-.725-2.845,2.2-.5,2.111-1.188c-.02-.146-1.26-1.668-.276-2.785a5.268,5.268,0,0,1,1.786-.759l-.1-3.5s1.892-4.138,3.826-2.641c0,0,7.293,5.6,8.027,6.5s3.541,12.56,4.039,14.75" transform="translate(-148.631 556.308)" fill="#f9a78d"/>
  <path id="path350" d="M511.766-398.892a3.355,3.355,0,0,0-.1-.619c-.095-.443-.22-1.026-.375-1.755-.342-1.52-.852-3.719-1.542-6.428-.35-1.354-.734-2.837-1.22-4.418-.129-.395-.254-.795-.422-1.2a2.7,2.7,0,0,0-.86-1.056c-.664-.585-1.363-1.158-2.084-1.743-1.443-1.168-2.975-2.373-4.573-3.614a5.345,5.345,0,0,0-1.335-.882,1.829,1.829,0,0,0-1.645.392,7.519,7.519,0,0,0-1.943,2.624l-.021.044,0,.057c.009.339.02.7.031,1.071.024.82.047,1.634.072,2.432l.169-.223a8.539,8.539,0,0,0-1.285.432,1.889,1.889,0,0,0-.622.406,1.759,1.759,0,0,0-.354.649,2.176,2.176,0,0,0,.111,1.394,4.268,4.268,0,0,0,.287.6l.161.275.033.059-.007-.014-.009.06c-.019.08-.19.187-.361.256s-.37.131-.566.191-.4.118-.6.2a1.18,1.18,0,0,0-.608.427,1,1,0,0,0-.017.746,4.472,4.472,0,0,0,.215.588c.158.372.334.723.464,1.069a1.467,1.467,0,0,1,.11.492,5.1,5.1,0,0,0,.058.6c.055.383.126.755.2,1.123a14.9,14.9,0,0,0,.6,2.117,2.667,2.667,0,0,0,.556.976,3.25,3.25,0,0,0,.989.434c.643.2,1.268.356,1.876.5l-.1-.069,4.692,6.669,1.3,1.806a4.55,4.55,0,0,0,.482.612,4.679,4.679,0,0,0-.4-.667l-1.227-1.858-4.569-6.754-.035-.053-.066-.016c-.6-.147-1.218-.31-1.842-.512a3.151,3.151,0,0,1-.854-.37,2.475,2.475,0,0,1-.444-.831,14.838,14.838,0,0,1-.561-2.064c-.072-.36-.139-.727-.189-1.1a4.749,4.749,0,0,1-.05-.542,1.871,1.871,0,0,0-.131-.635c-.141-.382-.316-.733-.466-1.092a4.293,4.293,0,0,1-.193-.533.652.652,0,0,1-.019-.432.941.941,0,0,1,.39-.232c.177-.07.37-.125.568-.184s.4-.118.608-.2a1.016,1.016,0,0,0,.6-.492.523.523,0,0,0,.043-.246l-.041-.164-.044-.079-.157-.27a3.835,3.835,0,0,1-.257-.543,1.749,1.749,0,0,1-.1-1.115,1.3,1.3,0,0,1,.263-.48,1.538,1.538,0,0,1,.469-.29,8.157,8.157,0,0,1,1.209-.4l.176-.046L496.2-414c-.023-.8-.047-1.612-.07-2.432-.011-.367-.022-.733-.032-1.071l-.02.1a7.142,7.142,0,0,1,1.8-2.455,1.387,1.387,0,0,1,1.248-.324,5.243,5.243,0,0,1,1.2.8c1.6,1.234,3.137,2.431,4.583,3.587.722.579,1.425,1.147,2.083,1.716a2.338,2.338,0,0,1,.769.915c.161.378.289.776.421,1.163.5,1.561.9,3.039,1.268,4.385.7,2.667,1.27,4.836,1.678,6.39.189.719.34,1.3.455,1.734a3.322,3.322,0,0,0,.184.6" transform="translate(-148.539 556.398)" fill="#f57f62"/>
  <path id="path352" d="M497.685-411.188c0,.077.741.019,1.89.129a13.557,13.557,0,0,1,1.994.456,9.183,9.183,0,0,0,2.579.022,4.871,4.871,0,0,1,4.063,1.317,5.225,5.225,0,0,1,.979,1.56,2.4,2.4,0,0,0-.747-1.777A4.722,4.722,0,0,0,506.7-410.7a5.314,5.314,0,0,0-2.582-.325,9.9,9.9,0,0,1-2.467.02,11,11,0,0,0-2.051-.367,5.041,5.041,0,0,0-1.916.187" transform="translate(-150.249 553.592)" fill="#f57f62"/>
  <path id="path354" d="M501.312-412.206c.108.055.4-.37.365-.976s-.378-.994-.478-.926.006.464.03.953-.034.9.084.949" transform="translate(-151.295 554.418)" fill="#f57f62"/>
  <path id="path356" d="M495.2-406.335a15.914,15.914,0,0,0,5.493-.431,5.44,5.44,0,0,1,2.019-.255,2.188,2.188,0,0,1,1.308.863,13.085,13.085,0,0,1,.721,1.392,2.45,2.45,0,0,0-.461-1.574,2.419,2.419,0,0,0-1.486-1.087,5.3,5.3,0,0,0-2.2.221c-2.943.642-5.4.736-5.4.87" transform="translate(-149.498 552.415)" fill="#f57f62"/>
  <path id="path358" d="M493.811-401.617a2.946,2.946,0,0,0,1.35.007c.83-.092,1.943-.378,3.158-.616a7.143,7.143,0,0,1,1.7-.17,2.045,2.045,0,0,1,1.224.443,1.953,1.953,0,0,1,.6,1.07c.025,0,.088-.122.075-.371a1.535,1.535,0,0,0-.455-.932,2.244,2.244,0,0,0-1.406-.623,6.471,6.471,0,0,0-1.818.141c-1.25.246-2.332.576-3.129.746a6.514,6.514,0,0,0-1.3.306" transform="translate(-149.079 551.011)" fill="#f57f62"/>
  <path id="path360" d="M496.92-397.333c-.076.058.542.706,1.679.7l-.224-.194c.022.2.045.39.067.587a6.371,6.371,0,0,0,.52,2.314,6.407,6.407,0,0,0-.074-2.366c-.028-.2-.054-.384-.081-.583l-.029-.206-.2.012a7.691,7.691,0,0,1-1.662-.268" transform="translate(-150.016 549.356)" fill="#f57f62"/>
  <path id="path362" d="M555.705-400.5s12.316,2.984,12.29,19.317c-.026,16.268-3.72,24.4-3.72,24.4l-22.7-12.356,5.066-12.719,9.067-18.641" transform="translate(-163.498 550.307)" fill="#00cec9"/>
  <path id="path364" d="M564.148-355.3a2.291,2.291,0,0,1-.473-.206l-1.317-.669-4.838-2.55-16.189-8.723-.183-.1.074-.193,1.218-3.184c1.451-3.768,2.832-7.356,4.093-10.63.632-1.629,1.234-3.179,1.8-4.634a28.15,28.15,0,0,1,1.8-3.963,12.3,12.3,0,0,1,4.1-4.742,4.981,4.981,0,0,1,1.6-.639,2.919,2.919,0,0,1,.444-.057c.1-.006.153,0,.153,0a6.112,6.112,0,0,0-2.094.851,12.546,12.546,0,0,0-3.9,4.746,28.623,28.623,0,0,0-1.722,3.94c-.552,1.459-1.139,3.014-1.757,4.648-1.249,3.277-2.618,6.869-4.057,10.643l-1.22,3.182-.109-.291,16.114,8.858,4.769,2.679,1.276.743a2.265,2.265,0,0,1,.43.285" transform="translate(-163.369 548.825)" fill="#007774"/>
</svg>
