<svg xmlns="http://www.w3.org/2000/svg" xmlns:xlink="http://www.w3.org/1999/xlink" width="462.681" height="476.688" viewBox="0 0 462.681 476.688">
  <defs>
    <clipPath id="clip-path">
      <path id="path258" d="M125.982-170.276h0l12.872-9.546h0l-12.872,9.546" transform="translate(-125.982 179.822)"/>
    </clipPath>
  </defs>
  <g id="Group_3437" data-name="Group 3437" transform="translate(-14.528)">
    <g id="g10" transform="translate(14.528 0)">
      <g id="g12" transform="translate(0 0)">
        <path id="path14" d="M37.39-52.9H94.158V-266.635H37.39Z" transform="translate(-27.27 529.098)" fill="#d4efee"/>
        <path id="path14-2" data-name="path14" d="M37.39,10.21H94.158V-266.635H37.39Z" transform="translate(118.003 465.991)" fill="#d4efee"/>
        <path id="path14-3" data-name="path14" d="M37.39,10.21h73.529V-266.635H37.39Z" transform="translate(233.763 465.991)" fill="#d4efee"/>
        <path id="path18" d="M584.727-63.876H527.959V-316.562h56.768V-63.876" transform="translate(-123.559 538.897)" fill="#d4efee"/>
        <path id="path24" d="M438.6-564.644s-.274.291-.828.842-1.391,1.371-2.474,2.44l-9.588,9.388-35.674,34.8L269.192-399.562l-.212.208-.191-.228-29.553-35.405-75.851-90.926.405-.022L98.112-427.211l-18.7,28.03c-2.17,3.239-3.84,5.728-4.973,7.418l-1.287,1.9c-.291.425-.448.636-.448.636s.133-.226.413-.659l1.253-1.924,4.907-7.462,18.58-28.11,65.51-98.838.189-.283.218.261,75.89,90.893c10.121,12.13,20.049,24.027,29.547,35.411l-.4-.021c48.169-46.776,90.589-87.971,120.976-117.48,15.2-14.73,27.393-26.541,35.79-34.679l9.654-9.319,2.509-2.4c.567-.539.865-.806.865-.806" transform="translate(-34.202 587.591)" fill="#00cec9"/>
        <path id="path26" d="M193.733-519.231A10.533,10.533,0,0,1,183.2-508.7a10.533,10.533,0,0,1-10.533-10.533A10.534,10.534,0,0,1,183.2-529.765a10.534,10.534,0,0,1,10.534,10.534" transform="translate(-53.822 580.745)" fill="#d4efee"/>
        <path id="path28" d="M80.667-348.958a10.533,10.533,0,0,1-10.534,10.533A10.533,10.533,0,0,1,59.6-348.958a10.534,10.534,0,0,1,10.534-10.534,10.534,10.534,0,0,1,10.534,10.534" transform="translate(-31.63 547.324)" fill="#d4efee"/>
        <path id="path30" d="M324.9-362.065a10.534,10.534,0,0,1-10.534,10.534,10.534,10.534,0,0,1-10.533-10.534A10.533,10.533,0,0,1,314.366-372.6,10.534,10.534,0,0,1,324.9-362.065" transform="translate(-79.568 549.896)" fill="#d4efee"/>
        <path id="path32" d="M542.615-572.214a10.533,10.533,0,0,1-10.533,10.534,10.534,10.534,0,0,1-10.534-10.534,10.533,10.533,0,0,1,10.534-10.533,10.532,10.532,0,0,1,10.533,10.533" transform="translate(-122.301 591.144)" fill="#d4efee"/>
        <path id="path34" d="M56.488-528.339a14.623,14.623,0,0,0,.363,20.677,14.622,14.622,0,0,0,20.677-.363,14.624,14.624,0,0,0-.363-20.677A14.624,14.624,0,0,0,56.488-528.339Zm-7.265-18.155a33.387,33.387,0,0,1,8.15-3.542l1.679-8.067,13.629-.239,1.962,8a33.4,33.4,0,0,1,8.27,3.254L89.8-551.6l9.807,9.469-4.269,7.041a33.351,33.351,0,0,1,3.541,8.152l8.066,1.678.239,13.629-8,1.962a33.39,33.39,0,0,1-3.253,8.269l4.514,6.888-9.467,9.806-7.042-4.269a33.357,33.357,0,0,1-8.151,3.541L74.1-477.37l-13.628.239-1.962-8a33.448,33.448,0,0,1-8.269-3.254l-6.888,4.515-9.806-9.468,4.269-7.042a33.364,33.364,0,0,1-3.542-8.151l-8.066-1.679-.239-13.629,8-1.962a33.417,33.417,0,0,1,3.253-8.269l-4.515-6.888,9.468-9.807,7.043,4.271" transform="translate(-25.029 586.354)" fill="#d4efee"/>
        <path id="path36" d="M336.747-555.267a18.172,18.172,0,0,0,.451,25.7,18.173,18.173,0,0,0,25.7-.452,18.173,18.173,0,0,0-.452-25.7A18.173,18.173,0,0,0,336.747-555.267Zm-9.031-22.566a41.5,41.5,0,0,1,10.129-4.4l2.086-10.026,16.94-.3,2.437,9.946a41.465,41.465,0,0,1,10.279,4.043l8.561-5.612,12.188,11.769-5.306,8.751a41.491,41.491,0,0,1,4.4,10.132l10.025,2.085.3,16.94-9.946,2.438a41.5,41.5,0,0,1-4.043,10.277l5.611,8.562L379.61-501.04l-8.752-5.307a41.469,41.469,0,0,1-10.131,4.4l-2.086,10.026-16.939.3-2.438-9.947a41.514,41.514,0,0,1-10.278-4.043L320.424-500l-12.188-11.769,5.307-8.751a41.478,41.478,0,0,1-4.4-10.131l-10.025-2.086-.3-16.939,9.946-2.439a41.561,41.561,0,0,1,4.043-10.277l-5.611-8.561,11.766-12.188,8.754,5.308" transform="translate(-78.583 593.07)" fill="#d4efee" opacity="0.5"/>
        <path id="path38" d="M136.815-577.491a7.654,7.654,0,0,0,.19,10.823,7.654,7.654,0,0,0,10.822-.191,7.654,7.654,0,0,0-.19-10.822A7.654,7.654,0,0,0,136.815-577.491Zm-3.8-9.5a17.491,17.491,0,0,1,4.266-1.853l.879-4.222,7.133-.125,1.027,4.188a17.477,17.477,0,0,1,4.328,1.7l3.606-2.363,5.133,4.956-2.235,3.685A17.447,17.447,0,0,1,159-576.759l4.222.879.125,7.134-4.189,1.027a17.491,17.491,0,0,1-1.7,4.328l2.363,3.6-4.955,5.133-3.685-2.235a17.446,17.446,0,0,1-4.267,1.854l-.879,4.222-7.133.125-1.027-4.188a17.493,17.493,0,0,1-4.328-1.7l-3.605,2.364-5.133-4.956,2.235-3.685a17.469,17.469,0,0,1-1.854-4.266L120.967-568l-.125-7.134,4.189-1.027a17.51,17.51,0,0,1,1.7-4.328l-2.363-3.6,4.955-5.133,3.686,2.234" transform="translate(-43.65 593.195)" fill="#f3f2f1"/>
        <path id="path40" d="M550.548-481.495a10.351,10.351,0,0,0,.257,14.636,10.351,10.351,0,0,0,14.636-.258,10.351,10.351,0,0,0-.257-14.636,10.351,10.351,0,0,0-14.636.258m-5.143-12.852a23.625,23.625,0,0,1,5.768-2.508l1.188-5.71,9.648-.169,1.388,5.664a23.622,23.622,0,0,1,5.854,2.3l4.876-3.2,6.941,6.7-3.022,4.985a23.631,23.631,0,0,1,2.508,5.77l5.708,1.188.17,9.647-5.665,1.389a23.649,23.649,0,0,1-2.3,5.853l3.2,4.876-6.7,6.942-4.984-3.022a23.681,23.681,0,0,1-5.77,2.507l-1.188,5.71-9.648.169-1.388-5.665a23.635,23.635,0,0,1-5.853-2.3l-4.876,3.2-6.942-6.7,3.022-4.984a23.568,23.568,0,0,1-2.507-5.77l-5.711-1.189-.169-9.647,5.665-1.389a23.678,23.678,0,0,1,2.3-5.853l-3.2-4.876,6.7-6.942,4.985,3.023" transform="translate(-123.753 575.439)" fill="#d4efee"/>
        <path id="path44" d="M406.358-16.992h87.959a2.9,2.9,0,0,0,2.89-3.1l-4.39-62.25a2.9,2.9,0,0,0-2.886-2.693l-80.749-.115a2.9,2.9,0,0,0-2.9,2.766l-2.82,62.364a2.9,2.9,0,0,0,2.894,3.028" transform="translate(-99.122 493.476)" fill="#17282f"/>
        <path id="path46" d="M422.1-16.963c.136,0,.245-15.233.245-34.019S422.24-85,422.1-85s-.245,15.23-.245,34.022.11,34.019.245,34.019" transform="translate(-102.734 493.447)" fill="#33535f"/>
        <path id="path48" d="M423.46-83.293a1.177,1.177,0,0,0,.132.248l.43.7,1.7,2.673c1.5,2.306,3.667,5.644,6.6,9.6a76.006,76.006,0,0,0,11.678,12.73,49.987,49.987,0,0,0,8.442,5.77A27.3,27.3,0,0,0,462.9-48.292a23.7,23.7,0,0,0,10.8-1.871,35.152,35.152,0,0,0,8.792-5.232,38.358,38.358,0,0,0,10.5-13.638A36.242,36.242,0,0,0,496.1-80.24c.06-.687.13-1.294.159-1.824q.01-.781.017-1.341v-.824a1.2,1.2,0,0,0-.017-.281,1.232,1.232,0,0,0-.033.281c-.013.212-.029.482-.048.821q-.027.558-.064,1.334c-.044.526-.129,1.131-.2,1.811a37.305,37.305,0,0,1-3.233,11.085,38.376,38.376,0,0,1-10.467,13.432,34.874,34.874,0,0,1-8.688,5.137,23.29,23.29,0,0,1-10.58,1.827,26.915,26.915,0,0,1-10.282-3.214,50,50,0,0,1-8.376-5.691,77.451,77.451,0,0,1-11.691-12.592c-2.958-3.919-5.171-7.225-6.715-9.5L424.1-82.4c-.194-.278-.348-.5-.469-.676a1.178,1.178,0,0,0-.175-.221" transform="translate(-103.048 493.35)" fill="#33535f"/>
        <path id="path50" d="M468.749-40.363a4.036,4.036,0,0,0,4.037,4.036,4.036,4.036,0,0,0,4.037-4.036,4.037,4.037,0,0,0-4.037-4.037,4.037,4.037,0,0,0-4.037,4.037" transform="translate(-111.937 485.477)" fill="#33535f"/>
        <path id="path52" d="M438.741-101.387a10.75,10.75,0,0,1,6.354-2.371,28.511,28.511,0,0,1,16.432,3.342c4.828,2.741,8.38,7.308,10.74,12.332L469.1-84.764A21,21,0,0,0,460.415-97.5a19.881,19.881,0,0,0-14.577-3.474,10.691,10.691,0,0,0-3.962,1.362c-2.074,1.451-2.392,3.139-2.025,5.292a11.738,11.738,0,0,0,2.7,6.274l-5.214.122a26.593,26.593,0,0,1-1.141-7.01,8.959,8.959,0,0,1,2.543-6.449" transform="translate(-105.548 497.154)" fill="#17282f"/>
        <path id="path54" d="M321.329-27.847H287.982V-40.985h33.347v13.138" transform="translate(-76.456 484.807)" fill="#fafaf9"/>
        <path id="path56" d="M390.98-41.04H286.254v-2.752H390.98v2.752" transform="translate(-76.117 485.358)" fill="#33535f"/>
        <path id="path58" d="M391.1-22.616H286.858v-2.752H391.1v2.752" transform="translate(-76.236 481.742)" fill="#33535f"/>
        <path id="path60" d="M329.473-42.977l.158,16.38h69.833v-16.38H329.473" transform="translate(-84.6 485.198)" fill="#33535f"/>
        <path id="path62" d="M348.746-33.8a3.934,3.934,0,0,1-3.775,4.077A3.934,3.934,0,0,1,341.2-33.8a3.934,3.934,0,0,1,3.774-4.076,3.934,3.934,0,0,1,3.775,4.076" transform="translate(-86.901 484.198)" fill="#17282f"/>
        <path id="path64" d="M344.828-37.436a3.353,3.353,0,0,0-3.188,3.49,3.354,3.354,0,0,0,3.188,3.492,3.356,3.356,0,0,0,3.189-3.492A3.354,3.354,0,0,0,344.828-37.436Zm0,8.153a4.525,4.525,0,0,1-4.36-4.663,4.524,4.524,0,0,1,4.36-4.661,4.523,4.523,0,0,1,4.36,4.661,4.524,4.524,0,0,1-4.36,4.663" transform="translate(-86.758 484.34)" fill="#dadbd8"/>
        <path id="path66" d="M318.88-28.721c0,.168-6.852.306-15.3.306s-15.3-.137-15.3-.306,6.85-.3,15.3-.3,15.3.136,15.3.3" transform="translate(-76.514 482.46)" fill="#17282f"/>
        <path id="path68" d="M318.88-31.569c0,.17-6.852.306-15.3.306s-15.3-.136-15.3-.306,6.85-.3,15.3-.3,15.3.136,15.3.3" transform="translate(-76.514 483.019)" fill="#17282f"/>
        <path id="path70" d="M318.88-34.416c0,.168-6.852.305-15.3.305s-15.3-.137-15.3-.305,6.85-.306,15.3-.306,15.3.137,15.3.306" transform="translate(-76.514 483.578)" fill="#17282f"/>
        <path id="path72" d="M318.88-37.264c0,.168-6.852.306-15.3.306s-15.3-.137-15.3-.306,6.85-.3,15.3-.3,15.3.136,15.3.3" transform="translate(-76.514 484.136)" fill="#17282f"/>
        <path id="path74" d="M399.235-29.877H367.766v-8.766h31.469v8.766" transform="translate(-92.116 484.347)" fill="#fff"/>
        <path id="path76" d="M373.79-30.55a10.273,10.273,0,0,1-.3-3.492,10.273,10.273,0,0,1,.3-3.492,10.267,10.267,0,0,1,.305,3.492,10.267,10.267,0,0,1-.305,3.492" transform="translate(-93.239 484.13)" fill="#dadbd8"/>
        <path id="path78" d="M378.967-30.55a10.262,10.262,0,0,1-.305-3.492,10.262,10.262,0,0,1,.305-3.492,10.26,10.26,0,0,1,.305,3.492,10.26,10.26,0,0,1-.305,3.492" transform="translate(-94.255 484.13)" fill="#dadbd8"/>
        <path id="path80" d="M384.144-30.55a10.263,10.263,0,0,1-.305-3.492,10.263,10.263,0,0,1,.305-3.492,10.258,10.258,0,0,1,.306,3.492,10.258,10.258,0,0,1-.306,3.492" transform="translate(-95.271 484.13)" fill="#dadbd8"/>
        <path id="path82" d="M389.322-30.55a10.258,10.258,0,0,1-.305-3.492,10.258,10.258,0,0,1,.305-3.492,10.265,10.265,0,0,1,.305,3.492,10.265,10.265,0,0,1-.305,3.492" transform="translate(-96.287 484.13)" fill="#dadbd8"/>
        <path id="path84" d="M394.5-30.55a10.266,10.266,0,0,1-.305-3.492,10.266,10.266,0,0,1,.305-3.492,10.26,10.26,0,0,1,.305,3.492,10.26,10.26,0,0,1-.305,3.492" transform="translate(-97.304 484.13)" fill="#dadbd8"/>
        <path id="path86" d="M399.676-30.55a10.258,10.258,0,0,1-.305-3.492,10.258,10.258,0,0,1,.305-3.492,10.264,10.264,0,0,1,.305,3.492,10.264,10.264,0,0,1-.305,3.492" transform="translate(-98.32 484.13)" fill="#dadbd8"/>
        <path id="path88" d="M326.841-6.6H293.5V-19.74h33.346V-6.6" transform="translate(-77.539 480.637)" fill="#fafaf9"/>
        <path id="path90" d="M396.493-19.795H291.766v-2.752H396.493v2.752" transform="translate(-77.199 481.188)" fill="#f2575d"/>
        <path id="path92" d="M396.611-1.371H292.37V-4.123H396.611v2.752" transform="translate(-77.318 477.572)" fill="#f2575d"/>
        <path id="path94" d="M334.984-21.731l.158,16.38h69.833v-16.38H334.984" transform="translate(-85.682 481.028)" fill="#f2575d"/>
        <path id="path96" d="M354.258-12.557a3.934,3.934,0,0,1-3.775,4.076,3.934,3.934,0,0,1-3.774-4.076,3.934,3.934,0,0,1,3.774-4.076,3.934,3.934,0,0,1,3.775,4.076" transform="translate(-87.983 480.027)" fill="#17282f"/>
        <path id="path98" d="M350.34-16.19a3.354,3.354,0,0,0-3.189,3.49,3.354,3.354,0,0,0,3.189,3.49,3.354,3.354,0,0,0,3.189-3.49A3.354,3.354,0,0,0,350.34-16.19Zm0,8.152a4.524,4.524,0,0,1-4.36-4.662,4.523,4.523,0,0,1,4.36-4.662A4.523,4.523,0,0,1,354.7-12.7a4.524,4.524,0,0,1-4.36,4.662" transform="translate(-87.84 480.17)" fill="#dadbd8"/>
        <path id="path100" d="M324.393-7.475c0,.168-6.852.3-15.3.3s-15.3-.136-15.3-.3,6.851-.306,15.3-.306,15.3.137,15.3.306" transform="translate(-77.596 478.29)" fill="#17282f"/>
        <path id="path102" d="M324.393-10.322c0,.168-6.852.305-15.3.305s-15.3-.137-15.3-.305,6.851-.3,15.3-.3,15.3.136,15.3.3" transform="translate(-77.596 478.848)" fill="#17282f"/>
        <path id="path104" d="M324.393-13.169c0,.168-6.852.3-15.3.3s-15.3-.136-15.3-.3,6.851-.306,15.3-.306,15.3.137,15.3.306" transform="translate(-77.596 479.407)" fill="#17282f"/>
        <path id="path106" d="M324.393-16.017c0,.168-6.852.3-15.3.3s-15.3-.136-15.3-.3,6.851-.306,15.3-.306,15.3.137,15.3.306" transform="translate(-77.596 479.966)" fill="#17282f"/>
        <path id="path108" d="M404.747-8.631H373.278V-17.4h31.469v8.767" transform="translate(-93.198 480.177)" fill="#fff"/>
        <path id="path110" d="M379.3-9.3A10.282,10.282,0,0,1,379-12.8a10.27,10.27,0,0,1,.3-3.492,10.227,10.227,0,0,1,.305,3.492A10.239,10.239,0,0,1,379.3-9.3" transform="translate(-94.321 479.96)" fill="#dadbd8"/>
        <path id="path112" d="M384.479-9.3a10.289,10.289,0,0,1-.3-3.492,10.277,10.277,0,0,1,.3-3.492,10.219,10.219,0,0,1,.306,3.492,10.231,10.231,0,0,1-.306,3.492" transform="translate(-95.337 479.96)" fill="#dadbd8"/>
        <path id="path114" d="M389.657-9.3a10.28,10.28,0,0,1-.3-3.492,10.268,10.268,0,0,1,.3-3.492,10.26,10.26,0,0,1,.305,3.492,10.272,10.272,0,0,1-.305,3.492" transform="translate(-96.353 479.96)" fill="#dadbd8"/>
        <path id="path116" d="M394.834-9.3a10.287,10.287,0,0,1-.3-3.492,10.276,10.276,0,0,1,.3-3.492,10.253,10.253,0,0,1,.306,3.492,10.265,10.265,0,0,1-.306,3.492" transform="translate(-97.369 479.96)" fill="#dadbd8"/>
        <path id="path118" d="M400.011-9.3a10.28,10.28,0,0,1-.3-3.492,10.268,10.268,0,0,1,.3-3.492,10.259,10.259,0,0,1,.305,3.492,10.271,10.271,0,0,1-.305,3.492" transform="translate(-98.386 479.96)" fill="#dadbd8"/>
        <path id="path120" d="M405.189-9.3a10.286,10.286,0,0,1-.3-3.492,10.274,10.274,0,0,1,.3-3.492,10.252,10.252,0,0,1,.305,3.492,10.264,10.264,0,0,1-.305,3.492" transform="translate(-99.402 479.96)" fill="#dadbd8"/>
        <path id="path128" d="M446.568-481.76H419.286l-79.609,47.912c.3.448,9.694,7.243,21.968,16.019L246.363-205.564l-96.48-42.611L64.453-94.634h46.681L170-202.157l88.538,41.014,37.53,4.48,101.6-235.546c12.766,9.051,22.573,15.98,22.573,15.98h27.281s-7.956-66.774-7.956-67.3,7.005-38.226,7.005-38.226" transform="translate(-32.582 571.322)" fill="#00cec9"/>
        <path id="path130" d="M92.072-33.265H64.453l44.744-80.42,16.73,12.018L167.309-169.1,92.072-33.265" transform="translate(-32.582 509.954)" fill="#00908c"/>
        <path id="path132" d="M327.221-98.5l-37.53-4.479L228.153-131.49l-4.968-2.3L228.771-144,327.222-98.5h0m-22.084-48.9-22.128-10.111.154-.284a54.073,54.073,0,0,0,13.295,2.045,14.388,14.388,0,0,0,5.824-.963c8.378-3.88,21.172-27.024,21.172-27.024h0l2.346-1.709L305.137-147.4" transform="translate(-63.738 513.163)" fill="#00908c"/>
        <path id="path134" d="M382.235-290.04h0c12.322-26.552,23.639-54.777,21.006-64.315-1.316-4.767-4.3-8.071-7.71-11.02l28.489-52.455h0c-12.274-8.775-21.67-15.571-21.968-16.019L481.66-481.76h27.281s-1.677,9.023-3.391,18.3c-1.787,9.688-3.615,19.654-3.615,19.924h0c0,.53,7.956,67.3,7.956,67.3H482.611l-4.3-3.044,18.945-35.182-36.914-19.392-78.1,143.809" transform="translate(-94.956 571.322)" fill="#00908c"/>
        <path id="path136" d="M98.817-82.933,184.588-237.79l96.139,43.927L404.709-422.147l36.914,19.392L302.811-144.963,204.36-190.456,145.5-82.933H98.817" transform="translate(-39.327 559.621)" fill="#00cec9"/>
        <path id="path138" d="M440.834-433.848c.879,1.318,80.561,57.618,80.561,57.618l-.951-105.53-79.61,47.912" transform="translate(-106.458 571.322)" fill="#00cec9"/>
        <path id="path140" d="M434.171-422.215c0,.154-6.107.279-13.64.279s-13.641-.124-13.641-.279,6.106-.28,13.641-.28,13.64.125,13.64.28" transform="translate(-99.796 559.69)" fill="#17282f"/>
        <path id="path142" d="M460.689-401.731c0,.154-6.107.28-13.64.28s-13.641-.125-13.641-.28,6.106-.279,13.641-.279,13.64.124,13.64.279" transform="translate(-105.001 555.669)" fill="#17282f"/>
        <path id="path144" d="M211.955-285.389s-1.655.72-1.914-1.491,4.348-6.812,5.821-8.273,3.579-1.148,5.447-.732,9.518,1.187,12.055,2.816,6.422,9.8,7.232,10.188,24.671,1.632,24.671,1.632l-1.027,19.556s-23.419-4.462-28.057-7.363-4.028-4.056-5.347-6.763S228.1-281.4,228.1-281.4l-2.191-.363-3.515,1.94s-.415,4.964-3.893,4.838l-1.7-.9s-1.138,1.315-2.434-.718-1.05-2.412-1.05-2.412-1.363,1.687-2.837-.405,1.478-5.973,1.478-5.973" transform="translate(-61.156 534.907)" fill="#f9a78d"/>
        <path id="path146" d="M239.769-275.9c0,.015-.085.043-.258.082a3.5,3.5,0,0,1-.778.076,5.584,5.584,0,0,1-2.808-.8,7.474,7.474,0,0,1-2.974-3.3,14.333,14.333,0,0,1-1.234-5.479l.379.23a14.02,14.02,0,0,1-5.352,1.26,13.947,13.947,0,0,1-3.933-.414,3.44,3.44,0,0,1-1.8-.836.9.9,0,0,1-.061-1.151,1.9,1.9,0,0,1,.843-.542c2.148-.87,4.121-1.549,5.8-2.059s3.049-.858,4-1.075a7.4,7.4,0,0,1,1.5-.266,8.652,8.652,0,0,1-1.444.476c-.934.281-2.287.683-3.937,1.24s-3.6,1.268-5.72,2.158a1.5,1.5,0,0,0-.62.383.362.362,0,0,0,.047.49,3.068,3.068,0,0,0,1.526.652,13.636,13.636,0,0,0,3.78.386,13.73,13.73,0,0,0,5.149-1.19l.361-.163.017.393a14.238,14.238,0,0,0,1.115,5.31,7.281,7.281,0,0,0,2.734,3.205,5.8,5.8,0,0,0,2.639.907c.66.047,1.023-.02,1.03.022" transform="translate(-63.265 533.718)" fill="#6f3430"/>
        <path id="path148" d="M226-289.133a3.382,3.382,0,0,1-2.253.438c-.71-.008-1.547-.129-2.433-.07a3.352,3.352,0,0,0-2.442,1.228,12.977,12.977,0,0,1-4.49,3.234,5.594,5.594,0,0,1-2.212.608c-.025-.088.81-.335,2.045-.964a14.826,14.826,0,0,0,4.255-3.265,4.277,4.277,0,0,1,1.305-1.008,3.89,3.89,0,0,1,1.509-.345,19.074,19.074,0,0,1,2.486.189,10.928,10.928,0,0,0,2.229-.044" transform="translate(-61.576 533.543)" fill="#6f3430"/>
        <path id="path150" d="M221.41-282.613a9.3,9.3,0,0,1-3.041,4.119,9.312,9.312,0,0,1-4.534,2.382,41.185,41.185,0,0,0,4.171-2.806,41.051,41.051,0,0,0,3.4-3.7" transform="translate(-61.903 532.234)" fill="#6f3430"/>
        <path id="path152" d="M223.169-278.882a6.826,6.826,0,0,1-1.571,3.831,6.823,6.823,0,0,1-3.177,2.656c-.1-.14,1.424-1.183,2.726-2.987,1.325-1.785,1.86-3.549,2.022-3.5" transform="translate(-62.802 531.502)" fill="#6f3430"/>
        <path id="path154" d="M300.078-330.163l-21.352,38.529-33.141-.571-2.49,19.9,34.2,8.385,14.08-15.461,8.7-50.784" transform="translate(-67.646 541.567)" fill="#dadbd8"/>
        <path id="path156" d="M290.088-275.689c-.165.015-.371-1.569-1.111-3.358-.722-1.8-1.681-3.074-1.553-3.178a6.187,6.187,0,0,1,2.069,2.967,6.18,6.18,0,0,1,.595,3.57" transform="translate(-76.345 532.159)" fill="#17282f"/>
        <path id="path158" d="M322.563-421.927a5.761,5.761,0,0,1-6.144-4.231,5.759,5.759,0,0,1,3.592-6.538,5.946,5.946,0,0,1-1.121-6.679,5.946,5.946,0,0,1,5.985-3.168,7.063,7.063,0,0,1,3.506-5.862,7.063,7.063,0,0,1,6.831,0,7.786,7.786,0,0,1,9.581-.368,5.7,5.7,0,0,1,5.97,2.781,5.694,5.694,0,0,1-.912,6.523" transform="translate(-82.012 565.137)" fill="#17282f"/>
        <path id="path160" d="M347.146-441.614l-1.223.025a23.6,23.6,0,0,0-23.1,22.152c-.7,11.417-1.323,24.04-1.13,30.153.4,12.659,13.1,14.383,13.1,14.383l-.776,15.233,1.5,11.612,29.21-13.159,1.65-55.226c.879-13.169-6.052-24.658-19.241-25.172" transform="translate(-83.067 563.442)" fill="#f9a78d"/>
        <path id="path162" d="M337.857-359.893a30.715,30.715,0,0,0,16.5-5.178s-3.924,9.805-16.581,8.91l.084-3.731" transform="translate(-86.23 548.419)" fill="#6f3430"/>
        <path id="path164" d="M328.224-398.371A1.808,1.808,0,0,0,330-396.58a1.728,1.728,0,0,0,1.831-1.666,1.808,1.808,0,0,0-1.777-1.792,1.731,1.731,0,0,0-1.834,1.667" transform="translate(-84.355 555.282)" fill="#17282f"/>
        <path id="path166" d="M326.638-406.86c.228.231,1.578-.809,3.524-.841,1.943-.061,3.391.913,3.6.671.1-.108-.135-.529-.765-.97a4.961,4.961,0,0,0-2.886-.828,4.764,4.764,0,0,0-2.8.963c-.589.471-.783.9-.671,1.005" transform="translate(-84.038 557.008)" fill="#17282f"/>
        <path id="path168" d="M348.728-398.873a1.808,1.808,0,0,0,1.779,1.79,1.729,1.729,0,0,0,1.831-1.666,1.809,1.809,0,0,0-1.777-1.792,1.731,1.731,0,0,0-1.833,1.668" transform="translate(-88.38 555.381)" fill="#17282f"/>
        <path id="path170" d="M350.445-406.869c.228.231,1.581-.809,3.526-.841,1.943-.06,3.391.913,3.6.67.1-.107-.133-.528-.765-.969a4.958,4.958,0,0,0-2.886-.828,4.774,4.774,0,0,0-2.8.963c-.587.47-.783.9-.671,1.005" transform="translate(-88.711 557.009)" fill="#17282f"/>
        <path id="path172" d="M340.8-392.227a12.825,12.825,0,0,0-3.172-.509c-.5-.042-.97-.132-1.06-.469a2.521,2.521,0,0,1,.3-1.479q.665-1.816,1.4-3.813c1.936-5.426,3.328-9.884,3.109-9.96s-1.966,4.26-3.9,9.686q-.7,2.008-1.333,3.833a2.875,2.875,0,0,0-.221,1.956,1.247,1.247,0,0,0,.832.71,3.355,3.355,0,0,0,.845.1,12.683,12.683,0,0,0,3.2-.057" transform="translate(-85.844 556.934)" fill="#17282f"/>
        <path id="path174" d="M348.166-416.191c.266.488,1.923-.079,3.975-.185,2.049-.152,3.787.2,3.965-.315.076-.246-.3-.681-1.045-1.063a6.161,6.161,0,0,0-3.093-.587,5.938,5.938,0,0,0-2.956.969c-.673.47-.965.948-.847,1.182" transform="translate(-88.264 558.877)" fill="#17282f"/>
        <path id="path176" d="M326.32-416.872c.418.434,2.015-.056,3.946-.115,1.929-.116,3.573.227,3.94-.242.161-.227-.106-.665-.828-1.069a6.293,6.293,0,0,0-3.224-.662,6.19,6.19,0,0,0-3.131.949c-.673.467-.888.927-.7,1.139" transform="translate(-83.969 558.997)" fill="#17282f"/>
        <path id="path178" d="M324.476-425.637s3.186-7.994,6.974-9.919c4.585-2.33,6.677,2.712,11.064,1.394s8.765-3.555,13.339-.231c5.008,3.637,2.747,6.3,3.16,11.913,1.677,22.754,5.961,29.115,6.937,18.363.107-1.179,3.351-2.176,3.739-7.152.5-6.452.6-14.276-.928-18.819-1.286-3.828-3.534-6.447-7.529-9.305-6.307-4.512-14.848-4.445-20.636-3.75s-16.84,7.586-16.119,17.505" transform="translate(-83.613 563.811)" fill="#17282f"/>
        <path id="path180" d="M375.029-395.738a3.437,3.437,0,0,1,3.647-3.384c2.366.179,5.019,1.468,4.958,6.352-.109,8.662-8.783,6.766-8.795,6.518-.009-.169.111-5.861.19-9.485" transform="translate(-93.505 555.104)" fill="#e28b70"/>
        <path id="path182" d="M377.233-388.8c.039-.028.15.107.4.227a1.506,1.506,0,0,0,1.127.037c.919-.324,1.708-1.767,1.77-3.328a4.981,4.981,0,0,0-.4-2.165,1.747,1.747,0,0,0-1.12-1.173.768.768,0,0,0-.9.4c-.12.24-.066.414-.113.429-.025.021-.184-.148-.11-.5a.966.966,0,0,1,.348-.538,1.131,1.131,0,0,1,.837-.21,2.121,2.121,0,0,1,1.559,1.362,5.13,5.13,0,0,1,.493,2.421c-.077,1.746-.991,3.367-2.248,3.713a1.612,1.612,0,0,1-1.377-.247c-.266-.216-.309-.411-.279-.427" transform="translate(-93.973 554.418)" fill="#6f3430"/>
        <path id="path184" d="M366.025-421.927a8.211,8.211,0,0,1-3.634,1.764,2.823,2.823,0,0,1-3.171-1.925c-.115-.6.019-1.3-.386-1.761-.483-.547-1.352-.356-2.077-.265-2.512.315-5.506-2.407-6.194-4.844a2.26,2.26,0,0,1-3.008.684,8.106,8.106,0,0,1-2.122-1.813,3.562,3.562,0,0,0-3-1.43,8.572,8.572,0,0,1-1.875.452c-1.139-.079-1.72-1.4-1.914-2.525s-.353-2.439-1.328-3.034c-.9-.551-2.053-.2-3.1-.026s-2.4-.045-2.688-1.063a2.056,2.056,0,0,1,.357-1.578,5.608,5.608,0,0,1,6.578-2.251,7.79,7.79,0,0,1,6.384-5.525,7.791,7.791,0,0,1,7.549,3.783,7.842,7.842,0,0,1,6.862-1.941,7.846,7.846,0,0,1,5.521,4.514,5.729,5.729,0,0,1,5.879,1.868,5.73,5.73,0,0,1,.581,6.142,5.307,5.307,0,0,1,3,4.17c.067,1.792-1.644,3.61-3.382,3.173a3.211,3.211,0,0,1-1.142,4.092,3.211,3.211,0,0,1-4.152-.9" transform="translate(-84.995 564.523)" fill="#17282f"/>
        <path id="path186" d="M339.433-436.992a.474.474,0,0,0,.005.159c.014.1.023.262.064.461a5.433,5.433,0,0,0,.66,1.657,6.21,6.21,0,0,0,1.96,2.009,5.769,5.769,0,0,0,3.565.942l-.15-.189a3.131,3.131,0,0,0,.22,2.386,8.948,8.948,0,0,0,1.523,2.1,6.416,6.416,0,0,0,.988.975,3.035,3.035,0,0,0,1.382.482,3.161,3.161,0,0,0,2.767-1.052l-.326-.087a6.5,6.5,0,0,0,2.841,4.44,4.742,4.742,0,0,0,2.861.877,8.546,8.546,0,0,0,2.789-.67l-.234-.1a6.832,6.832,0,0,0,2.1,2.632,3.634,3.634,0,0,0,3.033.763,4.771,4.771,0,0,0,3.6-3.8l-.194.1a4.467,4.467,0,0,0,2.983.379,4.855,4.855,0,0,0,2.056-.966,4.186,4.186,0,0,0,.947-1.077,2.041,2.041,0,0,0,.21-.451,5.193,5.193,0,0,1-1.247,1.413,4.817,4.817,0,0,1-2.007.875,4.274,4.274,0,0,1-2.816-.407l-.164-.088-.03.183a4.5,4.5,0,0,1-3.408,3.526,3.3,3.3,0,0,1-2.752-.724,6.5,6.5,0,0,1-1.975-2.5l-.071-.159-.163.061a8.264,8.264,0,0,1-2.668.638,4.37,4.37,0,0,1-2.642-.817,6.145,6.145,0,0,1-2.687-4.183l-.062-.409-.264.323a2.809,2.809,0,0,1-2.443.929,2.69,2.69,0,0,1-1.225-.418,6.274,6.274,0,0,1-.931-.913,8.787,8.787,0,0,1-1.488-2.009,2.841,2.841,0,0,1-.229-2.159l.066-.208-.218.018a5.565,5.565,0,0,1-3.415-.85,6.166,6.166,0,0,1-1.945-1.9,6.725,6.725,0,0,1-.868-2.19" transform="translate(-86.554 562.535)" fill="#33535f"/>
        <path id="path188" d="M342.7-381.279c.043-.324,2.181.08,4.048-1.459s2.065-3.86,2.367-3.82c.139,0,.318.587.161,1.554a5.42,5.42,0,0,1-1.855,3.212,4.72,4.72,0,0,1-3.367,1.088c-.91-.09-1.394-.429-1.354-.573" transform="translate(-87.196 552.636)" fill="#17282f"/>
        <path id="path190" d="M265.922-251.982l16.488-18.185,13.789-41.67c2.815-7.229,5.231-16.409,8.642-23.263a16.2,16.2,0,0,1,7.947-7.559l5.853-2.6,3.5-5.587c-2.017,12.639,15.7,14.195,34.519-1.5,0,0,6.219,4.207,14.983,11.476,3.836,3.183,7.316,6.66,8.767,11.914,2.633,9.537-8.684,37.763-21.006,64.315-3.686,7.944-21.243,43.534-21.243,43.534l-6.319,4.6s-55.869-16.927-60.9-26.2l-5.026-9.278" transform="translate(-72.126 545.92)" fill="#dadbd8"/>
        <path id="path192" d="M277.3-257.333a3.63,3.63,0,0,1,.467-.545l1.42-1.493,5.316-5.442-.046.076,3.639-11.2c1.42-4.231,2.859-8.928,4.314-13.894,2.816-9.737,5.481-18.543,7.943-24.731,1.194-3.106,2.314-5.556,3.1-7.24.4-.791.715-1.427.96-1.915a3.662,3.662,0,0,1,.369-.65,3.808,3.808,0,0,1-.268.7c-.22.5-.507,1.149-.864,1.957-.724,1.708-1.786,4.175-2.93,7.29-2.361,6.206-4.958,15-7.777,24.748-1.453,4.964-2.916,9.68-4.363,13.9-1.418,4.211-2.692,7.993-3.757,11.159l-.016.045-.031.031-5.441,5.318-1.493,1.42a3.547,3.547,0,0,1-.545.467" transform="translate(-74.36 540.429)" fill="#17282f"/>
        <path id="path194" d="M331.5-327.73,312.18-248.515l-20.07,9.982v-19.378l34.731-71.541,4.662,1.721" transform="translate(-77.267 541.427)" fill="#5500a2"/>
        <path id="path196" d="M341.656-216.446a31.9,31.9,0,0,1-12.557-2.847c-5.369-2.333-10.205-5.71-15.044-9l-.254-.174,2.637-1.312,1.033-4.233,41.722,6.478c-1.888,5.54-7.243,9.455-12.975,10.638a22.54,22.54,0,0,1-4.561.453" transform="translate(-81.524 522.695)" fill="#8f9192"/>
        <path id="path198" d="M310.138-229.179c-4.757-3.234-9.613-6.418-15-8.443l18.667,2.9-1.033,4.233-2.637,1.312" transform="translate(-77.862 523.403)" fill="#cc4341"/>
        <path id="path200" d="M331.515-347.3l4.939-7.562,1.94,10.362,4.922-5.569,24.42-11.425,4.239,9.079-26.982,15.956-7.484-.558-5.457-6.476-.537-3.806" transform="translate(-85.001 547.717)" fill="#dadbd8"/>
        <path id="path202" d="M331.5-344.094a6.958,6.958,0,0,1,.37,1.562l.828,3.993-.488-.073,1.329-2.434c.737-1.305,1.428-2.529,2.058-3.641l.264-.467.175.5c.433,1.235.663,2.276.858,3a4.576,4.576,0,0,1,.247,1.157,3.14,3.14,0,0,1-.519-1.072c-.274-.7-.578-1.738-1.039-2.911l.438.03c-.61,1.123-1.279,2.36-1.993,3.677-.474.845-.929,1.657-1.357,2.419l-.35.625-.138-.7a22.845,22.845,0,0,1-.683-5.665" transform="translate(-84.991 544.509)" fill="#17282f"/>
        <path id="path204" d="M340.068-339.174l-3.109-.379c-.842.946-2.9,2.9-3.744,3.843l.006.087q.551,3.111,1.1,6.22a20.278,20.278,0,0,1,5.188.417L342.371-334l-2.3-5.173" transform="translate(-85.335 543.41)" fill="#5500a2"/>
        <path id="path206" d="M343.823-197.323a30.248,30.248,0,0,1-2.508-2.429,82.366,82.366,0,0,0-6.26-5.589,82.5,82.5,0,0,0-6.822-4.891,30.04,30.04,0,0,1-2.918-1.916,3.085,3.085,0,0,1,.871.361c.545.261,1.316.676,2.253,1.218a57.87,57.87,0,0,1,6.966,4.791,57.94,57.94,0,0,1,6.194,5.75c.734.8,1.307,1.456,1.681,1.932a3.075,3.075,0,0,1,.543.772" transform="translate(-83.784 518.404)" fill="#17282f"/>
        <path id="path208" d="M342.043-338.7l3.452-1.7,1.169,6.043-2.874.255-1.747-4.6" transform="translate(-87.067 543.577)" fill="#5500a2"/>
        <path id="path210" d="M345.751-330.511v-3.319l1.737.13.028.171.257-.149h.014l1.005-.595,22.4-13.041-25.438,16.8" transform="translate(-87.795 544.933)" fill="#8f9192"/>
        <path id="path212" d="M347.787-332.915h-.014l1.019-.594-1.005.595m-.3-.022-1.737-.13v-1.741l1.407-.125.33,2m-1.737-7.827v-2.665l.408,2.464-.408.2" transform="translate(-87.795 544.171)" fill="#8f9192"/>
        <path id="path214" d="M345.751-334.207v-5.956l.408-.2,1,6.032-1.407.125" transform="translate(-87.795 543.569)" fill="#3c0072"/>
        <path id="path216" d="M373.9-350.2a11.871,11.871,0,0,1-1.479,1.117c-.983.675-2.422,1.629-4.249,2.727-3.633,2.234-8.849,4.969-14.471,8.2-2.376,1.378-4.617,2.764-6.634,4.131l-.334.226-.073-.394c-.772-4.178-1.441-7.8-1.945-10.532l.286.09-2.684,2.5a6.935,6.935,0,0,1-1,.847,7.059,7.059,0,0,1,.873-.977q.988-1.006,2.574-2.616l.223-.226.064.316,2.126,10.5-.407-.167c2.02-1.393,4.268-2.8,6.653-4.179,5.642-3.241,10.877-5.915,14.551-8.055,1.847-1.052,3.313-1.952,4.33-2.57a11.66,11.66,0,0,1,1.6-.934" transform="translate(-86.924 545.5)" fill="#17282f"/>
        <path id="path218" d="M337-338.968l-1.426-3.494-2.354,4.326,1.008,1.568,2.772-2.4" transform="translate(-85.335 543.981)" fill="#5500a2"/>
        <path id="path220" d="M341.141-338.745c.12.111-1.583,2.08-3.413,4.7s-3.11,4.887-3.256,4.812a18.508,18.508,0,0,1,2.8-5.132,18.53,18.53,0,0,1,3.87-4.381" transform="translate(-85.579 543.252)" fill="#17282f"/>
        <path id="path222" d="M339.353-326.521a7.883,7.883,0,0,1-2.634-.263,7.827,7.827,0,0,1-2.573-.615,5.551,5.551,0,0,1,2.666.065,5.551,5.551,0,0,1,2.541.812" transform="translate(-85.517 541.047)" fill="#17282f"/>
        <path id="path224" d="M177.123-279.014h0l-16.1-45.5a1.75,1.75,0,0,1,1.3-2.233l37.185-9.713a1.853,1.853,0,0,1,2.158,1.228l16.92,51.256L271.06-249.51l-2.522,2.574-13.424-3.272-77.991-28.806" transform="translate(-51.521 542.811)" fill="#33535f"/>
        <path id="path226" d="M277.7-246.741a1.315,1.315,0,0,1-.271-.149l-.766-.483c-.7-.459-1.674-1.1-2.912-1.905L263.1-256.37l-35.022-23.574c-.953-.643-1.9-1.283-2.779-1.879l-.079-.054-.029-.089c-4.942-14.912-9.37-28.269-12.577-37.945-1.565-4.8-2.829-8.683-3.717-11.41-.417-1.317-.746-2.353-.982-3.1-.1-.331-.179-.6-.242-.809a1.153,1.153,0,0,1-.064-.282,1.2,1.2,0,0,1,.117.264c.077.208.173.468.293.793l1.078,3.067c.927,2.713,2.249,6.579,3.881,11.354,3.249,9.662,7.734,23,12.742,37.89l-.108-.143,2.779,1.879L263.317-256.7l10.552,7.239,2.853,1.992.734.529a1.325,1.325,0,0,1,.24.2" transform="translate(-60.68 542.616)" fill="#17282f"/>
        <path id="path228" d="M189.058-266.571c-.006-.154,7.306-.625,16.333-1.051s16.352-.647,16.359-.493-7.3.624-16.334,1.051-16.351.647-16.358.493" transform="translate(-57.04 529.398)" fill="#17282f"/>
        <path id="path230" d="M195.387-299.269c.647,2.064.283,4.016-.813,4.36s-2.512-1.049-3.16-3.112-.284-4.017.813-4.36,2.512,1.049,3.16,3.112" transform="translate(-57.439 536.124)" fill="#dadbd8"/>
        <path id="path232" d="M252.967-280.277s-1.389.69-1.605-1.525c-.192-1.965,4.524-4.875,6.289-5.966s5.488-.342,7.387-.094c2.565.333,8.542,3.009,10.442,5.288,1.93,2.316,3.253,8.239,3.955,8.8s24.462,9.908,24.462,9.908l-5.408,18.822s-21.811-9.628-25.675-13.5-3.011-4.86-3.685-7.794-1.406-6.052-1.406-6.052l-2.053-.849-3.862,1.1a8.483,8.483,0,0,1-1.467,2.614,3.026,3.026,0,0,1-4.537-.055,2.344,2.344,0,0,1-2.916-1.531,4.634,4.634,0,0,1-.11-2.286s-1.756.345-1.769-1.843c-.015-2.349,1.96-5.036,1.96-5.036" transform="translate(-69.199 533.359)" fill="#f9a78d"/>
        <path id="path234" d="M266.493-275.243c0,.093-.8.063-2.02.331a9.7,9.7,0,0,0-4.286,2.145,9.684,9.684,0,0,0-2.667,3.984c-.42,1.178-.491,1.971-.583,1.961a4.269,4.269,0,0,1,.206-2.08,8.921,8.921,0,0,1,2.675-4.284A8.914,8.914,0,0,1,264.4-275.3a4.271,4.271,0,0,1,2.09.057" transform="translate(-70.353 530.813)" fill="#6f3430"/>
        <path id="path236" d="M263.924-280.283c-.01.1-.865-.044-2.173.26a9.729,9.729,0,0,0-4.476,2.56,22.108,22.108,0,0,0-3.181,4.216,9.8,9.8,0,0,1-1.238,1.852,8.143,8.143,0,0,1,.895-2.047,17.569,17.569,0,0,1,3.133-4.419,9.092,9.092,0,0,1,4.791-2.548,3.9,3.9,0,0,1,2.248.126" transform="translate(-69.56 531.817)" fill="#6f3430"/>
        <path id="path238" d="M263.582-285.778c-.011.093-.748-.008-1.89.2a10.208,10.208,0,0,0-4.095,1.837,24.041,24.041,0,0,0-3.346,3.128c-.8.87-1.316,1.4-1.377,1.355a6.265,6.265,0,0,1,1.077-1.611,17.335,17.335,0,0,1,3.317-3.323,9.126,9.126,0,0,1,4.368-1.777,3.485,3.485,0,0,1,1.946.188" transform="translate(-69.564 532.898)" fill="#6f3430"/>
        <path id="path240" d="M371.995-338.91c6.678,1.306,11.027,7.176,12.387,14.514,1.928,10.41-21.937,59.61-26.383,70.351-4.685,11.316-15.05,13.79-21.085,13.65s-48.328-19.977-48.328-19.977l6.2-21.463,37.579,11.158,14.892-41.9" transform="translate(-76.575 543.284)" fill="#dadbd8"/>
        <path id="path242" d="M347.177-312.577s-.07.257-.235.748l-.743,2.177c-.672,1.927-1.651,4.738-2.912,8.351-2.558,7.262-6.25,17.744-10.812,30.691l-.064.182-.185-.055-37.594-11.107.317-.174c-1.977,6.863-4.045,14.041-6.185,21.466l-.145-.319c9.871,4.583,20.437,9.393,31.449,14.028,4.473,1.855,8.905,3.7,13.384,5.13l1.683.482c.561.146,1.118.194,1.674.3a22.883,22.883,0,0,0,3.449-.193,22.793,22.793,0,0,0,6.552-1.857,20.55,20.55,0,0,0,9.6-8.854c1.052-1.891,1.822-3.942,2.714-5.9l2.617-5.82c6.943-15.3,13.1-29.133,17.513-41.045,2.171-5.954,4.054-11.421,4.819-16.393a13.2,13.2,0,0,0,.091-3.593,24.879,24.879,0,0,0-.823-3.257,20.282,20.282,0,0,0-2.569-5.265,14.6,14.6,0,0,0-6.159-5.158,12.94,12.94,0,0,0-2-.7c-.463-.122-.7-.2-.7-.2s.242.04.712.144a11.733,11.733,0,0,1,2.03.648,14.546,14.546,0,0,1,6.292,5.135,20.4,20.4,0,0,1,2.643,5.307,24.909,24.909,0,0,1,.856,3.289,13.41,13.41,0,0,1-.068,3.686c-.745,5.031-2.606,10.51-4.758,16.488-4.374,11.948-10.5,25.806-17.415,41.12l-2.606,5.82c-.886,1.954-1.646,4-2.728,5.953a21.09,21.09,0,0,1-9.835,9.092,23.382,23.382,0,0,1-6.706,1.906,23.408,23.408,0,0,1-3.536.2c-.595-.105-1.214-.164-1.791-.314l-1.716-.491c-4.525-1.44-8.952-3.287-13.435-5.146-11.026-4.64-21.59-9.455-31.463-14.052l-.21-.1.064-.223c2.15-7.422,4.229-14.6,6.216-21.458l.072-.246.245.073,37.565,11.207-.249.126c4.634-12.923,8.383-23.382,10.983-30.63,1.3-3.6,2.317-6.4,3.012-8.316q.519-1.4.8-2.157c.183-.486.29-.729.29-.729" transform="translate(-76.495 543.284)" fill="#17282f"/>
        <path id="path244" d="M349.052-238.271c-.174.031-.749-3.738-2.424-8.09-1.646-4.365-3.724-7.56-3.575-7.652a8.889,8.889,0,0,1,1.457,2.03,33.813,33.813,0,0,1,2.639,5.423,33.854,33.854,0,0,1,1.64,5.8,8.985,8.985,0,0,1,.263,2.485" transform="translate(-87.264 526.62)" fill="#17282f"/>
        <path id="path246" d="M384.661-338.8c.032.1-1.384.553-3.509,1.627a31.162,31.162,0,0,0-3.582,2.137,33.562,33.562,0,0,0-3.934,3.245,33.486,33.486,0,0,0-3.336,3.86,30.937,30.937,0,0,0-2.219,3.532c-1.122,2.1-1.611,3.5-1.707,3.469a3.756,3.756,0,0,1,.268-1.013,20.038,20.038,0,0,1,1.088-2.636,26.828,26.828,0,0,1,2.153-3.652,30.473,30.473,0,0,1,3.364-3.958,30.5,30.5,0,0,1,4.035-3.271,26.67,26.67,0,0,1,3.7-2.067,19.847,19.847,0,0,1,2.662-1.027,3.793,3.793,0,0,1,1.018-.245" transform="translate(-91.842 543.263)" fill="#17282f"/>
        <path id="path248" d="M92.428-171.3,72.119-196.683s78.563-64.724,85.991-69.347c5.625-3.5,17.059-8.15,27.883-4.513s29.146,16.3,35.9,20.4,65.554,40.527,71.91,49.437c0,0-12.794,23.144-21.172,27.024-6.562,3.039-25.478-1.5-36.53-8.217s-61.76-50.146-61.76-50.146L92.428-171.3" transform="translate(-34.087 530.124)" fill="#17282f"/>
        <path id="path250" d="M106.8-134.667l27.437,19.709,52.8-86.049,53.314,24.293-35.849-59.9s-28.912.34-33.457-.171c-5.83-.655-16.473,8.546-22.283,19.78-5.049,9.764-41.964,82.335-41.964,82.335" transform="translate(-40.895 523.245)" fill="#17282f"/>
        <path id="path252" d="M238.465-184.355c-.111.107-12.151-12.176-26.888-27.433s-26.6-27.714-26.49-27.822,12.148,12.174,26.89,27.435,26.6,27.712,26.487,27.819" transform="translate(-56.26 523.793)" fill="#33535f"/>
        <g id="g254" transform="translate(81.323 332.236)">
          <g id="g256" clip-path="url(#clip-path)">
            <path id="path262" d="M125.982-170.276h12.872v-9.546H125.982Z" transform="translate(-125.982 179.822)" fill="#a7a9a8"/>
          </g>
        </g>
        <path id="path264" d="M125.982-179.446c.026-.049,23.63-44.157,34.753-47.1,0,0-.05.068-.145.2a52.114,52.114,0,0,0-6.526,8.622c-1.755,2.678-3.488,5.55-5.174,8.569-1.1,2-2.137,3.979-3.128,5.915a106.942,106.942,0,0,0-5.454,11.161q-.752,1.591-1.454,3.085l-12.872,9.546" transform="translate(-44.659 521.228)" fill="#0f191d"/>
        <path id="path266" d="M160.922-217.674a52.115,52.115,0,0,1,6.526-8.622l-.163.224a37.3,37.3,0,0,0-3.079,3.655q-1.649,2.249-3.285,4.743" transform="translate(-51.517 521.18)" fill="#0f191d"/>
        <path id="path268" d="M179.747-233.322a18.734,18.734,0,0,0-3.1-.594,15.878,15.878,0,0,0-8.3,1.765c-3.282,1.577-6.513,4.608-9.356,8.486a135.24,135.24,0,0,0-8.383,13.274c-5.359,9.787-9.492,19.033-12.79,25.572-1.62,3.284-3,5.906-3.975,7.71-.479.856-.863,1.54-1.153,2.058a4.543,4.543,0,0,1-.435.7,4.486,4.486,0,0,1,.336-.752q.4-.792,1.06-2.1c.909-1.834,2.239-4.478,3.812-7.782,3.2-6.578,7.278-15.848,12.657-25.67a129.07,129.07,0,0,1,8.458-13.312c2.891-3.9,6.22-6.968,9.6-8.532a15.679,15.679,0,0,1,8.489-1.627,8.995,8.995,0,0,1,3.081.809" transform="translate(-45.89 522.735)" fill="#33535f"/>
        <path id="path270" d="M110.976-129.611l-15.029,27.7s-33.506-3.958-36.484,1.079L113.91-73l22.6-43.647-25.531-12.967" transform="translate(-31.603 502.202)" fill="#17282f"/>
        <path id="path272" d="M126.354-87.527c2.217,2-.74,5.537-3.052,3.59-2.469-2.228,1.057-5.823,3.219-3.417" transform="translate(-43.967 494.065)" fill="#dadbd8"/>
        <path id="path274" d="M113.91-66.376l2.105-4.489-52.99-25.01s-2.964-.185-3.562,1.662L113.91-66.376" transform="translate(-31.603 495.582)" fill="#33535f"/>
        <path id="path276" d="M103.933-96.078c-.127.27,1.14,1.07,2.011,2.593.911,1.5,1,3,1.3,3.018,1.52-.923-1.77-6.5-3.306-5.611" transform="translate(-40.33 495.639)" fill="#fff"/>
        <path id="path278" d="M95.32-96.754c-.192.227.728,1.268,1.056,2.854.375,1.576-.019,2.908.252,3.033,1.745-.358.418-6.305-1.308-5.886" transform="translate(-38.636 495.758)" fill="#fff"/>
        <path id="path280" d="M86.944-91.681c1.468.19,1.687-5.7.212-5.621.07.18-.133,5.45-.212,5.621" transform="translate(-36.997 495.861)" fill="#fff"/>
        <path id="path282" d="M108.613-103.81c.192-.01,5.4,3.053,5.48,3.213.838-1.249-4.806-4.554-5.48-3.213" transform="translate(-41.25 497.2)" fill="#fff"/>
        <path id="path284" d="M83.731-191.037,57.977-172.878S29.7-191.288,24.8-188.092L61.252-139l38.63-30.412-16.151-21.63" transform="translate(-24.799 514.259)" fill="#17282f"/>
        <path id="path286" d="M81.645-151.871c1.1,2.778-3.119,4.635-4.328,1.864-1.225-3.092,3.53-4.75,4.4-1.635" transform="translate(-35.068 506.854)" fill="#dadbd8"/>
        <path id="path288" d="M61.252-138.421l3.878-3.09-36.4-45.917s-2.574-1.48-3.93-.09l36.453,49.1" transform="translate(-24.799 513.685)" fill="#33535f"/>
        <path id="path290" d="M65.644-169.665c-.234.187.547,1.466.653,3.217.151,1.75-.437,3.129-.177,3.279,1.772-.153,1.3-6.609-.475-6.5" transform="translate(-32.807 510.065)" fill="#fff"/>
        <path id="path292" d="M57.891-174.1c-.273.118.09,1.46-.319,3.026-.364,1.579-1.308,2.6-1.119,2.829,1.722.454,3.171-5.465,1.438-5.855" transform="translate(-31.007 510.936)" fill="#fff"/>
        <path id="path294" d="M47.877-173.257c1.232.822,4.041-4.364,2.683-4.942-.018.192-2.536,4.826-2.683,4.942" transform="translate(-29.329 511.739)" fill="#fff"/>
        <path id="path296" d="M233.91-188.621c-4.925-3.78-29.9-23.09-36.34-31.021a89.116,89.116,0,0,1-9.638-14.713,13.12,13.12,0,0,1,1.444.259l24.061,24.456c8.448,8.737,15.876,16.359,20.472,21.02m-44.721-45.665a11.752,11.752,0,0,0-1.37-.286c-.714-1.386-1.078-2.2-1.078-2.2l2.448,2.488" transform="translate(-56.585 523.236)" fill="#0f191d"/>
        <path id="path298" d="M241.276-181.347l-.847-.647c-4.6-4.66-12.025-12.283-20.472-21.02l21.319,21.667" transform="translate(-63.104 516.61)" fill="#20353d"/>
        <path id="path300" d="M189.639-233.558a13.137,13.137,0,0,0-1.444-.259l-.113-.216a11.753,11.753,0,0,1,1.37.286l.188.19" transform="translate(-56.848 522.699)" fill="#20353d"/>
      </g>
    </g>
  </g>
</svg>
