<svg xmlns="http://www.w3.org/2000/svg" xmlns:xlink="http://www.w3.org/1999/xlink" width="536" height="377.792" viewBox="0 0 536 377.792">
  <defs>
    <clipPath id="clip-path">
      <path id="path232" d="M372.146-176.524a0,0,0,0,0,0,0l.5-.094-.5.1m3.257-.616.414-.078-.414.078" transform="translate(-372.145 177.218)"/>
    </clipPath>
  </defs>
  <g id="Group_3439" data-name="Group 3439" transform="translate(0 -99.075)">
    <g id="Group_3438" data-name="Group 3438" transform="translate(0 14.287)">
      <g id="g10" transform="translate(0 0)">
        <g id="g12">
          <path id="path14" d="M83.821-444.936h-55.2v109.419h55.2V-444.936" transform="translate(-4.319 529.724)" fill="#e7f7f6"/>
          <path id="path16" d="M155.774-444.936H96.132v109.419h59.643V-444.936" transform="translate(-14.507 529.724)" fill="#e7f7f6"/>
          <path id="path26" d="M83.821-201.344V-307.066h-55.2v105.722h55.2" transform="translate(-4.319 508.918)" fill="#e7f7f6"/>
          <path id="path38" d="M96.132-85.056h59.643v-95.269H96.132v95.269" transform="translate(-14.507 489.792)" fill="#f3f2f1"/>
          <path id="path54" d="M0-.348H536" transform="translate(0 462.632)" fill="#33535f"/>
          <path id="path56" d="M536-.4c0,.163-120,.3-267.987.3C119.972-.1,0-.238,0-.4S119.972-.695,268.013-.695C416-.695,536-.562,536-.4" transform="translate(0 462.685)" fill="#17282f"/>
          <path id="path86" d="M473.046-331.866a5.583,5.583,0,0,1-5.584,5.584,5.583,5.583,0,0,1-5.584-5.584,5.584,5.584,0,0,1,5.584-5.584,5.583,5.583,0,0,1,5.584,5.584" transform="translate(-69.701 513.504)" fill="#fff"/>
          <path id="path120" d="M475.838-246.508c-1.08-1.285-2.486-2.445-2.828-4.088-.328-1.579.424-3.152.764-4.73a9.614,9.614,0,0,0-6.057-10.738c-2.441-.841-5.577-.913-6.817-3.178-1.22-2.225.327-4.861,1.234-7.231a14.481,14.481,0,0,0-.968-12.157,20.02,20.02,0,0,0-1.039-2.441,19.029,19.029,0,0,0-16.357-10.53,13.287,13.287,0,0,0-10.089-10.2,11.6,11.6,0,0,0-1.219-5.3c-2.392-4.648-7.469-7.473-12.631-8.306a24.065,24.065,0,0,0-20.734,6.872c-2.851,2.933-5.158,6.76-9.021,8.1a16.842,16.842,0,0,1-6.331.517,25.658,25.658,0,0,0-4.387.06c-4.779.619-8.876,4.017-11.328,8.167s-3.46,8.989-4.027,13.776c-.52,4.392-.863,9.212-3.909,12.418-2.972,3.126-7.668,3.788-11.363,6.013-6.952,4.184-9.206,14.548-4.619,21.243,1.463,2.133,3.563,4.09,3.733,6.673.155,2.357-1.369,4.456-2.082,6.708-1.838,5.8,2.909,12.687,8.981,13.035a21.225,21.225,0,0,0,3.25-.148c2.038-.2,4.057-.393,5.848.5,2.73,1.361,3.746,4.652,5.492,7.153a13.126,13.126,0,0,0,16,4.134c2.255-1.106,4.384-2.931,6.89-2.763s4.47,2.3,6.93,2.781c3.221.623,6.279-1.749,8.2-4.413s3.249-5.8,5.7-7.983c3.211-2.854,7.719-3.559,11.781-4.959a33.578,33.578,0,0,0,14.911-10.5l-.4,22.619c3.354,0,5.316-1.173,6.566-2.907a9.434,9.434,0,0,0,2.248,1.131,10.323,10.323,0,0,0,11.184-3.5c1.306-1.739,2.118-3.967,3.969-5.107,1.616-.994,3.64-.916,5.507-1.256a12.2,12.2,0,0,0,9.117-7.717,12.21,12.21,0,0,0-2.1-11.758" transform="translate(-51.568 511.729)" fill="#17282f"/>
          <path id="path122" d="M407.462-295.608c-4.688,2.954-15.328,15.957-15.536,19.788l1.094,77.813c-.173,5.846-1.173,10.88,2.246,15.626,9.485,11.335,31.437,12.724,36.456,3.388a8.854,8.854,0,0,0,.8-1.877,17.337,17.337,0,0,0,.439-1.919,61.883,61.883,0,0,0,1.143-12.934c.654-7.607.884-10.728.884-10.657,0,0,16.256-1.475,21.137-22.179,2.428-10.3,3.172-27.419,3.328-41.447a22.956,22.956,0,0,0-1.669-8.032c-6.034-16.146-19.907-23.983-36.588-22.551-4.18.359-10.573,2.229-13.738,4.981" transform="translate(-59.145 507.966)" fill="#f9a78d"/>
          <path id="path124" d="M443.283-234.375c0-.166,1.818-.343,4.759-.5.743-.02,1.454-.115,1.616-.61a3.775,3.775,0,0,0-.331-2.226q-.842-2.756-1.767-5.783c-2.437-8.229-4.145-14.975-3.812-15.07s2.578,6.5,5.017,14.727q.875,3.041,1.671,5.811a4.28,4.28,0,0,1,.17,2.927,1.858,1.858,0,0,1-1.3.989,4.976,4.976,0,0,1-1.267.08c-2.942-.06-4.762-.181-4.761-.345" transform="translate(-66.895 501.599)" fill="#17282f"/>
          <path id="path126" d="M437.758-191.306a53.444,53.444,0,0,1-27.5-9.566s5.979,15.027,27.093,14.621l.41-5.055" transform="translate(-61.911 492.893)" fill="#f57f62"/>
          <path id="path128" d="M439.677-222.383a5.226,5.226,0,0,0-4.527-2.281,4.768,4.768,0,0,0-3.416,1.518,3.023,3.023,0,0,0-.485,3.429,3.507,3.507,0,0,0,3.719,1.24,10.985,10.985,0,0,0,3.859-1.931,3.184,3.184,0,0,0,.889-.794.967.967,0,0,0,.076-1.076" transform="translate(-65.028 496.484)" fill="#f57f62"/>
          <path id="path130" d="M432.981-228.464c.472.006.243,3.146,2.766,5.572s5.887,2.33,5.879,2.77c.029.2-.79.555-2.205.487a7.83,7.83,0,0,1-4.92-2.134,6.83,6.83,0,0,1-2.119-4.659c-.022-1.32.386-2.072.6-2.037" transform="translate(-65.25 497.057)" fill="#17282f"/>
          <path id="path132" d="M430.106-265.947c-.344.764-3.2.178-6.625.335-3.427.088-6.236.877-6.633.139-.177-.352.355-1.056,1.518-1.734a11.021,11.021,0,0,1,5.009-1.347,11.027,11.027,0,0,1,5.092.984c1.208.6,1.789,1.259,1.639,1.623" transform="translate(-62.901 503.108)" fill="#17282f"/>
          <path id="path134" d="M464.337-266.105c-.655.61-2.98-.247-5.835-.491-2.846-.327-5.308.05-5.813-.678-.221-.352.209-.98,1.312-1.524a9.3,9.3,0,0,1,4.827-.725,9.142,9.142,0,0,1,4.56,1.665c.959.751,1.24,1.451.949,1.753" transform="translate(-68.306 503.261)" fill="#17282f"/>
          <path id="path136" d="M394.156-240.621c.112-1.56-1.419-5.372-2.941-5.727-4.068-.946-11.509-1.166-12.354,9.278-1.153,14.278,13.419,12.492,13.478,12.083.045-.318,1.43-10.246,1.817-15.634" transform="translate(-57.163 499.819)" fill="#f9a78d"/>
          <path id="path138" d="M389.062-229.949c-.059-.051-.264.154-.7.314a2.5,2.5,0,0,1-1.863-.113c-1.464-.675-2.539-3.172-2.4-5.751a8.255,8.255,0,0,1,.984-3.506,2.883,2.883,0,0,1,2.025-1.756,1.268,1.268,0,0,1,1.412.8c.161.415.046.693.121.722.036.041.325-.213.257-.812a1.59,1.59,0,0,0-.489-.941,1.881,1.881,0,0,0-1.347-.474,3.506,3.506,0,0,0-2.776,2,8.491,8.491,0,0,0-1.184,3.91c-.142,2.885,1.115,5.7,3.13,6.459a2.674,2.674,0,0,0,2.306-.194c.47-.317.571-.629.523-.66" transform="translate(-57.812 499.019)" fill="#f57f62"/>
          <path id="path140" d="M390.116-271.425c0-.717-.261.668,0,0" transform="translate(-58.854 503.572)" fill="#33535f"/>
          <path id="path142" d="M448.125-296.361c-5.313-3.58-9.678-7.715-22.654-7.735-10.019-.014-17.355,5.815-25.25,12.7-10.139,8.845-16.563,23.261-12.29,36.02l4.259,1.665,4.047-9.786c6.974-15.17,21.479-27.929,37.129-28.679a29.824,29.824,0,0,1,4.328.069c10.352,1.037,20.958,19.881,20.958,19.881s1.92-15.752-10.528-24.138" transform="translate(-58.339 508.47)" fill="#f2575d"/>
          <path id="path144" d="M393.214-247.815c.229,2.962.684,5.638.911,8.6.1,1.248.413,2.782,1.62,3.118a2.11,2.11,0,0,0,2.237-1.1,6.18,6.18,0,0,0,.641-2.581c.88-8.981,1.629-15.826,2.51-24.806-2.591,3.6-5.245,9.8-7.919,16.77" transform="translate(-59.339 502.508)" fill="#17282f"/>
          <path id="path146" d="M389.072-219.434c.028,0,.085.286-.1.756a2.906,2.906,0,0,1-1.49,1.464,4.068,4.068,0,0,1-3.1.082,4.392,4.392,0,0,1-2.7-2.657,4.6,4.6,0,0,1,.363-3.774,4.248,4.248,0,0,1,2.443-1.9,4.145,4.145,0,0,1,2.074-.109c.48.109.714.251.7.282a6.021,6.021,0,0,0-2.642.222,3.954,3.954,0,0,0-2.106,1.776,4.169,4.169,0,0,0-.28,3.313,3.955,3.955,0,0,0,2.331,2.342,3.763,3.763,0,0,0,2.742.044,2.89,2.89,0,0,0,1.448-1.182c.231-.393.258-.663.31-.655" transform="translate(-57.562 496.633)" fill="#dadbd8"/>
          <path id="path148" d="M425.875-286.527s11.287,3.116,15.106,1.934a11.274,11.274,0,0,0,6.172-4.627s-8.766-3.867-21.278,2.693" transform="translate(-64.268 506.396)" fill="#17282f"/>
          <path id="path150" d="M494.051-258.659a11.651,11.651,0,0,0,1.192-1.441,7.787,7.787,0,0,0,1.2-4.9,9.232,9.232,0,0,0-3.853-6.477,14.035,14.035,0,0,0-9.32-2.4l-.494.034.22-.446a26.915,26.915,0,0,0,2.651-7.722,14.185,14.185,0,0,0-.438-6.515,11.207,11.207,0,0,0-3.393-4.993,16.845,16.845,0,0,0-9.572-3.761,34.681,34.681,0,0,0-7.1.2l-1.928.241a2.9,2.9,0,0,1-.678.058,2.984,2.984,0,0,1,.658-.174c.436-.093,1.08-.22,1.917-.352a31.538,31.538,0,0,1,7.165-.391,17.05,17.05,0,0,1,9.891,3.762,11.681,11.681,0,0,1,3.588,5.225,14.663,14.663,0,0,1,.473,6.786,27.1,27.1,0,0,1-2.723,7.887l-.273-.412a14.426,14.426,0,0,1,9.652,2.576,9.55,9.55,0,0,1,3.917,6.844,7.785,7.785,0,0,1-1.4,5.04,4.558,4.558,0,0,1-1.354,1.33" transform="translate(-69.801 507.514)" fill="#17282f"/>
          <path id="path152" d="M358.384-236.334a1.305,1.305,0,0,1-.31.008l-.908-.034c-.8-.041-1.972-.1-3.481-.278a23.289,23.289,0,0,1-5.4-1.238,12.96,12.96,0,0,1-5.932-4.283,13.531,13.531,0,0,1-2.161-8.569,46.56,46.56,0,0,1,.481-4.937,27.076,27.076,0,0,1,1.074-5.165,9.09,9.09,0,0,1,3.22-4.557c1.628-1.193,3.758-1.268,5.67-1.236s3.982.077,5.552-1.061a7.042,7.042,0,0,0,2.527-5.107,41.513,41.513,0,0,0-.225-6.064,31.344,31.344,0,0,1,.248-5.984,31.055,31.055,0,0,1,3.468-10.728,27.132,27.132,0,0,1,6.419-7.931,24.974,24.974,0,0,1,7.726-4.4,24.2,24.2,0,0,1,12.716-1.082,17.276,17.276,0,0,1,4.482,1.436,1.27,1.27,0,0,1-.3-.08l-.858-.291a22.6,22.6,0,0,0-3.366-.838,24.426,24.426,0,0,0-12.533,1.248,24.75,24.75,0,0,0-7.552,4.379,26.789,26.789,0,0,0-6.256,7.815,30.673,30.673,0,0,0-3.374,10.546,30.981,30.981,0,0,0-.234,5.877,41.523,41.523,0,0,1,.226,6.152,7.6,7.6,0,0,1-2.77,5.526,6.3,6.3,0,0,1-2.916,1.069,22.11,22.11,0,0,1-2.984.093c-1.921-.033-3.871.045-5.342,1.123a8.572,8.572,0,0,0-3.03,4.274,26.691,26.691,0,0,0-1.072,5.058,46.881,46.881,0,0,0-.507,4.879,13.143,13.143,0,0,0,2.012,8.31,12.7,12.7,0,0,0,5.713,4.219,23.96,23.96,0,0,0,5.311,1.318c1.5.211,2.667.308,3.461.388l.9.093a1.124,1.124,0,0,1,.307.051" transform="translate(-51.335 509.268)" fill="#17282f"/>
          <path id="path154" d="M402.058-289.128a7.985,7.985,0,0,1-.917,1.278c-.315.4-.694.882-1.1,1.471s-.913,1.229-1.39,1.993a54.684,54.684,0,0,0-3.2,5.447,58.432,58.432,0,0,0-3.006,7.118,58.585,58.585,0,0,0-1.945,7.479,54.17,54.17,0,0,0-.775,6.269c-.087.9-.082,1.712-.11,2.427s-.029,1.331-.02,1.836a8.035,8.035,0,0,1-.05,1.572,8.175,8.175,0,0,1-.179-1.563c-.045-.507-.084-1.126-.08-1.845s-.036-1.543.021-2.449a48.155,48.155,0,0,1,.659-6.342,53.884,53.884,0,0,1,1.921-7.573,54.171,54.171,0,0,1,3.081-7.178,48.036,48.036,0,0,1,3.336-5.433c.5-.755,1.031-1.387,1.472-1.957s.843-1.042,1.185-1.415a8.112,8.112,0,0,1,1.095-1.133" transform="translate(-58.745 506.211)" fill="#17282f"/>
          <path id="path156" d="M413.651-295.5a11.754,11.754,0,0,1-1.373,1.314c-.458.4-1.013.9-1.626,1.514s-1.349,1.269-2.083,2.075a68.009,68.009,0,0,0-4.987,5.79,73.084,73.084,0,0,0-5.159,7.8,73.106,73.106,0,0,0-4.016,8.448,67.947,67.947,0,0,0-2.381,7.261c-.313,1.045-.5,2.013-.7,2.855s-.349,1.574-.456,2.174a11.97,11.97,0,0,1-.415,1.854,11.554,11.554,0,0,1,.189-1.893c.074-.608.181-1.35.36-2.2s.333-1.833.619-2.891a61.3,61.3,0,0,1,2.28-7.355,68.285,68.285,0,0,1,4.009-8.541,68.192,68.192,0,0,1,5.242-7.841,60.82,60.82,0,0,1,5.121-5.751c.757-.793,1.515-1.437,2.156-2.024s1.217-1.069,1.7-1.446a11.744,11.744,0,0,1,1.524-1.14" transform="translate(-58.921 507.173)" fill="#17282f"/>
          <path id="path158" d="M367.62-231.349a1.721,1.721,0,0,1-.309.222,6.3,6.3,0,0,1-.971.545,9.716,9.716,0,0,1-4.175.9,11.315,11.315,0,0,1-6.424-2.018,12.3,12.3,0,0,1-4.77-7.483,14.466,14.466,0,0,1-.17-5.248,15.734,15.734,0,0,1,1.911-5.363,18.8,18.8,0,0,1,3.853-4.719,27.236,27.236,0,0,1,5.362-3.574,20.994,20.994,0,0,0,5.41-3.8,14.122,14.122,0,0,0,3.2-6.01,33.866,33.866,0,0,0,1-7.124c.129-2.444.113-4.955.366-7.488a24.347,24.347,0,0,1,1.694-7.358,12.627,12.627,0,0,1,4.637-5.674,22.469,22.469,0,0,1,6.5-2.805c2.218-.631,4.408-1.12,6.487-1.765a19.224,19.224,0,0,0,5.7-2.655,7.9,7.9,0,0,0,1.161-.963,10.226,10.226,0,0,0,1.029-1.073,19.781,19.781,0,0,0,1.637-2.432,26.23,26.23,0,0,1,3.152-4.72,13.062,13.062,0,0,1,4.3-3.02,12.71,12.71,0,0,1,8.868-.532,12.935,12.935,0,0,1,5.658,3.673,12.315,12.315,0,0,1,2.29,3.61,7,7,0,0,1,.453,1.421c-.039.012-.156-.491-.563-1.373a12.848,12.848,0,0,0-2.348-3.5,12.846,12.846,0,0,0-5.587-3.512,12.4,12.4,0,0,0-8.6.6,12.675,12.675,0,0,0-4.133,2.948,26.01,26.01,0,0,0-3.065,4.659,20.212,20.212,0,0,1-1.666,2.5,10.787,10.787,0,0,1-1.069,1.128,8.443,8.443,0,0,1-1.208,1.011,19.692,19.692,0,0,1-5.839,2.754c-2.106.661-4.3,1.157-6.494,1.788a22.013,22.013,0,0,0-6.327,2.741,12.075,12.075,0,0,0-4.424,5.43,23.882,23.882,0,0,0-1.645,7.181c-.249,2.5-.235,4.993-.367,7.465a34.254,34.254,0,0,1-1.033,7.246,14.645,14.645,0,0,1-3.348,6.243,21.415,21.415,0,0,1-5.556,3.889,26.732,26.732,0,0,0-5.281,3.488,18.345,18.345,0,0,0-3.773,4.574,15.29,15.29,0,0,0-1.885,5.19,14.107,14.107,0,0,0,.128,5.09,11.991,11.991,0,0,0,4.553,7.3,11.163,11.163,0,0,0,6.233,2.057,9.962,9.962,0,0,0,4.125-.779c.9-.375,1.3-.7,1.329-.658" transform="translate(-52.914 510.277)" fill="#33535f"/>
          <path id="path160" d="M461.54-246.319a2.819,2.819,0,0,1-2.712,2.852A2.7,2.7,0,0,1,455.915-246a2.821,2.821,0,0,1,2.709-2.853,2.7,2.7,0,0,1,2.916,2.537" transform="translate(-68.801 500.135)" fill="#17282f"/>
          <path id="path162" d="M463.367-256.524c-.349.368-2.488-1.207-5.525-1.193-3.033-.028-5.256,1.537-5.587,1.167-.161-.164.194-.83,1.163-1.537a7.738,7.738,0,0,1,4.47-1.389,7.427,7.427,0,0,1,4.4,1.409c.935.714,1.253,1.379,1.081,1.543" transform="translate(-68.243 501.737)" fill="#17282f"/>
          <path id="path164" d="M430.591-246.318a2.82,2.82,0,0,1-2.714,2.851A2.7,2.7,0,0,1,424.964-246a2.822,2.822,0,0,1,2.71-2.853,2.7,2.7,0,0,1,2.916,2.538" transform="translate(-64.13 500.135)" fill="#17282f"/>
          <path id="path166" d="M429.52-256.524c-.35.369-2.493-1.207-5.526-1.193-3.032-.028-5.255,1.539-5.586,1.167-.162-.164.19-.829,1.162-1.537a7.742,7.742,0,0,1,4.471-1.389,7.438,7.438,0,0,1,4.4,1.409c.933.714,1.251,1.379,1.081,1.543" transform="translate(-63.135 501.737)" fill="#17282f"/>
          <path id="path168" d="M487.813-147.35c-13.1-15.944-24.431-18.208-24.431-18.208l.077,56.89,41.77,52.83,16.992-43.48s-25.53-37.23-34.407-48.032" transform="translate(-69.928 487.564)" fill="#89e5f3"/>
          <path id="path170" d="M423.2-172.2l18.725,4.544s9.668,56.074,6.161,70.576C445.1-84.742,435.526-27.8,435.526-27.8H320.077l38.682-111.127s.223-24.43-5.748-35.718c3.619-.869,15.844-3.119,26.408-5.1,0,0,7.023,8.765,23.55,11.269S423.2-172.2,423.2-172.2" transform="translate(-48.302 489.705)" fill="#89e5f3"/>
          <path id="path172" d="M446.118-115.553H373.583c-6.34,37.1-21.773,51.32-48.993,72.795l-4.514,24.647H435.526l6.7-38.724-.393-14.26,4.285-44.457" transform="translate(-48.302 480.017)" fill="#005b7c"/>
          <path id="path174" d="M353.356-174.381s-27.587,2.21-37.486,47.406c-4.476,20.443-10.134,44.4-11.764,60.5-1.183,11.679,2.994,27.82,14.221,30.493l20.39,2.6c9.108.136,15.357-7.265,17.275-15.2l3.179-12.607c2.192-15.416-9.544-16.751-16.144-16.609L357.542-135.2l2.811-27.778-7-11.4" transform="translate(-45.863 488.895)" fill="#89e5f3"/>
          <path id="path176" d="M471.872-129.1a3.528,3.528,0,0,1,.126.631c.07.458.162,1.064.277,1.822.058.4.122.84.19,1.318q.075.732.161,1.576c.114,1.132.252,2.419.311,3.85A94.838,94.838,0,0,1,473-109.856a121.2,121.2,0,0,1-1.22,12.25c-.635,4.323-1.431,8.408-2.242,12.1-.794,3.7-1.608,7-2.294,9.78-.7,2.773-1.284,5.011-1.706,6.553-.206.738-.369,1.327-.492,1.774a3.692,3.692,0,0,1-.2.612,3.509,3.509,0,0,1,.114-.634c.1-.451.241-1.047.413-1.793l1.569-6.584c.649-2.783,1.43-6.1,2.2-9.791s1.568-7.773,2.2-12.083,1.07-8.436,1.252-12.206c.159-3.767.195-7.169.026-10.017-.04-1.426-.155-2.712-.246-3.843q-.066-.844-.123-1.575c-.056-.479-.106-.92-.152-1.32-.081-.762-.146-1.37-.2-1.83a3.4,3.4,0,0,1-.037-.643" transform="translate(-70.149 482.063)" fill="#17282f"/>
          <path id="path178" d="M324.322-44.8a5.112,5.112,0,0,1,.22-1.138,18.275,18.275,0,0,1,1.065-2.973,20.568,20.568,0,0,1,6.539-8.03,20.566,20.566,0,0,1,9.654-3.754,18.081,18.081,0,0,1,3.156-.1,5,5,0,0,1,1.149.142c0,.031-.188.029-.534.028a24.475,24.475,0,0,0-3.731.241,21.35,21.35,0,0,0-9.434,3.8,21.383,21.383,0,0,0-6.517,7.807,42.245,42.245,0,0,0-1.567,3.977" transform="translate(-48.942 471.759)" fill="#17282f"/>
          <path id="path180" d="M331.835-68.48a1.929,1.929,0,0,1,.667-.063,14.52,14.52,0,0,1,1.817.08A21,21,0,0,1,340.14-67a20.98,20.98,0,0,1,5.168,3.053,14.217,14.217,0,0,1,1.349,1.223c.3.31.451.491.43.514-.052.054-.745-.591-1.97-1.489a24.848,24.848,0,0,0-5.145-2.894,24.949,24.949,0,0,0-5.692-1.564c-1.5-.224-2.447-.253-2.445-.327" transform="translate(-50.077 472.924)" fill="#17282f"/>
          <path id="path182" d="M364.015-142.571a6.228,6.228,0,0,1-.068-1.208c-.006-.777-.05-1.9-.145-3.282a53.932,53.932,0,0,0-1.835-10.645,53.842,53.842,0,0,0-3.974-10.046c-.637-1.231-1.185-2.212-1.583-2.878a6.4,6.4,0,0,1-.573-1.066,6.406,6.406,0,0,1,.718.976c.445.64,1.036,1.6,1.713,2.821a47.833,47.833,0,0,1,4.123,10.076,47.879,47.879,0,0,1,1.723,10.746c.054,1.394.051,2.522,0,3.3a6.442,6.442,0,0,1-.1,1.206" transform="translate(-53.698 488.49)" fill="#17282f"/>
          <path id="path184" d="M471.793-85.112q.212-1.134.414-2.3l.5.631q-.435.846-.914,1.671" transform="translate(-71.197 475.771)" fill="#a7a9a8"/>
          <path id="path186" d="M472.781-93.406l-.5-.631q.331-1.914.625-3.9a121.183,121.183,0,0,0,1.22-12.25,94.806,94.806,0,0,0-.068-10.053c-.059-1.431-.2-2.718-.311-3.85q-.087-.844-.161-1.576c-.068-.478-.133-.917-.19-1.318-.116-.757-.207-1.363-.277-1.822-.034-.21-.062-.369-.084-.474q-.124-1.012-.264-2.021c5.816,11.751,5.988,26.267.009,37.9" transform="translate(-71.271 482.394)" fill="#5ab0be"/>
          <path id="path188" d="M471.587-91.129l-.208-.052a110.383,110.383,0,0,0,1.52-37.74c.021.105.05.265.084.474.07.458.162,1.064.277,1.822.058.4.122.84.19,1.318q.075.732.161,1.576c.114,1.132.252,2.419.311,3.85a94.838,94.838,0,0,1,.068,10.053,121.192,121.192,0,0,1-1.22,12.25q-.292,1.987-.625,3.9-.2,1.166-.414,2.3c-.048.083-.1.164-.144.247" transform="translate(-71.135 482.035)" fill="#0f191d"/>
          <path id="path190" d="M351.23-16.148c-.045-.038-.48.576-1.508,1.425a13.8,13.8,0,0,1-5.049,2.409,26.852,26.852,0,0,1-8.309.731c-3.151-.227-6.625-.6-10.239-1.133a52.326,52.326,0,0,1-9.993-2.3,12.743,12.743,0,0,1-3.671-2.452,19.572,19.572,0,0,1-2.569-2.918,27.517,27.517,0,0,1-2.819-4.892c-.263-.616-.469-1.094-.591-1.424a2.449,2.449,0,0,0-.221-.493,2.553,2.553,0,0,0,.137.523c.1.34.276.832.516,1.462a25.176,25.176,0,0,0,2.724,5.007,19.463,19.463,0,0,0,2.572,3,12.97,12.97,0,0,0,3.762,2.558,50.745,50.745,0,0,0,10.087,2.365c3.633.539,7.1.9,10.284,1.1a26.449,26.449,0,0,0,8.412-.836,13.362,13.362,0,0,0,5.076-2.579,9.012,9.012,0,0,0,1.077-1.121,2.552,2.552,0,0,0,.321-.436" transform="translate(-46.217 466.684)" fill="#17282f"/>
          <path id="path192" d="M362.352-120.428c-.119-.029-3.027,11.264-6.5,25.22s-6.187,25.3-6.068,25.331,3.027-11.262,6.5-25.224,6.187-25.3,6.069-25.328" transform="translate(-52.785 480.753)" fill="#17282f"/>
          <path id="path194" d="M365.89-47.708a3.652,3.652,0,0,0,.14-.928,15.863,15.863,0,0,0,.059-2.565,7.451,7.451,0,0,0-1.24-3.618,10.746,10.746,0,0,0-1.416-1.779,9.773,9.773,0,0,0-1.96-1.459,24.574,24.574,0,0,0-8.03-2.592,22.953,22.953,0,0,0-2.548-.226,3.523,3.523,0,0,0-.939.034c0,.075,1.329.123,3.437.5a26.9,26.9,0,0,1,7.859,2.665,9.652,9.652,0,0,1,1.88,1.387,10.824,10.824,0,0,1,1.375,1.691,7.355,7.355,0,0,1,1.27,3.425,21.655,21.655,0,0,1,.079,2.527,4.011,4.011,0,0,0,.032.936" transform="translate(-52.811 471.767)" fill="#17282f"/>
          <path id="path196" d="M434.417-47.232l-.05.025.05-.025" transform="translate(-65.549 469.707)" fill="#f9a78d"/>
          <path id="path198" d="M434.051-47.062l-.112.054.112-.054" transform="translate(-65.485 469.682)" fill="#f9a78d"/>
          <path id="path200" d="M434.322-47.2l-.251.119.251-.119" transform="translate(-65.505 469.703)" fill="#f9a78d"/>
          <path id="path202" d="M434.538-47.295l-.112.053.112-.053" transform="translate(-65.558 469.717)" fill="#f9a78d"/>
          <path id="path204" d="M448.135-23.884c-2.214-4.188-19.523-15.236-19.523-15.236L433.3-40.2l5.173,2.187a12.732,12.732,0,0,0,2.226,4.846c1.9,2.712,5.132-.092,5.132-.092L443.64-43.739,433.406-49.9s-9.63,1.472-11.184,2.212l-4.105,3.759c-1.8,1.412-7,6.98-8.425,7.148s-46.1-9.881-46.1-9.881c-6.125,4.85-9.352,14.488-10.325,21.436,0,0-1.089,3.416.1,5.269l54.841,4.3,11.62,3.211a81.583,81.583,0,0,0,9.547,3.282c3.867.81,6.471-.435,6.575-2.576s-2.895-2.371-2.895-2.371a58.989,58.989,0,0,1-7.472-3.287,13.137,13.137,0,0,1-4.219-4.629l4.144.5s8.809,6.113,12.119,7.907,3.965-1.5,4.233-2.5-9.894-10.942-9.894-10.942,9.66,5.956,11.4,7.458,4.312,1.953,4.865.944,2.12-1.036-.094-5.225" transform="translate(-53.242 470.11)" fill="#f9a78d"/>
          <path id="path206" d="M433.922-47l-.1.046.1-.046" transform="translate(-65.467 469.672)" fill="#f9a78d"/>
          <path id="path208" d="M433.762-46.913h0" transform="translate(-65.458 469.659)" fill="#f9a78d"/>
          <path id="path210" d="M433.815-46.944l-.053.026.053-.026" transform="translate(-65.458 469.664)" fill="#f9a78d"/>
          <path id="path212" d="M408.933-20.584a2.24,2.24,0,0,1-.051-.678,4.08,4.08,0,0,1,.053-.8,5.89,5.89,0,0,1,.19-1.045,14.74,14.74,0,0,1,2.808-5.41,31.4,31.4,0,0,1,4.225-4.39,12.437,12.437,0,0,1,1.994-1.544,20.387,20.387,0,0,1-1.8,1.756,40.494,40.494,0,0,0-4.1,4.426A16.128,16.128,0,0,0,409.4-23.03c-.43,1.474-.385,2.449-.47,2.446" transform="translate(-61.703 467.779)" fill="#f57f62"/>
          <path id="path214" d="M440.64-37.916a5.006,5.006,0,0,1-2.953-.266,5.023,5.023,0,0,1-2.517-1.57c.074-.1,1.132.687,2.645,1.185,1.507.515,2.825.528,2.825.651" transform="translate(-65.67 468.58)" fill="#f57f62"/>
          <path id="path216" d="M443.46-24.714a27.119,27.119,0,0,1-4.405-1.594,27.123,27.123,0,0,1-4.252-1.968,27.044,27.044,0,0,1,4.406,1.593,26.989,26.989,0,0,1,4.251,1.97" transform="translate(-65.615 466.848)" fill="#f57f62"/>
          <path id="path218" d="M433.276-17.494a10.358,10.358,0,0,1-2.26-.8,10.326,10.326,0,0,1-2.2-.945,5.634,5.634,0,0,1,2.351.566,5.643,5.643,0,0,1,2.111,1.178" transform="translate(-64.711 465.487)" fill="#f57f62"/>
          <path id="path220" d="M442.83-23.184a9.583,9.583,0,0,0-1.707,1.493,9.518,9.518,0,0,0-.984,2.044c-.05,0-.1-.274-.033-.713a3.61,3.61,0,0,1,.693-1.577,3.608,3.608,0,0,1,1.335-1.088c.405-.182.683-.206.7-.159" transform="translate(-66.411 466.082)" fill="#f57f62"/>
          <path id="path222" d="M447.762-30.723c.053.106-.7.516-1.2,1.394a11.269,11.269,0,0,0-.624,1.734,2.068,2.068,0,0,1,.272-1.938c.58-1,1.537-1.3,1.554-1.19" transform="translate(-67.276 467.219)" fill="#f57f62"/>
          <path id="path224" d="M446.406-44.856c-.045.022-.2-.168-.324-.546a2.912,2.912,0,0,1-.033-1.526,2.9,2.9,0,0,1,.727-1.34c.28-.28.507-.377.537-.337a7.8,7.8,0,0,0-.868,1.774,7.824,7.824,0,0,0-.039,1.975" transform="translate(-67.299 469.916)" fill="#f57f62"/>
          <path id="path226" d="M352.869-17.927a6.866,6.866,0,0,0,.074-1.26c0-.4.016-.9.058-1.473s.051-1.228.135-1.946a43.948,43.948,0,0,1,2.4-10.991,39.464,39.464,0,0,1,2.6-5.623c.5-.808.945-1.6,1.45-2.285.242-.345.478-.679.7-1q.367-.46.7-.887c1.82-2.24,3.217-3.386,3.152-3.457a6.767,6.767,0,0,0-.985.792,11.4,11.4,0,0,0-1.077,1.019,18.558,18.558,0,0,0-1.33,1.448c-.235.282-.481.575-.734.88s-.48.654-.735,1c-.524.681-.983,1.475-1.5,2.289a37.426,37.426,0,0,0-2.662,5.679,40.247,40.247,0,0,0-2.29,11.116c-.065.726-.058,1.385-.07,1.962s0,1.076.016,1.482a6.8,6.8,0,0,0,.1,1.259" transform="translate(-53.232 469.65)" fill="#17282f"/>
          <g id="g228" transform="translate(315.985 312.105)">
            <g id="g230" clip-path="url(#clip-path)">
              <path id="path236" d="M372.145-176.524h3.673v-.694h-3.673Z" transform="translate(-372.145 177.218)" fill="#a7a9a8"/>
            </g>
          </g>
          <path id="path238" d="M392.08-124.859h-7.848l-3.009-23.92s-1.8-11.305-2.957-15.426c-1.159-4.1-6.082-12.255-6.12-12.32l.5-.1,2.759-.521.414-.078,7.15,11.639,9.112,40.72" transform="translate(-56.16 489.323)" fill="#cc4341"/>
          <path id="path240" d="M387.6-105.872l-1.217-9.68h7.848l1.712,7.645v1.492l-8.343.543" transform="translate(-58.308 480.017)" fill="#20353d"/>
          <path id="path242" d="M395.109-117.374s-3.7-31.2-7.189-43.669-8.94-16.907-8.94-16.907l-5.373,1.011s5.348,6.511,7.419,17.987S386.966-117,386.966-117l8.143-.373" transform="translate(-56.38 489.434)" fill="#005b7c"/>
          <path id="path244" d="M395.017-117.43a3.455,3.455,0,0,1-.5.049l-1.539.1-6.1.358-.125.008-.017-.127c-.786-5.673-1.969-14.233-3.417-24.693-.762-5.239-1.569-10.966-2.628-17a48.311,48.311,0,0,0-2.521-9.032A38.977,38.977,0,0,0,373.6-176.4l-.312-.411-.3-.389.469-.087c1.842-.346,3.659-.687,5.373-1.011l.144-.026.1.088a23.567,23.567,0,0,1,4.11,5.26,43.207,43.207,0,0,1,2.854,5.755,65.743,65.743,0,0,1,3.37,11.57c1.536,7.5,2.538,14.265,3.359,19.929s1.379,10.239,1.75,13.393c.172,1.549.307,2.762.4,3.631.037.39.066.7.088.945a1.643,1.643,0,0,1,.009.322,2.629,2.629,0,0,1-.066-.318c-.037-.241-.084-.549-.143-.935-.122-.864-.291-2.074-.507-3.616-.439-3.145-1.071-7.707-1.931-13.363s-1.917-12.411-3.479-19.877A65.905,65.905,0,0,0,385.511-167a42.863,42.863,0,0,0-2.825-5.671,23.283,23.283,0,0,0-3.985-5.1l.24.062-5.372,1.012.172-.477.332.435a39.324,39.324,0,0,1,4.644,8.776,48.582,48.582,0,0,1,2.534,9.142c1.047,6.053,1.833,11.78,2.569,17.028,1.441,10.5,2.512,19.09,3.188,24.728l-.142-.119,6.022-.2,1.575-.041a5.159,5.159,0,0,1,.554,0" transform="translate(-56.287 489.49)" fill="#17282f"/>
          <path id="path246" d="M461.394-165.853s1.243,34.11-3.032,51.6l-8.151-.259s6.057-42.417,5.259-53a12.053,12.053,0,0,1,5.924,1.661" transform="translate(-67.94 487.859)" fill="#005b7c"/>
          <path id="path248" d="M461.334-165.877c-.032.019-.46-.286-1.43-.682a13.109,13.109,0,0,0-4.493-.85l.128-.138c.3,4.765-.275,12.212-1.186,21.37-.944,9.157-2.277,20.033-3.909,31.678l-.283-.336.212.007c2.719.087,5.4.173,7.94.257l-.292.222a128.629,128.629,0,0,0,2.651-20.2c.4-6.209.546-11.766.618-16.409s.052-8.371.038-10.939q-.01-1.875-.016-2.951a8.522,8.522,0,0,1,.023-1.025,6.928,6.928,0,0,1,.086,1.023q.044,1.073.119,2.949c.079,2.568.16,6.3.14,10.946s-.123,10.211-.49,16.437a125.952,125.952,0,0,1-2.6,20.309l-.051.231-.241-.008-7.941-.25-.211-.007-.328-.01.045-.326c1.633-11.637,3-22.505,4-31.647.968-9.142,1.624-16.578,1.423-21.3l-.007-.144.135.006a12.562,12.562,0,0,1,4.545.983,7.659,7.659,0,0,1,1.057.568,1.793,1.793,0,0,1,.322.239" transform="translate(-67.88 487.883)" fill="#17282f"/>
          <path id="path250" d="M453.36-111.056a2.439,2.439,0,0,0,2.439,2.44,2.44,2.44,0,0,0,2.439-2.44,2.44,2.44,0,0,0-2.439-2.438,2.439,2.439,0,0,0-2.439,2.438" transform="translate(-68.416 479.707)" fill="#dadbd8"/>
          <path id="path252" d="M455.794-113.471a2.414,2.414,0,0,0-2.41,2.41,2.413,2.413,0,0,0,2.41,2.411,2.413,2.413,0,0,0,2.41-2.411A2.414,2.414,0,0,0,455.794-113.471Zm0,4.878a2.47,2.47,0,0,1-2.468-2.468,2.47,2.47,0,0,1,2.468-2.467,2.47,2.47,0,0,1,2.468,2.467,2.47,2.47,0,0,1-2.468,2.468" transform="translate(-68.41 479.712)" fill="#17282f"/>
          <path id="path254" d="M390.6-112.014a2.438,2.438,0,0,0,2.439,2.438,2.438,2.438,0,0,0,2.439-2.438,2.439,2.439,0,0,0-2.439-2.439,2.439,2.439,0,0,0-2.439,2.439" transform="translate(-58.945 479.852)" fill="#dadbd8"/>
          <path id="path256" d="M393.037-114.429a2.412,2.412,0,0,0-2.409,2.41,2.412,2.412,0,0,0,2.409,2.409,2.413,2.413,0,0,0,2.409-2.409A2.413,2.413,0,0,0,393.037-114.429Zm0,4.876a2.469,2.469,0,0,1-2.467-2.466,2.469,2.469,0,0,1,2.467-2.468,2.469,2.469,0,0,1,2.467,2.468,2.469,2.469,0,0,1-2.467,2.466" transform="translate(-58.94 479.857)" fill="#17282f"/>
          <path id="path258" d="M441.4-81.686a1.712,1.712,0,0,1,.019.373c0,.279,0,.64-.006,1.095-.017.962-.04,2.382-.182,4.209a31.258,31.258,0,0,1-1.147,6.576A21.562,21.562,0,0,1,435.8-61.72c-4.093,5.2-11.488,9.183-20.113,10.278a32.92,32.92,0,0,1-6.68.09,18.747,18.747,0,0,1-6.749-1.784A23.263,23.263,0,0,1,391.98-63.353a32.831,32.831,0,0,1-3.5-14.135,32.227,32.227,0,0,1,.04-3.531,5.144,5.144,0,0,1,.449-1.756,2.673,2.673,0,0,1,1.326-1.306,8.343,8.343,0,0,1,3.444-.252l3.275.13,22.934.942,15.46.687,4.2.216c.455.028.815.053,1.093.071a1.731,1.731,0,0,1,.371.044,1.959,1.959,0,0,1-.374.016l-1.094-.013-4.206-.106-15.467-.5-22.938-.815-3.279-.121a8.079,8.079,0,0,0-3.193.213,2.9,2.9,0,0,0-1.435,2.606,31.805,31.805,0,0,0-.031,3.452A32.379,32.379,0,0,0,392.5-63.628a22.747,22.747,0,0,0,10,9.972,18.215,18.215,0,0,0,6.55,1.743,32.442,32.442,0,0,0,6.564-.07c8.508-1.054,15.789-4.928,19.855-10a21.385,21.385,0,0,0,4.3-7.544,32,32,0,0,0,1.232-6.5c.177-1.816.238-3.233.293-4.192.026-.455.047-.815.063-1.094a1.863,1.863,0,0,1,.041-.371" transform="translate(-58.62 475.315)" fill="#17282f"/>
          <path id="path260" d="M357.341-67.188a21.028,21.028,0,0,0-2.645-.517c-.435-.085-.847-.155-1.233-.214-.242-.034-.474-.065-.7-.089a22.7,22.7,0,0,0-2.677-.3L360.4-109.065a201.467,201.467,0,0,0-2.347,38.125,14.961,14.961,0,0,1,2.131.29q-1.37,1.761-2.838,3.463" transform="translate(-52.831 479.039)" fill="#5ab0be"/>
          <path id="path262" d="M373.621-46.8,367.7-48.048a17.516,17.516,0,0,0-.28-3.227c0-.12-.011-.243-.019-.369a7.452,7.452,0,0,0-1.24-3.618,10.744,10.744,0,0,0-1.416-1.779,8.883,8.883,0,0,0-1.406-1.118,13.6,13.6,0,0,0-4.706-2.2q1.467-1.7,2.838-3.463a15.6,15.6,0,0,1,8.854,5.375,14.967,14.967,0,0,1,3.3,11.648" transform="translate(-54.12 472.211)" fill="#20353d"/>
          <path id="path264" d="M366.364-55.389l-.5-.1h0a3.64,3.64,0,0,0,.14-.928,16.594,16.594,0,0,0,.078-2.2,17.517,17.517,0,0,1,.28,3.227m-.531-.832a12.069,12.069,0,0,0-7.12-10.407,22.346,22.346,0,0,1,2.516,1.168,9.652,9.652,0,0,1,1.88,1.387,10.825,10.825,0,0,1,1.376,1.691,7.356,7.356,0,0,1,1.27,3.425,21.655,21.655,0,0,1,.079,2.527c0,.073,0,.142,0,.208M362-65.5c-.18-.118-.366-.232-.554-.342a23.726,23.726,0,0,0-6.8-2.377,21.027,21.027,0,0,1,2.645.517A13.6,13.6,0,0,1,362-65.5m-11.957-3.327-.191-.007c.464-1.414,3.205-12.085,6.43-25.065,1.823-7.334,3.438-13.944,4.543-18.571q-.248,1.443-.477,2.891L350.046-68.827m-.242-.008h0a.009.009,0,0,0,0-.008l.014-.054c0,.023-.007.043-.01.062" transform="translate(-52.787 479.552)" fill="#cc4341"/>
          <path id="path266" d="M349.8-61.082v-.008a.009.009,0,0,1,0,.008" transform="translate(-52.787 471.799)" fill="#0f191d"/>
          <path id="path268" d="M349.855-69.128H349.8c0-.019.007-.039.01-.062l11.308-45.226q-.151.825-.293,1.653c-1.105,4.627-2.721,11.238-4.543,18.571-3.225,12.98-5.966,23.651-6.43,25.065" transform="translate(-52.788 479.846)" fill="#0f191d"/>
          <path id="path270" d="M366.386-47.682h0q-.009-.372-.033-.728c0-.066,0-.135,0-.208a21.64,21.64,0,0,0-.079-2.527A7.355,7.355,0,0,0,365-54.57a10.827,10.827,0,0,0-1.376-1.691,9.648,9.648,0,0,0-1.88-1.387,22.338,22.338,0,0,0-2.516-1.168,21.794,21.794,0,0,0-5.99-1.895c.222.025.454.055.7.089.386.059.8.129,1.233.214a23.727,23.727,0,0,1,6.8,2.377c.188.11.374.224.554.342a8.878,8.878,0,0,1,1.406,1.118,10.746,10.746,0,0,1,1.416,1.779,7.452,7.452,0,0,1,1.24,3.618c.008.126.015.25.019.369a16.6,16.6,0,0,1-.078,2.2,3.646,3.646,0,0,1-.14.928" transform="translate(-53.307 471.742)" fill="#0f191d"/>
          <path id="path272" d="M390.459-246.923l.044-.341c.008-.026.017-.058.026-.093l.024.119-.094.315" transform="translate(-58.923 499.908)" fill="#cc4341"/>
          <path id="path274" d="M390.511-247.271c.006-.043.012-.088.018-.131,0,.012,0,.025.008.038-.009.035-.018.067-.026.093" transform="translate(-58.931 499.915)" fill="#0f191d"/>
          <path id="path276" d="M390.379-252.848a34.508,34.508,0,0,1-.547-4.483,55.68,55.68,0,0,1,.754-5.918,58.571,58.571,0,0,1,1.945-7.479,58.434,58.434,0,0,1,3.006-7.118c.644-1.241,1.286-2.392,1.912-3.433a3.112,3.112,0,0,1,.667-.414,2.2,2.2,0,0,1,.889-.186,1.649,1.649,0,0,1,1.462.737,1.83,1.83,0,0,1,.043,1.583c-.92,1.357-1.826,2.8-2.691,4.317a68.274,68.274,0,0,0-4.009,8.541,61.294,61.294,0,0,0-2.28,7.355c-.286,1.059-.447,2.039-.619,2.891s-.286,1.594-.36,2.2-.138,1.083-.171,1.4m-.463-9.634a35.961,35.961,0,0,1,5.138-15.611,54.163,54.163,0,0,0-3.08,7.177,53.878,53.878,0,0,0-1.921,7.573q-.071.437-.136.862" transform="translate(-58.829 505.117)" fill="#cc4341"/>
          <path id="path278" d="M389.822-257.225a35.578,35.578,0,0,1,.084-5.151q.065-.425.136-.862a53.874,53.874,0,0,1,1.921-7.573,54.139,54.139,0,0,1,3.08-7.177q.562-.914,1.181-1.791a6.792,6.792,0,0,1,1.215-1.394c-.626,1.04-1.268,2.192-1.912,3.433a58.439,58.439,0,0,0-3.006,7.118,58.559,58.559,0,0,0-1.945,7.479,55.691,55.691,0,0,0-.754,5.918" transform="translate(-58.819 505.011)" fill="#0f191d"/>
          <path id="path280" d="M390.524-252.193l-.048-.243c.033-.32.091-.794.171-1.4s.181-1.349.36-2.2.333-1.833.619-2.891a61.305,61.305,0,0,1,2.28-7.355,68.279,68.279,0,0,1,4.009-8.541c.865-1.517,1.771-2.959,2.691-4.317a6.6,6.6,0,0,1-.665,1.275,63.941,63.941,0,0,0-9.418,25.679" transform="translate(-58.926 504.705)" fill="#0f191d"/>
          <path id="path282" d="M592.84-93.827,576.824-15.2H437.8a2.776,2.776,0,0,1-2.777-2.776A2.777,2.777,0,0,1,437.8-20.75h27.986l14.849-73.127a3.037,3.037,0,0,1,2.942-2.432l106.252-1.16a3.035,3.035,0,0,1,3.008,3.641" transform="translate(-65.649 477.288)" fill="#dadbd8"/>
          <path id="path284" d="M592.806-93.834s.018-.078.043-.237a2.665,2.665,0,0,0,.015-.713,3.06,3.06,0,0,0-1.471-2.3,3.2,3.2,0,0,0-.918-.364,4.869,4.869,0,0,0-1.095-.068l-2.5.019-6.256.052-40.174.38-28.006.283-15.69.161-8.228.086-4.207.043c-.358.01-.694-.006-1.076.026a3.159,3.159,0,0,0-1.073.311,3.205,3.205,0,0,0-1.526,1.6,4.925,4.925,0,0,0-.291,1.068l-.215,1.057q-.216,1.06-.434,2.126-.433,2.131-.874,4.293-.878,4.318-1.78,8.746-1.8,8.852-3.683,18.1c-2.505,12.329-5.111,25.152-7.8,38.364l.187-.153H438.233a5.147,5.147,0,0,0-1.082.065,2.969,2.969,0,0,0-1.822,1.213,2.972,2.972,0,0,0-.492,2.139,2.98,2.98,0,0,0,1.517,2.163,3.005,3.005,0,0,0,1.308.353l1.283,0h15.169l19.766,0,37.636-.008,65.275-.034h.119l.025-.116c4.9-24.169,8.877-43.829,11.637-57.453,1.369-6.809,2.434-12.107,3.16-15.709.355-1.8.628-3.168.813-4.1s.263-1.4.263-1.4-.111.471-.3,1.393-.48,2.3-.855,4.088c-.744,3.6-1.834,8.894-3.238,15.695-2.79,13.618-6.815,33.269-11.764,57.427l.145-.118-65.275-.034-37.636-.008-19.766,0H438.944l-1.269,0a2.65,2.65,0,0,1-1.138-.307,2.6,2.6,0,0,1-1.32-1.883,2.577,2.577,0,0,1,.428-1.86,2.578,2.578,0,0,1,1.585-1.059,4.733,4.733,0,0,1,1-.057H465.91l.032-.153c2.68-13.212,5.281-26.038,7.782-38.365q1.873-9.248,3.67-18.107.9-4.427,1.772-8.748.438-2.16.87-4.294.216-1.067.431-2.126l.214-1.056a4.662,4.662,0,0,1,.268-1,2.886,2.886,0,0,1,1.364-1.435,2.863,2.863,0,0,1,.962-.278c.324-.028.7-.017,1.044-.025l4.207-.049q4.176-.049,8.228-.094,8.106-.1,15.69-.181l28.005-.33,40.173-.5,6.256-.085,2.5-.035a4.838,4.838,0,0,1,1.077.057,3.112,3.112,0,0,1,.9.348,3.036,3.036,0,0,1,1.472,2.242,4,4,0,0,1-.023.946" transform="translate(-65.615 477.296)" fill="#17282f"/>
          <path id="path286" d="M545.44-51.613a4.592,4.592,0,0,0,4.592,4.591,4.591,4.591,0,0,0,4.592-4.591,4.591,4.591,0,0,0-4.592-4.592,4.592,4.592,0,0,0-4.592,4.592" transform="translate(-82.311 471.061)" fill="#fff"/>
          <path id="path288" d="M598.871-92.433s-.163-.013-.479-.016l-1.406-.009-5.406.007c-4.706.023-11.495.057-19.877.1-16.795.12-39.977.282-65.579.463l-9.486.076q-1.168.01-2.33.019a6.055,6.055,0,0,0-1.19.073,3.319,3.319,0,0,0-1.128.456,3.294,3.294,0,0,0-1.411,1.914c-.174.769-.3,1.5-.456,2.242-1.175,5.923-2.31,11.636-3.388,17.08-2.151,10.883-4.089,20.686-5.717,28.924C479.406-32.883,478.1-26.222,477.2-21.6c-.439,2.295-.783,4.08-1.019,5.307-.111.6-.2,1.056-.256,1.382s-.075.472-.075.472.045-.155.112-.466.168-.779.294-1.374c.252-1.224.619-3,1.09-5.293.933-4.613,2.279-11.266,3.942-19.483,1.651-8.233,3.615-18.029,5.8-28.908,1.087-5.442,2.227-11.155,3.41-17.075.151-.735.29-1.5.452-2.217a2.923,2.923,0,0,1,1.25-1.694,2.97,2.97,0,0,1,1-.4,5.749,5.749,0,0,1,1.118-.063l2.33-.018,9.485-.075,65.579-.575,19.877-.218,5.4-.079,1.405-.031c.316-.008.479-.023.479-.023" transform="translate(-71.809 476.532)" fill="#17282f"/>
          <path id="path290" d="M349.569-348.086a9.52,9.52,0,0,0,12.084-2.433,9.518,9.518,0,0,0-1.206-12.268,9.825,9.825,0,0,0,6.045-9.418,9.822,9.822,0,0,0-7.034-8.7,11.668,11.668,0,0,0-1.515-11.185,11.666,11.666,0,0,0-10.375-4.443,12.864,12.864,0,0,0-14.315-6.789,9.414,9.414,0,0,0-10.88.342,9.413,9.413,0,0,0-2.856,10.5" transform="translate(-48.13 523.681)" fill="#17282f"/>
          <path id="path292" d="M338.086-345.166A38.993,38.993,0,0,0,317.4-393.837l-1.841-.831c-20.37-7.794-38.37,5.151-45.6,25.73l-31.674,70.9,16.348,52.56,24.43-26.094,11.87-13.727s20.418,5.641,29.26-13.33c4.269-9.161,11.527-28.742,17.89-46.54" transform="translate(-35.96 522.484)" fill="#ba6258"/>
          <path id="path294" d="M296.628-268.7A50.764,50.764,0,0,1,274.933-287.3s-2,15.755,17.812,22.625l3.883-4.034" transform="translate(-41.481 505.935)" fill="#6f3530"/>
          <path id="path296" d="M339.686-318.886a2.989,2.989,0,0,1-3.867,1.564,2.858,2.858,0,0,1-1.7-3.722,2.99,2.99,0,0,1,3.864-1.567,2.86,2.86,0,0,1,1.7,3.726" transform="translate(-50.39 511.296)" fill="#17282f"/>
          <path id="path298" d="M344.131-328.215c-.5.2-1.873-2.255-4.808-3.571-2.912-1.355-5.744-.817-5.9-1.32-.084-.23.55-.716,1.793-.975a8.2,8.2,0,0,1,4.922.617,7.87,7.87,0,0,1,3.626,3.285c.591,1.1.6,1.879.367,1.963" transform="translate(-50.315 513.016)" fill="#17282f"/>
          <path id="path300" d="M307.954-332.43a2.989,2.989,0,0,1-3.867,1.562,2.858,2.858,0,0,1-1.7-3.723,2.991,2.991,0,0,1,3.865-1.566,2.862,2.862,0,0,1,1.7,3.727" transform="translate(-45.602 513.34)" fill="#17282f"/>
          <path id="path302" d="M309.9-342.881c-.5.2-1.876-2.256-4.808-3.57-2.913-1.355-5.746-.819-5.9-1.321-.085-.23.546-.717,1.793-.974a8.188,8.188,0,0,1,4.921.617,7.877,7.877,0,0,1,3.627,3.284c.586,1.1.6,1.879.367,1.963" transform="translate(-45.15 515.23)" fill="#17282f"/>
          <path id="path304" d="M312.787-315.005c.061-.173,2.027.334,5.149,1.288.783.26,1.559.431,1.916-.023a4.185,4.185,0,0,0,.5-2.444q.17-3.193.358-6.7c.588-9.5,1.372-17.179,1.755-17.153s.216,7.752-.37,17.255q-.245,3.5-.466,6.69a4.748,4.748,0,0,1-.937,3.113,2.061,2.061,0,0,1-1.724.54,5.581,5.581,0,0,1-1.351-.4c-3.044-1.181-4.893-2-4.83-2.17" transform="translate(-47.202 513.894)" fill="#17282f"/>
          <path id="path306" d="M316.072-354.317c-.722.569-2.871-1.37-5.919-2.865-3.014-1.563-5.884-2.157-5.818-3.057.044-.423.894-.842,2.278-.935a10.185,10.185,0,0,1,5.081,1.119,9.821,9.821,0,0,1,3.859,3.394c.717,1.151.85,2.068.519,2.345" transform="translate(-45.926 517.086)" fill="#17282f"/>
          <path id="path308" d="M349.879-340.388c-.918.387-3.025-1.395-5.921-2.74-2.854-1.43-5.576-1.978-5.827-2.929-.1-.45.592-.943,1.953-1.088a10.393,10.393,0,0,1,5.327,1.09,10.2,10.2,0,0,1,4.14,3.479c.718,1.148.747,1.986.328,2.187" transform="translate(-51.025 514.972)" fill="#17282f"/>
          <path id="path310" d="M266.452-341.9a5.68,5.68,0,0,0-3.34-7.512c-3.71-1.267-8.58-1.033-11.662,6.425-5.468,13.23,8.943,15.99,9.121,15.619.122-.25,3.642-8.975,5.88-14.532" transform="translate(-37.759 515.397)" fill="#ba6258"/>
          <path id="path312" d="M260.641-332.686c-.041-.066-.3.067-.761.084a2.488,2.488,0,0,1-1.737-.676c-1.186-1.091-1.447-3.8-.525-6.207a8.226,8.226,0,0,1,2.009-3.032,2.876,2.876,0,0,1,2.464-1.053,1.268,1.268,0,0,1,1.1,1.193c.025.444-.169.672-.108.724.023.049.375-.105.495-.7a1.6,1.6,0,0,0-.178-1.044,1.883,1.883,0,0,0-1.136-.864,3.5,3.5,0,0,0-3.255,1.056,8.463,8.463,0,0,0-2.323,3.357c-1.017,2.7-.684,5.76,1,7.1a2.672,2.672,0,0,0,2.253.522c.545-.158.736-.426.7-.469" transform="translate(-38.649 514.547)" fill="#6f3530"/>
          <path id="path314" d="M343.654-378.682a5.291,5.291,0,0,0-.037-1.137,9.214,9.214,0,0,0-4.823-6.626,35.262,35.262,0,0,0-3.706-3.983,12.889,12.889,0,0,0-6.105-9.631,12.89,12.89,0,0,0-12.809.12c-.569-.165-1.145-.316-1.722-.462a13,13,0,0,0-8.559-6.232,12.967,12.967,0,0,0-11.321,3.268,9.466,9.466,0,0,0-10.145-.985,9.469,9.469,0,0,0-4.877,8.951c-2.948.282-6.006,1.7-7.273,4.384-1.191,2.519.01,6.062,2.591,6.864-3.28,6.041-5.928,13.706-8.527,20.342-1.831,4.672,2.76,10.009,1.759,13.29-5.106,16.742,4.012,10.328,20.778-21.533.443-.105.9-.226,1.375-.379.962-.308,1.48-1.019,2.392-1.451,1.09-.516,2.286.34,3.326.949A9.135,9.135,0,0,0,307.306-375c.314,1.884,2.6,2.839,4.488,2.556s3.528-1.4,5.264-2.2,3.874-1.242,5.487-.22c.9.572,1.547,1.553,2.555,1.9,1.781.621,3.522-1.008,4.549-2.59.863-1.334,1.784-2.874,3.165-3.493a10.578,10.578,0,0,1,3.742.55c.616.366,1.213.794,1.8,1.172a6.647,6.647,0,0,0,.892.47,10.545,10.545,0,0,1,.969,1.011c4.5,5.387,4.145,19.6,4.145,19.6,3.817-7.386,2.548-15.551-.712-22.443" transform="translate(-40.127 523.98)" fill="#17282f"/>
          <path id="path316" d="M313.34-398.755c-.011-.015.093-.111.3-.282a7.244,7.244,0,0,1,.989-.667,10.564,10.564,0,0,1,4.217-1.34,10.465,10.465,0,0,1,6.489,1.433A11.065,11.065,0,0,1,330.31-393l-.383-.2a16.085,16.085,0,0,1,4.139-.941,12.334,12.334,0,0,1,9.3,2.8,9.57,9.57,0,0,1,3.472,7.12,8.538,8.538,0,0,1-1.609,5.135,6.692,6.692,0,0,1-1,1.085c-.263.213-.405.315-.419.3a17.8,17.8,0,0,0,1.228-1.515,8.6,8.6,0,0,0,1.381-5,9.224,9.224,0,0,0-3.41-6.716,11.9,11.9,0,0,0-8.891-2.628,15.737,15.737,0,0,0-3.988.9l-.3.11-.079-.311a10.649,10.649,0,0,0-4.674-6.315,10.217,10.217,0,0,0-6.188-1.489,11.1,11.1,0,0,0-4.153,1.142c-.911.461-1.363.8-1.391.765" transform="translate(-47.285 523.109)" fill="#fff"/>
          <path id="path318" d="M279.618-393.631c-.006-.011.063-.057.206-.135a6.848,6.848,0,0,1,.646-.324,7.84,7.84,0,0,1,2.7-.561,9.075,9.075,0,0,1,4.235.914,8.358,8.358,0,0,1,4.026,3.993l-.4-.05a11.308,11.308,0,0,1,8.337-4.093,14.262,14.262,0,0,1,5.323.683,17.321,17.321,0,0,1,4.984,2.689,28.56,28.56,0,0,1,6.883,8.046l-.436-.055a12.755,12.755,0,0,1,8.666-3.512,12.191,12.191,0,0,1,7.058,2.21,12.25,12.25,0,0,1,3.364,3.51,8.671,8.671,0,0,1,.619,1.14,1.56,1.56,0,0,1,.16.419c-.041.021-.3-.537-.934-1.456a12.826,12.826,0,0,0-3.405-3.324,11.983,11.983,0,0,0-6.854-2.022,12.354,12.354,0,0,0-8.281,3.436l-.251.245-.185-.3a28.436,28.436,0,0,0-6.76-7.867,16.918,16.918,0,0,0-4.81-2.605,13.792,13.792,0,0,0-5.106-.678,10.875,10.875,0,0,0-8,3.827l-.241.308-.161-.358a8.025,8.025,0,0,0-3.762-3.845,9.007,9.007,0,0,0-4.063-.985,9.644,9.644,0,0,0-3.56.752" transform="translate(-42.196 522.136)" fill="#fff"/>
          <path id="path320" d="M334.361-377.3a3.421,3.421,0,0,1-.452.4,12.048,12.048,0,0,0-1.172,1.285c-.477.593-1.015,1.357-1.675,2.237a8.882,8.882,0,0,1-2.727,2.633,2.947,2.947,0,0,1-2.273.148,10.457,10.457,0,0,1-2.152-1.143,4.821,4.821,0,0,0-2.288-.839,6.472,6.472,0,0,0-2.563.615c-.857.359-1.717.818-2.613,1.257a10.077,10.077,0,0,1-2.893,1.2,6.682,6.682,0,0,1-3.29-.332,5.338,5.338,0,0,1-1.533-.814,2.456,2.456,0,0,1-.967-1.579l.513.139a8.737,8.737,0,0,1-1.862,1.806,8.53,8.53,0,0,1-2.419,1.128,9.887,9.887,0,0,1-5.436-.14,11.864,11.864,0,0,1-2.122-.868,4.841,4.841,0,0,0-1.9-.853,2.938,2.938,0,0,0-1.9.476,14.464,14.464,0,0,1-1.995.87,11.229,11.229,0,0,1-8.13.113,10.3,10.3,0,0,1-4.935-5.384,10.657,10.657,0,0,1-.611-6.25l.157.239a5.633,5.633,0,0,1-3.782-2.93,5.292,5.292,0,0,1-.429-3.583,5.3,5.3,0,0,1,.949-2.068,3.829,3.829,0,0,1,.391-.443l.155-.127a6.193,6.193,0,0,0-1.278,2.682,5.114,5.114,0,0,0,.495,3.392,5.313,5.313,0,0,0,3.581,2.681l.2.041-.041.2a10.307,10.307,0,0,0,.66,5.982,9.856,9.856,0,0,0,4.71,5.076,10.738,10.738,0,0,0,7.719-.163,13.959,13.959,0,0,0,1.916-.841,3.532,3.532,0,0,1,2.24-.542,3.215,3.215,0,0,1,1.147.359l.958.556a11.374,11.374,0,0,0,2.014.823,9.33,9.33,0,0,0,5.112.143,8.012,8.012,0,0,0,2.246-1.042,8.181,8.181,0,0,0,1.733-1.671l.422-.531.089.669c.129.963,1.168,1.6,2.119,1.934a6.166,6.166,0,0,0,3.016.325,9.716,9.716,0,0,0,2.749-1.132c.9-.432,1.763-.885,2.656-1.25a6.87,6.87,0,0,1,2.767-.624,5.229,5.229,0,0,1,2.5.934,10.346,10.346,0,0,0,2.05,1.132,2.569,2.569,0,0,0,1.992-.1,8.8,8.8,0,0,0,2.658-2.478c.678-.856,1.246-1.609,1.75-2.19a9.561,9.561,0,0,1,1.258-1.235,2.4,2.4,0,0,1,.516-.327" transform="translate(-41.164 521.449)" fill="#33535f"/>
          <path id="path322" d="M18.018-83.257s-5.847,15.585-7.9,19.766,0,49.228,0,49.228H143.374l1.883-39.618L81.106-92.56l-63.088,9.3" transform="translate(-1.39 476.548)" fill="#17282f"/>
          <path id="path324" d="M349.312-155.9,401.76-146s-1,22.684-.331,22.118-73.515-.7-73.515-.7l21.4-31.322" transform="translate(-49.485 486.106)" fill="#ba6258"/>
          <path id="path326" d="M413.085-144.3l36.356,11.223,15.966,11.223,14.225,15.333s-.159,4.267-5.533,1.58a50.851,50.851,0,0,1-10.59-7.746L474.1-93.245s-4.267,4.268-7.745-1.9-8.694-14.068-8.694-14.068l-3.162-2.371s3.321,5.849,3.321,7.429S454.5-93.719,454.5-93.719l-5.216,7.113a3.268,3.268,0,0,1-2.925-3.635,11.275,11.275,0,0,1,2.134-5.691L442.17-90.4s-2.213-1.264-.316-5.374l2.371-2.529.79-3.952-1.9-3s-4.9.316-8.694-5.374-9.642-4.585-17.861-9.485-7.429-10.274-7.429-10.274l3.951-13.91" transform="translate(-61.738 484.356)" fill="#ba6258"/>
          <path id="path328" d="M436.772-127.981a16.856,16.856,0,0,0,1.378,4.378,17.891,17.891,0,0,0,2.845,4.068,41.269,41.269,0,0,0,4.525,4.138,25.933,25.933,0,0,1,4.583,4.227,5.789,5.789,0,0,1,1.14,4.957,3.7,3.7,0,0,1-2.388,2.461,2.579,2.579,0,0,1-.945.107c-.216-.028-.325-.061-.322-.079a5.548,5.548,0,0,0,1.192-.245,3.552,3.552,0,0,0,2.062-2.355,5.449,5.449,0,0,0-1.175-4.524,27.422,27.422,0,0,0-4.519-4.095,37.828,37.828,0,0,1-4.558-4.232,17.071,17.071,0,0,1-2.816-4.251,11.525,11.525,0,0,1-.972-3.3,3.717,3.717,0,0,1-.03-1.259" transform="translate(-65.907 481.893)" fill="#6f3530"/>
          <path id="path330" d="M468.587-110.137a3.762,3.762,0,0,1-.98-.428c-.611-.309-1.486-.778-2.556-1.372-2.139-1.195-5.061-2.909-8.216-4.914-2.516-1.6-4.8-3.135-6.614-4.4l.206.03c-1.625.5-2.965.9-3.9,1.157a6.357,6.357,0,0,1-1.49.34,6.37,6.37,0,0,1,1.406-.6c.912-.338,2.23-.8,3.839-1.354l.105-.035.1.065,6.664,4.3c3.15,2,6.029,3.769,8.112,5.051a28.851,28.851,0,0,1,3.325,2.161" transform="translate(-67.159 480.947)" fill="#6f3530"/>
          <path id="path332" d="M461.227-107.354a4.529,4.529,0,0,1-2.9,1.823,4.52,4.52,0,0,1-3.422-.16c.029-.173,1.526.063,3.272-.411,1.753-.446,2.94-1.389,3.052-1.252" transform="translate(-68.648 478.782)" fill="#6f3530"/>
          <path id="path334" d="M455.191-102.959a41.546,41.546,0,0,1,2.363,6.631,3.987,3.987,0,0,1-.315,2.842c-.36.788-.754,1.426-1.018,1.988a9.1,9.1,0,0,0-.6,1.914,2.729,2.729,0,0,1,.217-2.077c.228-.609.591-1.286.9-2.039a3.578,3.578,0,0,0,.245-2.475c-1.132-3.684-1.954-6.74-1.793-6.784" transform="translate(-68.689 478.117)" fill="#6f3530"/>
          <path id="path336" d="M15.3-123.183,62.055-173.65s61.519-105.636,73.754-115.373c30.6-24.352,65.334-11.6,65.334-11.6l12.375-4.7,20.854,52.971s-7.728,11.313-8.5,13.576-93.5,142.554-93.5,142.554L99.23-49.818S47.879-59.431,25.9-87.483c-10.046-12.823-10.6-35.7-10.6-35.7" transform="translate(-2.309 508.655)" fill="#00cec9"/>
          <path id="path338" d="M257.381-245.365l6.857-5.847.078,17.841,11.859,16.75s-34.709,41.807-41.847,48.775S170.082-93.08,170.082-93.08s-3.02,32.157-6.864,41.268S133.446-45.1,133.446-45.1L146.331-82l5.356-26.626,64.795-85.752,25.435-33.3,15.464-17.69" transform="translate(-20.138 500.49)" fill="#00cec9"/>
          <path id="path340" d="M258.966-183.456c0,1.064,35.263,34.774,35.263,34.774s2.545,6.386,5.453,7.45,17.449,7.806,17.449,7.806l22.782-32.645s-11.511-10.644-14.784-12.417-11.147-10.941-11.147-10.941l-26.393-31.691-20.262,10.336-8.362,27.327" transform="translate(-39.08 495.948)" fill="#00cec9"/>
          <path id="path342" d="M257.117-235.005a1.3,1.3,0,0,1,.154-.317c.137-.235.3-.529.512-.888.492-.818,1.166-1.942,2.014-3.354,1.8-2.935,4.33-7.068,7.4-12.077l.263.355-19.18,5.115L248-246.1l-.075-.282-2.02-7.66c-3.281-12.6-6.249-24-8.415-32.32-1.039-4.1-1.884-7.439-2.485-9.811q-.406-1.681-.646-2.675a5.768,5.768,0,0,1-.187-.943,5.962,5.962,0,0,1,.3.913l.754,2.647c.645,2.362,1.551,5.682,2.666,9.763,2.209,8.307,5.236,19.694,8.583,32.277.688,2.624,1.364,5.2,2.012,7.661l-.355-.206c7.124-1.859,13.687-3.573,19.208-5.012l.585-.153-.323.508c-3.143,4.965-5.735,9.06-7.575,11.969l-2.123,3.287-.571.851a1.349,1.349,0,0,1-.216.279" transform="translate(-35.338 507.82)" fill="#17282f"/>
          <path id="path344" d="M283.681-232.493a3.474,3.474,0,0,1-.615.588l-1.832,1.54-6.627,5.379-.478.388.066-.617c.362-3.4.785-7.375,1.235-11.611.138-1.243.273-2.463.4-3.63l.49.242c-4.071,3.868-7.678,7.259-10.28,9.669-1.251,1.146-2.285,2.09-3.08,2.818a8.47,8.47,0,0,1-1.167.97,8.1,8.1,0,0,1,1.023-1.122l2.959-2.945c2.53-2.485,6.086-5.928,10.143-9.812l.577-.552-.087.795c-.127,1.167-.26,2.388-.4,3.631-.48,4.233-.928,8.2-1.313,11.6l-.413-.228,6.759-5.213,1.92-1.43a3.5,3.5,0,0,1,.712-.463" transform="translate(-39.507 498.977)" fill="#17282f"/>
          <path id="path346" d="M286.156-201.281a2.146,2.146,0,0,1-.312.482l-.987,1.309c-.866,1.13-2.142,2.747-3.735,4.731-3.187,3.969-7.664,9.391-12.731,15.277s-9.768,11.12-13.22,14.86c-1.725,1.87-3.135,3.373-4.123,4.4-.46.468-.839.855-1.148,1.171-.267.263-.416.4-.43.38a2.122,2.122,0,0,1,.342-.461l1.066-1.245c1-1.134,2.347-2.662,3.984-4.521,3.37-3.81,8.015-9.083,13.082-14.966s9.588-11.258,12.855-15.156l3.879-4.612,1.073-1.238c.25-.279.389-.42.405-.408" transform="translate(-37.647 492.955)" fill="#17282f"/>
          <path id="path348" d="M330.178-170.708a7.936,7.936,0,0,1-.868,1.305c-.588.821-1.467,1.985-2.579,3.4-2.221,2.84-5.407,6.678-9.155,10.711s-7.346,7.489-10.017,9.912c-1.336,1.21-2.433,2.174-3.207,2.819a8.134,8.134,0,0,1-1.24.961,7.9,7.9,0,0,1,1.086-1.132l3.076-2.953c2.592-2.5,6.131-5.989,9.872-10.008s6.961-7.8,9.262-10.572l2.722-3.283a7.917,7.917,0,0,1,1.049-1.165" transform="translate(-45.742 488.341)" fill="#17282f"/>
          <path id="path350" d="M127.224-51.774s.085-.161.274-.457c.207-.317.49-.752.854-1.312l3.328-5.006L144.021-76.9c10.438-15.48,24.93-36.815,40.756-60.5,15.787-23.721,30.043-45.216,39.482-61.332,4.851-7.979,9.071-14.264,12.234-18.424,1.566-2.09,2.837-3.671,3.728-4.72l1.014-1.191c.23-.265.36-.393.36-.393s-.1.153-.315.431l-.968,1.227c-.86,1.071-2.1,2.673-3.636,4.782-3.1,4.2-7.258,10.5-12.061,18.5-9.347,16.17-23.562,37.725-39.348,61.442-15.828,23.687-30.375,44.986-40.9,60.407-5.266,7.686-9.531,13.911-12.5,18.242-1.473,2.13-2.622,3.79-3.419,4.945l-.9,1.277c-.206.287-.324.425-.324.425" transform="translate(-19.199 496.301)" fill="#17282f"/>
          <path id="path352" d="M123.226-94.9a2.187,2.187,0,0,1-.482-.341l-1.311-1.064c-1.133-.93-2.741-2.316-4.7-4.061-3.915-3.487-9.177-8.475-14.676-14.291s-10.178-11.36-13.438-15.467c-1.631-2.052-2.923-3.735-3.788-4.919l-.988-1.369a2.266,2.266,0,0,1-.312-.5,2.239,2.239,0,0,1,.407.429l1.075,1.3,3.93,4.8c3.337,4.034,8.059,9.515,13.543,15.323s10.691,10.827,14.529,14.388l4.567,4.2,1.238,1.148a2.225,2.225,0,0,1,.405.43" transform="translate(-12.606 483.242)" fill="#17282f"/>
          <path id="path354" d="M206.054-282.186c-.053.033-.5-.739-1.5-1.979a20.272,20.272,0,0,0-5.1-4.355,33.789,33.789,0,0,0-9.292-3.617,42.508,42.508,0,0,0-12.133-1.417,26.842,26.842,0,0,0-11.705,3.11,27.238,27.238,0,0,0-7.734,6.236,30.152,30.152,0,0,0-3.781,5.581c-.751,1.412-1.078,2.239-1.133,2.217a2.572,2.572,0,0,1,.2-.615,17.9,17.9,0,0,1,.728-1.705,27.57,27.57,0,0,1,3.668-5.748,26.981,26.981,0,0,1,7.792-6.444,26.972,26.972,0,0,1,11.938-3.221,41.93,41.93,0,0,1,12.294,1.481,33.1,33.1,0,0,1,9.377,3.788,19.309,19.309,0,0,1,5.064,4.566,15.438,15.438,0,0,1,1.027,1.548,2.727,2.727,0,0,1,.3.575" transform="translate(-23.189 506.973)" fill="#17282f"/>
          <path id="path356" d="M148.463-263.2s-1.995,70,0,103.172c.609,10.124,4.371,16.82,5.147,17.048,2.036.6,43.138-2.878,43.138-2.878s.331-12.561,3.431-17.273-4.845-2.744-4.845-2.744,16.973-86.282,14.851-102.157L148.463-263.2" transform="translate(-22.271 503.028)" fill="#00cec9"/>
          <path id="path358" d="M210.143-268.035s.11.671.2,1.974c.051,1.3.08,3.24-.065,5.742-.241,5.007-1,12.279-2.235,21.372-2.468,18.191-6.8,43.681-12.474,73.123l-.343-.328a14.929,14.929,0,0,1,3.185-.414,4.937,4.937,0,0,1,1.663.231,1.766,1.766,0,0,1,.776.53,1.43,1.43,0,0,1,.291.934,3.757,3.757,0,0,1-.594,1.62c-.289.483-.538.9-.772,1.38a18.572,18.572,0,0,0-1.062,3A61.926,61.926,0,0,0,197-145.853l-.011.263-.257.021-17.5,1.414c-5.059.388-10.059.762-14.993,1.08-2.467.152-4.915.309-7.352.4-.608.031-1.219.042-1.831.044-.106,0-.209,0-.312,0a4.336,4.336,0,0,1-.623-.017l-.495-.044c-.117.043-.457-.192-.514-.29a13.355,13.355,0,0,1-1.832-3.211,41.7,41.7,0,0,1-3.13-13.763q-.168-3.452-.334-6.828-.109-3.376-.216-6.673c-.428-17.585-.315-33.424-.168-46.719s.4-24.054.6-31.488c.112-3.7.2-6.582.258-8.559.038-.963.067-1.7.088-2.226.024-.5.051-.757.051-.757s.014.258.009.76c-.007.522-.016,1.262-.029,2.227-.034,1.978-.084,4.857-.147,8.561-.126,7.434-.306,18.191-.41,31.487s-.164,29.13.293,46.7q.112,3.295.228,6.667.17,3.369.342,6.813a41.177,41.177,0,0,0,3.1,13.568,13.1,13.1,0,0,0,1.714,3.032l.1.1.14.041.409.028a3.581,3.581,0,0,0,.571.014c.1,0,.207,0,.307,0,.6,0,1.2-.015,1.81-.045,2.425-.088,4.873-.249,7.336-.4,4.928-.319,9.928-.693,14.985-1.082l17.5-1.41-.268.284a62.353,62.353,0,0,1,1.741-13.153,19.044,19.044,0,0,1,1.1-3.1c.463-1.009,1.234-1.865,1.313-2.777a.9.9,0,0,0-.693-.907,4.458,4.458,0,0,0-1.465-.2,14.43,14.43,0,0,0-3.051.4l-.427.1.083-.425c5.714-29.423,10.113-54.9,12.677-73.061,1.284-9.081,2.1-16.339,2.394-21.335.174-2.5.175-4.424.156-5.726-.009-.651-.071-1.143-.083-1.476s-.018-.5-.018-.5" transform="translate(-22.228 503.028)" fill="#17282f"/>
          <path id="path360" d="M197.186-147.214a10.82,10.82,0,0,1-1.775.36c-1.15.195-2.82.439-4.89.689-4.138.514-9.879,1.026-16.236,1.3s-12.124.25-16.29.091c-2.083-.071-3.768-.173-4.929-.268a10.567,10.567,0,0,1-1.8-.208,10.593,10.593,0,0,1,1.813-.02l4.928.08c4.161.053,9.909.006,16.255-.261s12.074-.719,16.215-1.126l4.9-.5a10.61,10.61,0,0,1,1.807-.132" transform="translate(-22.827 484.798)" fill="#17282f"/>
          <path id="path362" d="M154.682-121.219,178.849-19.486h24.167l-6.758-104.321-41.576,2.589" transform="translate(-23.343 481.263)" fill="#ba6258"/>
          <path id="path364" d="M205.165-17.9l24.086,4.21L250.933-7.13c2.008.686,3.294,1.849,2.488,4.366L183.145-3.5V-15.718l22.02-2.178" transform="translate(-27.638 465.28)" fill="#ba6258"/>
          <path id="path366" d="M248.68-1.553a9.846,9.846,0,0,0-.04-1.374,3.454,3.454,0,0,0-2.325-2.588c-1.455-.546-3.421-.533-5.531-.789l-6.9-.7c-4.893-.515-9.32-1.013-12.52-1.4L217.578-8.9a6.381,6.381,0,0,1-1.38-.26,6.486,6.486,0,0,1,1.4.032c1.02.084,2.294.184,3.807.307,3.212.284,7.644.718,12.538,1.233l6.893.747,3.007.345a9.641,9.641,0,0,1,2.622.6,3.657,3.657,0,0,1,2.4,2.944A3.382,3.382,0,0,1,248.8-1.9c-.062.233-.1.352-.124.348" transform="translate(-32.626 463.966)" fill="#6f3530"/>
          <path id="path368" d="M205.344-98.61l-.023-.345.14-.165-.118.511" transform="translate(-30.985 477.538)" fill="#9fa1a1"/>
          <path id="path370" d="M204.345-162.344c5.6-29.075,9.862-54.241,12.306-72.253q.326-2.393.607-4.615L210.51-170.5h0l-6.166,8.159" transform="translate(-30.837 498.679)" fill="#008c89"/>
          <path id="path372" d="M205.092-107.885l-1.282-18.968-.008-.118.372-1.951,1.083-.087.257-.021.011-.263a61.927,61.927,0,0,1,1.712-13.016q.148-.569.329-1.124,3.1-4.692,6.052-9.209v8l-8.388,36.588c-.048.055-.094.11-.14.165M209.3-147.1a3.2,3.2,0,0,0,.366-1.207,1.431,1.431,0,0,0-.291-.934,1.766,1.766,0,0,0-.776-.53,4.892,4.892,0,0,0-1.642-.231h-.022a14.139,14.139,0,0,0-2.76.322l.086-.448,6.166-8.159,3.191,2.032v2.59q-2.119,3.233-4.319,6.565" transform="translate(-30.755 486.467)" fill="#008c89"/>
          <path id="path374" d="M208.237-142.611a18.611,18.611,0,0,1,.732-1.878c.234-.479.483-.9.772-1.38.079-.134.156-.272.229-.413q2.2-3.332,4.319-6.565v1.028q-2.95,4.512-6.052,9.209" transform="translate(-31.425 485.646)" fill="#0f191d"/>
          <path id="path376" d="M204.376-142.519l1.091-5.714c-.208,1.868-.337,3.759-.427,5.659l-.665.054m1.336-30.709L217.5-244.443c-.336,2.757-.734,5.767-1.192,9.008-2.244,15.893-5.892,37.377-10.6,62.208" transform="translate(-30.842 499.468)" fill="#20353d"/>
          <path id="path378" d="M204.178-142.448l.114-.6.665-.054c.089-1.9.219-3.791.427-5.659l1.363-7.145,2.651-5.817c.289-1.165-.52-1.438-1.636-1.438-.692,0-1.5.105-2.242.168l-1.7.146,1.806-10.909c4.7-24.831,8.352-46.315,10.6-62.208.458-3.241.856-6.252,1.192-9.008l.49-2.958-.727,7.4q-.28,2.221-.607,4.615c-2.444,18.012-6.709,43.178-12.306,72.253l-.086.448a14.129,14.129,0,0,1,2.76-.322h.022a4.893,4.893,0,0,1,1.642.231,1.766,1.766,0,0,1,.776.53,1.43,1.43,0,0,1,.291.934,3.2,3.2,0,0,1-.366,1.207c-.072.141-.149.28-.229.413-.289.483-.538.9-.772,1.38a18.613,18.613,0,0,0-.732,1.878q-.182.555-.329,1.124a61.926,61.926,0,0,0-1.712,13.016l-.011.263-.257.021-1.083.087" transform="translate(-30.758 499.994)" fill="#0f191d"/>
          <path id="path380" d="M203.81-121.286l-.008-.116h0l.008.118" transform="translate(-30.755 480.9)" fill="#78403a"/>
          <path id="path382" d="M298.851-309.379c-2.683,2.809-3.477,6.849-1.252,10.035a5.165,5.165,0,0,0,3.376,2.088,5.179,5.179,0,0,0,4.567-1.089,10.172,10.172,0,0,0,2.86-3.925c-2.631-2.083-6.921-5.027-9.551-7.109" transform="translate(-44.715 509.267)" fill="#6f3530"/>
          <path id="path384" d="M304.63-297.739a2.645,2.645,0,0,1-1.126.414,6.093,6.093,0,0,1-3.267-.3,6.422,6.422,0,0,1-3.553-3.308,7.413,7.413,0,0,1-.141-5.928,9.112,9.112,0,0,1,1.653-2.709l.175-.2.213.157c2.752,2.038,5.148,3.842,6.845,5.151a22.674,22.674,0,0,1,2.653,2.179,22.346,22.346,0,0,1-2.874-1.877c-1.757-1.227-4.2-2.972-6.964-4.988l.387-.043a8.775,8.775,0,0,0-1.538,2.543,6.974,6.974,0,0,0,.085,5.485,6.1,6.1,0,0,0,3.213,3.15,6.33,6.33,0,0,0,3.079.456c.745-.085,1.145-.235,1.162-.187" transform="translate(-44.668 509.326)" fill="#17282f"/>
        </g>
      </g>
    </g>
  </g>
</svg>
