<svg xmlns="http://www.w3.org/2000/svg" width="397.104" height="258.966" viewBox="0 0 397.104 258.966">
  <g id="g12" transform="translate(-20.114)">
    <g id="g18" transform="translate(22.687 76.662)">
      <path id="path20" d="M894.635-1615.557a43.835,43.835,0,0,1,1.108,5.178l.659-.1a45.1,45.1,0,0,0-1.128-5.256l-.64.178m1.588,10.45c.011.421.02.842.02,1.263q0,2.007-.191,4.026l.662.063q.194-2.052.194-4.09c0-.428-.006-.855-.02-1.283l-.665.02h0m-1,10.515a41.488,41.488,0,0,1-1.478,5.081l.628.224a43.181,43.181,0,0,0,1.5-5.159l-.651-.146h0m-3.574,9.938a45,45,0,0,1-2.667,4.569l.553.368a45.487,45.487,0,0,0,2.71-4.635l-.595-.3m-5.846,8.8a51.4,51.4,0,0,1-3.619,3.87l.463.479a51.83,51.83,0,0,0,3.663-3.92l-.508-.429m-7.6,7.365q-2.015,1.61-4.283,3.128l.37.554q2.289-1.532,4.328-3.161l-.415-.521h0m-8.808,5.9q-2.251,1.268-4.713,2.444l.286.6q2.483-1.183,4.755-2.464l-.328-.581m-9.576,4.58q-2.4.969-4.984,1.852l.216.629q2.6-.886,5.015-1.865l-.247-.616m-10.056,3.444q-2.495.719-5.145,1.356l.154.647q2.663-.642,5.173-1.363l-.182-.641m-10.345,2.5q-2.554.507-5.24.94l.107.657q2.7-.434,5.262-.945l-.129-.652m-10.508,1.7q-2.587.33-5.293.594l.064.662q2.714-.265,5.31-.6l-.081-.661m-10.6,1.033q-2.609.18-5.318.3l.028.666q2.722-.117,5.338-.3l-.048-.664m-10.645.467q-2.377.045-4.83.047h-.5v.665h.5q2.461,0,4.844-.048l-.014-.664h0m-10.662-.02q-2.621-.057-5.329-.17l-.028.666q2.714.112,5.344.17l.014-.666m-10.656-.438q-2.621-.154-5.318-.361l-.05.664q2.7.207,5.329.361l.039-.664m-10.634-.807q-2.621-.24-5.307-.526l-.07.662c1.792.191,3.568.366,5.316.527l.062-.664m-10.606-1.128q-2.617-.317-5.29-.676l-.09.661q2.68.359,5.3.676l.081-.661m-10.575-1.418q-2.609-.382-5.273-.807l-.1.657q2.667.424,5.282.808l.1-.659m-10.536-1.674q-2.6-.444-5.254-.925l-.121.654q2.659.484,5.262.927l.112-.655m-10.5-1.907q-2.592-.5-5.234-1.033l-.132.652q2.642.536,5.24,1.035l.126-.654m-10.457-2.116q-2.584-.547-5.215-1.131l-.145.65q2.635.584,5.22,1.133l.14-.652m-10.419-2.308q-2.576-.594-5.195-1.219l-.155.647q2.621.627,5.2,1.221l.15-.649m-10.379-2.482q-2.565-.637-5.174-1.3l-.165.644q2.611.669,5.18,1.3l.16-.646h0M691.9-1565.8q-.749-.2-1.5-.4-1.844-.491-3.674-.94l-.16.646q1.824.449,3.662.937l1.5.4.17-.644h0m-10.384-2.542q-2.633-.572-5.241-1.067l-.123.654q2.6.495,5.223,1.063l.141-.651m-10.512-1.993q-2.66-.432-5.293-.785l-.09.659q2.623.354,5.276.784l.106-.657m-10.6-1.432q-2.678-.289-5.326-.508l-.055.662q2.638.22,5.309.507l.072-.662h0m-10.663-.88q-2.69-.152-5.344-.238l-.022.665q2.645.085,5.327.238l.038-.665M639.044-1573q-.934-.007-1.862-.007-1.752,0-3.484.025l.01.666q1.727-.025,3.474-.025.926,0,1.857.007l.005-.666m-10.69.16q-2.693.1-5.341.258l.04.666q2.641-.157,5.326-.258l-.025-.665h0m-10.673.629q-2.688.212-5.324.476l.065.662q2.63-.262,5.312-.476l-.053-.662m-10.638,1.05q-2.68.315-5.3.667l.088.659q2.618-.352,5.291-.666l-.077-.661m-10.595,1.416q-2.672.4-5.28.825l.107.657q2.6-.424,5.271-.824l-.1-.659M585.9-1568.03q-2.666.465-5.259.942l.12.655q2.59-.476,5.253-.942l-.115-.656M575.39-1566.1q-2.665.509-5.245,1.01l.127.654q2.578-.5,5.243-1.01l-.125-.654m-10.487,2.026q-2.674.517-5.244,1l.123.654q2.572-.481,5.247-1l-.126-.654m-10.492,1.962q-2.7.476-5.26.882l.1.657q2.571-.4,5.272-.883l-.116-.656m-10.536,1.635q-2.736.347-5.294.557l.053.664q2.575-.21,5.324-.561l-.083-.661m-10.6.815c-.242,0-.482,0-.721,0-1.592,0-3.118-.063-4.576-.2l-.062.664c1.482.138,3.029.2,4.638.2.242,0,.484,0,.729,0l-.008-.665m-10.5-1.075a22.644,22.644,0,0,1-4.907-1.858l-.31.59a23.4,23.4,0,0,0,5.05,1.913l.166-.645h0m-9.145-4.908a19.723,19.723,0,0,1-3.232-4.113l-.571.341a20.4,20.4,0,0,0,3.341,4.251l.462-.479m-5.443-8.891q-.914-2.521-1.66-5.053l-.638.19q.752,2.551,1.673,5.091l.626-.228m-3-10.2q-.6-2.605-1.022-5.218l-.657.107q.43,2.633,1.03,5.259l.649-.148m-1.719-10.49q-.267-2.653-.37-5.3l-.665.025q.1,2.673.373,5.346l.662-.066h0m-.418-10.623q.056-2.658.268-5.307l-.663-.053q-.213,2.668-.27,5.347l.665.013m.842-10.587q.361-2.628.868-5.238l-.653-.126q-.51,2.628-.874,5.273l.659.091m2.018-10.417q.643-2.576,1.422-5.126l-.636-.195q-.783,2.565-1.431,5.159l.645.162m3.1-10.176q.9-2.5,1.921-4.963l-.615-.254q-1.028,2.478-1.933,4.991l.626.226m4.073-9.831q1.128-2.4,2.368-4.768l-.589-.31q-1.246,2.376-2.381,4.8l.6.283m4.941-9.43q1.332-2.3,2.767-4.551l-.562-.358q-1.441,2.264-2.781,4.574l.576.334m5.708-8.973q1.512-2.179,3.115-4.3l-.532-.4q-1.61,2.137-3.13,4.326l.547.379m6.394-8.489q1.678-2.059,3.436-4.059l-.5-.439q-1.766,2.009-3.453,4.077l.516.421m7.022-7.989q1.828-1.932,3.729-3.8l-.467-.475q-1.909,1.876-3.745,3.816l.483.458m7.594-7.463q1.966-1.8,4-3.524l-.431-.507q-2.039,1.734-4.014,3.54l.449.491m8.117-6.9q2.092-1.654,4.242-3.232l-.394-.536q-2.158,1.584-4.26,3.246l.413.522m8.6-6.31q2.209-1.5,4.468-2.919l-.354-.564q-2.268,1.423-4.488,2.932l.374.551m9.041-5.671q2.316-1.337,4.675-2.58l-.31-.589q-2.368,1.249-4.7,2.592l.333.577m9.446-4.981q2.407-1.152,4.848-2.205l-.263-.611q-2.453,1.057-4.872,2.216l.287.6h0m9.78-4.214q2.493-.956,5.01-1.8l-.212-.631q-2.531.851-5.036,1.812l.238.621m10.093-3.39q2.564-.74,5.146-1.36l-.155-.647q-2.6.624-5.176,1.368l.185.639h0m10.348-2.483q2.62-.5,5.249-.874l-.094-.659q-2.643.374-5.281.879l.125.654m10.547-1.487q2.658-.24,5.316-.339l-.025-.665q-2.675.1-5.351.342l.06.663m10.635-.394q2.663.045,5.314.239l.048-.664q-2.668-.2-5.351-.241l-.011.665m10.6.782q2.633.348,5.248.853l.126-.654q-2.633-.509-5.287-.859l-.086.66h0m10.434,2.019q2.566.66,5.1,1.482l.2-.633q-2.555-.829-5.143-1.493l-.165.645h0m10.1,3.277q2.461.97,4.883,2.1l.283-.6q-2.441-1.143-4.921-2.12l-.245.62m9.625,4.507q2.316,1.263,4.587,2.689l.354-.564q-2.289-1.436-4.622-2.71l-.319.584m9,5.65q2.141,1.529,4.236,3.215l.418-.518q-2.109-1.7-4.268-3.238l-.386.542h0m8.284,6.664q1.268,1.142,2.514,2.346.684.661,1.371,1.3l.454-.485q-.682-.641-1.363-1.3-1.256-1.212-2.531-2.362l-.446.495m7.85,7.231q2.046,1.774,4.109,3.416l.414-.521q-2.052-1.635-4.088-3.4l-.436.5m8.359,6.656q2.186,1.593,4.387,3.052l.368-.555q-2.189-1.452-4.363-3.036l-.392.538m8.9,5.908q2.316,1.391,4.643,2.65l.316-.585q-2.313-1.253-4.617-2.635l-.343.57m9.4,5.089q2.424,1.174,4.858,2.225l.266-.612q-2.424-1.043-4.836-2.212l-.289.6m9.815,4.235q2.516.959,5.035,1.8l.213-.631q-2.508-.839-5.01-1.79l-.238.622m10.14,3.391q2.579.749,5.164,1.393l.16-.645q-2.567-.644-5.136-1.388l-.188.64h0m10.373,2.6q2.626.559,5.248,1.03l.118-.656q-2.613-.469-5.226-1.025l-.14.65m10.524,1.9q2.655.4,5.3.722l.081-.66q-2.638-.327-5.279-.721l-.1.659m10.614,1.316q2.667.27,5.324.484l.053-.664q-2.651-.217-5.313-.482l-.064.662m10.654.875q2.68.177,5.335.32l.036-.666q-2.655-.142-5.327-.318l-.045.664m10.673.586q2.68.124,5.335.236l.028-.664q-2.651-.114-5.332-.236l-.031.664m10.673.464q2.684.117,5.332.244l.034-.665q-2.651-.13-5.338-.243l-.028.664h0m10.662.531q2.685.157,5.324.356l.05-.664q-2.646-.2-5.335-.358l-.039.666m10.637.812q2.676.262,5.293.592l.087-.66q-2.634-.335-5.316-.594l-.065.662m10.564,1.356q2.646.435,5.229.975l.137-.651q-2.6-.546-5.259-.982l-.107.657m10.4,2.206c1.719.459,3.417.967,5.08,1.528l.213-.631q-2.52-.848-5.122-1.54l-.171.644h0m10.053,3.4q2.44,1.021,4.788,2.231l.306-.592q-2.373-1.223-4.836-2.253l-.258.614m9.377,4.857q2.222,1.4,4.339,3.018l.4-.529q-2.141-1.64-4.387-3.053l-.356.564h0m8.384,6.416q1.915,1.757,3.731,3.743l.491-.449q-1.835-2.009-3.77-3.785l-.452.491h0m7.13,7.792q1.582,2.049,3.077,4.312l.555-.366q-1.511-2.286-3.105-4.352l-.527.406h0m5.84,8.846c.064.116.132.231.2.348a44.5,44.5,0,0,1,2.3,4.768l.611-.253a44.277,44.277,0,0,0-2.334-4.842c-.064-.116-.132-.233-.2-.348l-.581.326" transform="translate(-502.377 1725.705)" fill="#e4e4e4"/>
    </g>
    <g id="g22" transform="translate(20.114 99.038)">
      <path id="path24" d="M871.761-1386.459h-390c12.205-90.177,94.849-159.929,195-159.929s182.8,69.752,195,159.929" transform="translate(-481.758 1546.387)" fill="#f6f5f5"/>
    </g>
    <g id="g26" transform="translate(200.223 23.021)">
      <path id="path28" d="M2084.18-1920.421H1937.486a12.367,12.367,0,0,1-12.367-12.367v-210.419a12.367,12.367,0,0,1,12.367-12.367H2084.18a12.367,12.367,0,0,1,12.365,12.367v210.419a12.367,12.367,0,0,1-12.365,12.367" transform="translate(-1925.12 2155.574)" fill="#badfde"/>
    </g>
    <g id="g30" transform="translate(215.716 32.499)">
      <path id="path32" d="M2190.375-2079.617v204.958H2049.281v-204.958h141.095" transform="translate(-2049.281 2079.617)" fill="#f6f5f5"/>
    </g>
    <g id="g34" transform="translate(215.713 32.499)">
      <path id="path36" d="M2190.35-2079.614c.044,79.924,2.625,176.314-6.354,197.655-39.542,3.853-85.842,5.089-134.742,5.319l18.587-202.354,122.509-.62" transform="translate(-2049.254 2079.614)" fill="#e4e4e4"/>
    </g>
    <g id="g38" transform="translate(207.902 32.509)">
      <path id="path40" d="M2122.9-1888.349c-61.635,9.865-102.827,10.385-136.237,7.9,4.33-46.089,6.067-122.651,7.812-199.091l74.27.164,67.215,4.437c.98,79.338,1.087,152.623-13.061,186.586" transform="translate(-1986.66 2079.536)" fill="#fff"/>
    </g>
    <g id="g42" transform="translate(247.87 51.4)">
      <path id="path44" d="M2381.179-1915.094l-74.224-1.745.266-11.307,74.225,1.747-.267,11.3" transform="translate(-2306.955 1928.145)" fill="#00cec9"/>
    </g>
    <g id="g46" transform="translate(269.597 79.238)">
      <path id="path48" d="M2548.141-1703.48l-66.95-1.576-.123,5.175,66.95,1.575.123-5.175" transform="translate(-2481.068 1705.056)" fill="#00cec9"/>
    </g>
    <g id="g50" transform="translate(269.331 90.522)">
      <path id="path52" d="M2524.57-1613.561l-45.507-1.071-.122,5.175,45.507,1.071.122-5.175" transform="translate(-2478.941 1614.632)" fill="#b0f9f7"/>
    </g>
    <g id="g54" transform="translate(232.399 78.674)">
      <path id="path56" d="M2198.826-1693.357l-15.85-.374.372-15.85,15.851.374-.373,15.85" transform="translate(-2182.977 1709.58)" fill="#fff"/>
    </g>
    <g id="g58" transform="translate(231.89 78.162)">
      <path id="path60" d="M2195.252-1696.95l.014-.5-15.353-.362.35-14.851,14.852.35-.36,15.351.5.011.014-.5-.014.5.5.012.387-16.348-16.848-.4-.4,16.848,16.848.4.011-.5-.5-.012" transform="translate(-2178.892 1713.683)" fill="#708cd5"/>
    </g>
    <g id="g62" transform="translate(235.326 73.463)">
      <path id="path64" d="M2206.463-1741.959c.488,1.873,1.392,9.721,5.322,7.526.907-.506,1.674-1.844,2.354-2.614q1.827-2.077,3.655-4.15,3.657-4.151,7.311-8.3c.625-.708-2.133-2.487-2.917-1.6l-6.5,7.38-3.251,3.689c-.75.853-2.489,3.606-3.6,3.85l1.82.587c.428.353-.369-2.142-.385-2.209q-.456-1.735-.909-3.472c-.25-.956-3.266-2.106-2.9-.689" transform="translate(-2206.432 1751.34)" fill="#00cec9"/>
    </g>
    <g id="g66" transform="translate(268.921 108.054)">
      <path id="path68" d="M2530.905-1472.838l-55.131-1.3-.121,5.175,55.131,1.3.121-5.175" transform="translate(-2475.654 1474.135)" fill="#00cec9"/>
    </g>
    <g id="g70" transform="translate(268.653 119.337)">
      <path id="path72" d="M2540.576-1382.136l-66.951-1.575-.122,5.175,66.951,1.576.122-5.176" transform="translate(-2473.503 1383.711)" fill="#b0f9f7"/>
    </g>
    <g id="g74" transform="translate(231.722 107.489)">
      <path id="path76" d="M2193.4-1462.437l-15.849-.373.373-15.849,15.849.373-.373,15.849" transform="translate(-2177.551 1478.66)" fill="#fff"/>
    </g>
    <g id="g78" transform="translate(231.211 106.978)">
      <path id="path80" d="M2189.811-1466.02l.01-.5-15.35-.361.35-14.852,14.851.35-.361,15.35.5.012.01-.5-.01.5.5.012.384-16.349-16.847-.4-.4,16.848,16.847.4.012-.5-.5-.012" transform="translate(-2173.451 1482.753)" fill="#708cd5"/>
    </g>
    <g id="g82" transform="translate(234.638 102.725)">
      <path id="path84" d="M2200.944-1507.458c.489,1.873,1.392,9.721,5.322,7.526.907-.506,1.675-1.844,2.353-2.613q1.826-2.075,3.655-4.151l7.313-8.3c.624-.709-2.135-2.487-2.918-1.6q-3.252,3.69-6.5,7.379l-3.249,3.69c-.752.853-2.49,3.606-3.6,3.85l1.818.588c.429.352-.368-2.141-.384-2.209q-.455-1.736-.907-3.472c-.25-.956-3.268-2.106-2.9-.689" transform="translate(-2200.913 1516.838)" fill="#00cec9"/>
    </g>
    <g id="g86" transform="translate(268.24 136.87)">
      <path id="path88" d="M2537.272-1241.633l-66.951-1.576-.122,5.174,66.951,1.576.122-5.174" transform="translate(-2470.199 1243.209)" fill="#00cec9"/>
    </g>
    <g id="g90" transform="translate(267.975 148.152)">
      <path id="path92" d="M2498.134-1152.09l-29.942-.706-.12,5.176,29.94.7.122-5.174" transform="translate(-2468.071 1152.796)" fill="#b0f9f7"/>
    </g>
    <g id="g94" transform="translate(231.044 136.303)">
      <path id="path96" d="M2187.964-1231.524l-15.851-.373.374-15.849,15.849.373-.372,15.849" transform="translate(-2172.113 1247.746)" fill="#fff"/>
    </g>
    <g id="g98" transform="translate(230.533 135.793)">
      <path id="path100" d="M2184.377-1235.1l.011-.5-15.349-.363.35-14.851,14.85.349-.36,15.35.5.012.011-.5-.011.5.5.012.385-16.348-16.848-.4-.4,16.847,16.848.4.011-.5-.5-.012" transform="translate(-2168.016 1251.835)" fill="#708cd5"/>
    </g>
    <g id="g106" transform="translate(267.564 165.684)">
      <path id="path108" d="M2531.85-1010.717l-66.95-1.576-.122,5.174,66.95,1.575.122-5.174" transform="translate(-2464.779 1012.293)" fill="#00cec9"/>
    </g>
    <g id="g110" transform="translate(267.298 176.967)">
      <path id="path112" d="M2515.66-920.632l-52.888-1.246-.122,5.176,52.888,1.245.122-5.175" transform="translate(-2462.651 921.878)" fill="#b0f9f7"/>
    </g>
    <g id="g114" transform="translate(230.365 165.119)">
      <path id="path116" d="M2182.527-1000.6l-15.85-.374.375-15.849,15.849.372-.373,15.851" transform="translate(-2166.677 1016.823)" fill="#fff"/>
    </g>
    <g id="g118" transform="translate(229.853 164.609)">
      <path id="path120" d="M2178.932-1004.179l.012-.5-15.352-.363.35-14.851,14.852.349-.361,15.352.5.012.012-.5-.012.5.5.012.384-16.35-16.847-.4-.4,16.847,16.849.4.012-.5-.5-.012" transform="translate(-2162.571 1020.913)" fill="#708cd5"/>
    </g>
    <g id="g126" transform="translate(266.892 194.281)">
      <path id="path128" d="M2486.054-782.5l-26.539-.624-.121,5.174,26.539.626.121-5.176" transform="translate(-2459.395 783.121)" fill="#00cec9"/>
    </g>
    <g id="g130" transform="translate(266.623 205.566)">
      <path id="path132" d="M2524.314-691.114l-66.951-1.576-.122,5.174c25.9.607,58.883,1.822,65.612.789a5.807,5.807,0,0,0,1.461-4.387" transform="translate(-2457.242 692.69)" fill="#b0f9f7"/>
    </g>
    <g id="g134" transform="translate(229.914 193.721)">
      <path id="path136" d="M2178.912-771.39l-15.85-.373.374-15.851,15.85.374-.374,15.849" transform="translate(-2163.062 787.613)" fill="#fff"/>
    </g>
    <g id="g138" transform="translate(229.404 193.21)">
      <path id="path140" d="M2175.328-774.97l.011-.5-15.349-.361.348-14.853,14.853.349-.362,15.352.5.012.011-.5-.011.5.5.012.385-16.348-16.847-.4-.4,16.848,16.847.4.012-.5-.5-.012" transform="translate(-2158.968 791.704)" fill="#708cd5"/>
    </g>
    <g id="g146" transform="translate(254.156)">
      <path id="path148" d="M2420.886-2315.614v15.818h-63.557v-15.818a9.138,9.138,0,0,1,2.675-6.463,7.282,7.282,0,0,1,.645-.577,9.069,9.069,0,0,1,5.818-2.1,10.742,10.742,0,0,0,4.672-1.064,11.046,11.046,0,0,0,1.756-1.058,10.753,10.753,0,0,0,3.9-5.531,10.815,10.815,0,0,1,4.021-5.618,10.8,10.8,0,0,1,6.309-2.037h3.966a10.8,10.8,0,0,1,6.309,2.037,10.814,10.814,0,0,1,4.02,5.618,10.755,10.755,0,0,0,3.9,5.531,11.134,11.134,0,0,0,1.756,1.058,10.743,10.743,0,0,0,4.672,1.064,9.068,9.068,0,0,1,5.818,2.1,9.091,9.091,0,0,1,3.32,7.04" transform="translate(-2357.329 2340.059)" fill="#00cec9"/>
    </g>
    <g id="g150" transform="translate(248.999 32.497)">
      <path id="path152" d="M2389.871-2079.63v11.761H2316v-11.761h5.158v7.767h63.556v-7.767h5.158" transform="translate(-2315.999 2079.63)" fill="#e4e4e4"/>
    </g>
    <g id="g154" transform="translate(280.297 4.127)">
      <path id="path156" d="M2578.091-2301.625a5.5,5.5,0,0,1-5.637,5.356,5.5,5.5,0,0,1-5.639-5.356,5.5,5.5,0,0,1,5.639-5.358,5.5,5.5,0,0,1,5.637,5.358" transform="translate(-2566.816 2306.983)" fill="#fff"/>
    </g>
    <path id="path158" d="M1598.807-1809.948c-2.255-.427-4.361-4.193-5.093-5.637a1.8,1.8,0,0,1-.163-1.146l.9-4.755s2.07.351,1.91,3.108a2.047,2.047,0,0,0,.143.84l.794,2.073,2.343-1.814-1.284-3.629a6.247,6.247,0,0,1-2.609.19c-1.822-.582.567-2,1.323-2.155s2.419-.755,3.175.529,1.21,2.042,1.21,2.042.832-2.873.265-9.3c-.025-.29.7-.283.9-.075.609.619,1.579,2.5,1.63,8.237,0,0,.1-6.682,1.246-7.369.945-.567,1.422,2.7.757,8.249,0,0,1.233-4.8,2.116-4.81,1.489-.015.018,12.825-3.725,16.651l-5.836-1.233" transform="translate(-1434.675 1893.493)" fill="#f9b384"/>
    <path id="path160" d="M1616.63-1686.289q-.1.958-.22,1.857v.007a54,54,0,0,1-.985,5.664c-.02.08-.033.153-.053.226-1.138,4.665-1.344,6.948-5.231,6.336l-4-4.552-.04-.047-.293-.333.812-2.4.106-.313.6-1.744.073-.226,1.025-3,.413-1.218,7.793-.26" transform="translate(-1445.431 1767.869)" fill="#f9b384"/>
    <path id="path162" d="M1010.555-357.946l-1.018,3.183c-6.981,2.293-11.053,4.92-11.314,7.986h20.187l1.618-10.655a15.646,15.646,0,0,1-9.473-.514" transform="translate(-913.662 605.282)" fill="#1f3c88"/>
    <path id="path164" d="M1099.582-421.332l-2.531,7.91a15.646,15.646,0,0,0,9.473.514l1.044-6.871-7.986-1.552" transform="translate(-1000.158 660.759)" fill="#f9b384"/>
    <path id="path166" d="M1327.924-417.276l.592-8.056-9.483.5-.518,7.427a15.515,15.515,0,0,0,9.409.13" transform="translate(-1193.987 664.26)" fill="#f9b384"/>
    <path id="path168" d="M1333.629-350.161c-.261-3.066-3.827-7.266-11.646-8.264l.24-3.258a15.516,15.516,0,0,1-9.409-.13L1312-350.161h21.629" transform="translate(-1188.285 608.666)" fill="#1f3c88"/>
    <path id="path170" d="M1252.081-1774.772l-11.44.08V-1792h11.094l.007,1.058.053,5.484.08,8.8.206,1.877" transform="translate(-1125.83 1860.385)" fill="#f9b384"/>
    <path id="path172" d="M1262.111-1771.365c-2.057,2.163-7.421-.279-9.683-2.662l9.63-2.822.053,5.484" transform="translate(-1136.146 1847.129)" fill="#e28b6d"/>
    <path id="path174" d="M1224.332-1904.842a24.748,24.748,0,0,1-.3,3.893c-.559,3.487-2.036,6.5-5.443,6.6-8.053.233-10.349-4.373-11.866-8.139s.945-12.844.945-12.844l10.422-1.031,5.723,4.692a42.7,42.7,0,0,1,.519,6.835" transform="translate(-1095.712 1969.238)" fill="#f9b384"/>
    <path id="path176" d="M1171.542-1952.793s2.3-.1,2.69-6.034a8.119,8.119,0,0,0,9.489-2.615,5.493,5.493,0,0,0,9.63-1.968c1.386-3.965-2.441-9.871-8.014-6.294-5.462-2.76-13.748-2.57-16.132,4.2,0,0-8.289,3.822.488,12.236a10.205,10.205,0,0,0,1.85.477" transform="translate(-1060.206 2017.381)" fill="#102048"/>
    <path id="path178" d="M1318.076-1155.6l-6.324,95.618h-14.863l3.716-92.784,2.274-1.053,15.2-1.78" transform="translate(-1175.059 1303.399)" fill="#212459"/>
    <path id="path180" d="M1083.316-1310.231l-10.427,108.7h16.194l15.417-90.289,17.525-5.324.777-19.3-39.044-.887-.444,7.1" transform="translate(-979.011 1444.95)" fill="#30336b"/>
    <path id="path182" d="M1440.013-1311.2H1440l-.008-.033.017.033" transform="translate(-1300.309 1439.617)" fill="#6c758d"/>
    <path id="path184" d="M1256.515-1303.238q.316-1.46.589-2.91c.188,0,.376,0,.563,0q1.2,0,2.4-.062h0a50.861,50.861,0,0,0,7.433-.912h0a60.088,60.088,0,0,0,11.087-3.3h0c.3-.113.592-.24.878-.359l-.045-.191h.008l.832,1.667c-3.043,3.123-14.285,5.85-23.744,6.064" transform="translate(-1139.724 1439.384)" fill="#162b62"/>
    <path id="path186" d="M1222.487-1653.594c-.286.12-.579.246-.878.359a60.1,60.1,0,0,1-11.087,3.3,50.878,50.878,0,0,1-7.433.912,42.953,42.953,0,0,1-11.673-.945l4.958-46.227.606-5.637s6.489,7.986,13.642-.832l11.866,49.068" transform="translate(-1082.746 1782.199)" fill="#fff"/>
    <path id="path188" d="M1255.795-1600.31c-.187,0-.375,0-.563,0,3.091-16.425,2.048-31.8-.856-46.762,3.954,11.612,7.386,32.5,3.817,46.7h0q-1.192.06-2.4.062" transform="translate(-1137.851 1733.549)" fill="#bbc4db"/>
    <path id="path190" d="M854.6-1710.662c4.93,20.93,6.958,42.468-.305,66.385-5.386,2.048-11.25,2.025-17.525.221l1.553-43.48-36.548,25.123-2.218-13.7c14.049-13.435,38.34-33.728,55.044-34.552" transform="translate(-739.787 1789.201)" fill="#00cec9"/>
    <path id="path192" d="M1330.566-1579.917c-2.2-12.631-2.688-33.382-.9-42.746l11.986,39.445a60.086,60.086,0,0,1-11.088,3.3h0" transform="translate(-1202.792 1712.182)" fill="#bbc4db"/>
    <path id="path194" d="M1613.32-1640.687a7.348,7.348,0,0,1-1.125-.1l-4-4.552-.04-.047.519-2.729.106-.313.6-1.744.073-.226,8.026,3.048c-.02.08-.033.153-.053.226-1.017,4.166-1.289,6.434-4.106,6.434" transform="translate(-1447.485 1736.455)" fill="#eb9b76"/>
    <path id="path196" d="M1373.05-1697.6s-9.816,20.8-15.64,21.3c-5.645.484-8.319-4.991-8.319-4.991l3.993,30.394a25.482,25.482,0,0,1-15.753,2.216c-5.278-17.137-7.272-39.3-7.665-63.973,4.272.266,12.734.631,15.764,2.579,5.436,3.494,12.146,15.972,12.146,15.972l7.82-10.648,7.653,7.154" transform="translate(-1203.748 1790.952)" fill="#00cec9"/>
    <path id="path198" d="M718.324-1893.429s.594-9.948,1.607-9.479,3.043,9.119,3.043,9.119l-2.171,3.506-2.479-3.146" transform="translate(-668.69 1957.472)" fill="#6f3428"/>
    <path id="path200" d="M805.009-387.106l.294,3.274a10.509,10.509,0,0,1-9.526,11.407l-.842.075a10.509,10.509,0,0,1-11.407-9.525l-.294-3.274,21.774-1.957" transform="translate(-725.5 630.803)" fill="#ee6f57"/>
    <path id="path202" d="M690.853-1657.716,705.1-1499.164l-21.775,1.957-14.245-158.554,21.774-1.955" transform="translate(-625.59 1742.861)" fill="#026fb7"/>
    <path id="path204" d="M717.591-1679.274l-.345-3.842,9.059-.814.345,3.842-1.326.12-.226-2.517-6.407.576.226,2.517-1.326.118" transform="translate(-667.747 1765.804)" fill="#d4c2be"/>
    <path id="path206" d="M732.273-1515.868l-12.26-136.46,1.326-.118,12.141,135.133,6.407-.576-12.141-135.133,1.326-.12,12.2,135.8-.663.06.663-.06.06.664-9.059.814" transform="translate(-670.168 1738.859)" fill="#005186"/>
    <path id="path208" d="M789.574-558.728l-21.769,1.957-.572-6.389-.4-4.439L765.6-581.242l21.776-1.957,1.225,13.643.4,4.439.572,6.389" transform="translate(-710.069 802.427)" fill="#102048"/>
    <path id="path210" d="M797.637-469.427l-21.769,1.957-.4-4.439,21.769-1.957.4,4.439" transform="translate(-718.704 706.737)" fill="#fbc343"/>
    <path id="path212" d="M669.056-1816.53l6.048-24.241a5.2,5.2,0,0,0,4.62-.637l11.108,22.922-21.776,1.957" transform="translate(-625.57 1903.632)" fill="#ee6f57"/>
    <path id="path214" d="M1185.661-1838.137c-.1-.358-1.723-.849-2.081-.947a2.5,2.5,0,0,0-1.7.015c-1.965.888-1.7,3.7-.685,5.181a4.436,4.436,0,0,0,2.4,1.764c.357.1,3.737.143,3.589-.4l-1.53-5.612" transform="translate(-1073.121 1901.722)" fill="#f9b384"/>
    <path id="path216" d="M664.974-1392.164a2.959,2.959,0,0,0-3.781-1.953c-2.477.855-4.635,2.306-4.969,4.775-.3,2.248.82,9.427,5.842,10.35l-.41-3.69s3.075-.717,3.69-2.05c.43-.932.459-4.827-.371-7.432" transform="translate(-614.299 1512.297)" fill="#f9b384"/>
    <path id="path218" d="M1471.227-1575.223c.265,1.571.489,3.146.7,4.724s.4,3.158.6,4.737l.516,4.745c.15,1.585.3,3.169.394,4.762l-.258.03c-.273-1.571-.494-3.148-.714-4.724l-.594-4.737c-.167-1.584-.359-3.163-.506-4.748s-.3-3.17-.4-4.758l.258-.03" transform="translate(-1327.417 1670.662)" fill="#1f3c88"/>
    <path id="path220" d="M1105.549-1577.369c0,1.764-.047,3.527-.1,5.289s-.135,3.524-.2,5.284l-.289,5.281c-.118,1.76-.239,3.519-.41,5.276l-.26-.013c0-1.764.041-3.527.089-5.289l.211-5.284c.1-1.76.177-3.522.3-5.281s.237-3.519.4-5.276l.26.013" transform="translate(-1006.494 1672.552)" fill="#1f3c88"/>
    <path id="path222" d="M1275.228-1838.593a1.046,1.046,0,0,1-.578,1.323c-.459.1-.946-.323-1.087-.95a1.046,1.046,0,0,1,.577-1.323c.459-.1.946.323,1.087.95" transform="translate(-1154.611 1902.013)" fill="#102048"/>
    <path id="path224" d="M1328.367-1846.453c-.028.642-.431,1.146-.9,1.126s-.83-.556-.8-1.2.431-1.146.9-1.126.83.556.8,1.2" transform="translate(-1201.116 1909.098)" fill="#102048"/>
    <path id="path226" d="M1308.9-1833.822a15.2,15.2,0,0,1,.339,1.594,1.248,1.248,0,0,0,.322.554,2.114,2.114,0,0,0,.624.306,1.734,1.734,0,0,1,.789.6,1.031,1.031,0,0,1,.081,1.088,2.044,2.044,0,0,1-.65.657c-.229.155-.448.318-.685.463l-.171-.2c.175-.215.367-.411.55-.616a1.981,1.981,0,0,0,.43-.561c.141-.308-.161-.646-.6-.819a2.323,2.323,0,0,1-.811-.461,1.622,1.622,0,0,1-.427-.88c-.11-.617.016-1.145-.044-1.657l.251-.068" transform="translate(-1185.352 1896.992)" fill="#e28b6d"/>
    <path id="path228" d="M1261.722-1855.8a1.933,1.933,0,0,1,.679-1.036,2.068,2.068,0,0,1,1.206-.453,2.231,2.231,0,0,1,2.1,1.18l-.2.161a2.856,2.856,0,0,0-1.863-.679,2.173,2.173,0,0,0-1.682.937l-.236-.11" transform="translate(-1144.281 1917.535)" fill="#102048"/>
    <path id="path230" d="M1316.769-1861.19a2,2,0,0,1,.522-.84,1.741,1.741,0,0,1,.944-.468,1.655,1.655,0,0,1,1.764.88l-.208.156a2.1,2.1,0,0,0-1.459-.381,1.838,1.838,0,0,0-.7.255,4.493,4.493,0,0,0-.646.531l-.224-.133" transform="translate(-1192.458 1922.109)" fill="#102048"/>
    <path id="path232" d="M1287.266-1782.169c1.162,1.819,2.71,2.017,3.906.1l-3.906-.1" transform="translate(-1166.637 1851.785)" fill="#fff"/>
    <path id="path234" d="M1348.9-1823.218h0a.082.082,0,0,0,0-.02.082.082,0,0,1,0,.02m.24-2.116c.038-.6.057-1.193.06-1.777,0-.146,0-.293,0-.439l.03-.005c0,.654-.035,1.439-.092,2.221" transform="translate(-1220.583 1891.508)" fill="#fecfc9"/>
    <path id="path236" d="M1339.148-1823.183a2,2,0,0,1-1.391-1.91,2.579,2.579,0,0,1,1.692-2.422c0,.146,0,.293,0,.439,0,.584-.022,1.18-.06,1.777-.055.74-.133,1.476-.236,2.1a.082.082,0,0,1,0,.02h0" transform="translate(-1210.827 1891.473)" fill="#faa280"/>
    <path id="path238" d="M1249.48-1811.478a2.145,2.145,0,0,1-2.146-2.145,2.146,2.146,0,0,1,2.146-2.146,2.146,2.146,0,0,1,2.146,2.146,2.145,2.145,0,0,1-2.146,2.145" transform="translate(-1131.688 1881.192)" fill="#faa280"/>
    <path id="path240" d="M1193.626-1824.235a10.865,10.865,0,0,0-1.2-.79,1.061,1.061,0,0,0-.529-.137,1.187,1.187,0,0,0-.553.253l-.219-.141a1.038,1.038,0,0,1,.632-.679,1.231,1.231,0,0,1,.963.111,2.491,2.491,0,0,1,1.113,1.226l-.207.156" transform="translate(-1082.493 1889.957)" fill="#e28b6d"/>
    <path id="path242" d="M702.721-1267.471l-.309-3.552.317,3.529-.008.023" transform="translate(-654.763 1404.422)" fill="#a9857e"/>
    <path id="path244" d="M700.683-1308.408l-.317-3.529-.01-.118.129.025-.41-3.69s.108-.025.288-.075a8.032,8.032,0,0,0,1.348-.459,3.894,3.894,0,0,0,2.054-1.516h0l-3.081,9.362" transform="translate(-652.718 1445.335)" fill="#a76d33"/>
    <path id="path246" d="M700.224-1312.03l-.129-.025-.318-3.664c.111-.025.219-.05.325-.076-.18.05-.288.075-.288.075l.41,3.69m1.226-4.224a5.8,5.8,0,0,0,2.054-1.516,3.9,3.9,0,0,1-2.054,1.516" transform="translate(-652.457 1445.336)" fill="#a6674d"/>
  </g>
</svg>
