<svg xmlns="http://www.w3.org/2000/svg" width="90" height="90" viewBox="0 0 90 90">
  <g id="Group_3384" data-name="Group 3384" transform="translate(-9251 -11486)">
    <path id="Rectangle_557" data-name="Rectangle 557" d="M6,0H90a0,0,0,0,1,0,0V90a0,0,0,0,1,0,0H6a6,6,0,0,1-6-6V6A6,6,0,0,1,6,0Z" transform="translate(9251 11486)" fill="#ccf5f4"/>
    <g id="noun-calendar-5587527" transform="translate(9185.857 11490.856)">
      <path id="Path_1024" data-name="Path 1024" d="M135.759,224.39a2.722,2.722,0,0,0-2.723-2.723h-1.981a2.722,2.722,0,0,0-2.724,2.723v1.981a2.723,2.723,0,0,0,2.724,2.724h1.981a2.722,2.722,0,0,0,2.723-2.724Zm-2.476,0v1.981a.249.249,0,0,1-.247.247h-1.981a.249.249,0,0,1-.247-.247V224.39a.249.249,0,0,1,.247-.247h1.981a.249.249,0,0,1,.247.247Z" transform="translate(-41.712 -187.713)" fill="#368f84" fill-rule="evenodd"/>
      <path id="Path_1025" data-name="Path 1025" d="M135.759,317.726A2.722,2.722,0,0,0,133.036,315h-1.981a2.722,2.722,0,0,0-2.724,2.724v1.981a2.722,2.722,0,0,0,2.724,2.724h1.981a2.722,2.722,0,0,0,2.723-2.724Zm-2.476,0v1.981a.25.25,0,0,1-.247.248h-1.981a.25.25,0,0,1-.247-.248v-1.981a.25.25,0,0,1,.247-.248h1.981a.25.25,0,0,1,.247.248Z" transform="translate(-41.712 -271.144)" fill="#368f84" fill-rule="evenodd"/>
      <path id="Path_1026" data-name="Path 1026" d="M229.1,224.39a2.722,2.722,0,0,0-2.724-2.723h-1.981a2.722,2.722,0,0,0-2.723,2.723v1.981a2.722,2.722,0,0,0,2.723,2.724h1.981a2.723,2.723,0,0,0,2.724-2.724Zm-2.476,0v1.981a.249.249,0,0,1-.247.247h-1.981a.249.249,0,0,1-.247-.247V224.39a.249.249,0,0,1,.247-.247h1.981a.249.249,0,0,1,.247.247Z" transform="translate(-125.147 -187.713)" fill="#368f84" fill-rule="evenodd"/>
      <path id="Path_1027" data-name="Path 1027" d="M229.1,317.726A2.722,2.722,0,0,0,226.375,315h-1.981a2.722,2.722,0,0,0-2.723,2.724v1.981a2.722,2.722,0,0,0,2.723,2.724h1.981a2.722,2.722,0,0,0,2.724-2.724Zm-2.476,0v1.981a.25.25,0,0,1-.247.248h-1.981a.25.25,0,0,1-.247-.248v-1.981a.25.25,0,0,1,.247-.248h1.981a.25.25,0,0,1,.247.248Z" transform="translate(-125.147 -271.144)" fill="#368f84" fill-rule="evenodd"/>
      <path id="Path_1028" data-name="Path 1028" d="M135.759,411.056a2.722,2.722,0,0,0-2.723-2.724h-1.981a2.723,2.723,0,0,0-2.724,2.724v1.981a2.722,2.722,0,0,0,2.724,2.723h1.981a2.722,2.722,0,0,0,2.723-2.723Zm-2.476,0v1.981a.249.249,0,0,1-.247.247h-1.981a.249.249,0,0,1-.247-.247v-1.981a.249.249,0,0,1,.247-.247h1.981a.249.249,0,0,1,.247.247Z" transform="translate(-41.712 -354.57)" fill="#368f84" fill-rule="evenodd"/>
      <path id="Path_1029" data-name="Path 1029" d="M322.429,224.39a2.722,2.722,0,0,0-2.724-2.723h-1.981A2.722,2.722,0,0,0,315,224.39v1.981a2.722,2.722,0,0,0,2.724,2.724h1.981a2.722,2.722,0,0,0,2.724-2.724Zm-2.476,0v1.981a.25.25,0,0,1-.248.247h-1.981a.25.25,0,0,1-.248-.247V224.39a.25.25,0,0,1,.248-.247h1.981a.25.25,0,0,1,.248.247Z" transform="translate(-208.572 -187.713)" fill="#368f84" fill-rule="evenodd"/>
      <path id="Path_1030" data-name="Path 1030" d="M322.429,317.726A2.722,2.722,0,0,0,319.705,315h-1.981A2.722,2.722,0,0,0,315,317.726v1.981a2.722,2.722,0,0,0,2.724,2.724h1.981a2.722,2.722,0,0,0,2.724-2.724Zm-2.476,0v1.981a.251.251,0,0,1-.248.248h-1.981a.251.251,0,0,1-.248-.248v-1.981a.251.251,0,0,1,.248-.248h1.981a.251.251,0,0,1,.248.248Z" transform="translate(-208.572 -271.144)" fill="#368f84" fill-rule="evenodd"/>
      <path id="Path_1031" data-name="Path 1031" d="M229.1,411.056a2.723,2.723,0,0,0-2.724-2.724h-1.981a2.722,2.722,0,0,0-2.723,2.724v1.981a2.722,2.722,0,0,0,2.723,2.723h1.981a2.722,2.722,0,0,0,2.724-2.723Zm-2.476,0v1.981a.249.249,0,0,1-.247.247h-1.981a.249.249,0,0,1-.247-.247v-1.981a.249.249,0,0,1,.247-.247h1.981a.249.249,0,0,1,.247.247Z" transform="translate(-125.147 -354.57)" fill="#368f84" fill-rule="evenodd"/>
      <path id="Path_1032" data-name="Path 1032" d="M415.759,224.39a2.722,2.722,0,0,0-2.723-2.723h-1.981a2.722,2.722,0,0,0-2.724,2.723v1.981a2.723,2.723,0,0,0,2.724,2.724h1.981a2.722,2.722,0,0,0,2.723-2.724Zm-2.476,0v1.981a.249.249,0,0,1-.247.247h-1.981a.249.249,0,0,1-.247-.247V224.39a.249.249,0,0,1,.247-.247h1.981a.249.249,0,0,1,.247.247Z" transform="translate(-291.998 -187.713)" fill="#368f84" fill-rule="evenodd"/>
      <path id="Path_1033" data-name="Path 1033" d="M415.759,317.726A2.722,2.722,0,0,0,413.036,315h-1.981a2.722,2.722,0,0,0-2.724,2.724v1.981a2.722,2.722,0,0,0,2.724,2.724h1.981a2.722,2.722,0,0,0,2.723-2.724Zm-2.476,0v1.981a.25.25,0,0,1-.247.248h-1.981a.25.25,0,0,1-.247-.248v-1.981a.25.25,0,0,1,.247-.248h1.981a.25.25,0,0,1,.247.248Z" transform="translate(-291.998 -271.144)" fill="#368f84" fill-rule="evenodd"/>
      <path id="Path_1034" data-name="Path 1034" d="M322.429,411.056a2.722,2.722,0,0,0-2.724-2.724h-1.981A2.722,2.722,0,0,0,315,411.056v1.981a2.722,2.722,0,0,0,2.724,2.723h1.981a2.722,2.722,0,0,0,2.724-2.723Zm-2.476,0v1.981a.25.25,0,0,1-.248.247h-1.981a.25.25,0,0,1-.248-.247v-1.981a.25.25,0,0,1,.248-.247h1.981a.25.25,0,0,1,.248.247Z" transform="translate(-208.572 -354.57)" fill="#368f84" fill-rule="evenodd"/>
      <path id="Path_1035" data-name="Path 1035" d="M509.1,317.726A2.722,2.722,0,0,0,506.375,315h-1.981a2.722,2.722,0,0,0-2.723,2.724v1.981a2.722,2.722,0,0,0,2.723,2.724h1.981a2.722,2.722,0,0,0,2.724-2.724Zm-2.476,0v1.981a.25.25,0,0,1-.247.248h-1.981a.25.25,0,0,1-.247-.248v-1.981a.25.25,0,0,1,.247-.248h1.981a.25.25,0,0,1,.247.248Z" transform="translate(-375.433 -271.144)" fill="#368f84" fill-rule="evenodd"/>
      <path id="Path_1036" data-name="Path 1036" d="M509.1,224.39a2.722,2.722,0,0,0-2.724-2.723h-1.981a2.722,2.722,0,0,0-2.723,2.723v1.981a2.722,2.722,0,0,0,2.723,2.724h1.981a2.723,2.723,0,0,0,2.724-2.724Zm-2.476,0v1.981a.249.249,0,0,1-.247.247h-1.981a.249.249,0,0,1-.247-.247V224.39a.249.249,0,0,1,.247-.247h1.981a.249.249,0,0,1,.247.247Z" transform="translate(-375.433 -187.713)" fill="#368f84" fill-rule="evenodd"/>
      <path id="Path_1037" data-name="Path 1037" d="M415.759,411.056a2.722,2.722,0,0,0-2.723-2.724h-1.981a2.723,2.723,0,0,0-2.724,2.724v1.981a2.722,2.722,0,0,0,2.724,2.723h1.981a2.722,2.722,0,0,0,2.723-2.723Zm-2.476,0v1.981a.249.249,0,0,1-.247.247h-1.981a.249.249,0,0,1-.247-.247v-1.981a.249.249,0,0,1,.247-.247h1.981a.249.249,0,0,1,.247.247Z" transform="translate(-291.998 -354.57)" fill="#368f84" fill-rule="evenodd"/>
      <path id="Path_1038" data-name="Path 1038" d="M91.571,16.62V14.392A2.722,2.722,0,0,1,94.3,11.668h1.981A2.722,2.722,0,0,1,99,14.392V16.62h22.285V14.392a2.722,2.722,0,0,1,2.724-2.723h1.981a2.722,2.722,0,0,1,2.724,2.723V16.62h3.714a6.188,6.188,0,0,1,6.19,6.191V62.429a6.188,6.188,0,0,1-6.19,6.19H87.857a6.188,6.188,0,0,1-6.19-6.19V22.811a6.188,6.188,0,0,1,6.19-6.191ZM136.142,29V62.429a3.715,3.715,0,0,1-3.714,3.714H87.857a3.715,3.715,0,0,1-3.714-3.714V29ZM91.571,19.1H87.857a3.715,3.715,0,0,0-3.714,3.714v3.714h52V22.811a3.715,3.715,0,0,0-3.714-3.714h-3.714v2.229a2.722,2.722,0,0,1-2.724,2.723h-1.981a2.722,2.722,0,0,1-2.724-2.723V19.1H99v2.229a2.722,2.722,0,0,1-2.724,2.723H94.3a2.722,2.722,0,0,1-2.724-2.723Zm4.952-4.7v6.934a.25.25,0,0,1-.248.247H94.3a.25.25,0,0,1-.248-.247V14.392a.25.25,0,0,1,.248-.247h1.981a.25.25,0,0,1,.248.247Zm29.714,0v6.934a.25.25,0,0,1-.248.247h-1.981a.25.25,0,0,1-.248-.247V14.392a.25.25,0,0,1,.248-.247h1.981a.25.25,0,0,1,.248.247Z" fill="#368f84" fill-rule="evenodd"/>
    </g>
  </g>
</svg>
