<svg xmlns="http://www.w3.org/2000/svg" width="90" height="90" viewBox="0 0 90 90">
  <g id="Group_3375" data-name="Group 3375" transform="translate(-753 -1519)">
    <rect id="Rectangle_557" data-name="Rectangle 557" width="90" height="90" rx="6" transform="translate(753 1519)" fill="#00cec9" opacity="0.1"/>
    <g id="noun-easy-2036017" transform="translate(776.874 1531.683)">
      <path id="Path_1009" data-name="Path 1009" d="M176.531,116.749a1.013,1.013,0,0,0,0,1.434l8.947,8.951a1.014,1.014,0,0,0,1.433-1.434l-8.951-8.951a1.013,1.013,0,0,0-1.429,0Z" transform="translate(-175.392 -102.978)" fill="#368f84"/>
      <path id="Path_1010" data-name="Path 1010" d="M413.056,58.49v-12.5a1.013,1.013,0,1,0-2.026,0v12.5a1.013,1.013,0,1,0,2.026,0Z" transform="translate(-383.001 -39.78)" fill="#368f84"/>
      <path id="Path_1011" data-name="Path 1011" d="M277.6.832a1.015,1.015,0,0,0-1.966.507L278.676,13.5a1.015,1.015,0,0,0,1.966-.507Z" transform="translate(-263.256 -0.071)" fill="#368f84"/>
      <path id="Path_1012" data-name="Path 1012" d="M169.95,195.482c3.182,4.559,3.156,6.616,3.136,8.612-.152,14.508,9.9,18.992,15.876,19.351.456.025.9.041,1.337.041a19.537,19.537,0,0,0,14.691-6.4l3.318-3.657.056-.066,1.646-1.819a4.59,4.59,0,0,0-2.28-7.73,4.123,4.123,0,0,0-3.521-5.192,4.249,4.249,0,0,0,.253-1.418,4.559,4.559,0,0,0-3.668-4.483l5.5-5.517a4.584,4.584,0,1,0-6.585-6.378c-6.023,6.429-13.51,13.744-16.464,14.944-1.722.709-2.138.157-3.47-2.026a16.025,16.025,0,0,0-3.627-4.509,4.184,4.184,0,0,0-5.522-.111,4.529,4.529,0,0,0-.674,6.357Zm36.8,10.263a2.535,2.535,0,0,1,1.809.75,2.578,2.578,0,0,1-.036,3.657l-1.606,1.768a2.331,2.331,0,0,1-2.624-.441l-.091-.1h0a2.346,2.346,0,0,1-.193-3.136l2.533-2.533Zm-1.52-4.529a2.1,2.1,0,0,1,.122,2.847,1,1,0,0,0-.116.127l-2.908,2.908a2.341,2.341,0,0,1-2.422-.507l-.122-.122a2.366,2.366,0,0,1-.142-3.12c.405-.314,2.1-1.656,3-2.432h0a2.112,2.112,0,0,1,2.574.3Zm-3.546-5.831a2.534,2.534,0,0,1,.75,1.809,3.207,3.207,0,0,1-1.064,2.138c-.618.537-1.95,1.606-2.933,2.376a2.43,2.43,0,0,1-2.4-.628l-.066-.066a2.461,2.461,0,0,1,0-3.48l2.381-2.381a2.532,2.532,0,0,1,3.323.228Zm-29.8-4.7a2.153,2.153,0,0,1,2.984.1,14.127,14.127,0,0,1,3.171,3.982,10.769,10.769,0,0,0,1.753,2.406c.019.028.039.055.061.081.086.091,2.026,2.214.051,5.3a1.013,1.013,0,0,0,1.707,1.089,6.586,6.586,0,0,0,.932-5.572,5.751,5.751,0,0,0,1.459-.4c3.987-1.636,13.333-11.337,17.173-15.435a2.532,2.532,0,0,1,1.824-.811,2.56,2.56,0,0,1,1.854,4.372l-10.314,10.293a4.489,4.489,0,0,0,0,6.363l.056.056a4.451,4.451,0,0,0,2.589,1.272,4.407,4.407,0,0,0,1.155,4.139l.041.035.041.041h0a4.37,4.37,0,0,0,3.09,1.266,4.351,4.351,0,0,0,1.257,3.546l.076.086a4.4,4.4,0,0,0,2.133,1.176l-1.52,1.677-.041.046h0a17.772,17.772,0,0,1-14.331,5.628,15.842,15.842,0,0,1-7.315-2.533h.912c2.533-.162,4.848-1.7,6.915-4.559a1.013,1.013,0,0,0-1.646-1.18c-1.687,2.351-3.5,3.607-5.38,3.733a6.643,6.643,0,0,1-4.681-1.96,1.036,1.036,0,0,0-.147-.127,19.116,19.116,0,0,1-2.624-10.684c.03-2.68-.213-5.1-3.5-9.8a2.561,2.561,0,0,1,.269-3.617Z" transform="translate(-168.963 -158.612)" fill="#368f84"/>
      <path id="Path_1013" data-name="Path 1013" d="M313.349,162.936l-2.239.324,1.621,1.581-.385,2.229,2-1.054,2,1.054-.385-2.229,1.621-1.581-2.239-.324-1-2.026Z" transform="translate(-294.651 -142.287)" fill="#368f84"/>
      <path id="Path_1014" data-name="Path 1014" d="M345.882,49.4l.684,1.54.81-1.484,1.677-.172-1.16-1.226.355-1.652-1.525.725-1.464-.846.218,1.677-1.256,1.129Z" transform="translate(-323.928 -40.937)" fill="#368f84"/>
      <path id="Path_1015" data-name="Path 1015" d="M220.11,58.472l-1.221-1.16-.182,1.677-1.484.806,1.54.689.309,1.662,1.13-1.257,1.677.223-.846-1.464.73-1.52Z" transform="translate(-211.635 -50.684)" fill="#368f84"/>
    </g>
  </g>
</svg>
