<svg xmlns="http://www.w3.org/2000/svg" width="90" height="90" viewBox="0 0 90 90">
  <g id="Group_3376" data-name="Group 3376" transform="translate(-753 -1650)">
    <rect id="Rectangle_557" data-name="Rectangle 557" width="90" height="90" rx="6" transform="translate(753 1650)" fill="#00cec9" opacity="0.2"/>
    <path id="Path_1016" data-name="Path 1016" d="M106.5,36.087v-.325a.745.745,0,0,1,1.49,0v.4a3.551,3.551,0,0,1,.943.511.745.745,0,1,1-.916,1.176c-.006,0-.873-.643-1.23-.218-.2.239-.165.379-.149.433h0a1.357,1.357,0,0,0,.872.721,2.756,2.756,0,0,1,1.788,1.74,1.944,1.944,0,0,1-.454,1.769,1.834,1.834,0,0,1-.854.579v.335a.745.745,0,1,1-1.49,0V42.8a3.572,3.572,0,0,1-.943-.505.745.745,0,0,1,.913-1.179c.017.014.876.645,1.233.223.2-.239.165-.379.149-.433h0a1.357,1.357,0,0,0-.872-.721,2.756,2.756,0,0,1-1.788-1.74,1.944,1.944,0,0,1,.454-1.769,1.856,1.856,0,0,1,.854-.591ZM87.879,12.668v4.47h26.074a3.729,3.729,0,0,1,3.725,3.725v2.98a.745.745,0,0,1-.745.745h-2.98v3.725a.745.745,0,0,1-.745.745h-2.816c2.472,3.534,5.051,7.839,5.051,10.429a8.195,8.195,0,0,1-16.389,0c0-2.59,2.579-6.9,5.051-10.429h-2.816a.745.745,0,0,1-.745-.745V24.587H87.879V41.721h2.98a.745.745,0,0,1,.745.745v3.725h1.49a.745.745,0,0,1,0,1.49H70.745a.745.745,0,0,1,0-1.49h1.49V42.466a.745.745,0,0,1,.745-.745h2.98V14.158A14.169,14.169,0,0,1,90.114,0h26.818a.745.745,0,0,1,.745.745v1.49a8.2,8.2,0,0,1-8.195,8.195H90.114a2.235,2.235,0,0,0-2.235,2.235ZM77.45,14.158v2.98h8.939v-4.47a3.729,3.729,0,0,1,3.725-3.725h19.369a6.712,6.712,0,0,0,6.7-6.7V1.494H90.114A12.679,12.679,0,0,0,77.45,14.158ZM90.114,43.211H73.725v2.98H90.114Zm-3.725-1.49V18.628H77.45V41.721Zm22.178-12.664h-2.637c-3.427,4.768-5.386,8.556-5.386,10.429a6.7,6.7,0,0,0,13.409,0c0-1.873-1.959-5.662-5.386-10.429Zm3.9-4.47H102.033v2.98h10.429Zm1.49-5.96H87.879V23.1h28.308V20.862a2.235,2.235,0,0,0-2.235-2.235Z" transform="translate(704.323 1671.319)" fill="#368f84"/>
  </g>
</svg>
