<svg xmlns="http://www.w3.org/2000/svg" width="90" height="90" viewBox="0 0 90 90">
  <g id="Group_3378" data-name="Group 3378" transform="translate(-1226 -1519)">
    <rect id="Rectangle_557" data-name="Rectangle 557" width="90" height="90" rx="6" transform="translate(1226 1519)" fill="#00cec9" opacity="0.2"/>
    <path id="noun-hand-money-1222597" d="M173.618,46.8a5.34,5.34,0,0,0-5.308,5.314v.3a5.21,5.21,0,0,0-1.769-.325,5.334,5.334,0,0,0-5.308,5.308H145.421A5.448,5.448,0,0,0,140,62.818V90.911a5.442,5.442,0,0,0,5.419,5.412h9.44A49.175,49.175,0,0,0,157.8,106.7c1.588,3.829,3.562,7.237,6.538,8.874l1.707-3.1c-1.575-.867-3.532-3.645-4.976-7.126a45.441,45.441,0,0,1-2.55-9.019H175.94a13.112,13.112,0,0,0-.553,3.539h3.539a13.372,13.372,0,0,1,1.825-5.868c1.121-1.9,2.541-2.979,3.483-2.979A1.769,1.769,0,0,0,186,89.246V76.861a3.478,3.478,0,0,1,3.366-3.47c0,1.595-.007,8.864-.007,17.623a32.987,32.987,0,0,1-3.2,12.772c-2.011,4.263-4.884,7.666-7.541,8.556l1.127,3.352c4.289-1.436,7.385-5.67,9.613-10.395a38.954,38.954,0,0,0,2.923-8.978h6a5.437,5.437,0,0,0,5.412-5.412V62.818a5.442,5.442,0,0,0-5.412-5.418H186a5.334,5.334,0,0,0-5.308-5.308,5.2,5.2,0,0,0-1.769.325v-.3a5.341,5.341,0,0,0-5.308-5.314Zm0,3.538a1.748,1.748,0,0,1,1.769,1.776V57.4h-3.538v-5.28A1.748,1.748,0,0,1,173.618,50.343Zm-7.077,5.287A1.743,1.743,0,0,1,168.31,57.4h-3.539A1.743,1.743,0,0,1,166.541,55.63Zm14.154,0a1.743,1.743,0,0,1,1.769,1.769h-3.538A1.743,1.743,0,0,1,180.695,55.63Zm-35.274,5.308h52.864a1.834,1.834,0,0,1,1.873,1.88V90.911a1.829,1.829,0,0,1-1.873,1.873h-5.508c.044-.592.124-1.21.124-1.769,0-9.674.007-19.461.007-19.461a1.769,1.769,0,0,0-1.769-1.769h-1.6a7.1,7.1,0,0,0-7.077,7.077V88.14a9.245,9.245,0,0,0-4.755,4.05c-.257.434-.472.887-.691,1.341v-.746h-31.6a1.835,1.835,0,0,1-1.88-1.873V62.818a1.84,1.84,0,0,1,1.88-1.88Zm26.345,3.621v3.5l-.829-.007v.007a6.584,6.584,0,0,0-4.465,1.451,5.13,5.13,0,0,0-1.783,3.877,5.386,5.386,0,0,0,5.356,5.356c1.977,0,3.457-.092,3.538-.1a1.783,1.783,0,0,1,1.811,1.81,1.41,1.41,0,0,1-.539,1.182,3.184,3.184,0,0,1-2.143.608h-7.975V85.79h3.49v3.539h3.538V85.79h.919a6.782,6.782,0,0,0,4.464-1.451,5.114,5.114,0,0,0,1.783-3.877,5.374,5.374,0,0,0-5.349-5.349h-.1s-1.509.09-3.435.09a1.794,1.794,0,0,1-1.817-1.817,1.428,1.428,0,0,1,.539-1.189,3.118,3.118,0,0,1,2.121-.6h.007l7.955.034.014-3.538-3.56-.014V64.56Z" transform="translate(1098.998 1482.195)" fill="#368f84"/>
  </g>
</svg>
