<svg xmlns="http://www.w3.org/2000/svg" width="90" height="90" viewBox="0 0 90 90">
  <g id="Group_3377" data-name="Group 3377" transform="translate(-756 -1781)">
    <rect id="Rectangle_557" data-name="Rectangle 557" width="90" height="90" rx="6" transform="translate(756 1781)" fill="#00cec9" opacity="0.2"/>
    <g id="noun-shield-money-4949129" transform="translate(650.115 1760.003)">
      <path id="Path_1017" data-name="Path 1017" d="M178.565,45.141l-3.546-7.093A4.269,4.269,0,0,0,169.13,36.3a15.942,15.942,0,0,1-16.465-.67,4.205,4.205,0,0,0-4.445,0,15.939,15.939,0,0,1-16.465.67,4.269,4.269,0,0,0-5.889,1.745l-3.545,7.093a4.2,4.2,0,0,0,.712,4.748c3.849,4.074,2.408,9.464.884,15.17-2.526,9.453-5.39,20.169,15.57,26.475a25.281,25.281,0,0,1,8.365,3.916,4.235,4.235,0,0,0,5.183,0,25.3,25.3,0,0,1,8.365-3.916c20.959-6.306,18.1-17.021,15.57-26.475-5.1-16.375,3.986-13.346,1.6-19.919Zm-17.8,44.294a27.786,27.786,0,0,0-9.088,4.293,2.021,2.021,0,0,1-2.476,0,27.773,27.773,0,0,0-9.087-4.293c-31.689-9.6-3.793-27.282-15.492-41.05h0a2,2,0,0,1-.346-2.264l3.546-7.094a2.071,2.071,0,0,1,2.876-.8,18.327,18.327,0,0,0,18.668-.727,2.012,2.012,0,0,1,2.145,0,18.329,18.329,0,0,0,18.668.727,2.069,2.069,0,0,1,2.876.8L176.6,46.12h0a2.005,2.005,0,0,1-.346,2.265c-11.7,13.757,16.193,31.458-15.492,41.049Z" transform="translate(0)" fill="#368f84"/>
      <path id="Path_1018" data-name="Path 1018" d="M366.136,86.9a1.1,1.1,0,0,0,.142-1.2l-2.573-5.148a1.1,1.1,0,0,0-1.96.98L364,86.05c-4.994,6.481-2.983,14.009-1.358,20.094,2.494,9.331,3.745,14.015-11.113,18.484a33.907,33.907,0,0,0-9.693,4.419,1.1,1.1,0,0,0,1.26,1.793,31.733,31.733,0,0,1,9.064-4.113c16.892-5.081,15.092-11.821,12.6-21.149-1.622-6.07-3.46-12.95,1.373-18.682Z" transform="translate(-192.028 -39.339)" fill="#368f84"/>
      <path id="Path_1019" data-name="Path 1019" d="M178.888,119.592c-15.162-5.464-20.723-6.1-16.241-20.363,1.625-6.082,3.637-13.611-1.358-20.094l1.786-3.574c6.077,2.974,14.961,1.793,19.749-1.15A23.615,23.615,0,0,0,194,77.34a21.485,21.485,0,0,0,4.629-.506,1.1,1.1,0,1,0-.474-2.139c-4.807,1.362-11.826-.509-14.785-2.487h0a1.094,1.094,0,0,0-1.091,0c-4.682,3.029-13.264,4.189-19.234.933a1.1,1.1,0,0,0-1.456.5l-2.573,5.147h0a1.1,1.1,0,0,0,.142,1.2c4.833,5.734,3,12.613,1.373,18.684-4.324,14.305-.178,17.061,17.466,22.928a1.1,1.1,0,0,0,.891-2Z" transform="translate(-32.381 -32.424)" fill="#368f84"/>
      <path id="Path_1020" data-name="Path 1020" d="M258.093,197.265c13.013-3.707,13.166-22.3.169-26.236-8.534-2.761-17.876,4.1-17.658,13.1-.222,8.959,9.068,15.794,17.489,13.135ZM250.9,173.147c7.1-2.389,15.114,3.378,14.9,10.983h0A11.51,11.51,0,0,1,250.9,195.1c-10.751-3.274-10.737-18.678,0-21.949Z" transform="translate(-103.853 -118.461)" fill="#368f84"/>
      <path id="Path_1021" data-name="Path 1021" d="M325.489,230.01v-.883a3.023,3.023,0,0,0,2.577-2.982v-1.288a3.032,3.032,0,0,0-3.028-3.029c-.724-.043-2.1.283-2.126-.838.044-.719-.283-2.1.837-2.124h3.221a1.1,1.1,0,0,0,0-2.191h-1.482v-.838a1.1,1.1,0,0,0-2.191,0v.883a3.024,3.024,0,0,0-2.576,2.982v1.288a3.031,3.031,0,0,0,3.028,3.029c.724.043,2.1-.283,2.126.838-.044.719.283,2.1-.837,2.124h-3.221a1.1,1.1,0,0,0,0,2.191H323.3v.838a1.1,1.1,0,0,0,2.191,0Z" transform="translate(-173.944 -157.262)" fill="#368f84"/>
    </g>
  </g>
</svg>
