<svg xmlns="http://www.w3.org/2000/svg" width="90" height="90" viewBox="0 0 90 90">
  <g id="Group_3383" data-name="Group 3383" transform="translate(-8701 -11782)">
    <path id="Rectangle_557" data-name="Rectangle 557" d="M6,0H90a0,0,0,0,1,0,0V90a0,0,0,0,1,0,0H6a6,6,0,0,1-6-6V6A6,6,0,0,1,6,0Z" transform="translate(8701 11782)" fill="#ccf5f4"/>
    <g id="Group_3381" data-name="Group 3381" transform="translate(1.516 -31.094)">
      <path id="Path_1017" data-name="Path 1017" d="M171.787,43.928l-3.122-6.245a3.759,3.759,0,0,0-5.185-1.536,14.035,14.035,0,0,1-14.5-.59,3.7,3.7,0,0,0-3.913,0,14.033,14.033,0,0,1-14.5.59,3.758,3.758,0,0,0-5.185,1.536l-3.121,6.245a3.7,3.7,0,0,0,.627,4.181c3.389,3.586,2.12,8.332.778,13.356-2.224,8.323-4.745,17.757,13.708,23.309a22.257,22.257,0,0,1,7.364,3.448,3.728,3.728,0,0,0,4.563,0,22.272,22.272,0,0,1,7.365-3.448c18.453-5.552,15.932-14.985,13.708-23.309-4.493-14.417,3.509-11.75,1.405-17.537Zm-15.669,39a24.463,24.463,0,0,0-8,3.779,1.779,1.779,0,0,1-2.18,0,24.453,24.453,0,0,0-8-3.779c-27.9-8.452-3.339-24.02-13.64-36.141h0a1.765,1.765,0,0,1-.3-1.993l3.122-6.245a1.823,1.823,0,0,1,2.532-.707,16.135,16.135,0,0,0,16.436-.64,1.772,1.772,0,0,1,1.888,0,16.137,16.137,0,0,0,16.436.64,1.821,1.821,0,0,1,2.532.707l3.122,6.245h0a1.765,1.765,0,0,1-.3,1.994c-10.3,12.112,14.257,27.7-13.64,36.141Z" transform="translate(8597.542 11796.002)" fill="#368f84"/>
      <path id="Path_1018" data-name="Path 1018" d="M363.177,86.067a.964.964,0,0,0,.125-1.053l-2.265-4.532a.965.965,0,0,0-1.725.863l1.988,3.978c-4.4,5.706-2.626,12.334-1.2,17.691,2.2,8.216,3.3,12.339-9.784,16.274a29.852,29.852,0,0,0-8.534,3.89.965.965,0,0,0,1.11,1.579,27.938,27.938,0,0,1,7.98-3.621c14.872-4.474,13.287-10.407,11.092-18.62-1.428-5.344-3.046-11.4,1.209-16.448Z" transform="translate(8402.229 11755.99)" fill="#368f84"/>
      <path id="Path_1019" data-name="Path 1019" d="M176.5,113.908c-13.349-4.811-18.245-5.369-14.3-17.928,1.431-5.355,3.2-11.983-1.2-17.691l1.572-3.146c5.35,2.618,13.172,1.578,17.387-1.013a20.791,20.791,0,0,0,9.839,2.579,18.916,18.916,0,0,0,4.076-.446.965.965,0,1,0-.417-1.884c-4.232,1.2-10.412-.448-13.017-2.19h0a.964.964,0,0,0-.961,0c-4.122,2.667-11.678,3.688-16.934.821a.965.965,0,0,0-1.282.437L159,77.98h0a.964.964,0,0,0,.125,1.053c4.255,5.048,2.637,11.1,1.209,16.45-3.807,12.595-.156,15.021,15.378,20.187a.964.964,0,0,0,.785-1.761Z" transform="translate(8564.606 11763.023)" fill="#368f84"/>
      <path id="Path_1020" data-name="Path 1020" d="M256,194.054c11.457-3.263,11.592-19.637.149-23.1-7.514-2.431-15.738,3.611-15.546,11.534-.2,7.888,7.984,13.905,15.4,11.564Zm-6.333-21.234c6.248-2.1,13.307,2.974,13.116,9.67h0a10.134,10.134,0,0,1-13.116,9.655c-9.465-2.882-9.453-16.445,0-19.325Z" transform="translate(8491.911 11675.514)" fill="#368f84"/>
      <path id="Path_1021" data-name="Path 1021" d="M324.919,228.187v-.778a2.662,2.662,0,0,0,2.269-2.625V223.65a2.669,2.669,0,0,0-2.666-2.666c-.637-.038-1.846.249-1.872-.738.038-.633-.249-1.846.737-1.87h2.836a.965.965,0,0,0,0-1.929h-1.3v-.738a.965.965,0,0,0-1.929,0v.778a2.662,2.662,0,0,0-2.268,2.625v1.134a2.669,2.669,0,0,0,2.665,2.666c.637.038,1.846-.249,1.872.738-.038.633.249,1.846-.737,1.87h-2.836a.965.965,0,0,0,0,1.929h1.3v.738a.965.965,0,0,0,1.929,0Z" transform="translate(8420.621 11636.049)" fill="#368f84"/>
    </g>
  </g>
</svg>
