<svg xmlns="http://www.w3.org/2000/svg" width="90" height="90" viewBox="0 0 90 90">
  <g id="Group_3382" data-name="Group 3382" transform="translate(-8702 -11487)">
    <path id="Rectangle_557" data-name="Rectangle 557" d="M6,0H90a0,0,0,0,1,0,0V90a0,0,0,0,1,0,0H6a6,6,0,0,1-6-6V6A6,6,0,0,1,6,0Z" transform="translate(8702 11487)" fill="#ccf5f4"/>
    <path id="Path_1023" data-name="Path 1023" d="M117.349,31.4a.5.5,0,0,0,0-.077.454.454,0,0,0,0-.073v-.033L108.573,2.331V2.313a.635.635,0,0,0-.091-.186V2.108a.606.606,0,0,0-.135-.139.694.694,0,0,0-.179-.091.058.058,0,0,0-.037,0,.657.657,0,0,0-.289-.066.679.679,0,0,0-.121,0L99.53,3.329A5.851,5.851,0,0,0,88.1,5.425L79.919,6.931l-.077.022h-.037a.761.761,0,0,0-.179.1L79.6,7.07h0a.735.735,0,0,0-.139.139.874.874,0,0,0-.091.186v.022L70.594,36.3v.033a.392.392,0,0,0,0,.073.507.507,0,0,0,0,.077v.029h0a9.507,9.507,0,1,0,19.015,0v-.029h0a.607.607,0,0,0,0-.077.455.455,0,0,0,0-.073V36.3L80.987,8.232l7.387-1.368a5.851,5.851,0,0,0,5.573,4.088,5.756,5.756,0,0,0,1.053-.1A5.851,5.851,0,0,0,99.8,4.78l7.01-1.3L98.4,31.218v.033a.454.454,0,0,0,0,.073.6.6,0,0,0,0,.077v.029a9.507,9.507,0,1,0,19.015,0s-.062-.022-.062-.029Zm-1.719-.7H100.052l7.789-25.641ZM80.05,10.178l7.789,25.641H72.261Zm0,34.417a8.045,8.045,0,0,1-8.012-7.313H88.062A8.045,8.045,0,0,1,80.05,44.6ZM94.732,9.421a4.389,4.389,0,0,1-2.278-.19,4.455,4.455,0,0,1-1.006-.519,4.386,4.386,0,0,1-1.422-1.627,4.47,4.47,0,0,1-.4-1.2,4.358,4.358,0,0,1,.2-2.311,4.432,4.432,0,0,1,1.1-1.653A4.341,4.341,0,0,1,93.16.788a4.153,4.153,0,0,1,.786-.073A4.371,4.371,0,0,1,95.2.9a4.481,4.481,0,0,1,1.236.6,4.388,4.388,0,0,1,1.58,5.255A4.445,4.445,0,0,1,96.9,8.35a4.387,4.387,0,0,1-2.165,1.071Zm13.109,30.054a8.045,8.045,0,0,1-8.012-7.313h16.024a8.045,8.045,0,0,1-8.012,7.313Z" transform="translate(8653.4 11509.816)" fill="#368f84"/>
  </g>
</svg>
