<svg xmlns="http://www.w3.org/2000/svg" width="90" height="90" viewBox="0 0 90 90">
  <g id="Group_3379" data-name="Group 3379" transform="translate(-1234 -1650)">
    <rect id="Rectangle_557" data-name="Rectangle 557" width="90" height="90" rx="6" transform="translate(1234 1650)" fill="#00cec9" opacity="0.2"/>
    <path id="noun-search-3364601" d="M124.2,17.535a21.22,21.22,0,0,0-14.223,36.973l-3.63,3.632-1.528-1.528,1.713-1.713a.965.965,0,1,0-1.364-1.365l-1.713,1.713-.765-.765a.975.975,0,0,0-1.368,0L89.011,66.8a5.057,5.057,0,0,0,7.152,7.152l12.316-12.316a.965.965,0,0,0,0-1.361l-.767-.767,3.762-3.76A21.225,21.225,0,1,0,124.2,17.536Zm0,1.923a19.3,19.3,0,1,1-19.3,19.3A19.287,19.287,0,0,1,124.2,19.458Zm0,3.862a15.44,15.44,0,0,0-9.246,3.076.965.965,0,1,0,1.153,1.547,13.512,13.512,0,1,1-2.707,2.7.965.965,0,1,0-1.545-1.154A15.434,15.434,0,1,0,124.2,23.319Zm-.006,3.854a.927.927,0,0,0-.965.965v2.047a4.822,4.822,0,0,0,.969,9.546,2.9,2.9,0,1,1-2.891,2.9.965.965,0,0,0-1.93,0,4.84,4.84,0,0,0,3.852,4.725v2.028a.965.965,0,1,0,1.93,0V47.356a4.826,4.826,0,0,0-.961-9.555,2.892,2.892,0,1,1,2.893-2.893.965.965,0,1,0,1.93,0,4.84,4.84,0,0,0-3.862-4.725V28.139a.927.927,0,0,0-.965-.965ZM102,56.527l4.431,4.423L94.793,72.59a3.13,3.13,0,0,1-4.423-4.431Z" transform="translate(1162.839 1648.837)" fill="#368f84"/>
  </g>
</svg>
