<svg xmlns="http://www.w3.org/2000/svg" width="90" height="90" viewBox="0 0 90 90">
  <g id="Group_3386" data-name="Group 3386" transform="translate(-9806 -11479)">
    <path id="Rectangle_557" data-name="Rectangle 557" d="M6,0H90a0,0,0,0,1,0,0V90a0,0,0,0,1,0,0H6a6,6,0,0,1-6-6V6A6,6,0,0,1,6,0Z" transform="translate(9806 11479)" fill="#ccf5f4"/>
    <g id="Group_3380" data-name="Group 3380" transform="translate(-3.207 -37.5)">
      <path id="Path_1039" data-name="Path 1039" d="M206.227,156.325a.96.96,0,0,0,0-.7c-.087-.087-.087-.175-.175-.262l-2.185-2.185a.865.865,0,1,0-1.223,1.223l.7.7h-58.29V103.89l.7.7a.846.846,0,0,0,1.224,0,.845.845,0,0,0,0-1.223l-2.1-2.185c-.087-.087-.175-.175-.262-.175a.96.96,0,0,0-.7,0c-.087.087-.175.087-.262.175l-2.272,2.185a.865.865,0,1,0,1.223,1.223l.7-.7v52.085a.826.826,0,0,0,.874.874h59.076l-.7.7a.845.845,0,0,0,0,1.223.846.846,0,0,0,1.224,0l2.185-2.185.262-.262Z" transform="translate(9680.5 11431.514)" fill="#368f84"/>
      <path id="Path_1040" data-name="Path 1040" d="M427.1,257a.891.891,0,0,0-.943.943v31.394a.891.891,0,0,0,.943.943h5.657a.891.891,0,0,0,.943-.943V257.943a.891.891,0,0,0-.943-.943Zm4.714,31.394h-3.771V258.885h3.771Z" transform="translate(9438.315 11291.312)" fill="#368f84"/>
      <path id="Path_1041" data-name="Path 1041" d="M234.458,294.666h5.657a.891.891,0,0,0,.943-.943V281.94a.891.891,0,0,0-.943-.943h-5.657a.891.891,0,0,0-.943.943v11.783A.945.945,0,0,0,234.458,294.666Zm.942-11.783h3.771v9.9H235.4Z" transform="translate(9598.528 11286.925)" fill="#368f84"/>
      <path id="Path_1042" data-name="Path 1042" d="M298.861,290.28a.891.891,0,0,0-.943.943v18.006a.891.891,0,0,0,.943.943h5.657a.891.891,0,0,0,.943-.943V291.223a.891.891,0,0,0-.943-.943Zm4.714,18.006H299.8V292.165h3.771Z" transform="translate(9544.967 11271.419)" fill="#368f84"/>
      <path id="Path_1043" data-name="Path 1043" d="M363.261,266a.891.891,0,0,0-.943.943v24.04a.891.891,0,0,0,.943.943h5.657a.891.891,0,0,0,.943-.943v-24.04a.891.891,0,0,0-.943-.943Zm4.714,24.04H364.2V267.885h3.771Z" transform="translate(9491.408 11289.666)" fill="#368f84"/>
      <path id="Path_1044" data-name="Path 1044" d="M.943,6.127H39.783l-2.64,2.64a.912.912,0,0,0,0,1.32.912.912,0,0,0,1.32,0l4.242-4.242A.092.092,0,0,1,42.8,5.75c.094-.094.094-.189.189-.189a.347.347,0,0,1,.094-.283V5.184a.567.567,0,0,0-.094-.377c-.094-.094-.094-.189-.189-.283L38.558.283a.912.912,0,0,0-1.32,0,.912.912,0,0,0,0,1.32l2.64,2.64H.943A.891.891,0,0,0,0,5.184a.945.945,0,0,0,.943.942Z" transform="translate(9831.616 11547.893) rotate(-21)" fill="#368f84"/>
    </g>
  </g>
</svg>
